<svg width="211" height="52" viewBox="0 0 211 52" fill="none" xmlns="http://www.w3.org/2000/svg">
<path d="M204.748 36.728V31.544C204.748 30.776 204.62 30.2853 204.364 30.072C204.108 29.816 203.596 29.688 202.828 29.688H199.564C195.596 29.688 193.612 27.8107 193.612 24.056V17.464C193.612 13.6667 195.596 11.768 199.564 11.768H204.236C208.247 11.768 210.252 13.6667 210.252 17.464V20.472H204.62V18.04C204.62 17.272 204.492 16.7813 204.236 16.568C203.98 16.312 203.468 16.184 202.7 16.184H201.164C200.396 16.184 199.884 16.312 199.628 16.568C199.372 16.7813 199.244 17.272 199.244 18.04V23.416C199.244 24.184 199.372 24.696 199.628 24.952C199.884 25.1653 200.396 25.272 201.164 25.272H204.492C208.417 25.272 210.38 27.1707 210.38 30.968V37.368C210.38 41.1227 208.396 43 204.428 43H199.692C195.724 43 193.74 41.1227 193.74 37.368V34.296H199.372V36.728C199.372 37.496 199.5 38.008 199.756 38.264C200.012 38.4773 200.524 38.584 201.292 38.584H202.828C203.596 38.584 204.108 38.4773 204.364 38.264C204.62 38.008 204.748 37.496 204.748 36.728Z" fill="black"/>
<path d="M183.748 36.728V31.544C183.748 30.776 183.62 30.2853 183.364 30.072C183.108 29.816 182.596 29.688 181.828 29.688H178.564C174.596 29.688 172.612 27.8107 172.612 24.056V17.464C172.612 13.6667 174.596 11.768 178.564 11.768H183.236C187.247 11.768 189.252 13.6667 189.252 17.464V20.472H183.62V18.04C183.62 17.272 183.492 16.7813 183.236 16.568C182.98 16.312 182.468 16.184 181.7 16.184H180.164C179.396 16.184 178.884 16.312 178.628 16.568C178.372 16.7813 178.244 17.272 178.244 18.04V23.416C178.244 24.184 178.372 24.696 178.628 24.952C178.884 25.1653 179.396 25.272 180.164 25.272H183.492C187.417 25.272 189.38 27.1707 189.38 30.968V37.368C189.38 41.1227 187.396 43 183.428 43H178.692C174.724 43 172.74 41.1227 172.74 37.368V34.296H178.372V36.728C178.372 37.496 178.5 38.008 178.756 38.264C179.012 38.4773 179.524 38.584 180.292 38.584H181.828C182.596 38.584 183.108 38.4773 183.364 38.264C183.62 38.008 183.748 37.496 183.748 36.728Z" fill="black"/>
<path d="M168.542 21.624H162.846V18.296C162.846 17.528 162.718 17.0373 162.462 16.824C162.206 16.568 161.694 16.44 160.926 16.44H158.174C157.406 16.44 156.895 16.568 156.639 16.824C156.383 17.0373 156.255 17.528 156.255 18.296V36.472C156.255 37.24 156.383 37.752 156.639 38.008C156.895 38.2213 157.406 38.328 158.174 38.328H160.926C161.694 38.328 162.206 38.2213 162.462 38.008C162.718 37.752 162.846 37.24 162.846 36.472V33.144H168.542V37.368C168.542 41.1227 166.537 43 162.527 43H156.447C152.479 43 150.495 41.1227 150.495 37.368V17.464C150.495 13.6667 152.479 11.768 156.447 11.768H162.527C166.537 11.768 168.542 13.6667 168.542 17.464V21.624Z" fill="black"/>
<path d="M139.548 43V35.128H146.012V43H139.548Z" fill="black"/>
<path d="M128.902 11.768H134.662V46.2C134.662 49.9547 132.656 51.832 128.646 51.832H117.958V47.288H126.982C127.75 47.288 128.262 47.16 128.518 46.904C128.774 46.648 128.902 46.1573 128.902 45.432V40.12C128.347 41.784 127.024 42.616 124.934 42.616H122.63C118.79 42.616 116.87 40.7173 116.87 36.92V17.464C116.87 13.6667 118.79 11.768 122.63 11.768H124.934C127.024 11.768 128.347 12.6 128.902 14.264V11.768ZM124.55 37.944H126.79C127.558 37.944 128.091 37.7733 128.39 37.432C128.731 37.0907 128.902 36.5147 128.902 35.704V18.68C128.902 17.8693 128.731 17.2933 128.39 16.952C128.091 16.6107 127.558 16.44 126.79 16.44H124.55C123.782 16.44 123.27 16.568 123.014 16.824C122.758 17.0373 122.63 17.528 122.63 18.296V36.088C122.63 36.8133 122.758 37.304 123.014 37.56C123.27 37.816 123.782 37.944 124.55 37.944Z" fill="black"/>
<path d="M103.607 11.768H105.847C109.729 11.768 111.671 13.6667 111.671 17.464V43H105.911V18.296C105.911 17.528 105.783 17.0373 105.527 16.824C105.271 16.568 104.759 16.44 103.991 16.44H101.751C100.983 16.44 100.428 16.6107 100.087 16.952C99.7878 17.2933 99.6385 17.8693 99.6385 18.68V43H93.8785V11.768H99.6385V14.264C100.193 12.6 101.516 11.768 103.607 11.768Z" fill="black"/>
<path d="M82.3755 5.81599V0.119995H88.3915V5.81599H82.3755ZM88.2635 43H82.5035V11.768H88.2635V43Z" fill="black"/>
<path d="M76.8885 43H71.1285V0.18399H76.8885V43Z" fill="black"/>
<path d="M66.6945 11.704H67.9745V16.696H65.6705C62.9825 16.696 61.6385 18.2747 61.6385 21.432V43H55.8785V11.768H61.6385V15.608C61.9798 14.4987 62.5772 13.5813 63.4305 12.856C64.3265 12.088 65.4145 11.704 66.6945 11.704Z" fill="black"/>
<path d="M38.64 11.768H44.912C48.9227 11.768 50.928 13.6667 50.928 17.464V29.176H38.32V36.6C38.32 37.3253 38.448 37.816 38.704 38.072C38.96 38.328 39.472 38.456 40.24 38.456H43.184C43.952 38.456 44.464 38.328 44.72 38.072C44.976 37.816 45.104 37.304 45.104 36.536V33.976H50.736V37.368C50.736 41.1227 48.752 43 44.784 43H38.64C34.672 43 32.688 41.1227 32.688 37.368V17.464C32.688 13.6667 34.672 11.768 38.64 11.768ZM38.32 24.952H45.232V18.168C45.232 17.4427 45.104 16.952 44.848 16.696C44.6347 16.44 44.144 16.312 43.376 16.312H40.24C39.472 16.312 38.96 16.44 38.704 16.696C38.448 16.952 38.32 17.4427 38.32 18.168V24.952Z" fill="black"/>
<path d="M5.384 43H0.328003V2.936H6.664L13.512 27.768L20.36 2.936H26.696V43H21.64V13.688L16.136 34.296H10.888L5.384 13.752V43Z" fill="black"/>
</svg>
