<?xml version="1.0" standalone="no"?>
<!DOCTYPE svg PUBLIC "-//W3C//DTD SVG 1.1//EN" "http://www.w3.org/Graphics/SVG/1.1/DTD/svg11.dtd" >
<svg xmlns="http://www.w3.org/2000/svg" xmlns:xlink="http://www.w3.org/1999/xlink" version="1.1">
<metadata></metadata>
<defs>
<font id="pistilliregular" horiz-adv-x="621" >
<font-face units-per-em="1000" ascent="800" descent="-200" />
<missing-glyph horiz-adv-x="177" />
<glyph unicode="fy" horiz-adv-x="972" d="M404 -167q8 -12 29 -22.5t50 -10.5q32 0 57.5 6.5t45 22t32.5 30.5t25.5 42t19 46t17.5 53h-74l-200 435q-3 6 -9 20t-8 17.5t-7.5 13.5t-9 12.5t-10 8.5t-13.5 7.5t-17 3t-22 1.5h-13v-415q0 -61 15 -79.5t69 -18.5v-6h-371v6q54 0 69.5 18.5t15.5 79.5v415h-59v7h59v17 q0 43 5.5 73.5t23 64t56.5 57t99 36.5q54 9 84 9q69 0 117.5 -29.5t48.5 -88.5q0 -44 -31 -71.5t-69 -27.5q-34 0 -66.5 22.5t-32.5 73.5q0 39 27 64.5t64 25.5q17 0 49 -7q-10 13 -39.5 22t-51.5 9q-50 0 -66 -38t-16 -118v-94h363v-7q-37 -3 -44 -13q-4 -5 -4 -14 q0 -18 27 -80l101 -233l33 98q36 108 36 156q0 31 -12 56q-5 11 -14.5 17.5t-15.5 8t-22 4.5v7h217v-7h-2q-58 0 -95 -49t-68 -142l-113 -338q-10 -30 -14 -41.5t-15 -38.5t-19.5 -39t-24.5 -31t-33 -27t-41.5 -15t-53.5 -7q-61 0 -100 33.5t-39 90.5q0 37 27 67t71 30 q33 0 64 -22.5t31 -73.5q0 -28 -10.5 -47.5t-26.5 -28t-29.5 -12t-25.5 -3.5q-20 0 -41 8z" />
<glyph unicode="ft" horiz-adv-x="741" d="M422 142v377h-126v-413q0 -60 14.5 -80t70.5 -20v-6h-371v6q56 0 70 19.5t14 78.5v415h-59v7h59v17q0 34 3 59t13.5 54.5t30 50t54.5 39t84 28.5q48 8 82 8q70 0 118.5 -29.5t48.5 -89.5q0 -41 -30.5 -69t-70.5 -28q-36 0 -67 24t-31 72q0 39 27 64.5t64 25.5q18 0 50 -7 q-11 13 -39.5 22t-51.5 9q-25 0 -37 -7q-46 -28 -46 -126v-117h116q46 0 90.5 25t70.5 65q39 60 44 101h6v-191h92v-7h-92v-394q0 -69 7 -83q5 -8 17 -8q27 0 43 50q14 45 14 110h6q0 -116 -36.5 -158t-109.5 -42q-101 0 -128 58q-14 29 -14 90z" />
<glyph unicode="&#xfb00;" horiz-adv-x="762" d="M398 656q0 66 -4.5 88.5t-23.5 34.5q-10 7 -22 7q-18 0 -29 -9t-15.5 -29.5t-6 -40.5t-1.5 -55v-126h102v130zM600 647v-121h109v-7h-109v-415q0 -59 14 -78.5t70 -19.5v-6h-674v6q56 0 70 19.5t14 78.5v415h-59v7h59q0 82 19.5 138t83.5 94q60 34 131 34q90 0 156 -53 q72 44 182 44q69 0 117.5 -29.5t48.5 -88.5q0 -44 -31 -71.5t-69 -27.5q-34 0 -66.5 22.5t-32.5 73.5q0 39 27 64.5t64 25.5q18 0 49 -7q-10 13 -39.5 22t-51.5 9q-82 0 -82 -129zM296 104q0 -27 1 -40.5t5.5 -29t14.5 -22t27 -6.5q36 0 45 21t9 77v415h-102v-415z" />
<glyph unicode="&#xfb01;" horiz-adv-x="711" d="M414 104v320q0 59 -15.5 77t-69.5 18h-33v-415q0 -34 2.5 -51t16 -31t40.5 -14q39 0 49 22.5t10 73.5zM701 6v-6h-691v6q56 0 70 19.5t14 78.5v415h-59v7h59v18q0 77 16 117t80 83q87 58 214 58q95 0 153 -36.5t58 -96.5q0 -35 -24 -68t-78 -33q-44 0 -74.5 28t-30.5 66 q0 32 22 60.5t73 28.5q21 0 45 -6q-16 24 -47.5 37t-66.5 13q-31 0 -54 -10q-28 -12 -46 -30.5t-25.5 -43t-10 -44t-2.5 -48.5v-93h320v-422q0 -59 14.5 -78.5t70.5 -19.5z" />
<glyph unicode="&#xfb02;" horiz-adv-x="710" d="M319 790q52 0 120.5 -10.5t88.5 -10.5q15 0 87 5v-668v-21q0 -43 15 -61t70 -18v-6h-690v6q56 0 70.5 19.5t14.5 78.5v415h-59v7h59v34q0 131 52 175q66 55 172 55zM414 83v576v35q0 59 -30 81q-10 7 -26 7q-20 0 -33.5 -10.5t-19 -30.5t-7 -37t-1.5 -41v-32v-105h45v-7 h-45v-434q0 -50 10 -63.5t52 -13.5q36 0 45.5 15t9.5 60z" />
<glyph unicode="&#xfb03;" horiz-adv-x="1014" d="M717 104v320q0 61 -15 78t-70 17h-32v-415q0 -22 0.5 -34t3.5 -26t9 -20.5t17.5 -11t27.5 -4.5q37 0 48 21t11 75zM296 675v-149h102v151q0 53 -4.5 71.5t-22.5 30.5q-11 7 -22 7q-18 0 -29.5 -9t-16 -27.5t-6 -34t-1.5 -40.5zM600 623v-97h319v-422q0 -59 14.5 -78.5 t70.5 -19.5v-6h-994v6q56 0 70.5 19.5t14.5 78.5v415h-59v7h59q0 82 19.5 138t83.5 94q59 34 131 34q90 0 155 -53q94 63 224 63q95 0 152.5 -36.5t57.5 -96.5q0 -35 -24 -68t-78 -33q-44 0 -74.5 28t-30.5 66q0 32 22 60.5t73 28.5q21 0 45 -6q-16 24 -47.5 37t-66.5 13 q-31 0 -54 -10q-27 -11 -45 -29t-25.5 -42t-10 -43.5t-2.5 -47.5zM398 104v415h-102v-416q0 -25 1 -38.5t5.5 -29t15 -22t28.5 -6.5q35 0 43.5 20.5t8.5 76.5z" />
<glyph horiz-adv-x="0" />
<glyph horiz-adv-x="333" />
<glyph unicode=" "  horiz-adv-x="177" />
<glyph unicode="&#x09;" horiz-adv-x="177" />
<glyph unicode="&#xa0;" horiz-adv-x="177" />
<glyph unicode="!" horiz-adv-x="330" d="M161 256q0 55 -6.5 92.5t-31.5 83.5l-19 35q-64 117 -64 183q0 59 32.5 99.5t91.5 40.5t91.5 -40.5t32.5 -99.5q0 -62 -66 -183l-19 -35q-17 -32 -25.5 -64t-9.5 -52.5t-1 -59.5h-6zM49 112q0 48 33.5 81t81.5 33t82 -33.5t34 -80.5q0 -48 -34 -81.5t-82 -33.5 t-81.5 33.5t-33.5 81.5z" />
<glyph unicode="&#x22;" horiz-adv-x="249" d="M170 780q36 0 36 -47q0 -21 -15 -63q-18 -54 -18 -88h-6q0 37 -17 88q-15 42 -15 63q0 47 35 47zM75 780q36 0 36 -47q0 -21 -15 -63q-18 -54 -18 -88h-6q0 37 -17 88q-15 42 -15 63q0 47 35 47z" />
<glyph unicode="#" horiz-adv-x="531" d="M525 378h-186l-27 -98h181v-10h-185l-49 -178h-10l52 178h-97l-50 -178h-9l50 178h-189l3 9h191l27 99h-192l2 6h191l49 178h9l-49 -178h95l49 178h9l-49 -178h184v-6zM330 378h-96l-26 -99h94z" />
<glyph unicode="$" horiz-adv-x="638" d="M183 635q0 -32 16.5 -58.5t30.5 -36t34 -20.5v214q-42 -12 -61.5 -44t-19.5 -55zM264 9v300l-23 11q-39 18 -52.5 25t-43 23t-40.5 27.5t-26.5 29.5t-20.5 38t-5 45q0 50 17 89.5t48 66.5t62.5 44t72.5 32l11 4v81h8v-79q25 6 64 6h22v73h9v-73q50 -6 101.5 -30.5 t70.5 -46.5q26 -27 26 -67q0 -34 -22.5 -61.5t-64.5 -27.5q-37 0 -64.5 27t-27.5 70q0 36 25.5 58t65.5 22q-40 39 -110 46v-270q8 -4 47 -20.5t56.5 -25.5t50 -29.5t48.5 -38.5t29.5 -46.5t13.5 -60.5q0 -87 -66.5 -159.5t-178.5 -89.5v-106h-9v105q-15 -3 -58 -3 q-8 0 -17 0.5t-11 0.5v-103h-8v104q-56 0 -103 20q-63 26 -98.5 67t-35.5 88q0 45 30 77t77 32q39 0 70.5 -25t31.5 -83q0 -54 -32.5 -79.5t-80.5 -25.5q-3 0 -7 0.5t-5 0.5q48 -61 153 -63zM358 744h-14q-48 0 -72 -8v-219l86 -41v268zM358 12v252q-16 8 -50.5 24t-35.5 17 v-297q8 -1 32 -1q42 0 54 5zM367 261v-248q93 24 93 130q0 17 -5 32.5t-10 25t-18 20.5t-18.5 15t-22.5 14t-19 11z" />
<glyph unicode="%" horiz-adv-x="624" d="M253 170q0 71 44.5 127t105.5 56q58 0 100 -48t42 -123q0 -85 -51.5 -132.5t-98.5 -47.5q-50 0 -96 44t-46 124zM393 10q18 0 29 14.5t18 65.5t7 144q0 113 -41 113q-35 0 -44 -71q-3 -25 -6 -94q0 -6 -1.5 -37.5t-1.5 -46.5q0 -88 40 -88zM191 460q46 0 52 156q1 9 1 13 q2 46 2 66q0 102 -41 102q-35 0 -44 -70q-3 -23 -6 -83l-1 -11q0 -12 -2 -42.5t-2 -45.5q0 -85 41 -85zM51 626q0 83 50 130.5t103 47.5q15 0 29 -3.5t23.5 -8.5t18.5 -12t14 -11.5t10 -10.5t6 -7q59 -26 108 -26q37 0 73.5 22t53 40.5t38.5 47.5h8l-545 -832l-6 5l507 772 q-61 -61 -127 -61q-55 0 -102 20q30 -45 30 -107q0 -82 -51 -130.5t-100 -48.5q-48 0 -94.5 45t-46.5 128z" />
<glyph unicode="&#x26;" horiz-adv-x="951" d="M480 117q-106 115 -235 306q-39 -15 -49 -28q-9 -13 -9 -31q0 -38 30.5 -95.5t66.5 -103.5q29 -36 68.5 -69t62.5 -33q12 0 25.5 10.5t19 17t20.5 26.5zM597 343q30 101 85.5 158.5t117.5 57.5q48 0 83 -32t35 -89q0 -49 -32 -84t-83 -35q-55 0 -84.5 33.5t-29.5 77.5 q0 17 5 33t11 25t11.5 16t5.5 8q-66 -28 -117 -178q55 -62 119 -111.5t112 -49.5q11 0 22 3t24 11t21 25t8 42q0 6 -1 15.5t-1 13.5h7q3 -18 3 -36q0 -94 -67.5 -173.5t-156.5 -79.5q-52 0 -100 29.5t-107 87.5q-95 -126 -231 -126q-96 0 -159 54t-63 138q0 78 52.5 144.5 t153.5 109.5q-52 76 -52 154q0 85 63.5 150t148.5 65q39 0 73.5 -4.5t72 -16t60 -37.5t22.5 -63q0 -51 -43 -95.5t-119 -71.5q62 -97 130 -169zM463 519q47 16 47 48t-30 99.5t-50 95.5q-24 31 -44 31q-14 0 -27.5 -10.5t-13.5 -27.5q0 -37 42.5 -114t75.5 -122z" />
<glyph unicode="'" horiz-adv-x="282" d="M126 778q17 0 34.5 -5t38.5 -17t34 -39t13 -65q0 -78 -41 -129q-42 -55 -139 -62v7q47 5 82 19.5t57 51.5q14 22 14 75q-33 -31 -86 -31q-49 0 -80.5 30.5t-31.5 68.5q0 39 29.5 67.5t75.5 28.5z" />
<glyph unicode="(" horiz-adv-x="361" d="M324 885q-49 -29 -85.5 -90.5t-54.5 -133t-26 -131.5t-8 -106v-37q0 -350 171 -487l-3 -3q-97 55 -163 144.5t-92 176t-27 171.5q0 81 33.5 177t100.5 187.5t152 137.5z" />
<glyph unicode=")" horiz-adv-x="361" d="M38 891q85 -46 152.5 -137.5t101 -188t33.5 -176.5q0 -62 -16 -128t-48 -133t-88.5 -128t-130.5 -103l-3 3q171 137 171 487v37q0 46 -8 106t-26 131.5t-54.5 133t-85.5 90.5z" />
<glyph unicode="*" horiz-adv-x="332" d="M154 645q-14 14 -38.5 25.5t-39 21.5t-14.5 27q0 11 8 19.5t18 8.5q20 0 28 -13.5t17 -39t26 -42.5q-1 26 -10 54.5t-9 43.5q0 28 29 28q25 0 25 -28q0 -10 -11.5 -42t-12.5 -56q16 20 29.5 45.5t21.5 37.5t21 12q10 0 20 -8.5t10 -20.5q0 -18 -14 -27t-39.5 -19.5 t-42.5 -26.5h3q17 0 50.5 12.5t45.5 12.5q10 0 19.5 -7.5t9.5 -26.5q-1 -14 -11.5 -19.5t-18.5 -5.5q-9 0 -30 9.5t-69 14.5q17 -16 42.5 -26.5t39.5 -19.5t14 -27q0 -12 -10 -20.5t-20 -8.5q-14 0 -21.5 11.5t-20.5 37t-30 46.5q1 -24 12.5 -55.5t11.5 -42.5q0 -28 -25 -28 q-29 0 -29 28q0 16 9 43t10 55q-16 -15 -25 -40t-17.5 -40t-28.5 -15q-11 0 -18.5 8t-7.5 19q0 16 13.5 26.5t38.5 23t40 25.5q-46 -5 -66.5 -14.5t-30.5 -9.5q-8 0 -18.5 5.5t-11.5 19.5q0 19 10 26.5t20 7.5q12 0 45 -12.5t50 -12.5h3z" />
<glyph unicode="+" horiz-adv-x="569" d="M564 289h-250v-252h-61v253h-248v63h246v250h62v-250h251v-64z" />
<glyph unicode="," horiz-adv-x="314" d="M149 215q17 0 34.5 -5t38.5 -17t34 -39t13 -65q0 -78 -41 -129q-42 -55 -139 -62v7q47 5 82 19.5t57 51.5q14 22 14 75q-33 -31 -86 -31q-49 0 -80.5 30.5t-31.5 68.5q0 39 29.5 67.5t75.5 28.5z" />
<glyph unicode="-" horiz-adv-x="311" d="M56 299h197v-47h-197v47z" />
<glyph unicode="." horiz-adv-x="311" d="M39 118q0 48 33.5 82t81.5 34q49 0 83 -34t34 -82t-34 -82t-83 -34q-48 0 -81.5 34t-33.5 82z" />
<glyph unicode="/" horiz-adv-x="411" d="M1 6l405 782l4 -4l-405 -781z" />
<glyph unicode="0" horiz-adv-x="631" d="M316 -10q-66 0 -119 31t-85.5 83t-49.5 117.5t-17 138.5q0 99 29 183t92 140t150 56t150 -56t91.5 -140t28.5 -183q0 -154 -70.5 -262t-199.5 -108zM316 -2q27 0 44 15.5t24.5 47.5t9.5 55.5t3 64.5q5 126 5 179l-5 186q-1 39 -3 63.5t-9 56.5t-24.5 48.5t-44.5 16.5 q-26 0 -44.5 -22t-25.5 -58.5t-9.5 -58t-3.5 -43.5q-4 -103 -4 -189v-30t0.5 -33.5t1 -33.5t1 -31.5t1 -26t0.5 -17.5v-7q3 -183 83 -183z" />
<glyph unicode="1" d="M501 6v-6h-381v6q64 0 82 23t18 93v399q0 59 -13 76t-58 17v6q60 14 133.5 46.5t118.5 75.5v-620q0 -70 18 -93t82 -23z" />
<glyph unicode="2" horiz-adv-x="624" d="M217 321h-1q49 24 70.5 37.5t42 39t26 59.5t5.5 91q0 52 -11.5 88t-30.5 53t-37 23.5t-39 6.5q-46 0 -82 -29q-24 -19 -36 -41t-12 -64q28 31 71 31q44 0 67 -28t23 -64q0 -45 -31.5 -68.5t-66.5 -23.5q-41 0 -71.5 29t-30.5 82q0 43 22 85q57 104 194 104q112 0 188 -53 t76 -137q0 -20 -4.5 -38.5t-10.5 -33t-18 -28t-21 -22.5t-25.5 -19t-26.5 -15.5t-28.5 -12.5t-26 -9.5t-26 -8t-21.5 -6.5l-84 -27q-27 -9 -41.5 -14t-39 -17.5t-40.5 -27t-34 -39.5t-30 -56q-12 -33 -12 -88v-12q43 120 218 120q18 0 95.5 -5t86.5 -5q53 0 73.5 27t23.5 77 h6v-35q-1 -40 -5.5 -71.5t-17 -69t-39.5 -65t-67 -41.5q-27 -10 -54 -10q-36 0 -71 19t-58.5 41t-54 41t-58.5 19q-29 0 -50 -21.5t-21 -53.5l2 -29l-8 -1q-8 36 -8 82q0 63 18 101q38 81 108 116z" />
<glyph unicode="3" horiz-adv-x="619" d="M528 566q0 -111 -162 -163q55 -9 96 -28.5t62 -40t33 -45.5t15 -40.5t3 -30.5q0 -73 -47 -125t-115.5 -74.5t-148.5 -22.5q-94 0 -154 51t-60 122q0 53 29 86.5t75 33.5q44 0 72 -25.5t28 -66.5q0 -35 -22.5 -67t-72.5 -32q-35 0 -62 20q18 -64 64.5 -89.5t100.5 -25.5 q50 0 77 26q44 41 44 179q0 84 -16 125t-59 58q-20 6 -53 6q-6 0 -18 -0.5t-17 -0.5v11q12 -3 35 -3q53 0 77 26q22 26 22 110q0 106 -23 142.5t-69 36.5q-89 0 -108 -68q13 10 36 10q32 0 59.5 -20.5t27.5 -69.5t-28 -70t-60 -21q-41 0 -66.5 28t-25.5 69q0 56 49 104.5 t150 48.5q99 0 165.5 -44.5t66.5 -119.5z" />
<glyph unicode="4" horiz-adv-x="629" d="M267 122v88h-250l298 506h134v-485h69q11 0 18 2.5t12.5 12t7.5 14t7 21t6 21.5h10l-22 -92h-108v-88q0 -70 18 -93t82 -23v-6h-381v6q64 0 81.5 23t17.5 93zM39 231h228v387z" />
<glyph unicode="5" horiz-adv-x="624" d="M119 374q69 89 191 89q104 0 181.5 -62t77.5 -158q0 -109 -89.5 -178.5t-208.5 -69.5q-63 0 -106 18t-83 65q-31 37 -31 90q0 55 32 87.5t73 32.5t68 -25t27 -70q0 -37 -23 -66.5t-76 -29.5q-46 0 -65 26q0 -40 51 -80.5t124 -40.5q53 0 80 49.5t27 180.5q0 110 -20 150 q-31 62 -102 62q-38 0 -78.5 -31.5t-59.5 -71.5l-6 2q13 51 27 118.5t22.5 117.5t15.5 94t8 49q58 -14 160 -14q104 0 188 16q-22 -83 -76.5 -121.5t-149.5 -38.5q-50 0 -137 15z" />
<glyph unicode="6" horiz-adv-x="642" d="M353 596q0 29 22.5 58.5t69.5 29.5q19 0 30 -4q-8 21 -32.5 36.5t-59.5 15.5q-64 0 -94 -47q-50 -80 -50 -313v-14q42 98 146 98q91 0 147.5 -52.5t56.5 -153.5q0 -111 -71 -183.5t-176 -72.5q-129 0 -208.5 93.5t-79.5 245.5q0 161 94.5 283t231.5 122q72 0 115 -38 t43 -92q0 -44 -25 -69t-67 -25q-49 0 -71 27.5t-22 54.5zM343 443q-18 0 -37 -12q-67 -41 -67 -193q0 -237 95 -237q46 0 65 37q19 38 19 205q0 92 -11 136q-8 28 -25.5 46t-38.5 18z" />
<glyph unicode="7" horiz-adv-x="615" d="M87 468q22 136 26 236h7l-1 -46q33 40 66 56t81 16q52 0 131 -26.5t106 -26.5q28 0 38 26h7q0 -32 -5 -61t-9 -46.5t-20 -47t-21.5 -38.5t-31.5 -46.5t-32 -46.5q-97 -143 -97 -283q0 -68 23 -134h-238q-1 12 -1 35q0 102 40.5 169t148.5 155l105 85q60 49 89 97 q28 46 34 111q-39 -55 -79 -79t-89 -24q-34 0 -97 16t-85 16q-49 0 -69 -36q-7 -11 -10.5 -26t-5.5 -30.5t-4 -20.5h-7z" />
<glyph unicode="8" horiz-adv-x="641" d="M96 511q0 104 73.5 163.5t167.5 59.5q60 0 105 -26q92 -55 92 -127q0 -26 -13.5 -54t-40.5 -46q-31 -22 -58 -35q30 -14 49.5 -25t50 -35.5t47 -60t16.5 -80.5q0 -47 -19.5 -96.5t-59.5 -84.5q-83 -73 -214 -73q-100 0 -177.5 53.5t-77.5 131.5q0 51 34 92q17 22 40 37.5 t39 22t45 16.5q-52 35 -75.5 74.5t-23.5 92.5zM339 727q-33 0 -54.5 -23t-28.5 -49.5t-7 -54.5q0 -14 2 -26.5t8.5 -24t10 -19t15 -17t15.5 -13.5t19.5 -12t18 -9.5t19.5 -9.5l17 -8q6 -3 27 -9q1 0 5 2.5t5 4t5 4.5t5.5 7t4.5 10t4 13.5t3 18t2.5 24.5t0.5 31 q0 125 -58 151q-18 9 -39 9zM168 186q0 -74 23 -124t69 -61q14 -3 36 -3q70 0 104 31q35 32 35 112q0 19 -5 36t-10 29t-19.5 25.5t-21 20t-28 18.5t-27 14.5t-32 14.5t-28.5 13l-52 24q-44 -48 -44 -150z" />
<glyph unicode="9" horiz-adv-x="630" d="M285 136q0 -29 -22.5 -58.5t-69.5 -29.5q-19 0 -30 4q8 -21 32.5 -36.5t59.5 -15.5q64 0 94 47q50 80 50 313v14q-42 -98 -146 -98q-91 0 -147.5 52.5t-56.5 153.5q0 111 71 183.5t176 72.5q129 0 208.5 -93.5t79.5 -245.5q0 -161 -94.5 -283t-231.5 -122q-72 0 -115 38 t-43 92q0 44 25 69t67 25q49 0 71 -27.5t22 -54.5zM303 731q-45 0 -64 -37q-19 -38 -19 -205q0 -92 11 -136q8 -28 25.5 -46t38.5 -18q18 0 37 12q67 41 67 193q0 128 -24.5 182.5t-71.5 54.5z" />
<glyph unicode=":" horiz-adv-x="303" d="M41 431q0 40 32 68.5t77 28.5t77.5 -28.5t32.5 -68.5q0 -39 -32.5 -67.5t-77.5 -28.5t-77 28.5t-32 67.5zM41 100q0 39 32 67.5t77 28.5t77.5 -28.5t32.5 -67.5q0 -40 -32.5 -68.5t-77.5 -28.5t-77 28.5t-32 68.5z" />
<glyph unicode=";" horiz-adv-x="309" d="M146 215q17 0 34.5 -5t38.5 -17t34 -39t13 -65q0 -78 -41 -129q-42 -55 -139 -62v7q47 5 82 19.5t57 51.5q14 22 14 75q-33 -31 -86 -31q-49 0 -80.5 30.5t-31.5 68.5q0 39 29.5 67.5t75.5 28.5zM47 431q0 40 32 68.5t77 28.5t77.5 -28.5t32.5 -68.5q0 -39 -32.5 -67.5 t-77.5 -28.5t-77 28.5t-32 67.5z" />
<glyph unicode="&#x3c;" horiz-adv-x="614" d="M560 2l-558 256v61l558 267v-69l-476 -232l476 -218v-65z" />
<glyph unicode="=" horiz-adv-x="562" d="M540 315h-484v55h484v-55zM540 180h-484v55h484v-55z" />
<glyph unicode="&#x3e;" horiz-adv-x="615" d="M612 258l-558 -256v65l475 218l-475 232v69l558 -267v-61z" />
<glyph unicode="?" horiz-adv-x="675" d="M629 585q0 -31 -13 -57.5t-29.5 -43t-49.5 -34t-53.5 -25.5t-63 -22.5t-57.5 -20.5q-50 -19 -66.5 -47t-16.5 -77h-6q-3 19 -3 35q0 29 19 69t42 75t42 86t19 99q0 63 -33 108.5t-93 45.5q-64 0 -94 -30.5t-33 -58.5q13 6 32 6q45 0 78.5 -30t33.5 -86t-33.5 -87.5 t-82.5 -31.5q-41 0 -81 30t-40 89q0 58 32 102q80 109 221 109q143 0 236 -53t93 -150zM187 113q0 46 32.5 78.5t78.5 32.5t78.5 -32.5t32.5 -78.5t-32.5 -78.5t-78.5 -32.5t-78.5 32.5t-32.5 78.5z" />
<glyph unicode="@" horiz-adv-x="877" d="M674 164q0 -23 1 -37.5t5 -37t15.5 -34t29.5 -11.5q38 0 64.5 45t35 88t8.5 70q0 47 -5 85.5t-19.5 87t-47 92t-81.5 76.5q-83 56 -211 56q-127 0 -219 -57q-82 -51 -123.5 -143.5t-41.5 -211.5q0 -205 148 -319q86 -67 223 -67q70 0 126 22q52 21 96 66l4 -5 q-77 -91 -231 -91q-30 0 -60 3t-75.5 16t-85 34t-81.5 61.5t-71 94.5q-40 74 -40 172q0 78 27 153t78 138.5t135.5 102t189.5 38.5q86 0 153 -25.5t107.5 -65t66.5 -92.5t36 -102.5t10 -100.5q0 -114 -50.5 -194.5t-138.5 -80.5q-110 0 -143 140q-1 3 -1 4 q-17 -74 -42 -108.5t-74 -34.5q-69 0 -124 78t-55 180q0 68 21.5 125.5t53 91t63.5 51.5t58 18q40 0 62 -19t39 -50v54h171q-7 -64 -7 -104v-252zM450 515q-17 0 -28.5 -19.5t-15.5 -49t-5.5 -47t-1.5 -29.5v-219q0 -137 36 -137q35 0 55 93.5t20 159.5v76q0 172 -60 172z " />
<glyph unicode="A" horiz-adv-x="890" d="M483 6l1 1q31 0 45.5 9t14.5 32q0 18 -20 80l-63 197h-215q-45 -135 -45 -189q0 -49 22 -82q15 -22 40 -33.5t42.5 -13t46.5 -1.5v-6h-347v6q34 0 63 13t48 32t37 51t29 59.5t24 68.5l183 553h166l234 -709q13 -40 34 -54t62 -14v-6h-445v6h43zM248 333h210l-100 332z " />
<glyph unicode="B" horiz-adv-x="851" d="M416 420q36 0 53.5 3.5t33.5 19t21.5 48t5.5 90.5q0 64 -7 120q-3 25 -14 41.5t-32 23.5t-40.5 9t-49.5 2h-22v-357h51zM436 6q55 0 75 13.5t31 57.5q11 46 11 129q0 136 -37 177q-27 30 -117 30h-34v-316q0 -61 12 -76t59 -15zM23 777h-6v6h433q55 0 105 -8.5t98 -27.5 t76.5 -56.5t28.5 -89.5q0 -45 -22 -80q-20 -32 -66 -56.5t-80 -33.5t-65 -14l30 -3q191 -19 243 -145q14 -34 14 -72q0 -56 -31 -99q-44 -61 -109 -79.5t-181 -18.5h-474v6h6q75 0 94 23t19 93v539q0 70 -19 93t-94 23z" />
<glyph unicode="C" horiz-adv-x="835" d="M437 793q52 0 95 -16.5t75.5 -33t58.5 -16.5q27 0 44 10.5t22 20t9 23.5q1 3 1 4h6v-377h-6q-7 83 -65.5 201.5t-134.5 155.5q-42 21 -95 21q-34 0 -52 -13q-100 -70 -100 -326v-118q0 -58 8 -109.5t27.5 -104.5t61 -84.5t100.5 -31.5q72 0 133 35q40 23 68 54.5t44 76 t21.5 66.5t14.5 71l3 15h6q-8 -51 -16.5 -86t-25.5 -76.5t-46.5 -74t-71.5 -55.5q-64 -35 -164 -35q-138 0 -234 55q-95 55 -139.5 143.5t-44.5 177.5q0 62 20 128t66 131.5t111 104.5q105 63 200 63z" />
<glyph unicode="D" horiz-adv-x="887" d="M20 777h-7v6h425q51 0 81.5 -2t74 -12t74 -28.5t65.5 -54.5t65 -88q49 -86 49 -208q0 -136 -56 -234q-22 -38 -47 -65.5t-54.5 -44t-54.5 -26.5t-61.5 -14t-58 -5t-60.5 -1h-442v6h7q40 0 62.5 5t33.5 21.5t13.5 34.5t2.5 55v539q0 37 -2.5 55t-13.5 34.5t-33.5 21.5 t-62.5 5zM420 777h-58v-655q0 -74 13 -95t65 -21q60 0 88 13q45 22 56.5 99t11.5 282q0 155 -7 219.5t-35 105.5q-36 52 -134 52z" />
<glyph unicode="E" horiz-adv-x="787" d="M369 122q0 -78 9.5 -96.5t47.5 -18.5q86 0 121 16q88 39 131 108t50 216h6v-347h-714v6h6q75 0 94 23t19 93v539q0 70 -19 93t-94 23h-6v6h678v-300h-6q0 69 -31 134.5t-97 112.5q-40 29 -81.5 38t-113.5 9v-357q72 0 112 26t65 89q10 30 10 78h7v-394h-7q0 50 -10 77 q-25 64 -65.5 90.5t-111.5 26.5v-291z" />
<glyph unicode="F" horiz-adv-x="738" d="M27 777h-7v6h678v-300h-6q0 155 -128 247q-40 28 -82 37.5t-113 9.5v-357q72 0 112.5 26t64.5 89q11 33 11 78h6v-394h-6q0 48 -11 77q-24 63 -64.5 90t-112.5 27v-291q0 -70 19 -93t94 -23h6v-6h-468v6h7q40 0 62.5 5t33.5 21.5t13.5 34.5t2.5 55v539q0 37 -2.5 55 t-13.5 34.5t-33.5 21.5t-62.5 5z" />
<glyph unicode="G" horiz-adv-x="899" d="M794 4h-7q-3 15 -7.5 26t-14.5 25t-29.5 22t-47.5 8q-31 0 -62.5 -15t-55.5 -32.5t-64.5 -32.5t-87.5 -15q-59 0 -123 24t-122 67.5t-95.5 115.5t-37.5 158q0 83 32 171.5t102 152.5q123 114 261 114q62 0 107.5 -17t74.5 -34t50 -17q28 0 50 17t24 49h8v-318h-6 q-1 63 -36.5 134t-103 124.5t-145.5 53.5q-36 0 -57 -14q-65 -42 -88 -144.5t-23 -274.5q0 -68 2 -108t10.5 -94t29.5 -88.5t54 -52.5q18 -9 50 -9q73 0 100.5 37.5t27.5 111.5v138q0 58 -21 77.5t-91 19.5v7h434v-7h-13q-50 0 -64.5 -22t-14.5 -75v-283z" />
<glyph unicode="H" horiz-adv-x="1002" d="M479 777q-75 0 -92.5 -22.5t-17.5 -93.5v-222h264v222q0 37 -2.5 55t-13.5 34.5t-33 21.5t-62 5h-3v6h463v-6h-7q-75 0 -94 -23t-19 -93v-539q0 -70 19 -93t94 -23h7v-6h-463v6h3q40 0 62 5t33 21.5t13.5 34.5t2.5 55v309h-264v-309q0 -71 17.5 -93.5t92.5 -22.5h4v-6 h-463v6h7q40 0 62.5 5t33.5 21.5t13.5 34.5t2.5 55v539q0 37 -2.5 55t-13.5 34.5t-33.5 21.5t-62.5 5h-7v6h463v-6h-4z" />
<glyph unicode="I" horiz-adv-x="508" d="M481 777q-40 0 -62.5 -5t-33.5 -21.5t-13.5 -34.5t-2.5 -55v-539q0 -37 2.5 -55t13.5 -34.5t33.5 -21.5t62.5 -5h7v-6h-468v6h6q75 0 94 23t19 93v539q0 70 -19 93t-94 23h-6v6h468v-6h-7z" />
<glyph unicode="J" horiz-adv-x="735" d="M271 -10q-113 0 -182.5 53t-69.5 140q0 61 40.5 104.5t98.5 43.5q48 0 89.5 -34t41.5 -96q0 -18 -6 -37t-19 -39.5t-39 -33.5t-61 -13q-43 0 -68 16q19 -48 49 -68q13 -11 41.5 -19t54.5 -8q34 0 55 11q48 25 61.5 66t13.5 102v483q0 70 -19 93t-94 23h-6v6h467v-6h-6 q-75 0 -94 -23t-19 -93v-448q0 -50 -16.5 -87t-71.5 -73q-94 -63 -241 -63z" />
<glyph unicode="K" horiz-adv-x="971" d="M26 777h-6v6h457v-6h-7q-65 0 -83.5 -24t-18.5 -92v-237l129 124q45 43 63 61.5t36 47t18 53.5q0 66 -86 67v6h337v-6q-89 -3 -170 -61.5t-178 -160.5l303 -457q22 -33 29 -42.5t24.5 -25.5t37 -20t50.5 -4h2v-6h-457v6h5q25 0 37.5 12t12.5 27q0 32 -42 99l-151 234 v-256q0 -69 18.5 -92.5t85.5 -23.5h5v-6h-457v6h6q75 0 94 23t19 93v539q0 70 -19 93t-94 23z" />
<glyph unicode="L" horiz-adv-x="747" d="M419 7q67 0 100 16q88 39 131.5 108.5t49.5 215.5h7v-347h-687v6h6q75 0 94 23t19 93v539q0 70 -19 93t-94 23h-6v6h468v-6h-7q-40 0 -62.5 -5t-33.5 -21.5t-13.5 -34.5t-2.5 -55v-539q0 -79 8 -97t42 -18z" />
<glyph unicode="M" horiz-adv-x="1014" d="M875 661v-539q0 -70 19 -93t94 -23h6v-6h-446v6h6q56 0 74 24t18 92v549l-178 -671h-122l-201 678v-490q0 -102 23 -142t92 -40h11v-6h-261v6h10q70 0 93.5 40t23.5 142v473q0 37 -2.5 55t-13.5 34.5t-33 21.5t-62 5h-8v6h347l156 -554l148 554h325v-6h-6q-75 0 -94 -23 t-19 -93z" />
<glyph unicode="N" horiz-adv-x="834" d="M35 777h-7v6h366l290 -568v380q0 102 -23.5 142t-93.5 40h-10v6h261v-6h-11q-69 0 -92 -40t-23 -142v-595h-182l-355 688v-500q0 -102 23 -142t92 -40h11v-6h-261v6h10q70 0 93.5 40t23.5 142v473q0 37 -2.5 55t-13.5 34.5t-33.5 21.5t-62.5 5z" />
<glyph unicode="O" horiz-adv-x="856" d="M817 391q0 -165 -114 -284t-276 -119t-275.5 119t-113.5 284t113.5 284t275.5 119t276 -119t114 -284zM570 391v67q0 45 -1.5 78t-6 74.5t-14 70t-25 55t-40 39.5t-57.5 13t-57.5 -13t-40 -39.5t-25 -55t-14 -70t-6 -74.5t-1.5 -78v-67v-67q0 -45 1.5 -77.5t6 -74t14 -70 t25 -54.5t40 -39t57.5 -13t57.5 13t40 39t25 54.5t14 70t6 74t1.5 77.5v67z" />
<glyph unicode="P" horiz-adv-x="760" d="M510 470v152q-1 35 -2.5 54.5t-9 41.5t-21.5 35q-27 24 -85 24h-24v-429q34 -4 51 -4q38 0 58 16q33 25 33 110zM481 6h7v-6h-468v6h6q75 0 94 23t19 93v539q0 68 -21 92t-92 24h-6v6h407q37 0 60 -1t57 -7.5t58.5 -18t51 -34t47.5 -54.5q32 -51 32 -112q0 -86 -70 -147 t-161 -70q-34 -3 -60 -3q-31 0 -74 5v-219q0 -70 19 -93t94 -23z" />
<glyph unicode="Q" horiz-adv-x="867" d="M341 70q0 48 26.5 71.5t59.5 23.5q70 0 78 -78q5 -37 16 -58q39 46 50 139t11 250q0 67 -2 109.5t-9.5 97.5t-26 92t-48.5 56q-20 13 -61 13q-38 0 -57 -11q-81 -45 -81 -266q-1 -92 -1 -150q0 -140 11.5 -209.5t36.5 -107.5q-3 13 -3 28zM829 401q0 -49 -14.5 -101.5 t-46.5 -108.5t-92.5 -105t-142.5 -77q9 -14 32 -26.5t56 -12.5q59 0 95.5 44t36.5 88q0 15 -5 35l5 1q12 -33 12 -81q0 -104 -53 -161.5t-150 -57.5q-59 0 -111.5 38t-52.5 85q0 19 10 30q-142 12 -256 133.5t-114 262.5q0 26 4 54.5t18.5 70.5t37 80.5t65 80t98.5 71.5 q91 49 166 49q74 0 162 -36.5t145 -100.5q95 -108 95 -255zM413 -3q15 13 33.5 46.5t18.5 64.5q0 49 -42 49q-32 0 -53 -24.5t-21 -59.5q0 -63 64 -76z" />
<glyph unicode="R" horiz-adv-x="860" d="M757 87q0 -27 5.5 -39t21.5 -12q27 0 43 47.5t16 120.5q0 22 -3 38h7q3 -13 3 -39q0 -86 -22 -134q-7 -16 -14 -26t-22 -24.5t-42 -21.5t-64 -7q-71 0 -122 37q-47 35 -47 136q0 12 2.5 59t2.5 64q0 79 -24.5 100.5t-84.5 21.5h-43v-286q0 -68 18 -92t77 -24h12v-6h-456 v6h7q40 0 62.5 5t33.5 21.5t13.5 34.5t2.5 55v539q0 37 -2.5 55t-13.5 34.5t-33.5 21.5t-62.5 5h-7v6h396q44 0 77.5 -2.5t83.5 -11.5t90 -32.5t66 -59.5q27 -37 27 -83q0 -24 -8 -46q-8 -21 -20 -38.5t-30.5 -30.5t-31.5 -22t-38.5 -18t-34.5 -12.5t-36 -10.5t-29 -7 q5 -1 26 -6t34 -8.5t32.5 -9.5t35.5 -14t30 -17q41 -28 53.5 -70.5t12.5 -99.5v-97zM370 414h44q53 0 79.5 11.5t39.5 50.5q6 22 6 88q0 142 -25 175q-17 24 -42 31t-67 7h-35v-363z" />
<glyph unicode="S" horiz-adv-x="737" d="M126 47q-44 0 -57 -46h-6v346h6q0 -73 33.5 -142.5t88.5 -119.5q90 -84 192 -84q48 0 79.5 24.5t41.5 53.5t10 60q0 30 -12.5 54.5t-28 39t-43.5 27.5t-44 18t-44 13l-58 16q-227 62 -227 231q0 60 30 113t111 97.5t159 44.5q55 0 102 -19q60 -24 93 -24q62 0 65 45h7 v-287h-6q0 97 -83 197q-66 81 -168 81q-66 0 -102 -52q-16 -25 -16 -65q0 -111 140 -145q4 -1 11 -3l6 -1l47 -11q97 -23 146 -54q98 -65 99 -188q0 -109 -80 -185q-52 -49 -100.5 -69t-116.5 -20q-67 0 -162 27t-113 27z" />
<glyph unicode="T" horiz-adv-x="780" d="M617 6h7v-6h-468v6h6q75 0 94 23t19 93v655q-57 -2 -107.5 -43t-87.5 -103q-47 -77 -47 -175h-6v327h726v-327h-6q0 96 -47 175q-37 61 -87.5 102.5t-107.5 43.5v-655q0 -37 2.5 -55t13.5 -34.5t33.5 -21.5t62.5 -5z" />
<glyph unicode="U" horiz-adv-x="847" d="M711 219q0 -83 -14.5 -119.5t-76.5 -72.5q-64 -37 -172 -37q-128 0 -207 44q-62 34 -78.5 76t-16.5 117v434q0 37 -2.5 55t-13.5 34.5t-33.5 21.5t-62.5 5h-7v6h468v-6h-6q-75 0 -94 -23t-19 -93v-459q0 -81 7.5 -108t38.5 -45q39 -21 109 -21q66 0 103 20q45 26 57 60 t12 115v375q0 41 -1.5 63.5t-8 48.5t-20 38t-37 20.5t-59.5 8.5v6h260v-6q-36 0 -59.5 -8.5t-37 -20.5t-20 -38t-8 -48.5t-1.5 -63.5v-379z" />
<glyph unicode="V" horiz-adv-x="848" d="M473 777q-52 0 -70 -11.5t-18 -35.5q0 -14 14 -70l150 -533l112 397q21 73 21 127q0 52 -21 81q-21 28 -46 36t-61 9v6h284v-6q-22 0 -34 -2q-11 -2 -20.5 -6.5t-17 -9.5t-15 -15t-13 -17t-11.5 -20t-9 -20t-8 -22t-6.5 -20.5t-5.5 -21t-5 -17.5l-172 -606h-183l-209 690 q-17 56 -40 71.5t-67 15.5h-12v6h463v-6z" />
<glyph unicode="W" horiz-adv-x="1072" d="M381 777q-28 0 -41 -12t-13 -27q0 -16 14 -67l114 -427l69 250l-46 204q-11 48 -21.5 62.5t-41.5 16.5v6h346v-6q-19 -1 -27.5 -2t-19 -8.5t-10.5 -22.5q0 -13 12 -67l108 -436l78 287q25 91 25 138q0 57 -36 93q-18 18 -65 18v6h236v-6q-25 -2 -45 -14.5t-33 -28 t-25 -43t-18 -47t-15 -52.5l-160 -592h-122l-117 480l-131 -480h-109l-187 710q-11 40 -26 53.5t-64 13.5v6h371v-6z" />
<glyph unicode="X" horiz-adv-x="897" d="M234 141q0 -18 6 -39.5t18.5 -44t37.5 -37t58 -14.5v-6h-344v6q17 0 33.5 4t32.5 15t28.5 19.5t29 28.5t25 30t25.5 36t22 34.5t22.5 37.5t20.5 34l77 128l-201 332q-25 42 -42.5 57t-51.5 15v6h418v-6q-72 0 -72 -33q0 -5 2 -11.5t7.5 -17t9.5 -17t14.5 -23.5t15.5 -25 l98 -160q30 43 41 59.5t25.5 51t14.5 64.5q0 105 -94 112v6h313v-6q-25 -2 -53 -17.5t-50.5 -35.5t-51.5 -53.5t-46 -55.5t-43 -59t-35 -48l-18 -24l240 -395q27 -45 55 -64t65 -19v-6h-471v6h15q89 0 89 33q0 15 -47 92l-142 236l-29 -48q-68 -113 -68 -178z" />
<glyph unicode="Y" horiz-adv-x="850" d="M322 402l-200 307q-41 65 -112 68v6h468v-6q-46 0 -65 -7t-19 -27q0 -28 35 -91l117 -216l52 97q61 112 61 162q0 12 -2 22t-7 17.5t-9.5 13t-12.5 10t-13 7t-14.5 5t-13.5 3.5t-13.5 2.5t-10.5 1.5v6h277v-6q-59 -5 -99 -37t-86 -117l-104 -194v-307q0 -70 19 -93 t94 -23h6v-6h-468v6h7q75 0 94 23t19 93v280z" />
<glyph unicode="Z" horiz-adv-x="696" d="M45 783h630l-384 -777h73q71 0 114 37t98 120q44 66 61 104t25 99h6v-366h-658l384 777h-66q-82 0 -139 -51.5t-105 -147.5q-27 -54 -33 -132h-6v337z" />
<glyph unicode="[" horiz-adv-x="303" d="M181 741v-780h105v-51h-229v879h229v-48h-105z" />
<glyph unicode="\" horiz-adv-x="415" d="M409 -1l-408 781l4 3l409 -781z" />
<glyph unicode="]" horiz-adv-x="303" d="M15 793h229v-879h-229v52h105v780h-105v47z" />
<glyph unicode="^" horiz-adv-x="311" d="M155 783l133 -123l-3 -4l-130 60l-130 -60l-3 4z" />
<glyph unicode="_" horiz-adv-x="565" d="M565 -135h-565v66h565v-66z" />
<glyph unicode="`" horiz-adv-x="167" d="M47 783q23 0 37 -23.5t30.5 -65.5t35.5 -68l-5 -4q-20 27 -56 48.5t-58 38t-22 40.5q0 15 11.5 24.5t26.5 9.5z" />
<glyph unicode="a" d="M534 325v-261q0 -44 16 -44q9 0 19 10.5t20.5 43t11.5 81.5h7q0 -19 -3 -43t-15.5 -56.5t-33.5 -43.5q-34 -19 -81 -19q-31 0 -53 9q-41 16 -59 37.5t-30 66.5q-27 -83 -79 -104q-18 -7 -55 -7q-172 0 -172 133q0 22 7 46q10 34 31.5 52.5t41 24t63.5 13.5l24 4 q47 8 77 23.5t42.5 38.5t16 41.5t3.5 46.5q0 66 -18.5 85.5t-53.5 19.5q-82 0 -103 -52q8 4 22 4q31 0 57.5 -22t26.5 -61q0 -43 -31 -70.5t-70 -27.5t-68 28t-29 72q0 61 66.5 99.5t162.5 38.5q108 0 170 -44q44 -31 56.5 -69.5t12.5 -93.5zM302 306q-49 -36 -60.5 -52.5 t-16.5 -58.5q-4 -27 -4 -53q0 -20 4 -68q3 -58 28 -58q13 0 20 7q27 17 40.5 54t16 67.5t2.5 80.5v129q-5 -31 -30 -48z" />
<glyph unicode="b" horiz-adv-x="639" d="M352 494q-10 0 -21 -9t-16 -19q-16 -30 -16 -114v-236q0 -67 10.5 -91.5t41.5 -24.5q26 0 38.5 24t12.5 92v239q0 64 -5.5 91t-26.5 42q-10 6 -18 6zM426 532q58 0 99 -40t57.5 -93.5t16.5 -112.5q0 -79 -24.5 -139t-63.5 -91.5t-79.5 -46.5t-81.5 -15q-33 0 -62 15.5 t-45.5 34.5t-38 34.5t-41.5 15.5q-59 0 -59 -94h-7v664q0 59 -14 77.5t-70 18.5v6h286v-314q13 23 26 38q35 42 101 42z" />
<glyph unicode="c" horiz-adv-x="580" d="M244 245q0 -33 1 -54.5t4 -53.5t10.5 -52.5t19.5 -41t31.5 -30.5t46.5 -10q76 0 124.5 65.5t57.5 150.5h7q-17 -145 -110 -201q-40 -24 -112 -24q-67 0 -119.5 18.5t-84 46t-52 63.5t-28 68.5t-7.5 63.5q0 111 88.5 194.5t216.5 83.5q42 0 72 -11.5t63 -39.5 q58 -50 58 -106q0 -24 -8.5 -48.5t-34.5 -46t-66 -21.5q-49 0 -81.5 30t-32.5 78q0 46 30.5 74t81.5 28q31 0 47 -9q-8 27 -42 45t-75 18q-61 0 -83.5 -67t-22.5 -211z" />
<glyph unicode="d" horiz-adv-x="665" d="M241 119q0 -60 9 -80.5t27 -20.5q28 0 47 41q25 54 25 151v149q0 81 -19 117q-15 29 -41 29q-24 0 -36 -29t-12 -108v-249zM638 0h-289v108q0 -2 -3 -12t-5.5 -16.5t-7.5 -18.5t-11 -20t-16 -17.5t-21 -15.5t-27.5 -10t-35.5 -4q-78 0 -130 76t-52 177q0 111 62.5 198 t138.5 87q30 0 52 -11t33.5 -29t16.5 -31.5t8 -27.5v231q0 60 -15.5 78t-69.5 18v6h287v-662q0 -59 14.5 -78.5t70.5 -19.5v-6z" />
<glyph unicode="e" horiz-adv-x="569" d="M535 268h-300v-61q0 -103 25 -153t90 -50q75 0 122.5 65t56.5 150h7q-17 -145 -110 -201q-40 -24 -113 -24q-64 0 -114.5 17.5t-81 44t-50 61.5t-27 67.5t-7.5 64.5q0 122 97 216q70 67 175 67q158 0 216 -151q14 -39 14 -113zM303 526q-41 0 -54.5 -50t-13.5 -172v-29 h117q3 58 3 128q0 48 -5 74.5t-25 43.5q-5 5 -22 5z" />
<glyph unicode="f" horiz-adv-x="499" d="M297 104q0 -61 15 -79.5t69 -18.5v-6h-371v6q54 0 69.5 18.5t15.5 79.5v415h-59v7h59v17q0 43 5.5 73.5t23 64t56.5 57t99 36.5q54 9 84 9q69 0 117.5 -29.5t48.5 -88.5q0 -44 -31 -71.5t-69 -27.5q-34 0 -66.5 22.5t-32.5 73.5q0 39 27 64.5t64 25.5q17 0 49 -7 q-10 13 -39.5 22t-51.5 9q-50 0 -66 -38t-16 -118v-94h109v-7h-109v-415z" />
<glyph unicode="g" horiz-adv-x="633" d="M373 131q120 0 184 -34.5t64 -123.5q0 -51 -20 -85q-62 -104 -330 -104q-75 0 -128 10t-78 27.5t-35 34t-10 35.5q0 10 3 19.5t12.5 23.5t33.5 26.5t60 19.5q-15 7 -25.5 13t-27 19.5t-25.5 33.5t-9 45q0 103 148 132q-118 48 -118 144q0 71 74.5 118t167.5 47 q28 0 60 -5q-16 34 -16 69q0 50 36 81.5t91 31.5q28 0 48 -9.5t29 -23.5t13 -27t4 -24q0 -37 -26 -60.5t-62 -23.5q-35 0 -59.5 22.5t-24.5 58.5q0 46 40 75q-42 -10 -62 -39t-20 -62q0 -32 17 -51.5t40 -28t54 -27.5t52 -45q24 -32 24 -72q0 -72 -69 -120t-171 -48 q-37 0 -66.5 5.5t-41.5 5.5q-19 0 -30 -8.5t-13.5 -15.5t-2.5 -15q0 -45 105 -45h110zM255 362q0 -91 13 -122t51 -31q26 0 44 25q11 16 11 102q0 87 -5.5 126.5t-17 51.5t-38.5 12q-30 0 -44 -32.5t-14 -131.5zM97 -103q0 -39 15 -61q30 -45 159 -45q36 0 57.5 0.5t56 5.5 t54 14t34.5 27.5t15 44.5q0 27 -18.5 45.5t-47.5 26t-56 11t-53 4.5h-9q-106 6 -123 6q-41 0 -62.5 -15t-21.5 -64z" />
<glyph unicode="h" horiz-adv-x="709" d="M10 760v6h286v-324q33 90 140 90q81 0 127 -38q31 -27 41 -54.5t10 -68.5v-267q0 -61 15 -79.5t70 -18.5v-6h-329v6q28 0 36 21t8 79v298q0 97 -48 97q-12 0 -26 -9q-28 -19 -36 -53.5t-8 -95.5v-237q0 -58 8 -79t36 -21v-6h-330v6q54 0 69.5 19t15.5 79v560 q0 59 -14.5 77.5t-70.5 18.5z" />
<glyph unicode="i" horiz-adv-x="391" d="M381 6v-6h-371v6q56 0 70.5 19.5t14.5 78.5v320q0 59 -14.5 77t-70.5 18v7h287v-422q0 -59 14 -78.5t70 -19.5zM78 661q0 40 32 68.5t77 28.5t77.5 -28.5t32.5 -68.5t-32.5 -68.5t-77.5 -28.5t-77 28.5t-32 68.5z" />
<glyph unicode="j" horiz-adv-x="411" d="M352 53q0 -95 -15 -133.5t-77 -80.5q-31 -20 -85 -34t-105 -14q-78 0 -114 31t-36 73q0 43 28.5 70.5t67.5 27.5q38 0 69 -23.5t31 -68.5q0 -38 -24 -63.5t-65 -25.5q-10 0 -15 1q20 -15 56 -15q28 0 47 12q23 15 29.5 39t6.5 79v496q0 59 -14.5 77t-70.5 18v7h286v-473z M133 661q0 40 32.5 68.5t77.5 28.5t77 -28.5t32 -68.5t-32 -68.5t-77 -28.5t-77.5 28.5t-32.5 68.5z" />
<glyph unicode="k" horiz-adv-x="732" d="M367 6q18 0 28.5 6t12 10t1.5 7q0 15 -51 95l-63 102v-122q0 -37 2.5 -55t12 -30.5t29.5 -12.5v-6h-329v6q56 0 70 19.5t14 78.5v560q0 59 -14 77.5t-70 18.5v6h285v-475l43 49q40 46 56 72t16 50q0 25 -11.5 38.5t-25 16t-37.5 2.5h-12v7h284v-7q-68 0 -113.5 -23.5 t-98.5 -94.5l193 -299q12 -19 23 -33.5t19 -24.5t18 -17l15 -10.5t15 -6t13.5 -3t15 -1t14.5 -0.5v-6h-355v6z" />
<glyph unicode="l" horiz-adv-x="391" d="M381 6v-6h-371v6q56 0 70.5 19.5t14.5 78.5v560q0 59 -14.5 77.5t-70.5 18.5v6h287v-660q0 -60 14.5 -80t69.5 -20z" />
<glyph unicode="m" horiz-adv-x="1019" d="M295 337v-233q0 -54 8 -76t36 -22v-6h-329v6q56 0 70.5 19.5t14.5 78.5v320q0 59 -14.5 77t-70.5 18v7h285v-89q41 95 152 95q96 0 133 -48q2 -3 6.5 -9t8.5 -12.5t7 -12.5q14 35 51.5 58.5t96.5 23.5q174 0 174 -183v-245q0 -59 14.5 -78.5t70.5 -19.5v-6h-329v6 q28 0 36 22t8 76v267q0 67 -11.5 95t-44.5 28q-11 0 -19 -4q-21 -10 -30 -27.5t-9 -53.5v-305q0 -54 8 -76t36 -22v-6h-289v6q28 0 36 22t8 76v255q0 77 -10.5 102.5t-38.5 25.5q-20 0 -35.5 -17.5t-22.5 -40.5t-7 -92z" />
<glyph unicode="n" horiz-adv-x="708" d="M10 519v7h286v-89q18 47 59 71t97 24q63 0 104 -32q34 -27 45.5 -62t11.5 -89v-245q0 -59 14.5 -78.5t70.5 -19.5v-6h-329v6q28 0 36 22t8 76v267q0 71 -12 95.5t-36 24.5q-35 0 -52 -35q-17 -34 -17 -119v-233q0 -37 2.5 -55t12 -30.5t29.5 -12.5v-6h-330v6 q56 0 70.5 19.5t14.5 78.5v317q0 59 -14.5 78.5t-70.5 19.5z" />
<glyph unicode="o" horiz-adv-x="616" d="M374 116v294q0 115 -66 115q-65 0 -65 -115v-294q0 -115 65 -115q66 0 66 115zM33 263q0 111 81.5 190t193.5 79t193.5 -79t81.5 -190t-81.5 -190t-193.5 -79t-193.5 79t-81.5 190z" />
<glyph unicode="p" horiz-adv-x="645" d="M297 158q0 -53 12 -87q8 -23 21 -34.5t25 -11.5q46 0 46 128q1 73 1 123q0 118 -9 165t-47 47q-18 0 -31 -23q-18 -34 -18 -109v-198zM10 519v7h287v-81q16 38 48 62.5t76 24.5q81 0 133 -77t52 -183q0 -46 -11.5 -92.5t-33.5 -89.5t-61 -70t-88 -27q-26 0 -46 7 t-34.5 23t-19 22.5t-15.5 25.5v-129q0 -36 5.5 -57t22 -30t31 -11t47.5 -2v-6h-393v6q56 0 70.5 19.5t14.5 78.5v484q0 60 -15 77.5t-70 17.5z" />
<glyph unicode="q" horiz-adv-x="633" d="M288 503q-13 0 -22.5 -8t-15 -26t-9 -35.5t-5 -48t-2 -52t-0.5 -58.5q0 -141 7.5 -194.5t40.5 -53.5q16 0 30 13.5t26 57.5t12 113v163q0 51 -17.5 90t-44.5 39zM255 -158q64 0 80 17.5t16 82.5v165q-4 -16 -6.5 -24t-13 -27.5t-23.5 -30.5t-36.5 -21t-52.5 -10 q-15 0 -34.5 5t-46 21t-47.5 41.5t-36 72t-15 105.5q0 121 58.5 207t134.5 86q82 0 118 -89v83h265v-7q-40 -2 -52 -22t-12 -73v-484q0 -61 12 -79.5t52 -18.5v-6h-361v6z" />
<glyph unicode="r" horiz-adv-x="538" d="M411 525q-54 0 -81 -32q-20 -23 -26.5 -54t-6.5 -84v-251q0 -59 14 -78.5t70 -19.5v-6h-371v6q56 0 70.5 19.5t14.5 78.5v320q0 59 -14.5 77t-70.5 18v7h278v-104q28 110 119 110q50 0 76.5 -33.5t26.5 -82.5q0 -47 -27.5 -76t-68.5 -29q-39 0 -66 25.5t-27 68.5 q0 41 26 66.5t68 25.5q34 0 60 -21q-3 29 -23 39t-41 10z" />
<glyph unicode="s" horiz-adv-x="524" d="M89 36q-27 0 -49 -36h-7v248h6q17 -89 90.5 -168.5t143.5 -79.5q36 0 56.5 22.5t20.5 52.5q0 20 -7 34.5t-25.5 26t-29.5 16t-39 14.5q-3 1 -4 1.5t-3 1t-4 1.5l-26 9q-32 11 -47.5 16.5t-42.5 20.5t-40.5 30.5t-25 42.5t-11.5 61q0 47 20 84t52 57.5t67 30.5t69 10 q37 0 86 -15t63 -15q21 0 29 27h7v-186h-6q-6 61 -61.5 122.5t-113.5 61.5q-37 0 -53.5 -24.5t-16.5 -51.5q0 -29 25 -51t87 -41l29 -9q74 -23 100 -40q62 -41 62 -130q0 -84 -60.5 -135.5t-144.5 -51.5q-49 0 -118 21.5t-78 21.5z" />
<glyph unicode="t" horiz-adv-x="398" d="M220 -5q-85 0 -113 36t-28 124v364h-52v7q86 4 163 57t85 134h6v-191h91v-7h-91v-392q0 -63 4 -78.5t19 -15.5q24 0 40 40q17 42 17 121h7q0 -43 -10 -93q-4 -21 -9.5 -34.5t-19 -32.5t-41 -29t-68.5 -10z" />
<glyph unicode="u" horiz-adv-x="707" d="M297 151q0 -62 6.5 -87.5t31.5 -25.5q14 0 23 7q29 19 37.5 61.5t8.5 129.5v188q0 52 -13.5 73t-52.5 22v7h268v-422q0 -59 14.5 -78.5t70.5 -19.5v-6h-289v99q-40 -105 -146 -105q-64 0 -109 32q-34 24 -43 57t-9 106v235q0 59 -14.5 77t-70.5 18v7h287v-375z" />
<glyph unicode="v" horiz-adv-x="647" d="M359 519q-53 -2 -53 -29q0 -14 20 -74l95 -285l57 189q20 64 20 104q0 48 -25 76q-17 19 -59 19h-4v7h227v-7h-1q-27 0 -49 -11.5t-35.5 -27t-25.5 -40t-18 -43.5t-13 -43q-2 -7 -3 -11l-102 -343h-140l-160 436q-22 61 -32 72t-48 11v7h349v-7z" />
<glyph unicode="w" horiz-adv-x="859" d="M616 519q-20 -2 -29 -10t-9 -29q0 -22 13 -67l66 -230l37 115q29 91 29 137q0 45 -22 68q-16 16 -53 16v7h201v-7q-42 -3 -70.5 -34.5t-60.5 -131.5l-111 -353h-92l-101 351l-100 -351h-95q-4 0 -34 105.5t-59 211.5l-28 106q-14 51 -30.5 72t-57.5 24v7h297v-7h-7.5 t-7.5 -0.5t-6 -1t-5.5 -1t-4 -2t-3 -3.5t-1.5 -4.5t-1 -6.5q0 -6 7 -34l79 -287l53 184l-37 127q-5 17 -11.5 23t-23.5 6v7h278v-7z" />
<glyph unicode="x" horiz-adv-x="708" d="M189 76h1q0 -30 25.5 -48.5t62.5 -21.5v-6h-268v6q50 0 91.5 36t128.5 139l46 55l-104 180q-5 8 -14.5 25.5t-13 23.5t-12 18t-14.5 16t-16 10t-21.5 8t-26.5 2v7h357v-7q-47 -2 -47 -33q0 -11 15 -38l57 -98l37 49q23 30 23 64q0 23 -7.5 35.5t-16.5 16t-24 4.5v7h190 v-7q-44 -5 -82.5 -38.5t-80.5 -89.5l-35 -47l137 -235q41 -70 59.5 -85.5t61.5 -17.5v-6h-370v6q53 6 53 34q0 6 -2.5 14.5t-9 20.5t-11 20.5t-14 24t-13.5 22.5l-51 88l-44 -53q-47 -57 -47 -101z" />
<glyph unicode="y" horiz-adv-x="672" d="M211 -186q55 0 94 37q49 46 75 149h-74l-203 433q-2 5 -8.5 18.5t-8.5 17.5t-7.5 14t-9 13t-10 9t-13 8t-16 4t-20.5 2v7h351v-7q-19 -1 -25.5 -2t-15 -7.5t-8.5 -18.5q0 -15 28 -79l100 -233l34 98q36 105 36 153q0 30 -13 59q-5 11 -14.5 17.5t-15 8t-21.5 4.5v7h216 v-7h-2q-57 0 -94.5 -49t-68.5 -142l-112 -338q-26 -81 -49 -114q-49 -69 -128 -70q-55 0 -88.5 29.5t-33.5 77.5q0 42 27 74.5t72 32.5q39 0 68 -26.5t29 -71.5q0 -43 -27 -66.5t-64 -23.5q-20 0 -44 8q17 -26 64 -26z" />
<glyph unicode="z" horiz-adv-x="566" d="M48 526h478l-275 -520h47q60 0 102.5 38.5t89.5 112.5q37 58 43 105h6v-262h-519l276 519h-38q-100 0 -164 -105q-32 -48 -40 -110h-6v222z" />
<glyph unicode="{" horiz-adv-x="468" d="M6 231v55q101 17 135 52t34 133v58q0 38 4.5 65.5t20 57.5t43 49t77.5 33t119 17v-49q-56 -8 -99 -33q-33 -19 -45 -44t-12 -67v-112q0 -45 -12.5 -77.5t-47.5 -59.5q-40 -31 -156 -51q113 -17 156 -50q35 -27 47.5 -59.5t12.5 -77.5v-112q0 -42 12 -67t45 -44 q43 -25 99 -33v-49q-69 3 -119 17t-77.5 33t-43 49t-20 57.5t-4.5 65.5v58q0 98 -34 133t-135 52z" />
<glyph unicode="|" horiz-adv-x="195" d="M132 -71h-75v879h75v-879z" />
<glyph unicode="}" horiz-adv-x="467" d="M461 231q-101 -17 -135 -52t-34 -133v-58q0 -38 -4.5 -65.5t-20 -57.5t-43 -49t-77.5 -33t-119 -17v49q56 8 99 33q33 19 45 44t12 67v112q0 45 12.5 77.5t47.5 59.5q43 33 156 50q-116 20 -156 51q-35 27 -47.5 59.5t-12.5 77.5v112q0 42 -12 67t-45 44q-43 25 -99 33 v49q69 -3 119 -17t77.5 -33t43 -49t20 -57.5t4.5 -65.5v-58q0 -98 34 -133t135 -52v-55z" />
<glyph unicode="~" horiz-adv-x="365" d="M129 783q21 0 73 -13.5t71 -13.5q22 0 44 23h7q-34 -85 -89 -85q-17 0 -78 15.5t-67 15.5q-22 0 -42 -27h-5q24 85 86 85z" />
<glyph unicode="&#xa1;" horiz-adv-x="327" d="M161 380h6q0 -39 1 -59.5t9.5 -52.5t25.5 -64l19 -35q66 -121 66 -183q0 -59 -32.5 -99.5t-91.5 -40.5t-91.5 40.5t-32.5 99.5q0 66 64 183l19 35q25 46 31.5 83.5t6.5 92.5zM49 524q0 48 33.5 81.5t81.5 33.5t82 -33.5t34 -81.5q0 -47 -34 -80.5t-82 -33.5t-81.5 33 t-33.5 81z" />
<glyph unicode="&#xa2;" horiz-adv-x="583" d="M35 383q0 46 20.5 94t57.5 89t96.5 67.5t129.5 26.5q46 0 80 -14l41 112l8 -5l-40 -111q19 -10 47 -31q58 -50 58 -107q0 -16 -4.5 -33.5t-15.5 -37t-34 -32.5t-55 -13q-38 0 -80 28l-79 -214q24 -69 97 -69q75 0 124 67t55 148h7q-14 -144 -110 -201q-41 -25 -112 -25 q-42 0 -87 10l-51 -134l-8 4l49 132q-41 11 -65 25q-63 36 -96 97.5t-33 126.5zM411 597q5 1 15 1q24 0 44 -9q-12 29 -46 46zM246 373q0 -114 13 -156l78 207q-27 27 -27 73q0 12 3 24.5t11 29t28 29.5t49 17l14 41q-20 14 -63 14q-61 0 -83.5 -68t-22.5 -211z" />
<glyph unicode="&#xa3;" horiz-adv-x="617" d="M300 149q59 -7 94 -7q112 0 151 46q18 23 23 94h7q-20 -236 -107 -282q-28 -14 -61 -14q-22 0 -40.5 4.5t-35 16t-26 19t-28 26l-25.5 25.5q-70 -78 -139 -78q-39 0 -63.5 20.5t-24.5 50.5q0 28 23 48q10 10 25.5 17t28.5 10.5t33.5 6t31 3.5t31 1.5t24.5 0.5 q-2 23 -5.5 43.5t-7 34.5t-10.5 35.5t-11 32t-15 39.5t-16 43h-80v8h78q-17 81 -17 127q0 123 75 196t176 73q46 0 79 -12.5t49 -34t22.5 -42t6.5 -43.5q0 -22 -6 -42.5t-29 -41t-61 -20.5q-37 0 -63.5 23t-26.5 67q0 45 29.5 64.5t63.5 19.5q31 0 56 -18q-4 26 -16.5 41.5 t-44.5 25.5q-18 5 -34 5q-41 0 -72 -32t-31 -119q0 -37 4.5 -67t15 -79.5t17.5 -90.5h113v-8h-112q2 -30 2 -42q0 -17 -1 -31t-4.5 -29.5t-5 -24.5t-8 -27t-9 -24t-11.5 -29t-12 -29zM114 136q-33 0 -57 -19t-24 -47q0 -24 18.5 -44t57.5 -20q27 0 48 9t31 19t18 27.5 t9.5 22t3.5 15.5q-54 37 -105 37z" />
<glyph unicode="&#xa7;" horiz-adv-x="528" d="M466 3q0 -89 -64 -152.5t-153 -63.5q-64 0 -110 29.5t-46 84.5q0 47 21 75t65 28q31 0 51 -22.5t20 -49.5q0 -25 -16 -48t-53 -23q-28 0 -46.5 19.5t-18.5 46.5q0 9 6 35q-18 -25 -18 -71q0 -50 59 -79q38 -19 89 -19q57 0 114 37t57 90q0 47 -40.5 81.5t-98 56.5 t-114.5 45.5t-97.5 64.5t-40.5 98q0 46 30 98t71 83q-46 40 -46 116q0 88 55.5 152t141.5 64q64 0 110 -29.5t46 -84.5q0 -47 -21 -75t-65 -28q-31 0 -51 22.5t-20 49.5q0 25 16 48t53 23q28 0 46.5 -19.5t18.5 -46.5q0 -9 -6 -35q18 26 18 71q0 50 -59 79q-38 19 -89 19 q-55 0 -103 -36.5t-48 -90.5q0 -47 37 -79.5t90 -52.5t106 -41.5t90 -61t37 -96.5q0 -54 -19.5 -95t-70.5 -92q66 -38 66 -125zM454 234q0 42 -48.5 72.5t-134.5 66.5t-133 69q-67 -52 -67 -109q0 -42 53 -74.5t141.5 -67t126.5 -58.5q62 57 62 101z" />
<glyph unicode="&#xa8;" horiz-adv-x="333" d="M50 719q0 19 14 33t33 14t33 -14t14 -33t-14 -33t-33 -14t-33 14t-14 33zM188 719q0 19 14 33t33 14t33 -14t14 -33t-14 -33t-33 -14t-33 14t-14 33z" />
<glyph unicode="&#xaa;" horiz-adv-x="399" d="M329 639v-156q0 -27 10 -27q5 0 11 6t12.5 26t7.5 49h4q0 -71 -31 -86q-19 -11 -49 -11q-21 0 -32 5q-24 9 -34.5 22t-18.5 41q-16 -50 -48 -63q-9 -4 -33 -4q-103 0 -103 80q0 12 4 28q5 16 12 25.5t19.5 15t21.5 8t29 5.5l14 2q28 5 46.5 14t26 23t9.5 25t2 28 q0 39 -11 51t-32 12q-49 0 -62 -31q4 2 13 2q19 0 34.5 -13t15.5 -37q0 -26 -18.5 -42t-41.5 -16t-40.5 16.5t-17.5 43.5q0 37 39.5 59.5t97.5 22.5q66 0 102 -26q27 -19 34 -41.5t7 -56.5zM190 628q-29 -22 -36 -32t-10 -35q-2 -12 -2 -32q0 -12 2 -40q3 -35 17 -35 q8 0 12 4q16 10 24 32t9.5 40.5t1.5 48.5v78q-3 -19 -18 -29z" />
<glyph unicode="&#xab;" horiz-adv-x="442" d="M25 253l143 174h78l-143 -174l143 -174h-78zM176 253l141 174h78l-142 -174l142 -174h-78z" />
<glyph unicode="&#xad;" horiz-adv-x="311" d="M56 299h197v-47h-197v47z" />
<glyph unicode="&#xae;" horiz-adv-x="741" d="M721 498l-34 -90h-132l-42 -118h132l-31 -91h-134l-72 -199h-106l70 199h-113l-72 -199h-106l70 199h-131l30 91h133l42 118h-131l33 90h131l70 199h109l-72 -199h114l72 199h108l-72 -199h134zM446 408h-112l-43 -118h114z" />
<glyph unicode="&#xb0;" horiz-adv-x="392" d="M41 615q0 67 44.5 108t110.5 41t110 -41t44 -108t-44 -108t-110 -41t-110.5 41t-44.5 108zM149 702v-174q0 -27 13 -41.5t34 -14.5q20 0 33 14.5t13 41.5v174q0 27 -13 41.5t-33 14.5q-21 0 -34 -14.5t-13 -41.5z" />
<glyph unicode="&#xb2;" horiz-adv-x="443" d="M199 386q10 0 65 -3.5t63 -3.5q38 0 51.5 19t15.5 54h6v-25q-1 -29 -4 -50t-11.5 -48t-27.5 -46t-47 -29q-23 -7 -38 -7q-32 0 -61 21t-55 42t-51 21q-19 0 -35 -14t-16 -38l1 -20l-5 -1q-7 25 -7 56q0 43 13 71q24 54 76 82l23 12q69 36 85.5 65.5t16.5 93.5 q0 69 -25 94.5t-58 25.5q-28 0 -59.5 -22.5t-31.5 -72.5q19 22 47 22q29 0 46.5 -17.5t17.5 -46.5q0 -34 -22 -49t-45 -15q-31 0 -52 19.5t-21 55.5q0 10 3 25t17 39.5t36 43.5q30 26 99 26q72 0 127 -34t55 -98q0 -27 -10.5 -49t-23.5 -35t-35 -24t-35 -15.5t-35 -10.5 q-5 -1 -7 -2l-59 -18q-23 -7 -36.5 -12.5t-33 -17.5t-34.5 -31.5t-25 -46.5q-9 -22 -9 -53q0 -2 0.5 -8t0.5 -9q28 84 150 84z" />
<glyph unicode="&#xb3;" horiz-adv-x="442" d="M372 653q0 -43 -33.5 -72.5t-79.5 -42.5q39 -8 68 -22t43.5 -28t23 -31.5t10 -28t1.5 -21.5q0 -44 -23 -76t-58.5 -48.5t-69.5 -23.5t-66 -7q-65 0 -108 35t-43 88q0 42 22.5 62t49.5 20h3q30 0 49 -17.5t19 -44.5q0 -25 -15.5 -48t-49.5 -23q-26 0 -44 14 q10 -43 42.5 -62t71.5 -19q42 0 63.5 30.5t21.5 112.5q0 80 -20 106.5t-69 26.5q-5 0 -13 -0.5t-12 -0.5v8q12 -2 24 -2q37 0 55 19q15 18 15 75q0 78 -16.5 102t-47.5 24q-63 0 -76 -47q8 7 26 7q23 0 42 -14t19 -48q0 -35 -19.5 -50t-42.5 -15q-26 0 -45 18.5t-19 47.5 q0 38 33 73.5t105 35.5q69 0 116 -30.5t47 -82.5z" />
<glyph unicode="&#xb4;" horiz-adv-x="167" d="M119 783q15 0 26.5 -9.5t11.5 -24.5q0 -24 -22 -40.5t-58 -38t-56 -48.5l-5 4q19 26 35.5 68t30.5 65.5t37 23.5z" />
<glyph unicode="&#xb6;" horiz-adv-x="528" d="M414 707v-418q0 -81 -12.5 -138.5t-52.5 -105.5q-37 -44 -68 -65.5t-70 -21.5q-45 0 -76 27t-31 64q0 26 18 43.5t39 17.5q19 0 38.5 -13t19.5 -41q0 -11 -3 -21t-18 -21t-41 -11q0 -13 15.5 -25.5t39.5 -12.5q21 0 40 11t39 38.5t31.5 87t11.5 144.5v130h-36 q-37 0 -61.5 2.5t-60.5 11t-65 32t-51 59.5q-25 42 -25 91q0 55 30 100q43 66 95.5 83.5t143.5 17.5h204v-7h-15q-52 0 -65.5 -10.5t-13.5 -48.5zM271 592v-62q0 -38 2 -61t8 -45t19 -32t34 -10v384q-43 0 -53 -33.5t-10 -140.5zM291 -1q28 23 42 38t34.5 47t30 77t9.5 106 v499h-66v-507q0 -175 -50 -260z" />
<glyph unicode="&#xb7;" horiz-adv-x="261" d="M34 -99l88 100h6l-41 -49q97 -9 127 -29q26 -18 26 -38q0 -23 -34 -46t-74 -23q-20 0 -54 8t-56 26l3 4q48 -31 102 -31q16 0 28 10.5t12 25.5q0 42 -133 42z" />
<glyph unicode="&#xb9;" horiz-adv-x="301" d="M281 251v-4h-267v4q44 0 57 13.5t13 67.5v280q0 42 -8 53t-41 11v4q43 10 94 33t82 53v-434q0 -52 12.5 -66.5t57.5 -14.5z" />
<glyph unicode="&#xba;" horiz-adv-x="366" d="M87 569q0 -41 27.5 -68t67.5 -27t67.5 27t27.5 68t-27.5 68t-67.5 27t-67.5 -27t-27.5 -68zM39 569q0 60 41.5 101.5t101.5 41.5t101.5 -41.5t41.5 -101.5t-41.5 -101.5t-101.5 -41.5t-101.5 41.5t-41.5 101.5z" />
<glyph unicode="&#xbb;" horiz-adv-x="442" d="M189 253l-143 174h79l141 -174l-141 -174h-79zM339 253l-144 174h79l142 -174l-142 -174h-79z" />
<glyph unicode="&#xbc;" horiz-adv-x="734" d="M90 658q0 32 -9.5 39.5t-39.5 7.5v4q113 28 172 84v-422q0 -47 11.5 -63t45.5 -16v-4h-237v4q34 0 45.5 16t11.5 63v287zM348 167h148v254zM688 4v-4h-258v4q44 0 55.5 13.5t11.5 65.5v60h-170l202 343h92v-319h47q4 0 7 0.5t5.5 1t4.5 2t3.5 2t3 3.5l2 4t2 5t2 5.5t2 7 t2.5 7.5h7l-15 -62h-73v-60q0 -52 11.5 -65.5t55.5 -13.5zM554 820l-429 -859h-9l430 859h8z" />
<glyph unicode="&#xbd;" horiz-adv-x="746" d="M90 658q0 32 -9.5 39.5t-39.5 7.5v4q113 28 172 84v-422q0 -47 11.5 -63t45.5 -16v-4h-237v4q34 0 45.5 16t11.5 63v287zM520 125q8 0 52.5 -3.5t74.5 -3.5q28 0 45.5 20t17.5 51h5v-24q0 -138 -87 -168q-20 -7 -40 -7q-31 0 -59 20.5t-53 41t-50 20.5q-22 0 -34.5 -16 t-12.5 -35l1 -20h-5q-6 26 -6 54q0 45 13 69q26 55 73 80l22 12q37 20 57 35t29.5 35t11 35t1.5 49q0 116 -81 116q-21 0 -42 -11q-45 -23 -46 -80q17 20 48 20q33 0 47 -19t14 -42q0 -33 -21.5 -48t-44.5 -15q-30 0 -50 19.5t-20 54.5q0 33 16 59q41 71 133 71 q68 0 122.5 -34t54.5 -96q0 -16 -3.5 -30t-11 -25.5t-14.5 -20.5t-19 -16.5t-20.5 -12.5t-21.5 -10t-19.5 -7t-18.5 -5.5t-13 -3.5l-58 -18l-9 -3q-9 -3 -14 -4.5t-16 -6.5t-18.5 -9t-18 -12t-17.5 -16t-15.5 -20t-13.5 -24.5t-8 -29.5t-3 -36v-12q29 82 146 82zM554 820 l-429 -859h-8l429 859h8z" />
<glyph unicode="&#xbe;" horiz-adv-x="778" d="M389 167h148v254zM729 4v-4h-258v4q44 0 55.5 13.5t11.5 65.5v60h-170l202 343h92v-319h47q4 0 7 0.5t5.5 1t4.5 2t3.5 2t3 3.5l2 4t2 5t2 5.5t2 7t2.5 7.5h7l-15 -62h-73v-60q0 -52 11.5 -65.5t55.5 -13.5zM356 684q0 -45 -36.5 -74t-74.5 -37q142 -29 142 -126 q0 -73 -63.5 -112.5t-147.5 -39.5q-65 0 -106 35.5t-41 83.5q0 37 21 59t50 22q30 0 49 -18.5t19 -47.5q0 -28 -17 -46t-46 -18q-25 0 -43 14q22 -79 113 -79q40 0 60.5 29.5t20.5 107.5q0 74 -19 103t-71 29q-4 0 -10.5 -0.5t-9.5 -0.5v7q12 -2 23 -2q40 0 54 20.5t14 73.5 q0 70 -15 95t-46 25q-58 0 -76 -46q10 7 26 7q22 0 40 -14.5t18 -46.5q0 -35 -19.5 -49t-40.5 -14q-27 0 -44.5 19.5t-17.5 45.5q0 39 33 72t100 33q69 0 115 -30t46 -80zM620 820l-429 -859h-9l429 859h9z" />
<glyph unicode="&#xbf;" horiz-adv-x="632" d="M21 56q0 31 13 57.5t29.5 43t49.5 34t53.5 25.5t63 22.5t57.5 20.5q50 19 66.5 47t16.5 77h6q3 -20 3 -35q0 -29 -19 -69t-42 -75t-42 -86t-19 -99q0 -63 33 -108.5t93 -45.5q64 0 94 30.5t33 58.5q-14 -6 -32 -6q-45 0 -78.5 30t-33.5 86t33.5 87.5t82.5 31.5 q41 0 81 -30t40 -89q0 -58 -32 -102q-80 -109 -221 -109q-143 0 -236 53t-93 150zM463 528q0 -46 -32.5 -78.5t-78.5 -32.5t-78.5 32.5t-32.5 78.5t32.5 78.5t78.5 32.5t78.5 -32.5t32.5 -78.5z" />
<glyph unicode="&#xc0;" horiz-adv-x="890" d="M384 1020q24 0 39 -24t30.5 -66.5t33.5 -66.5l-5 -4q-13 21 -38 38.5t-45.5 27.5t-36.5 26t-16 35q0 12 9 23t29 11zM483 6q31 0 45.5 9t14.5 33q0 18 -20 80l-63 197h-215q-45 -135 -45 -189q0 -48 23 -82q15 -22 40 -33.5t42.5 -13t46.5 -1.5v-6h-347v6q34 0 63 13 t48 32t37 51t29 59.5t24 68.5l183 553h166l234 -709q13 -40 34 -54t62 -14v-6h-445v6h43zM247 332h210l-100 332z" />
<glyph unicode="&#xc1;" horiz-adv-x="890" d="M538 1020q20 0 29 -11t9 -23q0 -19 -16 -35t-36.5 -26t-45.5 -27.5t-38 -38.5l-5 4q18 24 33.5 66.5t30.5 66.5t39 24zM483 6l1 1q31 0 45.5 9t14.5 32q0 18 -20 80l-63 197h-215q-45 -135 -45 -189q0 -49 22 -82q15 -22 40 -33.5t42.5 -13t46.5 -1.5v-6h-347v6 q34 0 63 13t48 32t37 51t29 59.5t24 68.5l183 553h166l234 -709q13 -40 34 -54t62 -14v-6h-445v6h43zM248 333h210l-100 332z" />
<glyph unicode="&#xc2;" horiz-adv-x="890" d="M483 6q31 0 45.5 9t14.5 33q0 18 -20 80l-63 197h-215q-45 -135 -45 -189q0 -48 23 -82q15 -22 40 -33.5t42.5 -13t46.5 -1.5v-6h-347v6q34 0 63 13t48 32t37 51t29 59.5t24 68.5l183 553h166l234 -709q13 -40 34 -54t62 -14v-6h-445v6h43zM247 332h210l-100 332z M348 865l133 123l133 -123l-4 -4l-129 60l-130 -60z" />
<glyph unicode="&#xc3;" horiz-adv-x="890" d="M423 950q21 0 73 -13.5t71 -13.5q22 0 44 23h7q-34 -85 -89 -85q-17 0 -78 15.5t-67 15.5q-22 0 -42 -27h-5q24 85 86 85zM483 6q31 0 45.5 9t14.5 33q0 18 -20 80l-63 197h-215q-45 -135 -45 -189q0 -48 23 -82q15 -22 40 -33.5t42.5 -13t46.5 -1.5v-6h-347v6 q34 0 63 13t48 32t37 51t29 59.5t24 68.5l183 553h166l234 -709q13 -40 34 -54t62 -14v-6h-445v6h43zM247 332h210l-100 332z" />
<glyph unicode="&#xc4;" horiz-adv-x="890" d="M483 6l1 1q31 0 45.5 9t14.5 32q0 18 -20 80l-63 197h-215q-45 -135 -45 -189q0 -49 22 -82q15 -22 40 -33.5t42.5 -13t46.5 -1.5v-6h-347v6q34 0 63 13t48 32t37 51t29 59.5t24 68.5l183 553h166l234 -709q13 -40 34 -54t62 -14v-6h-445v6h43zM248 333h210l-100 332z M360 908q0 19 14.5 33t33.5 14t33 -14t14 -33t-14 -33.5t-33 -14.5q-20 0 -34 14t-14 34zM499 908q0 19 14 33t33 14t33 -14t14 -33q0 -20 -14 -34t-33 -14t-33 14t-14 34z" />
<glyph unicode="&#xc5;" horiz-adv-x="890" d="M483 6l1 1q31 0 45.5 9t14.5 32q0 18 -20 80l-63 197h-215q-45 -135 -45 -189q0 -49 22 -82q15 -22 40 -33.5t42.5 -13t46.5 -1.5v-6h-347v6q34 0 63 13t48 32t37 51t29 59.5t24 68.5l183 553h166l234 -709q13 -40 34 -54t62 -14v-6h-445v6h43zM248 333h210l-100 332z M482 865q28 0 28 47v58q0 47 -28 47t-28 -47v-58q0 -47 28 -47zM403 941q0 33 25.5 57t53.5 24t53.5 -24t25.5 -57t-25.5 -56.5t-53.5 -23.5t-53.5 23.5t-25.5 56.5z" />
<glyph unicode="&#xc6;" horiz-adv-x="1134" d="M486 332v369l-187 -369h187zM343 6v-6h-338v6q66 0 118 49.5t98 140.5l264 515q-1 30 -24.5 48t-87.5 18h-6v6h678v-300h-6q0 69 -31 134.5t-97 112.5q-40 29 -81.5 38t-113.5 9v-357q72 0 112 26t65 89q10 30 10 78h7v-394h-7q0 50 -10 77q-25 64 -65.5 90.5 t-111.5 26.5v-291q0 -78 9.5 -96.5t47.5 -18.5q86 0 121 16q88 39 131 108t50 216h6v-347h-714v6h6q75 0 94 23t19 93v203h-191l-55 -112q-27 -54 -27 -101q0 -54 26 -80t104 -26z" />
<glyph unicode="&#xc7;" horiz-adv-x="820" d="M727 785h6v-377h-6q-7 83 -65.5 201.5t-134.5 155.5q-42 21 -95 21q-34 0 -52 -13q-100 -70 -100 -326v-118q0 -58 8 -109.5t27.5 -104.5t61 -84.5t100.5 -31.5q72 0 133 35q40 23 68 54.5t44 76t21.5 66.5t14.5 71l3 15h6q-8 -51 -16.5 -86t-25.5 -76.5t-46.5 -74 t-71.5 -55.5q-62 -35 -137 -35l-39 -47q79 0 116 -21.5t37 -47.5q0 -22 -38 -44.5t-71 -22.5q-28 0 -59.5 9.5t-49.5 24.5l3 4q47 -31 105 -31q16 0 26.5 11t10.5 24q0 22 -30.5 32.5t-102.5 11.5l85 97h-22q-100 0 -181 32t-131 85t-77 117.5t-27 133.5q0 101 50 207.5 t147 164.5q105 63 200 63q51 0 94.5 -16.5t76.5 -33t58 -16.5q33 2 51.5 15t24.5 43z" />
<glyph unicode="&#xc8;" horiz-adv-x="787" d="M291 1020q24 0 39 -24t30.5 -66.5t33.5 -66.5l-5 -4q-13 21 -38 38.5t-45.5 27.5t-36.5 26t-16 35q0 12 9 23t29 11zM369 122q0 -78 9.5 -96.5t47.5 -18.5q86 0 121 16q88 39 131 108t50 216h6v-347h-714v6h6q75 0 94 23t19 93v539q0 70 -19 93t-94 23h-6v6h678v-300h-6 q0 69 -31 134.5t-97 112.5q-40 29 -81.5 38t-113.5 9v-357q72 0 112 26t65 89q10 30 10 78h7v-394h-7q0 50 -10 77q-25 64 -65.5 90.5t-111.5 26.5v-291z" />
<glyph unicode="&#xc9;" horiz-adv-x="787" d="M369 122q0 -78 9.5 -96.5t47.5 -18.5q86 0 121 16q88 39 131 108t50 216h6v-347h-714v6h6q75 0 94 23t19 93v539q0 70 -19 93t-94 23h-6v6h678v-300h-6q0 69 -31 134.5t-97 112.5q-40 29 -81.5 38t-113.5 9v-357q72 0 112 26t65 89q10 30 10 78h7v-394h-7q0 50 -10 77 q-25 64 -65.5 90.5t-111.5 26.5v-291zM438 1020q20 0 29 -11t9 -23q0 -19 -16 -35t-36.5 -26t-45.5 -27.5t-38 -38.5l-5 4q18 24 33.5 66.5t30.5 66.5t39 24z" />
<glyph unicode="&#xca;" horiz-adv-x="787" d="M369 122q0 -78 9.5 -96.5t47.5 -18.5q86 0 121 16q88 39 131 108t50 216h6v-347h-714v6h6q75 0 94 23t19 93v539q0 70 -19 93t-94 23h-6v6h678v-300h-6q0 69 -31 134.5t-97 112.5q-40 29 -81.5 38t-113.5 9v-357q72 0 112 26t65 89q10 30 10 78h7v-394h-7q0 50 -10 77 q-25 64 -65.5 90.5t-111.5 26.5v-291zM313 865l133 123l133 -123l-3 -4l-130 60l-130 -60z" />
<glyph unicode="&#xcb;" horiz-adv-x="787" d="M369 122q0 -78 9.5 -96.5t47.5 -18.5q86 0 121 16q88 39 131 108t50 216h6v-347h-714v6h6q75 0 94 23t19 93v539q0 70 -19 93t-94 23h-6v6h678v-300h-6q0 69 -31 134.5t-97 112.5q-40 29 -81.5 38t-113.5 9v-357q72 0 112 26t65 89q10 30 10 78h7v-394h-7q0 50 -10 77 q-25 64 -65.5 90.5t-111.5 26.5v-291zM320 907q0 19 14 33t33 14t33.5 -14t14.5 -33t-14.5 -33.5t-33.5 -14.5t-33 14.5t-14 33.5zM459 907q0 19 14 33t33 14t33 -14t14 -33q0 -20 -14 -34t-33 -14t-33 14t-14 34z" />
<glyph unicode="&#xcc;" horiz-adv-x="508" d="M178 1020q24 0 39 -24t30.5 -66.5t33.5 -66.5l-5 -4q-13 21 -38 38.5t-45.5 27.5t-36.5 26t-16 35q0 12 9 23t29 11zM481 777q-40 0 -62.5 -5t-33.5 -21.5t-13.5 -34.5t-2.5 -55v-539q0 -37 2.5 -55t13.5 -34.5t33.5 -21.5t62.5 -5h7v-6h-468v6h6q75 0 94 23t19 93v539 q0 70 -19 93t-94 23h-6v6h468v-6h-7z" />
<glyph unicode="&#xcd;" horiz-adv-x="508" d="M334 1020q20 0 29 -11t9 -23q0 -19 -16 -35t-36.5 -26t-45.5 -27.5t-38 -38.5l-5 4q18 24 33.5 66.5t30.5 66.5t39 24zM481 777q-40 0 -62.5 -5t-33.5 -21.5t-13.5 -34.5t-2.5 -55v-539q0 -37 2.5 -55t13.5 -34.5t33.5 -21.5t62.5 -5h7v-6h-468v6h6q75 0 94 23t19 93v539 q0 70 -19 93t-94 23h-6v6h468v-6h-7z" />
<glyph unicode="&#xce;" horiz-adv-x="508" d="M481 777q-40 0 -62.5 -5t-33.5 -21.5t-13.5 -34.5t-2.5 -55v-539q0 -37 2.5 -55t13.5 -34.5t33.5 -21.5t62.5 -5h7v-6h-468v6h6q75 0 94 23t19 93v539q0 70 -19 93t-94 23h-6v6h468v-6h-7zM126 865l133 123l133 -123l-3 -4l-130 60l-130 -60z" />
<glyph unicode="&#xcf;" horiz-adv-x="508" d="M481 777q-40 0 -62.5 -5t-33.5 -21.5t-13.5 -34.5t-2.5 -55v-539q0 -37 2.5 -55t13.5 -34.5t33.5 -21.5t62.5 -5h7v-6h-468v6h6q75 0 94 23t19 93v539q0 70 -19 93t-94 23h-6v6h468v-6h-7zM165 907q0 19 14 33t33 14t33 -14t14 -33q0 -20 -14 -34t-33 -14t-33 14t-14 34z M303 907q0 19 14 33t33 14t33.5 -14t14.5 -33t-14 -33.5t-34 -14.5q-19 0 -33 14.5t-14 33.5z" />
<glyph unicode="&#xd0;" horiz-adv-x="887" d="M420 777h-58v-355h84v-10h-84v-290q0 -74 13 -95t65 -21q60 0 88 13q45 22 56.5 99t11.5 282q0 155 -7 219.5t-35 105.5q-36 52 -134 52zM20 777h-7v6h425q51 0 81.5 -2t74 -12t74 -28.5t65.5 -54.5t65 -88q49 -86 49 -208q0 -136 -56 -234q-22 -38 -47 -65.5t-54.5 -44 t-54.5 -26.5t-61.5 -14t-58 -5t-60.5 -1h-442v6h7q40 0 62.5 5t33.5 21.5t13.5 34.5t2.5 55v290h-93v10h93v239q0 37 -2.5 55t-13.5 34.5t-33.5 21.5t-62.5 5z" />
<glyph unicode="&#xd1;" horiz-adv-x="834" d="M35 777h-7v6h366l290 -568v380q0 102 -23.5 142t-93.5 40h-10v6h261v-6h-11q-69 0 -92 -40t-23 -142v-595h-182l-355 688v-500q0 -102 23 -142t92 -40h11v-6h-261v6h10q70 0 93.5 40t23.5 142v473q0 37 -2.5 55t-13.5 34.5t-33.5 21.5t-62.5 5zM434 950q21 0 73 -13.5 t71 -13.5q22 0 44 23h7q-34 -85 -89 -85q-17 0 -78 15.5t-67 15.5q-23 0 -42 -27h-5q24 85 86 85z" />
<glyph unicode="&#xd2;" horiz-adv-x="856" d="M365 1020q24 0 39 -24t30.5 -66.5t33.5 -66.5l-5 -4q-13 21 -38 38.5t-45.5 27.5t-36.5 26t-16 35q0 12 9 23t29 11zM817 391q0 -165 -114 -284t-276 -119t-275.5 119t-113.5 284t113.5 284t275.5 119t276 -119t114 -284zM570 391v67q0 45 -1.5 78t-6 74.5t-14 70t-25 55 t-40 39.5t-57.5 13t-57.5 -13t-40 -39.5t-25 -55t-14 -70t-6 -74.5t-1.5 -78v-67v-67q0 -45 1.5 -77.5t6 -74t14 -70t25 -54.5t40 -39t57.5 -13t57.5 13t40 39t25 54.5t14 70t6 74t1.5 77.5v67z" />
<glyph unicode="&#xd3;" horiz-adv-x="856" d="M495 1020q20 0 29 -11t9 -23q0 -19 -16 -35t-36.5 -26t-45.5 -27.5t-38 -38.5l-5 4q18 24 33.5 66.5t30.5 66.5t39 24zM817 391q0 -165 -114 -284t-276 -119t-275.5 119t-113.5 284t113.5 284t275.5 119t276 -119t114 -284zM570 391v67q0 45 -1.5 78t-6 74.5t-14 70 t-25 55t-40 39.5t-57.5 13t-57.5 -13t-40 -39.5t-25 -55t-14 -70t-6 -74.5t-1.5 -78v-67v-67q0 -45 1.5 -77.5t6 -74t14 -70t25 -54.5t40 -39t57.5 -13t57.5 13t40 39t25 54.5t14 70t6 74t1.5 77.5v67z" />
<glyph unicode="&#xd4;" horiz-adv-x="856" d="M817 391q0 -165 -114 -284t-276 -119t-275.5 119t-113.5 284t113.5 284t275.5 119t276 -119t114 -284zM570 391v67q0 45 -1.5 78t-6 74.5t-14 70t-25 55t-40 39.5t-57.5 13t-57.5 -13t-40 -39.5t-25 -55t-14 -70t-6 -74.5t-1.5 -78v-67v-67q0 -45 1.5 -77.5t6 -74t14 -70 t25 -54.5t40 -39t57.5 -13t57.5 13t40 39t25 54.5t14 70t6 74t1.5 77.5v67zM293 865l133 123l133 -123l-3 -4l-130 60l-129 -60z" />
<glyph unicode="&#xd5;" horiz-adv-x="856" d="M416 950q21 0 73 -13.5t71 -13.5q22 0 44 23h7q-34 -85 -89 -85q-17 0 -78 15.5t-67 15.5q-23 0 -42 -27h-5q24 85 86 85zM817 391q0 -165 -114 -284t-276 -119t-275.5 119t-113.5 284t113.5 284t275.5 119t276 -119t114 -284zM570 391v67q0 45 -1.5 78t-6 74.5t-14 70 t-25 55t-40 39.5t-57.5 13t-57.5 -13t-40 -39.5t-25 -55t-14 -70t-6 -74.5t-1.5 -78v-67v-67q0 -45 1.5 -77.5t6 -74t14 -70t25 -54.5t40 -39t57.5 -13t57.5 13t40 39t25 54.5t14 70t6 74t1.5 77.5v67z" />
<glyph unicode="&#xd6;" horiz-adv-x="856" d="M817 391q0 -165 -114 -284t-276 -119t-275.5 119t-113.5 284t113.5 284t275.5 119t276 -119t114 -284zM570 391v67q0 45 -1.5 78t-6 74.5t-14 70t-25 55t-40 39.5t-57.5 13t-57.5 -13t-40 -39.5t-25 -55t-14 -70t-6 -74.5t-1.5 -78v-67v-67q0 -45 1.5 -77.5t6 -74t14 -70 t25 -54.5t40 -39t57.5 -13t57.5 13t40 39t25 54.5t14 70t6 74t1.5 77.5v67zM320 907q0 19 14 33t33 14t33.5 -14t14.5 -33t-14.5 -33.5t-33.5 -14.5t-33 14.5t-14 33.5zM459 907q0 19 14 33t33 14t33 -14t14 -33q0 -20 -14 -34t-33 -14t-33 14t-14 34z" />
<glyph unicode="&#xd8;" horiz-adv-x="877" d="M587 391v67q0 54 -1 81l-286 -285q2 -55 8.5 -96.5t21.5 -80.5t43.5 -60t69.5 -21q33 0 57.5 13t40 39t25 54.5t14 70t6 74t1.5 77.5v67zM834 391q0 -165 -114 -284t-276 -119q-169 0 -283 127l-115 -114l-5 4l115 115q-101 115 -101 271q0 165 113.5 284t275.5 119 q159 0 272 -115l106 105l5 -4l-106 -106q113 -118 113 -283zM300 263l285 285q-3 70 -14.5 119t-43.5 85t-84 36q-33 0 -57.5 -13t-40 -39.5t-25 -55t-14 -70t-6 -74.5t-1.5 -78v-67v-67q0 -41 1 -61z" />
<glyph unicode="&#xd9;" horiz-adv-x="847" d="M429 1020q24 0 39 -24t30.5 -66.5t33.5 -66.5l-5 -4q-13 21 -38 38.5t-45.5 27.5t-36.5 26t-16 35q0 12 9 23t29 11zM711 219q0 -83 -14.5 -119.5t-76.5 -72.5q-64 -37 -172 -37q-128 0 -207 44q-62 34 -78.5 76t-16.5 117v434q0 37 -2.5 55t-13.5 34.5t-33.5 21.5 t-62.5 5h-7v6h468v-6h-6q-75 0 -94 -23t-19 -93v-459q0 -81 7.5 -108t38.5 -45q39 -21 109 -21q66 0 103 20q45 26 57 60t12 115v375q0 41 -1.5 63.5t-8 48.5t-20 38t-37 20.5t-59.5 8.5v6h260v-6q-36 0 -59.5 -8.5t-37 -20.5t-20 -38t-8 -48.5t-1.5 -63.5v-379z" />
<glyph unicode="&#xda;" horiz-adv-x="847" d="M543 1020q20 0 29 -11t9 -23q0 -19 -16 -35t-36.5 -26t-45.5 -27.5t-38 -38.5l-5 4q18 24 33.5 66.5t30.5 66.5t39 24zM711 219q0 -83 -14.5 -119.5t-76.5 -72.5q-64 -37 -172 -37q-128 0 -207 44q-62 34 -78.5 76t-16.5 117v434q0 37 -2.5 55t-13.5 34.5t-33.5 21.5 t-62.5 5h-7v6h468v-6h-6q-75 0 -94 -23t-19 -93v-459q0 -81 7.5 -108t38.5 -45q39 -21 109 -21q66 0 103 20q45 26 57 60t12 115v375q0 41 -1.5 63.5t-8 48.5t-20 38t-37 20.5t-59.5 8.5v6h260v-6q-36 0 -59.5 -8.5t-37 -20.5t-20 -38t-8 -48.5t-1.5 -63.5v-379z" />
<glyph unicode="&#xdb;" horiz-adv-x="847" d="M711 219q0 -83 -14.5 -119.5t-76.5 -72.5q-64 -37 -172 -37q-128 0 -207 44q-62 34 -78.5 76t-16.5 117v434q0 37 -2.5 55t-13.5 34.5t-33.5 21.5t-62.5 5h-7v6h468v-6h-6q-75 0 -94 -23t-19 -93v-459q0 -81 7.5 -108t38.5 -45q39 -21 109 -21q66 0 103 20q45 26 57 60 t12 115v375q0 41 -1.5 63.5t-8 48.5t-20 38t-37 20.5t-59.5 8.5v6h260v-6q-36 0 -59.5 -8.5t-37 -20.5t-20 -38t-8 -48.5t-1.5 -63.5v-379zM369 865l133 123l133 -123l-4 -4l-129 60l-130 -60z" />
<glyph unicode="&#xdc;" horiz-adv-x="847" d="M711 219q0 -83 -14.5 -119.5t-76.5 -72.5q-64 -37 -172 -37q-128 0 -207 44q-62 34 -78.5 76t-16.5 117v434q0 37 -2.5 55t-13.5 34.5t-33.5 21.5t-62.5 5h-7v6h468v-6h-6q-75 0 -94 -23t-19 -93v-459q0 -81 7.5 -108t38.5 -45q39 -21 109 -21q66 0 103 20q45 26 57 60 t12 115v375q0 41 -1.5 63.5t-8 48.5t-20 38t-37 20.5t-59.5 8.5v6h260v-6q-36 0 -59.5 -8.5t-37 -20.5t-20 -38t-8 -48.5t-1.5 -63.5v-379zM393 907q0 19 14 33t33 14t33.5 -14t14.5 -33t-14 -33.5t-34 -14.5q-19 0 -33 14.5t-14 33.5zM532 907q0 19 14 33t33 14t33 -14 t14 -33q0 -20 -14 -34t-33 -14t-33 14t-14 34z" />
<glyph unicode="&#xde;" horiz-adv-x="762" d="M745 446q0 -86 -70 -147t-161 -70q-35 -3 -60 -3q-31 0 -74 5v-109q0 -70 19 -93t94 -23h7v-6h-468v6h6q75 0 94 23t19 93v539q0 68 -21 92t-92 24h-6v6h468v-6h-7q-75 0 -94 -23t-19 -93q43 5 74 5q25 0 60 -3q91 -9 161 -70t70 -147zM522 532q0 85 -33 110 q-20 16 -58 16q-17 0 -51 -4v-416q34 -4 51 -4q38 0 58 16q33 25 33 110v172z" />
<glyph unicode="&#xdf;" horiz-adv-x="579" d="M381 773q108 0 190.5 -50t82.5 -141q0 -64 -42.5 -116.5t-96.5 -66.5q93 -16 149 -62t56 -123q0 -95 -79 -156t-182 -61q-24 0 -56 10.5t-34 10.5q-16 0 -21 -17h-7v186h6q3 -24 4.5 -32.5t6.5 -36t11 -41.5t15 -33t22.5 -27.5t29.5 -8.5q45 0 65 42q26 54 26 162 q0 130 -43 160q-29 20 -72 20h-42v10q7 0 18.5 -0.5t18.5 -0.5q52 0 68 18q27 33 27 164q0 132 -40 166q-21 18 -58 18q-35 0 -52 -20q-32 -36 -32 -127v-620h-287v6q54 0 69.5 18.5t15.5 79.5v415h-59v7h59v17q0 69 21 116.5t60 71t82 33t100 9.5z" />
<glyph unicode="&#xe0;" d="M226 755q24 0 39 -24t30.5 -66.5t33.5 -66.5l-5 -4q-13 21 -38 38.5t-45.5 27.5t-36.5 26t-16 35q0 12 9 23t29 11zM534 325v-261q0 -44 16 -44q9 0 19 10.5t20.5 43t11.5 81.5h7q0 -19 -3 -43t-15.5 -56.5t-33.5 -43.5q-34 -19 -81 -19q-31 0 -53 9q-41 16 -59 37.5 t-30 66.5q-27 -83 -79 -104q-18 -7 -55 -7q-172 0 -172 133q0 22 7 46q10 34 31.5 52.5t41 24t63.5 13.5l24 4q47 8 77 23.5t42.5 38.5t16 41.5t3.5 46.5q0 66 -18.5 85.5t-53.5 19.5q-82 0 -103 -52q8 4 22 4q31 0 57.5 -22t26.5 -61q0 -43 -31 -70.5t-70 -27.5t-68 28 t-29 72q0 61 66.5 99.5t162.5 38.5q108 0 170 -44q44 -31 56.5 -69.5t12.5 -93.5zM302 306q-49 -36 -60.5 -52.5t-16.5 -58.5q-4 -27 -4 -53q0 -20 4 -68q3 -58 28 -58q13 0 20 7q27 17 40.5 54t16 67.5t2.5 80.5v129q-5 -31 -30 -48z" />
<glyph unicode="&#xe1;" d="M392 753q16 0 27 -9.5t11 -23.5q0 -24 -23 -41t-58.5 -39t-55.5 -48l-4 3q17 24 33 67t30.5 67t39.5 24zM534 325v-261q0 -44 16 -44q9 0 19 10.5t20.5 43t11.5 81.5h7q0 -19 -3 -43t-15.5 -56.5t-33.5 -43.5q-34 -19 -81 -19q-31 0 -53 9q-41 16 -59 37.5t-30 66.5 q-27 -83 -79 -104q-18 -7 -55 -7q-172 0 -172 133q0 22 7 46q10 34 31.5 52.5t41 24t63.5 13.5l24 4q47 8 77 23.5t42.5 38.5t16 41.5t3.5 46.5q0 66 -18.5 85.5t-53.5 19.5q-82 0 -103 -52q8 4 22 4q31 0 57.5 -22t26.5 -61q0 -43 -31 -70.5t-70 -27.5t-68 28t-29 72 q0 61 66.5 99.5t162.5 38.5q108 0 170 -44q44 -31 56.5 -69.5t12.5 -93.5zM302 306q-49 -36 -60.5 -52.5t-16.5 -58.5q-4 -27 -4 -53q0 -20 4 -68q3 -58 28 -58q13 0 20 7q27 17 40.5 54t16 67.5t2.5 80.5v129q-5 -31 -30 -48z" />
<glyph unicode="&#xe2;" d="M534 325v-261q0 -44 16 -44q9 0 19 10.5t20.5 43t11.5 81.5h7q0 -19 -3 -43t-15.5 -56.5t-33.5 -43.5q-34 -19 -81 -19q-31 0 -53 9q-41 16 -59 37.5t-30 66.5q-27 -83 -79 -104q-18 -7 -55 -7q-172 0 -172 133q0 22 7 46q10 34 31.5 52.5t41 24t63.5 13.5l24 4 q47 8 77 23.5t42.5 38.5t16 41.5t3.5 46.5q0 66 -18.5 85.5t-53.5 19.5q-82 0 -103 -52q8 4 22 4q31 0 57.5 -22t26.5 -61q0 -43 -31 -70.5t-70 -27.5t-68 28t-29 72q0 61 66.5 99.5t162.5 38.5q108 0 170 -44q44 -31 56.5 -69.5t12.5 -93.5zM302 306q-49 -36 -60.5 -52.5 t-16.5 -58.5q-4 -27 -4 -53q0 -20 4 -68q3 -58 28 -58q13 0 20 7q27 17 40.5 54t16 67.5t2.5 80.5v129q-5 -31 -30 -48zM181 599l133 123l133 -123l-3 -5l-130 61l-130 -61z" />
<glyph unicode="&#xe3;" d="M265 681q21 0 73 -13.5t71 -13.5q22 0 44 23h7q-34 -85 -89 -85q-17 0 -78 15.5t-67 15.5q-22 0 -42 -27h-5q24 85 86 85zM534 325v-261q0 -44 16 -44q9 0 19 10.5t20.5 43t11.5 81.5h7q0 -19 -3 -43t-15.5 -56.5t-33.5 -43.5q-34 -19 -81 -19q-31 0 -53 9 q-41 16 -59 37.5t-30 66.5q-27 -83 -79 -104q-18 -7 -55 -7q-172 0 -172 133q0 22 7 46q10 34 31.5 52.5t41 24t63.5 13.5l24 4q47 8 77 23.5t42.5 38.5t16 41.5t3.5 46.5q0 66 -18.5 85.5t-53.5 19.5q-82 0 -103 -52q8 4 22 4q31 0 57.5 -22t26.5 -61q0 -43 -31 -70.5 t-70 -27.5t-68 28t-29 72q0 61 66.5 99.5t162.5 38.5q108 0 170 -44q44 -31 56.5 -69.5t12.5 -93.5zM302 306q-49 -36 -60.5 -52.5t-16.5 -58.5q-4 -27 -4 -53q0 -20 4 -68q3 -58 28 -58q13 0 20 7q27 17 40.5 54t16 67.5t2.5 80.5v129q-5 -31 -30 -48z" />
<glyph unicode="&#xe4;" d="M534 325v-261q0 -44 16 -44q9 0 19 10.5t20.5 43t11.5 81.5h7q0 -19 -3 -43t-15.5 -56.5t-33.5 -43.5q-34 -19 -81 -19q-31 0 -53 9q-41 16 -59 37.5t-30 66.5q-27 -83 -79 -104q-18 -7 -55 -7q-172 0 -172 133q0 22 7 46q10 34 31.5 52.5t41 24t63.5 13.5l24 4 q47 8 77 23.5t42.5 38.5t16 41.5t3.5 46.5q0 66 -18.5 85.5t-53.5 19.5q-82 0 -103 -52q8 4 22 4q31 0 57.5 -22t26.5 -61q0 -43 -31 -70.5t-70 -27.5t-68 28t-29 72q0 61 66.5 99.5t162.5 38.5q108 0 170 -44q44 -31 56.5 -69.5t12.5 -93.5zM302 306q-49 -36 -60.5 -52.5 t-16.5 -58.5q-4 -27 -4 -53q0 -20 4 -68q3 -58 28 -58q13 0 20 7q27 17 40.5 54t16 67.5t2.5 80.5v129q-5 -31 -30 -48zM203 639q0 19 14.5 33.5t33.5 14.5t33 -14.5t14 -33.5t-14 -33t-33 -14t-33.5 14t-14.5 33zM342 639q0 20 14 34t33 14t33 -14t14 -34q0 -19 -14 -33 t-33 -14t-33 14t-14 33z" />
<glyph unicode="&#xe5;" d="M331 598q28 0 28 47v58q0 47 -28 47t-28 -47v-58q0 -47 28 -47zM252 674q0 33 25.5 57t53.5 24t53.5 -24t25.5 -57t-25.5 -56.5t-53.5 -23.5t-53.5 23.5t-25.5 56.5zM534 325v-261q0 -44 16 -44q9 0 19 10.5t20.5 43t11.5 81.5h7q0 -19 -3 -43t-15.5 -56.5t-33.5 -43.5 q-34 -19 -81 -19q-31 0 -53 9q-41 16 -59 37.5t-30 66.5q-27 -83 -79 -104q-18 -7 -55 -7q-172 0 -172 133q0 22 7 46q10 34 31.5 52.5t41 24t63.5 13.5l24 4q47 8 77 23.5t42.5 38.5t16 41.5t3.5 46.5q0 66 -18.5 85.5t-53.5 19.5q-82 0 -103 -52q8 4 22 4q31 0 57.5 -22 t26.5 -61q0 -43 -31 -70.5t-70 -27.5t-68 28t-29 72q0 61 66.5 99.5t162.5 38.5q108 0 170 -44q44 -31 56.5 -69.5t12.5 -93.5zM302 306q-49 -36 -60.5 -52.5t-16.5 -58.5q-4 -27 -4 -53q0 -20 4 -68q3 -58 28 -58q13 0 20 7q27 17 40.5 54t16 67.5t2.5 80.5v129 q-5 -31 -30 -48z" />
<glyph unicode="&#xe6;" horiz-adv-x="868" d="M534 275h117q3 58 3 128q0 48 -5 74.5t-25 43.5q-5 5 -22 5q-39 0 -53.5 -46t-14.5 -155v-50zM332 354q-5 -31 -30 -48q-49 -36 -60.5 -52.5t-16.5 -58.5q-4 -27 -4 -53q0 -20 4 -68q3 -58 28 -58q13 0 20 7q27 17 40.5 54t16 67.5t2.5 80.5v129zM461 491q62 41 143 41 q158 0 216 -151q14 -39 14 -113h-300v-61q0 -103 25 -153t90 -50q75 0 122.5 65t56.5 150h7q-17 -145 -110 -201q-40 -24 -113 -24q-121 0 -186 53.5t-85 133.5q0 -46 -10 -81t-25 -54.5t-27.5 -29t-24.5 -14.5q-18 -7 -55 -7q-172 0 -172 133q0 22 7 46q10 34 31.5 52.5 t41 24t63.5 13.5l24 4q47 8 77 23.5t42.5 38.5t16 41.5t3.5 46.5q0 66 -18.5 85.5t-53.5 19.5q-82 0 -103 -52q8 4 22 4q31 0 57.5 -22t26.5 -61q0 -43 -31 -70.5t-70 -27.5t-68 28t-29 72q0 61 66.5 99.5t162.5 38.5q104 0 166 -41z" />
<glyph unicode="&#xe7;" horiz-adv-x="580" d="M244 245q0 -32 1 -53.5t4 -53.5t10.5 -52.5t19.5 -41.5t32 -31t46 -10q45 0 81.5 25t57.5 61t32 70.5t11 59.5h7q-3 -23 -8.5 -46.5t-20 -57t-35 -59t-56 -43.5t-80.5 -18l-39 -47q78 0 115.5 -21.5t37.5 -46.5q0 -22 -36 -45t-74 -23q-22 0 -54.5 8.5t-53.5 26.5l3 4 q46 -31 102 -31q21 0 30.5 11.5t9.5 24.5q0 42 -133 42l85 97q-119 0 -178 35q-63 36 -95.5 97.5t-32.5 126.5q0 48 21.5 97t59.5 89.5t97 66t127 25.5q17 0 31.5 -1.5t27 -5.5t21.5 -7.5t18.5 -9.5t14 -9t12.5 -10t10 -8q58 -54 58 -106q0 -24 -8.5 -48.5t-34.5 -46 t-66 -21.5q-49 0 -81.5 30t-32.5 78q0 46 30.5 74t81.5 28q31 0 47 -9q-9 20 -25.5 34t-35.5 19.5t-32 7.5t-24 2q-61 0 -83.5 -67.5t-22.5 -210.5z" />
<glyph unicode="&#xe8;" horiz-adv-x="569" d="M213 755q24 0 39 -24t30.5 -66.5t33.5 -66.5l-5 -4q-13 21 -38 38.5t-45.5 27.5t-36.5 26t-16 35q0 12 9 23t29 11zM535 268h-300v-61q0 -103 25 -153t90 -50q75 0 122.5 65t56.5 150h7q-17 -145 -110 -201q-40 -24 -113 -24q-64 0 -114.5 17.5t-81 44t-50 61.5t-27 67.5 t-7.5 64.5q0 122 97 216q70 67 175 67q158 0 216 -151q14 -39 14 -113zM303 526q-41 0 -54.5 -50t-13.5 -172v-29h117q3 58 3 128q0 48 -5 74.5t-25 43.5q-5 5 -22 5z" />
<glyph unicode="&#xe9;" horiz-adv-x="569" d="M369 753q16 0 27 -9.5t11 -23.5q0 -24 -23 -41t-58.5 -39t-55.5 -48l-4 3q17 24 33 67t30.5 67t39.5 24zM535 268h-300v-61q0 -103 25 -153t90 -50q75 0 122.5 65t56.5 150h7q-17 -145 -110 -201q-40 -24 -113 -24q-64 0 -114.5 17.5t-81 44t-50 61.5t-27 67.5t-7.5 64.5 q0 122 97 216q70 67 175 67q158 0 216 -151q14 -39 14 -113zM303 526q-41 0 -54.5 -50t-13.5 -172v-29h117q3 58 3 128q0 48 -5 74.5t-25 43.5q-5 5 -22 5z" />
<glyph unicode="&#xea;" horiz-adv-x="569" d="M535 268h-300v-61q0 -103 25 -153t90 -50q75 0 122.5 65t56.5 150h7q-17 -145 -110 -201q-40 -24 -113 -24q-64 0 -114.5 17.5t-81 44t-50 61.5t-27 67.5t-7.5 64.5q0 122 97 216q70 67 175 67q158 0 216 -151q14 -39 14 -113zM303 526q-41 0 -54.5 -50t-13.5 -172v-29 h117q3 58 3 128q0 48 -5 74.5t-25 43.5q-5 5 -22 5zM169 599l133 123l133 -123l-3 -5l-130 61l-130 -61z" />
<glyph unicode="&#xeb;" horiz-adv-x="569" d="M535 268h-300v-61q0 -103 25 -153t90 -50q75 0 122.5 65t56.5 150h7q-17 -145 -110 -201q-40 -24 -113 -24q-64 0 -114.5 17.5t-81 44t-50 61.5t-27 67.5t-7.5 64.5q0 122 97 216q70 67 175 67q158 0 216 -151q14 -39 14 -113zM303 526q-41 0 -54.5 -50t-13.5 -172v-29 h117q3 58 3 128q0 48 -5 74.5t-25 43.5q-5 5 -22 5zM192 639q0 19 14 33.5t34 14.5q19 0 33 -14.5t14 -33.5t-14 -33t-33 -14t-33.5 14t-14.5 33zM331 639q0 20 14 34t33 14t33 -14t14 -34q0 -19 -14 -33t-33 -14t-33 14t-14 33z" />
<glyph unicode="&#xec;" horiz-adv-x="391" d="M119 755q24 0 39 -24t30.5 -66.5t33.5 -66.5l-5 -4q-13 21 -38 38.5t-45.5 27.5t-36.5 26t-16 35q0 12 9 23t29 11zM381 6v-6h-371v6q56 0 70.5 19.5t14.5 78.5v320q0 59 -14.5 77t-70.5 18v7h287v-422q0 -59 14 -78.5t70 -19.5z" />
<glyph unicode="&#xed;" horiz-adv-x="391" d="M279 753q16 0 27 -9.5t11 -23.5q0 -24 -23 -41t-58.5 -39t-55.5 -48l-4 3q17 24 33 67t30.5 67t39.5 24zM381 6v-6h-371v6q56 0 70.5 19.5t14.5 78.5v320q0 59 -14.5 77t-70.5 18v7h287v-422q0 -59 14 -78.5t70 -19.5z" />
<glyph unicode="&#xee;" horiz-adv-x="391" d="M381 6v-6h-371v6q56 0 70.5 19.5t14.5 78.5v320q0 59 -14.5 77t-70.5 18v7h287v-422q0 -59 14 -78.5t70 -19.5zM60 599l133 123l133 -123l-4 -5l-129 61l-130 -61z" />
<glyph unicode="&#xef;" horiz-adv-x="391" d="M381 6v-6h-371v6q56 0 70.5 19.5t14.5 78.5v320q0 59 -14.5 77t-70.5 18v7h287v-422q0 -59 14 -78.5t70 -19.5zM64 639q0 20 14 34t33 14t33 -14t14 -34q0 -19 -14 -33t-33 -14t-33 14t-14 33zM202 639q0 20 14 34t33 14t33 -14t14 -34q0 -19 -14 -33t-33 -14t-33 14 t-14 33z" />
<glyph unicode="&#xf0;" horiz-adv-x="612" d="M182 639l-3 7l89 88q-58 58 -135 97l3 6q99 -16 178 -57l55 55l6 -6l-54 -53q136 -75 196.5 -212t60.5 -301q0 -112 -81 -190.5t-194 -78.5q-112 0 -193.5 79t-81.5 190t81.5 190t193.5 79q24 0 50.5 -13t34.5 -25q-27 137 -117 233zM372 117v294q0 115 -66 115 q-65 0 -65 -115v-294q0 -115 65 -115q66 0 66 115z" />
<glyph unicode="&#xf1;" horiz-adv-x="708" d="M309 681q21 0 73 -13.5t71 -13.5q22 0 44 23h7q-34 -85 -89 -85q-17 0 -78 15.5t-67 15.5q-22 0 -42 -27h-5q24 85 86 85zM10 519v7h286v-89q18 47 59 71t97 24q63 0 104 -32q34 -27 45.5 -62t11.5 -89v-245q0 -59 14.5 -78.5t70.5 -19.5v-6h-329v6q28 0 36 22t8 76v267 q0 71 -12 95.5t-36 24.5q-35 0 -52 -35q-17 -34 -17 -119v-233q0 -37 2.5 -55t12 -30.5t29.5 -12.5v-6h-330v6q56 0 70.5 19.5t14.5 78.5v317q0 59 -14.5 78.5t-70.5 19.5z" />
<glyph unicode="&#xf2;" horiz-adv-x="616" d="M227 755q24 0 39 -24t30.5 -66.5t33.5 -66.5l-5 -4q-13 21 -38 38.5t-45.5 27.5t-36.5 26t-16 35q0 12 9 23t29 11zM374 116v294q0 115 -66 115q-65 0 -65 -115v-294q0 -115 65 -115q66 0 66 115zM33 263q0 111 81.5 190t193.5 79t193.5 -79t81.5 -190t-81.5 -190 t-193.5 -79t-193.5 79t-81.5 190z" />
<glyph unicode="&#xf3;" horiz-adv-x="616" d="M374 116v294q0 115 -66 115q-65 0 -65 -115v-294q0 -115 65 -115q66 0 66 115zM33 263q0 111 81.5 190t193.5 79t193.5 -79t81.5 -190t-81.5 -190t-193.5 -79t-193.5 79t-81.5 190zM401 753q16 0 27 -9.5t11 -23.5q0 -24 -23 -41t-58.5 -39t-55.5 -48l-4 3q17 24 33 67 t30.5 67t39.5 24z" />
<glyph unicode="&#xf4;" horiz-adv-x="616" d="M374 116v294q0 115 -66 115q-65 0 -65 -115v-294q0 -115 65 -115q66 0 66 115zM33 263q0 111 81.5 190t193.5 79t193.5 -79t81.5 -190t-81.5 -190t-193.5 -79t-193.5 79t-81.5 190zM186 599l133 123l133 -123l-3 -5l-130 61l-130 -61z" />
<glyph unicode="&#xf5;" horiz-adv-x="616" d="M276 681q21 0 73 -13.5t71 -13.5q22 0 44 23h7q-34 -85 -89 -85q-17 0 -78 15.5t-67 15.5q-23 0 -42 -27h-5q24 85 86 85zM374 116v294q0 115 -66 115q-65 0 -65 -115v-294q0 -115 65 -115q66 0 66 115zM33 263q0 111 81.5 190t193.5 79t193.5 -79t81.5 -190t-81.5 -190 t-193.5 -79t-193.5 79t-81.5 190z" />
<glyph unicode="&#xf6;" horiz-adv-x="616" d="M374 116v294q0 115 -66 115q-65 0 -65 -115v-294q0 -115 65 -115q66 0 66 115zM33 263q0 111 81.5 190t193.5 79t193.5 -79t81.5 -190t-81.5 -190t-193.5 -79t-193.5 79t-81.5 190zM198 639q0 19 14 33.5t33 14.5t33 -14t14 -34q0 -19 -14 -33t-33 -14t-33 14t-14 33z M336 639q0 19 14 33.5t34 14.5q19 0 33 -14.5t14 -33.5t-14 -33t-33 -14t-33.5 14t-14.5 33z" />
<glyph unicode="&#xf8;" horiz-adv-x="637" d="M44 263l-1 -1q0 111 81.5 190t193.5 79q110 0 191 -76l73 70l5 -4l-73 -71q80 -78 80 -187q0 -111 -81.5 -190t-193.5 -79q-115 0 -196 81l-74 -72l-4 3l75 72q-76 78 -76 185zM253 207l131 127v75q0 115 -66 115q-65 0 -65 -115v-202zM253 200v-85q0 -115 65 -115 q66 0 66 115v211z" />
<glyph unicode="&#xf9;" horiz-adv-x="707" d="M252 755q24 0 39 -24t30.5 -66.5t33.5 -66.5l-5 -4q-13 21 -38 38.5t-45.5 27.5t-36.5 26t-16 35q0 12 9 23t29 11zM297 151q0 -62 6.5 -87.5t31.5 -25.5q14 0 23 7q29 19 37.5 61.5t8.5 129.5v188q0 52 -13.5 73t-52.5 22v7h268v-422q0 -59 14.5 -78.5t70.5 -19.5v-6 h-289v99q-40 -105 -146 -105q-64 0 -109 32q-34 24 -43 57t-9 106v235q0 59 -14.5 77t-70.5 18v7h287v-375z" />
<glyph unicode="&#xfa;" horiz-adv-x="707" d="M297 151q0 -62 6.5 -87.5t31.5 -25.5q14 0 23 7q29 19 37.5 61.5t8.5 129.5v188q0 52 -13.5 73t-52.5 22v7h268v-422q0 -59 14.5 -78.5t70.5 -19.5v-6h-289v99q-40 -105 -146 -105q-64 0 -109 32q-34 24 -43 57t-9 106v235q0 59 -14.5 77t-70.5 18v7h287v-375zM434 753 q16 0 27 -9.5t11 -23.5q0 -24 -23 -41t-58.5 -39t-55.5 -48l-4 3q17 24 33 67t30.5 67t39.5 24z" />
<glyph unicode="&#xfb;" horiz-adv-x="707" d="M297 151q0 -62 6.5 -87.5t31.5 -25.5q14 0 23 7q29 19 37.5 61.5t8.5 129.5v188q0 52 -13.5 73t-52.5 22v7h268v-422q0 -59 14.5 -78.5t70.5 -19.5v-6h-289v99q-40 -105 -146 -105q-64 0 -109 32q-34 24 -43 57t-9 106v235q0 59 -14.5 77t-70.5 18v7h287v-375zM203 599 l134 123l133 -123l-4 -5l-129 61l-130 -61z" />
<glyph unicode="&#xfc;" horiz-adv-x="707" d="M297 151q0 -62 6.5 -87.5t31.5 -25.5q14 0 23 7q29 19 37.5 61.5t8.5 129.5v188q0 52 -13.5 73t-52.5 22v7h268v-422q0 -59 14.5 -78.5t70.5 -19.5v-6h-289v99q-40 -105 -146 -105q-64 0 -109 32q-34 24 -43 57t-9 106v235q0 59 -14.5 77t-70.5 18v7h287v-375zM238 639 q0 20 14 34t33 14t33 -14t14 -34q0 -19 -14 -33t-33 -14t-33 14t-14 33zM376 639q0 19 14 33.5t33 14.5t33.5 -14.5t14.5 -33.5t-14.5 -33t-33.5 -14t-33 14t-14 33z" />
<glyph unicode="&#xfd;" horiz-adv-x="849" d="M319 402l-200 307q-41 65 -112 68v6h468v-6q-46 0 -65 -7t-19 -27q0 -28 35 -91l117 -216l52 97q61 112 61 162q0 12 -2 22t-7 17.5t-9.5 13t-12.5 10t-13 7t-14.5 5t-13.5 3.5t-13.5 2.5t-10.5 1.5v6h277v-6q-59 -5 -99 -37t-86 -117l-104 -194v-307q0 -70 19 -93 t94 -23h6v-6h-468v6h7q75 0 94 23t19 93v280zM558 1020q17 0 27.5 -9t10.5 -24q0 -24 -24 -42t-59.5 -39.5t-53.5 -46.5l-4 4q17 23 32.5 65.5t30.5 67t40 24.5z" />
<glyph unicode="&#xfe;" horiz-adv-x="648" d="M322 158q0 -53 12 -87q8 -23 21 -34.5t25 -11.5q46 0 46 128q1 73 1 123q0 118 -9 165t-47 47q-18 0 -31 -23q-18 -34 -18 -109v-198zM35 759v7h287v-321q16 38 48 62.5t76 24.5q81 0 133 -77t52 -183q0 -46 -11.5 -92.5t-33.5 -89.5t-61 -70t-88 -27q-26 0 -46 7 t-34.5 23t-19 22.5t-15.5 25.5v-129q0 -36 5.5 -57t22 -30t31 -11t47.5 -2v-6h-393v6q56 0 70.5 19.5t14.5 78.5v724q0 60 -15 77.5t-70 17.5z" />
<glyph unicode="&#xff;" horiz-adv-x="677" d="M218 -186q55 0 94 37q49 46 75 149h-74l-203 433q-2 5 -8.5 18.5t-8.5 17.5t-7.5 14t-9 13t-10 9t-13 8t-16 4t-20.5 2v7h351v-7q-19 -1 -25.5 -2t-15 -7.5t-8.5 -18.5q0 -15 28 -79l100 -233l34 98q36 105 36 153q0 30 -13 59q-5 11 -14.5 17.5t-15 8t-21.5 4.5v7h216 v-7h-2q-57 0 -94.5 -49t-68.5 -142l-112 -338q-26 -81 -49 -114q-49 -69 -128 -70q-55 0 -88.5 29.5t-33.5 77.5q0 42 27 74.5t72 32.5q39 0 68 -26.5t29 -71.5q0 -43 -27 -66.5t-64 -23.5q-20 0 -44 8q17 -26 64 -26zM263 639q0 20 14 34t33 14t33 -14t14 -34 q0 -19 -14 -33t-33 -14t-33 14t-14 33zM401 639q0 19 14 33.5t33 14.5q20 0 34 -14.5t14 -33.5t-14.5 -33t-33.5 -14t-33 14t-14 33z" />
<glyph unicode="&#x152;" horiz-adv-x="1223" d="M806 122q0 -78 9.5 -96.5t47.5 -18.5q86 0 121 16q88 39 131 108t50 216h6v-347h-645q-44 -12 -93 -12q-162 0 -275.5 119t-113.5 284t113.5 284t275.5 119q45 0 89 -11h613v-300h-6q0 69 -31 134.5t-97 112.5q-40 29 -81.5 38t-113.5 9v-357q72 0 112 26t65 89 q10 30 10 78h7v-394h-7q0 50 -10 77q-25 64 -65.5 90.5t-111.5 26.5v-291zM576 458q0 45 -1.5 78t-6 74.5t-14 70t-25 55t-40 39.5t-57.5 13t-57.5 -13t-40 -39.5t-25 -55t-14 -70t-6 -74.5t-1.5 -78v-67v-67q0 -45 1.5 -77.5t6 -74t14 -70t25 -54.5t40 -39t57.5 -13 t57.5 13t40 39t25 54.5t14 70t6 74t1.5 77.5v67v67z" />
<glyph unicode="&#x153;" horiz-adv-x="938" d="M45 263q0 111 81.5 190t193.5 79q96 0 170 -61q68 61 169 61q158 0 216 -151q14 -39 14 -113h-300v-61q0 -103 25 -153t90 -50q75 0 122.5 65t56.5 150h7q-17 -145 -110 -201q-40 -24 -113 -24q-113 0 -186 54q-71 -54 -161 -54q-112 0 -193.5 79t-81.5 190zM386 116v294 q0 115 -66 115q-65 0 -65 -115v-294q0 -115 65 -115q66 0 66 115zM657 526q-41 0 -54.5 -50t-13.5 -172v-29h117q3 58 3 128q0 48 -5 74.5t-25 43.5q-5 5 -22 5z" />
<glyph unicode="&#x178;" horiz-adv-x="849" d="M319 402l-200 307q-41 65 -112 68v6h468v-6q-46 0 -65 -7t-19 -27q0 -28 35 -91l117 -216l52 97q61 112 61 162q0 12 -2 22t-7 17.5t-9.5 13t-12.5 10t-13 7t-14.5 5t-13.5 3.5t-13.5 2.5t-10.5 1.5v6h277v-6q-59 -5 -99 -37t-86 -117l-104 -194v-307q0 -70 19 -93 t94 -23h6v-6h-468v6h7q75 0 94 23t19 93v280zM378 907q0 19 14 33t33 14t33 -14t14 -33q0 -20 -14 -34t-33 -14t-33 14t-14 34zM516 907q0 19 14 33t33 14t33 -14t14 -33q0 -20 -14 -34t-33 -14t-33 14t-14 34z" />
<glyph unicode="&#x2c6;" horiz-adv-x="312" d="M156 783l133 -123l-4 -4l-129 60l-130 -60l-4 4z" />
<glyph unicode="&#x2dc;" horiz-adv-x="365" d="M129 783q21 0 73 -13.5t71 -13.5q22 0 44 23h7q-34 -85 -89 -85q-17 0 -78 15.5t-67 15.5q-22 0 -42 -27h-5q24 85 86 85z" />
<glyph unicode="&#x2000;" horiz-adv-x="511" />
<glyph unicode="&#x2001;" horiz-adv-x="1022" />
<glyph unicode="&#x2002;" horiz-adv-x="511" />
<glyph unicode="&#x2003;" horiz-adv-x="1022" />
<glyph unicode="&#x2004;" horiz-adv-x="340" />
<glyph unicode="&#x2005;" horiz-adv-x="255" />
<glyph unicode="&#x2006;" horiz-adv-x="170" />
<glyph unicode="&#x2007;" horiz-adv-x="170" />
<glyph unicode="&#x2008;" horiz-adv-x="127" />
<glyph unicode="&#x2009;" horiz-adv-x="204" />
<glyph unicode="&#x200a;" horiz-adv-x="56" />
<glyph unicode="&#x2010;" horiz-adv-x="311" d="M56 299h197v-47h-197v47z" />
<glyph unicode="&#x2011;" horiz-adv-x="311" d="M56 299h197v-47h-197v47z" />
<glyph unicode="&#x2012;" horiz-adv-x="311" d="M56 299h197v-47h-197v47z" />
<glyph unicode="&#x2013;" horiz-adv-x="903" d="M57 299h788v-47h-788v47z" />
<glyph unicode="&#x2014;" horiz-adv-x="1108" d="M57 299h994v-47h-994v47z" />
<glyph unicode="&#x2018;" horiz-adv-x="316" d="M165 466q-17 0 -34.5 5t-38.5 17t-34 39t-13 65q0 78 41 129q42 55 139 62v-7q-47 -5 -82 -19.5t-57 -51.5q-14 -22 -14 -75q33 31 86 31q49 0 80.5 -30.5t31.5 -68.5q0 -39 -29.5 -67.5t-75.5 -28.5z" />
<glyph unicode="&#x2019;" horiz-adv-x="316" d="M150 783q17 0 34.5 -5t38.5 -17t34 -39t13 -65q0 -78 -41 -129q-42 -55 -139 -62v7q47 5 82 19.5t57 51.5q14 22 14 75q-33 -31 -86 -31q-49 0 -80.5 30.5t-31.5 68.5q0 39 29.5 67.5t75.5 28.5z" />
<glyph unicode="&#x201a;" horiz-adv-x="316" d="M150 194q17 0 34.5 -5t38.5 -17t34 -39t13 -65q0 -78 -41 -129q-42 -55 -139 -62v7q47 5 82 19.5t57 51.5q14 22 14 75q-33 -31 -86 -31q-49 0 -80.5 30.5t-31.5 68.5q0 39 29.5 67.5t75.5 28.5z" />
<glyph unicode="&#x201c;" horiz-adv-x="557" d="M166 466q-17 0 -34.5 5t-38.5 17t-34 39t-13 65q0 78 41 129q42 55 139 62v-7q-47 -5 -82 -19.5t-57 -51.5q-14 -22 -14 -75q33 31 86 31q49 0 80.5 -30.5t31.5 -68.5q0 -39 -29.5 -67.5t-75.5 -28.5zM413 466q-17 0 -34.5 5t-38.5 17t-34 39t-13 65q0 78 41 129 q42 55 139 62v-7q-47 -5 -82 -19.5t-57 -51.5q-14 -22 -14 -75q33 31 86 31q49 0 80.5 -30.5t31.5 -68.5q0 -39 -29.5 -67.5t-75.5 -28.5z" />
<glyph unicode="&#x201d;" horiz-adv-x="556" d="M143 783q17 0 34.5 -5t38.5 -17t34 -39t13 -65q0 -78 -41 -129q-42 -55 -139 -62v7q47 5 82 19.5t57 51.5q14 22 14 75q-33 -31 -86 -31q-49 0 -80.5 30.5t-31.5 68.5q0 39 29.5 67.5t75.5 28.5zM389 783q17 0 34.5 -5t38.5 -17t34 -39t13 -65q0 -78 -41 -129 q-42 -55 -139 -62v7q47 5 82 19.5t57 51.5q14 22 14 75q-33 -31 -86 -31q-49 0 -80.5 30.5t-31.5 68.5q0 39 29.5 67.5t75.5 28.5z" />
<glyph unicode="&#x201e;" horiz-adv-x="556" d="M143 194q17 0 34.5 -5t38.5 -17t34 -39t13 -65q0 -78 -41 -129q-42 -55 -139 -62v7q47 5 82 19.5t57 51.5q14 22 14 75q-33 -31 -86 -31q-49 0 -80.5 30.5t-31.5 68.5q0 39 29.5 67.5t75.5 28.5zM389 194q17 0 34.5 -5t38.5 -17t34 -39t13 -65q0 -78 -41 -129 q-42 -55 -139 -62v7q47 5 82 19.5t57 51.5q14 22 14 75q-33 -31 -86 -31q-49 0 -80.5 30.5t-31.5 68.5q0 39 29.5 67.5t75.5 28.5z" />
<glyph unicode="&#x2021;" horiz-adv-x="292" d="M188 432q0 -9 -18 -58.5t-19 -101.5h76q31 0 37.5 5t9.5 32h6v-100h-6q-3 27 -10 32.5t-37 5.5h-76q0 -29 3.5 -39.5t15.5 -26.5q22 -36 22 -66q0 -17 -17.5 -49t-28.5 -98q-11 66 -29 98t-18 49q0 30 22 66q12 16 15.5 26.5t3.5 39.5h-76q-30 0 -37 -5.5t-10 -32.5h-6 v100h6q3 -27 9.5 -32t37.5 -5h76q-1 52 -19 101.5t-18 58.5t18 58.5t19 101.5h-76q-31 0 -37.5 -5t-9.5 -32h-6v100h6q3 -27 10 -32.5t37 -5.5h76q0 29 -3.5 39.5t-15.5 26.5q-22 36 -22 66q0 17 18 49t29 98q11 -66 28.5 -98t17.5 -49q0 -30 -22 -66q-12 -16 -15.5 -26.5 t-3.5 -39.5h76q30 0 37 5.5t10 32.5h6v-100h-6q-3 27 -9.5 32t-37.5 5h-76q1 -52 19 -101.5t18 -58.5z" />
<glyph unicode="&#x2022;" horiz-adv-x="300" d="M40 431q0 40 32 68.5t77 28.5t77.5 -28.5t32.5 -68.5q0 -39 -32.5 -67.5t-77.5 -28.5t-77 28.5t-32 67.5z" />
<glyph unicode="&#x202f;" horiz-adv-x="204" />
<glyph unicode="&#x2039;" horiz-adv-x="272" d="M88 253l143 -174h-79l-141 174l141 174h79z" />
<glyph unicode="&#x203a;" horiz-adv-x="270" d="M182 253l-143 174h79l141 -174l-141 -174h-79z" />
<glyph unicode="&#x205f;" horiz-adv-x="255" />
<glyph unicode="&#x20ac;" horiz-adv-x="585" d="M26 319h52q-1 13 -1 41q0 40 4 72h-53v10h54q18 128 86.5 212.5t179.5 84.5q37 0 86 -15t63 -15q21 0 29 27h7v-186h-6q-6 60 -63.5 120.5t-115.5 60.5q-26 0 -44.5 -22t-25.5 -58.5t-9.5 -58t-3.5 -43.5q-3 -49 -4 -107h227v-10h-227v-72v-41h205v-10h-205 q0 -17 0.5 -36.5t1 -35t1 -28.5t0.5 -21l1 -7q3 -183 83 -183q58 0 115.5 60.5t63.5 120.5h6v-186h-7q-8 27 -29 27q-14 0 -63 -15t-86 -15q-118 0 -188 91t-81 228h-53v10z" />
<glyph unicode="&#x2122;" horiz-adv-x="513" d="M384 505l-16 -38q24 0 42.5 -8.5t36.5 -36.5q-13 59 -63 83zM276 368q0 16 5 33.5t24 38t49 26.5h4l18 43q-29 12 -52 12q-50 0 -90.5 -63t-40.5 -206q0 -67 11 -147l88 205q-16 30 -16 58zM489 207q-5 -90 -68 -151.5t-155 -61.5q-48 0 -90 18l-50 -118h-11l51 122 q-65 30 -103.5 98t-38.5 139q0 35 9 72t30.5 75.5t51.5 69t75.5 49.5t100.5 19q49 0 90 -18l45 107h11l-47 -111q95 -46 95 -143q0 -41 -29.5 -72t-76.5 -31q-14 0 -26 2.5t-21 7t-15.5 8t-12 8t-6.5 4.5l-91 -212q5 -35 29.5 -55.5t64.5 -20.5q55 0 98.5 37.5t62.5 81 t19 77.5z" />
<glyph unicode="&#x25fc;" horiz-adv-x="525" d="M0 525h525v-525h-525v525z" />
<glyph unicode="&#xf642;" horiz-adv-x="495" d="M207 531q-30 -8 -45.5 -32t-15.5 -43q0 -44 61 -85v160zM469 169q0 -70 -53 -121.5t-132 -63.5v-82h-6v80q-12 -3 -65 -3v-77h-6v77h-3q-50 8 -74 17q-49 20 -75.5 50.5t-26.5 65.5q0 32 22.5 56.5t60.5 24.5q34 0 54.5 -21.5t20.5 -58.5q0 -45 -27 -62t-60 -17h-7 q22 -24 45 -33t63 -14h7v225q-91 36 -124.5 70t-33.5 81q0 41 14.5 72.5t41 51.5t49 31.5t53.5 21.5v60h6v-59q16 5 44 5q5 0 12 -0.5t9 -0.5v55h6v-55q38 -6 76 -24t53 -34q19 -20 19 -51q0 -24 -15.5 -44.5t-52.5 -20.5q-29 0 -47.5 20.5t-18.5 51.5q0 32 22 46t47 14 q-31 29 -83 34v-202l31 -14l45 -21t39.5 -22.5t37 -29.5t22.5 -34.5t10 -44.5zM278 539q-4 1 -15 1q-32 0 -50 -6v-166q11 -6 34 -16t31 -14v201zM278 -11v191q-56 25 -65 29v-223q4 0 31 1t34 2zM284 176v-186q70 19 70 97q0 27 -14 46.5t-49 39.5z" />
<glyph unicode="&#xf643;" horiz-adv-x="616" d="M374 116v294q0 115 -66 115q-65 0 -65 -115v-294q0 -115 65 -115q66 0 66 115zM33 263q0 111 81.5 190t193.5 79t193.5 -79t81.5 -190t-81.5 -190t-193.5 -79t-193.5 79t-81.5 190z" />
<glyph unicode="&#xf644;" horiz-adv-x="437" d="M415 6v-6h-399v6q64 0 82 23t18 93v262q0 59 -13 76t-58 17v6q6 1 36.5 8t45.5 10.5t45.5 12t51 16t46 19t45.5 24.5v-451q0 -70 18 -93t82 -23z" />
<glyph unicode="&#xf645;" horiz-adv-x="608" d="M366 493q0 99 -37 130q-29 26 -67 26q-48 0 -81.5 -31.5t-33.5 -74.5q0 -28 17 -45t45 -17q43 0 51 31q17 -15 17 -56q0 -54 -30.5 -82.5t-73.5 -28.5q-37 0 -71 28t-34 86q0 84 68.5 142.5t164.5 58.5q40 0 81.5 -9t84.5 -29.5t70.5 -61t27.5 -95.5q0 -27 -8.5 -48 t-31 -42.5t-65.5 -39.5t-108 -32l-90 -20q-24 -5 -37.5 -8.5t-51.5 -20.5t-61 -38t-44 -61.5t-22 -91.5q59 126 204 126q40 0 119 -16.5t97 -16.5q26 0 44 7t26.5 20t11.5 22.5t5 23.5h6q-7 -100 -26 -150.5t-80 -83.5q-36 -20 -84 -20q-39 0 -74.5 15.5t-49 27t-43.5 40.5 q-3 3 -9 8.5t-8.5 8t-7.5 7t-9.5 6.5t-10.5 4t-13 3t-15 1q-37 0 -55.5 -21.5t-18.5 -49.5q0 -11 3 -25h-9q-10 31 -10 68q0 55 32.5 110t110.5 89l51 22q38 17 58 29t40 34.5t27.5 56t7.5 84.5z" />
<glyph unicode="&#xf646;" horiz-adv-x="645" d="M557 400q0 -33 -15 -59.5t-42.5 -43.5t-52.5 -27t-58 -19q84 -16 144.5 -60t60.5 -116q0 -91 -89 -150.5t-205 -59.5q-31 0 -70 8t-81 24.5t-70.5 49.5t-28.5 76q0 52 43.5 87t111.5 35q38 0 62.5 -12.5t24.5 -30.5q0 -3 -1 -4q-5 1 -14 1q-38 0 -55 -35t-17 -75 q0 -53 27 -84.5t66 -31.5q47 0 74 36q27 37 27 150q0 97 -22 141.5t-77 44.5l-56 -2v12q24 -2 40 -2q54 0 77 35q20 30 20 125q0 59 -12 82q-24 48 -79 48q-41 0 -62.5 -29t-21.5 -69q0 -33 18 -46.5t40 -13.5q14 0 36 6q-2 -10 -4 -15.5t-8.5 -18t-14.5 -20t-23.5 -13.5 t-34.5 -6q-45 0 -72.5 23.5t-27.5 61.5q0 66 62.5 107.5t156.5 41.5t158.5 -41.5t64.5 -110.5z" />
<glyph unicode="&#xf647;" horiz-adv-x="587" d="M296 532h156v-458h109v-19h-109v-160h-200v157h-240zM37 75h215v373z" />
<glyph unicode="&#xf648;" horiz-adv-x="618" d="M309 306q109 0 189.5 -52t80.5 -152q0 -65 -33.5 -113t-85.5 -72t-102.5 -35t-97.5 -11q-93 0 -160 44t-67 116q0 49 36.5 88t102.5 39q33 0 59.5 -21t26.5 -48q0 -13 -10 -13q-4 0 -13 3t-16 3q-26 0 -40 -32.5t-14 -69.5q0 -47 28.5 -75.5t71.5 -28.5q37 0 58 18 q50 43 50 182q0 206 -134 206q-46 0 -87 -23q-30 -18 -49 -68h-8q16 44 35.5 132t31 151.5t11.5 66.5q86 -17 218 -17q106 0 145 13q-9 -42 -30.5 -72t-45.5 -45.5t-60.5 -24t-64 -10.5t-68.5 -2q-74 0 -113 11l-34 -150q73 62 189 62z" />
<glyph unicode="&#xf649;" horiz-adv-x="601" d="M480 696v-4q-32 10 -67 10q-59 0 -95 -31q-44 -39 -63.5 -102.5t-22.5 -124.5q15 43 49.5 65.5t72.5 22.5q56 0 98.5 -18.5t78.5 -71.5q41 -61 41 -152q0 -78 -28 -139q-21 -47 -53.5 -80.5t-67 -49t-61.5 -22t-50 -6.5q-54 0 -116.5 27t-100.5 77q-59 76 -59 196 q0 89 32.5 168t85 132.5t118.5 84.5t133 31q46 0 75 -13zM398 188v134q0 191 -79 191q-17 0 -32 -8.5t-30.5 -30.5t-25 -68t-9.5 -113v-83q0 -212 86 -212q90 0 90 190z" />
<glyph unicode="&#xf64a;" horiz-adv-x="559" d="M475 430q-187 -170 -187 -374q0 -94 21 -146h-216q-13 35 -13 72q0 82 57.5 166.5t159.5 160.5q159 116 173 129q-96 -48 -167 -48q-37 0 -90 13t-75 13q-14 0 -25 -3.5t-18.5 -7t-14 -13.5t-9.5 -14.5t-6.5 -19.5t-4.5 -19.5t-4 -22.5t-3 -21h-7q2 20 7.5 62.5t8.5 73.5 t3 57q0 32 -3 61h7l7 -48q55 74 141 74q43 0 136 -25t130 -25q17 0 27.5 4.5t13.5 7.5t7 14t5 12h8q-9 -79 -69 -133z" />
<glyph unicode="&#xf64b;" horiz-adv-x="627" d="M531 523q0 -37 -29 -69t-85 -49q81 -32 105 -49q67 -47 67 -144q0 -79 -59 -139q-78 -81 -233 -81q-114 0 -187 44.5t-73 115.5q0 92 139 148q-50 31 -73 66t-23 82q0 105 102 174q61 41 146 41q86 0 144.5 -43.5t58.5 -96.5zM334 656q-55 0 -80.5 -33t-25.5 -71 q0 -32 14 -56t27 -32.5t35 -20.5q58 -29 91 -29q21 0 34 31t13 75q0 136 -108 136zM305 -1q62 0 101.5 34t39.5 87q0 19 -5.5 36t-18 30t-23 22t-30 18t-29 13.5t-31 12t-25.5 8.5l-91 34q-47 -62 -47 -139q0 -31 7 -56.5t24 -49t49.5 -37t78.5 -13.5z" />
<glyph unicode="&#xf64c;" horiz-adv-x="602" d="M566 237q0 -176 -114.5 -296t-254.5 -120q-46 0 -75 13v4q32 -10 66 -10q60 0 96 32q75 67 86 226q-16 -43 -50.5 -65.5t-72.5 -22.5q-55 0 -98 18.5t-79 71.5q-41 61 -41 152q0 75 25.5 134.5t65.5 94t83.5 52t85.5 17.5q53 0 116.5 -27.5t101.5 -76.5q59 -77 59 -197z M203 204q0 -186 79 -186q97 0 97 219v83q0 118 -22 165t-64 47q-51 0 -70.5 -53.5t-19.5 -158.5v-116z" />
</font>
</defs>
</svg>
