<svg xmlns="http://www.w3.org/2000/svg" xmlns:xlink="http://www.w3.org/1999/xlink" preserveAspectRatio="xMidYMid" width="12" height="9" viewBox="0 0 12 9">
  <defs>
    <style>
      .cls-1 {
        fill: #6f9e83;
        fill-rule: evenodd;
      }
    </style>
  </defs>
  <path d="M11.782,1.243 L10.729,0.213 C10.585,0.072 10.409,0.001 10.203,0.001 C9.997,0.001 9.821,0.072 9.677,0.213 L4.599,5.189 L2.323,2.955 C2.179,2.813 2.003,2.743 1.797,2.743 C1.591,2.743 1.415,2.813 1.271,2.955 L0.218,3.985 C0.074,4.126 0.001,4.298 0.001,4.500 C0.001,4.702 0.074,4.874 0.218,5.015 L3.020,7.757 L4.073,8.787 C4.217,8.928 4.393,8.999 4.599,8.999 C4.805,8.999 4.981,8.928 5.125,8.787 L6.178,7.757 L11.782,2.273 C11.926,2.132 11.999,1.960 11.999,1.758 C11.999,1.556 11.926,1.385 11.782,1.243 Z" class="cls-1"/>
</svg>
