<svg xmlns="http://www.w3.org/2000/svg" viewBox="0 0 16 16" shape-rendering="crispEdges">
  <clipPath id="c"><rect width="16" height="16" rx="3.5"/></clipPath>
  <g clip-path="url(#c)">
    <rect width="16" height="16" fill="#cfe5ec"/>
    <rect x="11" y="2" width="3" height="3" fill="#f6d77e"/>
    <rect x="12" y="1" width="1" height="5" fill="#f6d77e"/>
    <rect x="10" y="3" width="5" height="1" fill="#f6d77e"/>
    <rect x="2" y="4" width="4" height="1" fill="#fffaf0"/>
    <rect x="3" y="3" width="2" height="1" fill="#fffaf0"/>
    <rect x="10" y="10" width="6" height="1" fill="#b5d3a3"/>
    <rect x="0" y="11" width="16" height="1" fill="#9cc48a"/>
    <rect x="0" y="12" width="16" height="4" fill="#cfa47c"/>
    <rect x="3" y="13" width="1" height="1" fill="#b0845e"/>
    <rect x="11" y="14" width="1" height="1" fill="#b0845e"/>
    <rect x="7" y="15" width="1" height="1" fill="#b0845e"/>
    <rect x="7" y="6" width="1" height="5" fill="#6f9e62"/>
    <rect x="5" y="6" width="2" height="1" fill="#8dc07a"/>
    <rect x="4" y="5" width="2" height="1" fill="#8dc07a"/>
    <rect x="8" y="5" width="2" height="1" fill="#8dc07a"/>
    <rect x="9" y="4" width="2" height="1" fill="#8dc07a"/>
  </g>
</svg>
