<svg xmlns="http://www.w3.org/2000/svg" xmlns:xlink="http://www.w3.org/1999/xlink" width="50.509" height="42.278" viewBox="0 0 50.509 42.278">
  <defs>
    <clipPath id="clip-path">
      <rect id="Retângulo_43" data-name="Retângulo 43" width="50.509" height="42.278" fill="none" stroke="#fff" stroke-width="1"/>
    </clipPath>
  </defs>
  <g id="icon-morning" transform="translate(0 0)">
    <g id="Grupo_394" data-name="Grupo 394" transform="translate(0 0)" clip-path="url(#clip-path)">
      <path id="Caminho_224" data-name="Caminho 224" d="M46.909,34.205a1.5,1.5,0,0,1-1.5-1.5,12.7,12.7,0,1,0-25.408,0,1.5,1.5,0,0,1-3,0,15.7,15.7,0,1,1,31.408,0A1.5,1.5,0,0,1,46.909,34.205Z" transform="translate(-7.45 -7.45)" fill="#fff"/>
      <path id="Linha_1" data-name="Linha 1" d="M0,6.279a1.5,1.5,0,0,1-1.5-1.5V0A1.5,1.5,0,0,1,0-1.5,1.5,1.5,0,0,1,1.5,0V4.779A1.5,1.5,0,0,1,0,6.279Z" transform="translate(25.255 0.896)" fill="#fff"/>
      <path id="Linha_2" data-name="Linha 2" d="M3.378,4.88a1.5,1.5,0,0,1-1.061-.44L-1.061,1.06a1.5,1.5,0,0,1,0-2.121,1.5,1.5,0,0,1,2.121,0l3.378,3.38A1.5,1.5,0,0,1,3.378,4.88Z" transform="translate(8.031 8.03)" fill="#fff"/>
      <path id="Linha_3" data-name="Linha 3" d="M4.778,1.5H0A1.5,1.5,0,0,1-1.5,0,1.5,1.5,0,0,1,0-1.5H4.779A1.5,1.5,0,0,1,6.278,0,1.5,1.5,0,0,1,4.778,1.5Z" transform="translate(0.896 25.254)" fill="#fff"/>
      <path id="Linha_4" data-name="Linha 4" d="M4.778,1.5H0A1.5,1.5,0,0,1-1.5,0,1.5,1.5,0,0,1,0-1.5H4.779A1.5,1.5,0,0,1,6.278,0,1.5,1.5,0,0,1,4.778,1.5Z" transform="translate(44.835 25.255)" fill="#fff"/>
      <path id="Linha_5" data-name="Linha 5" d="M0,4.878a1.5,1.5,0,0,1-1.061-.44,1.5,1.5,0,0,1,0-2.121l3.38-3.378a1.5,1.5,0,0,1,2.121,0,1.5,1.5,0,0,1,0,2.121L1.06,4.439A1.5,1.5,0,0,1,0,4.878Z" transform="translate(39.1 8.031)" fill="#fff"/>
      <path id="Linha_6" data-name="Linha 6" d="M28.408,1.5H0A1.5,1.5,0,0,1-1.5,0,1.5,1.5,0,0,1,0-1.5H28.408a1.5,1.5,0,0,1,1.5,1.5A1.5,1.5,0,0,1,28.408,1.5Z" transform="translate(11.051 30.631)" fill="#fff"/>
      <path id="Linha_7" data-name="Linha 7" d="M8.7,1.5H0A1.5,1.5,0,0,1-1.5,0,1.5,1.5,0,0,1,0-1.5H8.7A1.5,1.5,0,0,1,10.2,0,1.5,1.5,0,0,1,8.7,1.5Z" transform="translate(20.607 41.382)" fill="#fff"/>
      <path id="Linha_8" data-name="Linha 8" d="M19.449,1.5H0A1.5,1.5,0,0,1-1.5,0,1.5,1.5,0,0,1,0-1.5H19.449a1.5,1.5,0,0,1,1.5,1.5A1.5,1.5,0,0,1,19.449,1.5Z" transform="translate(15.232 36.006)" fill="#fff"/>
    </g>
  </g>
</svg>
