<svg xmlns="http://www.w3.org/2000/svg" width="22.118" height="16.767" viewBox="0 0 22.118 16.767">
  <g id="icon-arrow-left-yellow" transform="translate(21.618 16.218) rotate(180)">
    <g id="Grupo_361" data-name="Grupo 361">
      <g id="Grupo_359" data-name="Grupo 359" transform="translate(0 7.316)">
        <path id="Caminho_148" data-name="Caminho 148" d="M219.547,303.714H199.378a.548.548,0,0,1,0-1.086h20.169a.548.548,0,0,1,0,1.086Z" transform="translate(-198.904 -302.628)" fill="#e7fd17" stroke="#e7fd17" stroke-width="1"/>
      </g>
      <g id="Grupo_360" data-name="Grupo 360" transform="translate(11.567)">
        <path id="Caminho_149" data-name="Caminho 149" d="M212.912,310.555a.58.58,0,0,1-.384-.139.431.431,0,0,1,0-.67l8.08-7.049-8.08-7.051a.431.431,0,0,1,0-.67.6.6,0,0,1,.768,0l8.464,7.385a.431.431,0,0,1,0,.67l-8.464,7.384A.585.585,0,0,1,212.912,310.555Z" transform="translate(-212.369 -294.837)" fill="#e7fd17" stroke="#e7fd17" stroke-width="1"/>
      </g>
    </g>
  </g>
</svg>
