<svg xmlns="http://www.w3.org/2000/svg" xmlns:xlink="http://www.w3.org/1999/xlink" width="70.865" height="92.113" viewBox="0 0 70.865 92.113">
  <defs>
    <clipPath id="clip-path">
      <rect id="Retângulo_38" data-name="Retângulo 38" width="70.865" height="92.113" fill="none"/>
    </clipPath>
  </defs>
  <g id="icon-1" transform="translate(-291 -456.987)">
    <path id="Caminho_190" data-name="Caminho 190" d="M10470.595,515.166l8.705-13.637h49.326l7.544,13.637Z" transform="translate(-10177)" fill="#e7fd17"/>
    <g id="Grupo_381" data-name="Grupo 381" transform="translate(291 456.987)">
      <g id="Grupo_380" data-name="Grupo 380" transform="translate(0 0)" clip-path="url(#clip-path)">
        <path id="Caminho_187" data-name="Caminho 187" d="M69.067,41.717H1.781a1.769,1.769,0,0,1-1.5-2.709L9.133,24.841a1.775,1.775,0,0,1,1.5-.832H60.214a1.772,1.772,0,0,1,1.5.832l8.854,14.166a1.771,1.771,0,0,1-1.5,2.709M4.977,38.175h60.9l-6.64-10.625H11.615Z" transform="translate(0.008 18.506)" fill="#262626"/>
        <path id="Caminho_188" data-name="Caminho 188" d="M56.362,25.258H6.781A1.769,1.769,0,0,1,5.01,23.487V5.78A1.769,1.769,0,0,1,6.781,4.009H56.362A1.769,1.769,0,0,1,58.133,5.78V23.487a1.769,1.769,0,0,1-1.771,1.771M8.552,21.717h46.04V7.551H8.552Z" transform="translate(3.861 3.091)" fill="#262626"/>
        <path id="Caminho_189" data-name="Caminho 189" d="M61.994,92.113a1.82,1.82,0,0,1-.8-.188L35.433,78.287,9.709,91.906a1.85,1.85,0,0,1-2.327-.59,1.8,1.8,0,0,1,.568-2.525L31.611,76.263.951,60.032A1.8,1.8,0,0,1,0,58.451L0,42.514a1.765,1.765,0,0,1,.188-.8l8.664-15.6V1.787a1.788,1.788,0,0,1,3.577,0v42.5a1.788,1.788,0,0,1-3.577,0V33.48l-5.277,9.5v14.4L35.433,74.239,67.289,57.374v-14.4l-5.277-9.5V44.285a1.788,1.788,0,0,1-3.577,0V1.787a1.788,1.788,0,0,1,3.577,0V26.115l8.629,15.531a1.751,1.751,0,0,1,.223.868h0V58.451a1.8,1.8,0,0,1-.988,1.6L39.256,76.263,62.832,88.745a1.788,1.788,0,0,1-.838,3.368" transform="translate(0 0.001)" fill="#262626"/>
      </g>
    </g>
  </g>
</svg>
