<svg id="ID" xmlns="http://www.w3.org/2000/svg" xmlns:xlink="http://www.w3.org/1999/xlink" width="182.678" height="48" viewBox="0 0 182.678 48">
  <defs>
    <clipPath id="clip-path">
      <rect id="Retângulo_8" data-name="Retângulo 8" width="182.678" height="48" fill="#fff" />
    </clipPath>
  </defs>
  <g id="Grupo_1" data-name="Grupo 1" clip-path="url(#clip-path)">
    <path id="Caminho_5" data-name="Caminho 5" d="M108.166,7.118a.284.284,0,0,1-.17-.053.178.178,0,0,1-.073-.151V.467h-1.682A.188.188,0,0,1,106.086.4a.254.254,0,0,1-.059-.161.252.252,0,0,1,.059-.161A.188.188,0,0,1,106.241,0h3.841a.192.192,0,0,1,.16.068.246.246,0,0,1,.054.156.3.3,0,0,1-.049.171.185.185,0,0,1-.165.072H108.41V6.914a.177.177,0,0,1-.074.151.282.282,0,0,1-.17.053m6.642,0a.287.287,0,0,1-.171-.053.178.178,0,0,1-.072-.151V.195a.163.163,0,0,1,.072-.151A.33.33,0,0,1,114.808,0a.334.334,0,0,1,.165.044.158.158,0,0,1,.077.151V3.2h2.966V.195a.163.163,0,0,1,.073-.151.329.329,0,0,1,.17-.044.335.335,0,0,1,.166.044.161.161,0,0,1,.078.151V6.914a.175.175,0,0,1-.078.151.292.292,0,0,1-.166.053.286.286,0,0,1-.17-.053.178.178,0,0,1-.073-.151V3.652H115.05V6.914a.172.172,0,0,1-.077.151.291.291,0,0,1-.165.053m8.828,0a.247.247,0,0,1-.155-.053.18.18,0,0,1-.068-.151V.2a.178.178,0,0,1,.068-.15A.242.242,0,0,1,123.636,0H127.1a.177.177,0,0,1,.156.073.273.273,0,0,1,.049.151.3.3,0,0,1-.054.166.172.172,0,0,1-.151.077h-3.2V3.33h1.536a.18.18,0,0,1,.151.069.262.262,0,0,1,.054.165.249.249,0,0,1-.049.146.178.178,0,0,1-.156.068H123.9V6.651h3.2a.176.176,0,0,1,.151.073.283.283,0,0,1,.054.17.273.273,0,0,1-.049.151.174.174,0,0,1-.156.073ZM108.6,20.784a2.386,2.386,0,0,1-1-.2,1.543,1.543,0,0,1-.7-.648,2.354,2.354,0,0,1-.257-1.183V13.8a.163.163,0,0,1,.072-.151.33.33,0,0,1,.171-.044.334.334,0,0,1,.165.044.159.159,0,0,1,.078.151v4.946a1.6,1.6,0,0,0,.389,1.183,1.726,1.726,0,0,0,2.173,0,1.59,1.59,0,0,0,.394-1.183V13.8a.161.161,0,0,1,.073-.151.323.323,0,0,1,.17-.044.334.334,0,0,1,.165.044.159.159,0,0,1,.078.151v4.946a2.309,2.309,0,0,1-.263,1.183,1.564,1.564,0,0,1-.71.648,2.358,2.358,0,0,1-.991.2m7.069-.058a.247.247,0,0,1-.156-.054.18.18,0,0,1-.068-.15V13.8a.162.162,0,0,1,.073-.146.3.3,0,0,1,.17-.049.3.3,0,0,1,.166.049.159.159,0,0,1,.077.146v6.456H118.8a.143.143,0,0,1,.131.072.317.317,0,0,1,0,.322.144.144,0,0,1-.131.073Zm8.1,0a.28.28,0,0,1-.17-.054.176.176,0,0,1-.072-.15V14.075h-1.682a.189.189,0,0,1-.156-.072.249.249,0,0,1,0-.322.188.188,0,0,1,.156-.073h3.84a.191.191,0,0,1,.16.068.245.245,0,0,1,.054.156.306.306,0,0,1-.048.171.186.186,0,0,1-.166.072h-1.672v6.447a.176.176,0,0,1-.073.15.281.281,0,0,1-.171.054m6.642,0a.276.276,0,0,1-.17-.054.174.174,0,0,1-.073-.15V13.8a.161.161,0,0,1,.073-.151.323.323,0,0,1,.17-.044.334.334,0,0,1,.165.044.159.159,0,0,1,.078.151v6.719a.171.171,0,0,1-.078.15.285.285,0,0,1-.165.054m5.4,0a.276.276,0,0,1-.17-.054.175.175,0,0,1-.074-.15v-6.68a.206.206,0,0,1,.074-.185.293.293,0,0,1,.17-.049.24.24,0,0,1,.16.063.841.841,0,0,1,.136.156,1.194,1.194,0,0,1,.1.18l1.779,3.486,1.8-3.486c.032-.058.068-.118.107-.18a.645.645,0,0,1,.136-.156.244.244,0,0,1,.155-.063.288.288,0,0,1,.175.049.212.212,0,0,1,.068.185v6.68a.176.176,0,0,1-.072.15.281.281,0,0,1-.171.054.285.285,0,0,1-.165-.054.171.171,0,0,1-.078-.15v-5.8l-1.731,3.311a.388.388,0,0,1-.107.151.2.2,0,0,1-.117.044.182.182,0,0,1-.106-.044.388.388,0,0,1-.107-.151L136.054,14.7v5.824a.171.171,0,0,1-.078.15.285.285,0,0,1-.165.054m9.247,0a.3.3,0,0,1-.122-.029.318.318,0,0,1-.1-.073.164.164,0,0,1-.039-.112.174.174,0,0,1,.01-.059l2.071-6.728a.208.208,0,0,1,.107-.136.352.352,0,0,1,.165-.039.358.358,0,0,1,.17.043.225.225,0,0,1,.112.132l2.052,6.728a.2.2,0,0,1,.01.059.167.167,0,0,1-.044.1.3.3,0,0,1-.107.083.321.321,0,0,1-.132.029.219.219,0,0,1-.121-.034.176.176,0,0,1-.073-.112l-.476-1.548h-2.8l-.467,1.548a.173.173,0,0,1-.077.112.262.262,0,0,1-.136.034m.816-2.142H148.4l-1.254-4.158Zm8.926,2.142a.28.28,0,0,1-.17-.054.176.176,0,0,1-.073-.15V14.075h-1.682A.189.189,0,0,1,152.72,14a.249.249,0,0,1,0-.322.187.187,0,0,1,.155-.073h3.841a.191.191,0,0,1,.16.068.245.245,0,0,1,.054.156.3.3,0,0,1-.049.171.183.183,0,0,1-.165.072h-1.672v6.447a.176.176,0,0,1-.073.15.281.281,0,0,1-.171.054m6.623,0a.243.243,0,0,1-.156-.054.178.178,0,0,1-.068-.15v-6.71a.178.178,0,0,1,.068-.15.243.243,0,0,1,.156-.054h3.461a.171.171,0,0,1,.155.073.266.266,0,0,1,.049.151.289.289,0,0,1-.053.165.173.173,0,0,1-.151.078h-3.2v2.863h1.536a.182.182,0,0,1,.151.068.26.26,0,0,1,.053.166.248.248,0,0,1-.048.146.18.18,0,0,1-.156.068h-1.536v2.873h3.2a.178.178,0,0,1,.151.072.287.287,0,0,1,.053.171.266.266,0,0,1-.049.151.174.174,0,0,1-.155.073Zm-54.5,13.608a.281.281,0,0,1-.171-.054.178.178,0,0,1-.072-.151V27.45a.208.208,0,0,1,.072-.185.3.3,0,0,1,.171-.049.24.24,0,0,1,.16.063.806.806,0,0,1,.136.156,1.194,1.194,0,0,1,.1.18L109.1,31.1l1.8-3.486c.032-.058.068-.118.106-.18a.667.667,0,0,1,.136-.156.251.251,0,0,1,.156-.063.29.29,0,0,1,.175.049.212.212,0,0,1,.069.185v6.679a.177.177,0,0,1-.074.151.276.276,0,0,1-.17.054.285.285,0,0,1-.165-.054.173.173,0,0,1-.078-.151v-5.8l-1.731,3.31a.4.4,0,0,1-.106.152.2.2,0,0,1-.117.043.182.182,0,0,1-.107-.043.385.385,0,0,1-.107-.152l-1.721-3.33v5.823a.173.173,0,0,1-.078.151.285.285,0,0,1-.165.054m9.762,0a.242.242,0,0,1-.155-.054.18.18,0,0,1-.068-.151V27.42a.18.18,0,0,1,.068-.151.247.247,0,0,1,.155-.053h3.462a.171.171,0,0,1,.155.073.271.271,0,0,1,.049.151.283.283,0,0,1-.054.165.17.17,0,0,1-.15.078h-3.2v2.863h1.537a.182.182,0,0,1,.151.068.265.265,0,0,1,.053.165.245.245,0,0,1-.049.147.178.178,0,0,1-.155.068h-1.537v2.872h3.2a.175.175,0,0,1,.15.073.281.281,0,0,1,.054.171.268.268,0,0,1-.049.15.172.172,0,0,1-.155.074Zm9.519,0a.28.28,0,0,1-.17-.054.178.178,0,0,1-.073-.151V27.683h-1.682a.187.187,0,0,1-.155-.073.248.248,0,0,1,0-.321.187.187,0,0,1,.155-.073h3.841a.191.191,0,0,1,.16.068.245.245,0,0,1,.054.156.3.3,0,0,1-.049.17.182.182,0,0,1-.165.073h-1.672v6.446a.178.178,0,0,1-.073.151.281.281,0,0,1-.171.054m5.562,0a.293.293,0,0,1-.121-.029.309.309,0,0,1-.1-.074.16.16,0,0,1-.039-.111.174.174,0,0,1,.01-.059l2.071-6.728a.206.206,0,0,1,.107-.136.349.349,0,0,1,.165-.039.361.361,0,0,1,.17.043.225.225,0,0,1,.112.132l2.052,6.728a.2.2,0,0,1,.009.059.162.162,0,0,1-.044.1.292.292,0,0,1-.107.083.313.313,0,0,1-.131.029.217.217,0,0,1-.121-.035.171.171,0,0,1-.073-.111l-.476-1.549h-2.8l-.467,1.549a.166.166,0,0,1-.078.111.262.262,0,0,1-.136.035m.817-2.143h2.528l-1.254-4.157Zm9.393,2.2a.334.334,0,0,1-.165-.044.229.229,0,0,1-.107-.131l-2.071-6.728a.174.174,0,0,1-.01-.059.163.163,0,0,1,.039-.112.318.318,0,0,1,.1-.073.3.3,0,0,1,.122-.029.264.264,0,0,1,.136.034.174.174,0,0,1,.078.112l1.876,6.154,1.867-6.154a.171.171,0,0,1,.078-.112.228.228,0,0,1,.117-.034.316.316,0,0,1,.131.029.34.34,0,0,1,.107.078.156.156,0,0,1,.043.107.071.071,0,0,1,0,.029.078.078,0,0,0,0,.03l-2.052,6.728a.223.223,0,0,1-.112.131.362.362,0,0,1-.17.044m6.9-.058a.172.172,0,0,1-.155-.074.26.26,0,0,1-.049-.15.287.287,0,0,1,.053-.171.178.178,0,0,1,.151-.073h3.2V30.994h-1.536a.18.18,0,0,1-.156-.068.251.251,0,0,1-.048-.147.259.259,0,0,1,.053-.165.182.182,0,0,1,.151-.068h1.536V27.683h-3.2a.173.173,0,0,1-.151-.078.289.289,0,0,1-.053-.165.263.263,0,0,1,.049-.151.171.171,0,0,1,.155-.073h3.461a.247.247,0,0,1,.156.053.18.18,0,0,1,.068.151v6.709a.18.18,0,0,1-.068.151.243.243,0,0,1-.156.054Zm11.717.01a.212.212,0,0,1-.18-.122L160.285,34l-1.527-2.99h-1.342v3.116a.174.174,0,0,1-.077.151.288.288,0,0,1-.166.054.278.278,0,0,1-.17-.054.176.176,0,0,1-.073-.151V27.411a.18.18,0,0,1,.054-.132.238.238,0,0,1,.15-.063h1.673a2.939,2.939,0,0,1,1.011.17,1.522,1.522,0,0,1,.749.584,2,2,0,0,1,.282,1.135,2.106,2.106,0,0,1-.21,1,1.431,1.431,0,0,1-.563.589,2.356,2.356,0,0,1-.8.268l1.556,3.018a.166.166,0,0,1,.025.059.309.309,0,0,1,0,.048.208.208,0,0,1-.038.122.379.379,0,0,1-.1.093.228.228,0,0,1-.126.039m-3.18-3.779h1.391a1.78,1.78,0,0,0,1.123-.335,1.328,1.328,0,0,0,.432-1.115,1.3,1.3,0,0,0-.432-1.1,1.8,1.8,0,0,0-1.123-.331h-1.391Zm9.451,3.827a2.684,2.684,0,0,1-1.054-.185,1.847,1.847,0,0,1-.657-.433.7.7,0,0,1-.224-.394.258.258,0,0,1,.039-.127.368.368,0,0,1,.088-.107.155.155,0,0,1,.1-.039.25.25,0,0,1,.18.121,2.878,2.878,0,0,0,.258.288,1.4,1.4,0,0,0,.457.287,2.023,2.023,0,0,0,.768.122,1.922,1.922,0,0,0,.841-.166,1.149,1.149,0,0,0,.525-.492,1.641,1.641,0,0,0,.18-.8,1.6,1.6,0,0,0-.18-.813,1.491,1.491,0,0,0-.467-.5,2.819,2.819,0,0,0-.632-.312q-.345-.122-.69-.249a3.1,3.1,0,0,1-.637-.316,1.435,1.435,0,0,1-.472-.511,1.7,1.7,0,0,1-.18-.837,1.744,1.744,0,0,1,.19-.862,1.448,1.448,0,0,1,.491-.526,1.971,1.971,0,0,1,.642-.263,3.126,3.126,0,0,1,.661-.073,3.229,3.229,0,0,1,.569.049,4.07,4.07,0,0,1,.51.121,1.321,1.321,0,0,1,.37.171.267.267,0,0,1,.136.2.282.282,0,0,1-.029.122.369.369,0,0,1-.078.112.16.16,0,0,1-.117.049.535.535,0,0,1-.233-.093,2.386,2.386,0,0,0-.428-.185,2.271,2.271,0,0,0-.709-.092,2.348,2.348,0,0,0-.7.107,1.194,1.194,0,0,0-.569.37,1.357,1.357,0,0,0-.043,1.421,1.328,1.328,0,0,0,.471.409,3.835,3.835,0,0,0,.632.268q.341.112.69.258a2.757,2.757,0,0,1,.638.37,1.682,1.682,0,0,1,.466.594,2.61,2.61,0,0,1-.078,2.084,1.558,1.558,0,0,1-.7.643,2.427,2.427,0,0,1-1.026.2m6.788-.058a.243.243,0,0,1-.156-.054.18.18,0,0,1-.068-.151V27.42a.18.18,0,0,1,.068-.151.247.247,0,0,1,.156-.053h3.461a.174.174,0,0,1,.156.073.271.271,0,0,1,.049.151.29.29,0,0,1-.054.165.173.173,0,0,1-.151.078h-3.2v2.863h1.536a.182.182,0,0,1,.151.068.266.266,0,0,1,.054.165.252.252,0,0,1-.049.147.178.178,0,0,1-.156.068h-1.536v2.872h3.2a.178.178,0,0,1,.151.073.288.288,0,0,1,.054.171.268.268,0,0,1-.049.15.175.175,0,0,1-.156.074ZM106.9,47.942a.242.242,0,0,1-.155-.054.177.177,0,0,1-.068-.15v-6.71a.178.178,0,0,1,.068-.15.242.242,0,0,1,.155-.054h3.462a.174.174,0,0,1,.155.073.266.266,0,0,1,.049.151.289.289,0,0,1-.053.165.171.171,0,0,1-.151.078h-3.2v2.863H108.7a.182.182,0,0,1,.151.068.266.266,0,0,1,.053.166.242.242,0,0,1-.049.146.178.178,0,0,1-.155.068h-1.536v2.873h3.2a.176.176,0,0,1,.151.073.282.282,0,0,1,.053.17.266.266,0,0,1-.049.151.171.171,0,0,1-.155.073Zm7.779.01a.267.267,0,0,1-.131-.034.3.3,0,0,1-.1-.088.206.206,0,0,1-.039-.122.312.312,0,0,1,.03-.126l1.672-3.2L114.467,41.2a.4.4,0,0,1-.059-.185.166.166,0,0,1,.039-.112.265.265,0,0,1,.1-.068.355.355,0,0,1,.136-.025.216.216,0,0,1,.189.117,2.025,2.025,0,0,1,.122.224l1.41,2.756,1.429-2.756a1.689,1.689,0,0,1,.127-.224.222.222,0,0,1,.185-.117.367.367,0,0,1,.131.025.221.221,0,0,1,.1.068.174.174,0,0,1,.034.112.452.452,0,0,1-.049.185l-1.662,3.174,1.682,3.2a.254.254,0,0,1,.039.126.2.2,0,0,1-.039.122.3.3,0,0,1-.1.088.27.27,0,0,1-.131.034.207.207,0,0,1-.171-.117c-.048-.078-.089-.149-.121-.214L116.4,44.836l-1.429,2.785c-.033.065-.072.136-.117.214a.2.2,0,0,1-.175.117m8.372-.01a.276.276,0,0,1-.17-.054.173.173,0,0,1-.073-.15V41.019a.169.169,0,0,1,.058-.131.264.264,0,0,1,.156-.064h1.76a2.375,2.375,0,0,1,.987.2,1.518,1.518,0,0,1,.7.647,2.384,2.384,0,0,1,.258,1.188v.107a2.379,2.379,0,0,1-.258,1.188,1.543,1.543,0,0,1-.705.653,2.363,2.363,0,0,1-.992.2H123.3v2.727a.17.17,0,0,1-.078.15.285.285,0,0,1-.165.054m.243-3.379h1.478a1.459,1.459,0,0,0,1.079-.389,1.635,1.635,0,0,0,.389-1.2v-.117a1.6,1.6,0,0,0-.389-1.183,1.469,1.469,0,0,0-1.079-.385H123.3Zm8.158,3.379a.242.242,0,0,1-.155-.054.177.177,0,0,1-.068-.15v-6.71a.178.178,0,0,1,.068-.15.242.242,0,0,1,.155-.054h3.462a.174.174,0,0,1,.155.073.266.266,0,0,1,.049.151.289.289,0,0,1-.053.165.171.171,0,0,1-.151.078h-3.2v2.863h1.536a.182.182,0,0,1,.151.068.266.266,0,0,1,.053.166.242.242,0,0,1-.049.146.178.178,0,0,1-.155.068h-1.536v2.873h3.2a.176.176,0,0,1,.151.073.282.282,0,0,1,.053.17.266.266,0,0,1-.049.151.171.171,0,0,1-.155.073Zm11.7.01a.21.21,0,0,1-.18-.122l-.132-.219-1.526-2.989h-1.342v3.116a.17.17,0,0,1-.078.15.285.285,0,0,1-.165.054.276.276,0,0,1-.17-.054.173.173,0,0,1-.073-.15V41.019a.179.179,0,0,1,.053-.131.242.242,0,0,1,.151-.064h1.672a2.925,2.925,0,0,1,1.012.171,1.508,1.508,0,0,1,.748.584,1.99,1.99,0,0,1,.283,1.134,2.1,2.1,0,0,1-.21,1,1.427,1.427,0,0,1-.564.589,2.336,2.336,0,0,1-.8.268l1.556,3.019a.138.138,0,0,1,.024.058.239.239,0,0,1,.005.049.2.2,0,0,1-.039.121.374.374,0,0,1-.1.093.223.223,0,0,1-.126.039m-3.18-3.778h1.39a1.776,1.776,0,0,0,1.123-.336,1.325,1.325,0,0,0,.433-1.115,1.3,1.3,0,0,0-.433-1.1,1.8,1.8,0,0,0-1.123-.331h-1.39Zm8.158,3.768a.276.276,0,0,1-.17-.054.173.173,0,0,1-.073-.15V41.019a.161.161,0,0,1,.073-.151.323.323,0,0,1,.17-.044.334.334,0,0,1,.165.044.159.159,0,0,1,.078.151v6.719a.17.17,0,0,1-.078.15.285.285,0,0,1-.165.054m5.377,0a.247.247,0,0,1-.156-.054.179.179,0,0,1-.068-.15v-6.71a.18.18,0,0,1,.068-.15.247.247,0,0,1,.156-.054h3.462a.174.174,0,0,1,.155.073.266.266,0,0,1,.049.151.283.283,0,0,1-.054.165.169.169,0,0,1-.15.078h-3.2v2.863h1.536a.182.182,0,0,1,.151.068.266.266,0,0,1,.053.166.248.248,0,0,1-.048.146.181.181,0,0,1-.156.068H153.77v2.873h3.2a.174.174,0,0,1,.15.073.276.276,0,0,1,.054.17.266.266,0,0,1-.049.151.171.171,0,0,1-.155.073Zm8.275,0a.276.276,0,0,1-.17-.054.173.173,0,0,1-.073-.15v-6.71a.171.171,0,0,1,.073-.16.323.323,0,0,1,.17-.044.239.239,0,0,1,.161.064.7.7,0,0,1,.131.155,1.46,1.46,0,0,1,.1.18l2.82,5.56V41.019a.162.162,0,0,1,.073-.146.3.3,0,0,1,.17-.049.311.311,0,0,1,.165.049.16.16,0,0,1,.078.146v6.719a.17.17,0,0,1-.078.15.285.285,0,0,1-.165.054.247.247,0,0,1-.2-.122,1.679,1.679,0,0,1-.146-.238l-2.859-5.609v5.765a.17.17,0,0,1-.078.15.285.285,0,0,1-.165.054M172.274,48a2.336,2.336,0,0,1-.982-.2,1.564,1.564,0,0,1-.71-.648,2.305,2.305,0,0,1-.263-1.182V42.859a2.25,2.25,0,0,1,.272-1.183,1.64,1.64,0,0,1,.72-.648,2.336,2.336,0,0,1,.982-.2,2.272,2.272,0,0,1,1.06.224,1.636,1.636,0,0,1,.651.584,1.438,1.438,0,0,1,.224.769.4.4,0,0,1-.058.259.242.242,0,0,1-.185.063.227.227,0,0,1-.194-.068.232.232,0,0,1-.049-.137,1.763,1.763,0,0,0-.068-.374,1.187,1.187,0,0,0-.209-.405,1.123,1.123,0,0,0-.433-.321,1.828,1.828,0,0,0-.739-.127,1.508,1.508,0,0,0-1.113.385,1.61,1.61,0,0,0-.384,1.183v3.107a1.593,1.593,0,0,0,.389,1.187,1.575,1.575,0,0,0,1.147.38,1.8,1.8,0,0,0,.729-.122.981.981,0,0,0,.409-.311,1.18,1.18,0,0,0,.189-.409c.036-.146.064-.278.083-.394a.244.244,0,0,1,.063-.146.236.236,0,0,1,.18-.059.233.233,0,0,1,.185.068.424.424,0,0,1,.058.263,1.441,1.441,0,0,1-.224.764,1.6,1.6,0,0,1-.661.589,2.318,2.318,0,0,1-1.069.224m6.738-.058a.246.246,0,0,1-.156-.054.179.179,0,0,1-.068-.15v-6.71a.18.18,0,0,1,.068-.15.246.246,0,0,1,.156-.054h3.462a.174.174,0,0,1,.155.073.266.266,0,0,1,.049.151.283.283,0,0,1-.054.165.17.17,0,0,1-.15.078h-3.2v2.863h1.536a.182.182,0,0,1,.151.068.266.266,0,0,1,.053.166.242.242,0,0,1-.049.146.178.178,0,0,1-.155.068h-1.536v2.873h3.2a.175.175,0,0,1,.15.073.276.276,0,0,1,.054.17.266.266,0,0,1-.049.151.171.171,0,0,1-.155.073Z" fill="#fff" />
    <path id="Caminho_6" data-name="Caminho 6" d="M69.573,28.788l4.757,4.818,4.819-4.818V0H98.361V33.606L83.967,48H64.755L50.361,33.606V0H69.573Z" fill="#fff" />
    <path id="Caminho_7" data-name="Caminho 7" d="M9.575,14.394H0V9.637H9.575Zm4.819,19.212H0V28.787H14.394Zm0-9.576H4.818V19.212h9.576Zm.244,19.152h-7.2V38.425h7.2ZM14.394,4.818H9.575V0h4.819Zm4.818,23.97V24.03h9.576V19.212H26.409V14.394H14.394V9.637H23.97V4.818H19.212V0H45.561V48H26.409V43.182H23.97V38.425H19.212V33.606h9.576V28.788ZM21.835,48H17.017V43.182h4.818Z" fill="#fff" />
  </g>
</svg>