<?xml version="1.0" standalone="no"?>
<!DOCTYPE svg PUBLIC "-//W3C//DTD SVG 1.1//EN" "http://www.w3.org/Graphics/SVG/1.1/DTD/svg11.dtd" >
<svg>
<metadata>
Created by FontForge 20120731 at Mon Jun 18 08:42:26 2018
 By www
Copyright (c) 2014 by M-B Creative. All rights reserved.
</metadata>
<defs>
<font id="MBVinatageW01-Heavy" horiz-adv-x="792" >
  <font-face 
    font-family="MBVinatageW01-Heavy"
    font-weight="900"
    font-stretch="normal"
    units-per-em="1000"
    panose-1="2 0 5 3 0 0 0 2 0 3"
    ascent="800"
    descent="-200"
    x-height="501"
    cap-height="791"
    bbox="-65 -311 1576 967"
    underline-thickness="50"
    underline-position="-125"
    unicode-range="U+0020-2122"
  />
<missing-glyph horiz-adv-x="200" 
 />
    <glyph glyph-name=".notdef" horiz-adv-x="200" 
 />
    <glyph glyph-name=".null" horiz-adv-x="0" 
 />
    <glyph glyph-name="nonmarkingreturn" horiz-adv-x="333" 
 />
    <glyph glyph-name="space" unicode=" " horiz-adv-x="200" 
 />
    <glyph glyph-name="exclam" unicode="!" horiz-adv-x="293" 
d="M219 188h-145v603h145v-603zM65 81q0 33 21.5 57.5t59.5 24.5q36 0 59 -24.5t23 -57.5q0 -34 -23 -57.5t-59 -23.5q-38 0 -59.5 23.5t-21.5 57.5z" />
    <glyph glyph-name="quotedbl" unicode="&#x22;" horiz-adv-x="254" 
d="M112 810l-14 -210h-73v210h87zM239 810l-14 -210h-74v210h88z" />
    <glyph glyph-name="numbersign" unicode="#" horiz-adv-x="789" 
d="M600 460v-129h124v-144h-124v-187h-146v187h-111v-187h-146v187h-132v144h132v129h-132v144h132v187h146v-187h111v187h146v-187h124v-144h-124zM454 460h-111v-129h111v129z" />
    <glyph glyph-name="dollar" unicode="$" horiz-adv-x="595" 
d="M236 556q0 -11 10.5 -22.5t26.5 -22t35.5 -20t37.5 -18.5q34 -16 69.5 -34t64.5 -42.5t47 -57t18 -75.5q0 -39 -13 -71.5t-35.5 -58t-52.5 -43.5t-65 -27v-119h-143v117q-45 8 -91 35.5t-95 71.5l88 105q37 -31 81.5 -55.5t99.5 -24.5q36 0 56.5 17t20.5 46q0 13 -10 25
t-25.5 22.5t-35.5 20.5t-40 19q-35 16 -70.5 34t-64 42t-46.5 56t-18 75q0 36 12 66.5t32 54.5t47.5 40t57.5 24v118h144v-117q32 -9 74.5 -30.5t90.5 -58.5l-82 -111q-48 31 -82.5 47.5t-71.5 16.5q-35 0 -53.5 -11.5t-18.5 -33.5z" />
    <glyph glyph-name="percent" unicode="%" horiz-adv-x="1102" 
d="M239 370q-45 0 -84 16.5t-68 45t-45.5 67.5t-16.5 85q0 45 16.5 84t45 68.5t67.5 46t85 16.5q44 0 83 -16.5t68 -46t46 -68.5t17 -84q0 -46 -17 -85t-46 -67.5t-68 -45t-83 -16.5zM238 657q-30 0 -50.5 -21t-20.5 -53q0 -29 20.5 -51t50.5 -22t50.5 22t20.5 51
q0 32 -20.5 53t-50.5 21zM813 -7q-47 0 -87.5 17t-70.5 47t-47.5 71t-17.5 89q0 47 17 88t47 71.5t71 48t88 17.5q46 0 87 -17.5t71.5 -48t48 -71.5t17.5 -88t-17.5 -88t-48 -71t-71.5 -47.5t-87 -17.5zM813 300q-35 0 -58 -24t-23 -59t23 -58.5t58 -23.5q34 0 58 23.5
t24 58.5t-24 59t-58 24zM280 0h-183l651 791h180z" />
    <glyph glyph-name="ampersand" unicode="&#x26;" horiz-adv-x="810" 
d="M588 0l-29 42q-14 -7 -30.5 -16t-37 -16.5t-45 -13t-52.5 -5.5q-63 0 -121.5 15.5t-103.5 49t-72 86.5t-27 128q0 46 13.5 81.5t37.5 62.5t56.5 47.5t70.5 37.5l-198 292h579v-127h-328l459 -664h-172zM394 120q24 0 49.5 9t43.5 17q-42 60 -84 122t-85 122
q-21 -9 -40.5 -21t-34 -27t-23.5 -34.5t-9 -44.5q0 -37 13.5 -64t37.5 -44.5t57.5 -26t74.5 -8.5z" />
    <glyph glyph-name="quotesingle" unicode="'" horiz-adv-x="127" 
d="M112 810l-14 -210h-73v210h87z" />
    <glyph glyph-name="parenleft" unicode="(" horiz-adv-x="396" 
d="M260 -31q-48 48 -84.5 100.5t-61 107t-37 110t-12.5 108.5t12.5 108.5t37 110.5t61 108t84.5 101l86 -80q-38 -38 -64.5 -82t-44 -89t-25.5 -90.5t-8 -86.5t8 -85.5t25.5 -90t44 -89.5t64.5 -82z" />
    <glyph glyph-name="parenright" unicode=")" horiz-adv-x="396" 
d="M50 48q37 38 64 82t44.5 89.5t25.5 90t8 85.5t-8 86.5t-25.5 90.5t-44.5 89t-64 82l86 80q48 -48 84.5 -101t61 -108t37 -110.5t12.5 -108.5t-12.5 -108.5t-37 -110t-61 -107t-84.5 -100.5z" />
    <glyph glyph-name="asterisk" unicode="*" horiz-adv-x="486" 
d="M238 503l-56 -93l-116 90l53 44h-54v135h57l-56 51l126 81l49 -90l56 89l120 -87l-55 -44h59v-135h-65l58 -50l-124 -84z" />
    <glyph glyph-name="plus" unicode="+" horiz-adv-x="577" 
d="M512 209h-152v-152h-145v152h-150v144h150v152h145v-152h152v-144z" />
    <glyph glyph-name="comma" unicode="," horiz-adv-x="243" 
d="M177 47q0 -2 -0.5 -19.5t-8.5 -42t-27 -51.5t-55 -48l-31 53q29 18 39.5 33.5t16.5 27.5q-22 3 -33 19.5t-11 34.5q0 19 15.5 36t39.5 17q23 0 39 -16.5t16 -43.5z" />
    <glyph glyph-name="hyphen" unicode="-" horiz-adv-x="514" 
d="M474 209h-434v145h434v-145z" />
    <glyph glyph-name="period" unicode="." horiz-adv-x="239" 
d="M174 55q0 -23 -15 -39t-40 -16q-22 0 -38 16t-16 39t16 38.5t38 15.5q25 0 40 -15.5t15 -38.5z" />
    <glyph glyph-name="slash" unicode="/" horiz-adv-x="519" 
d="M163 0h-143l335 791h144z" />
    <glyph glyph-name="zero" unicode="0" horiz-adv-x="768" 
d="M383 -10q-81 0 -143.5 36.5t-104.5 94.5t-63.5 130.5t-21.5 144.5t22 144.5t64.5 130t104.5 93.5t142 36q81 0 143.5 -36t105 -93.5t64.5 -130t22 -144.5t-22 -144.5t-64.5 -130t-105 -94t-143.5 -37.5zM383 655q-39 0 -72 -20.5t-57.5 -56t-38 -82.5t-13.5 -100
t13.5 -100.5t38 -83t57.5 -56t72 -20.5t73 20.5t58.5 56t38.5 83t14 100.5t-14 100t-38.5 82.5t-58.5 56t-73 20.5z" />
    <glyph glyph-name="one" unicode="1" horiz-adv-x="343" 
d="M278 0h-145v582l-33 -30l-60 84l238 174v-810z" />
    <glyph glyph-name="two" unicode="2" horiz-adv-x="675" 
d="M625 0h-575l370 481q13 17 24.5 44t11.5 58q0 15 -6 30t-16 27t-24 19.5t-29 7.5q-25 0 -45 -4t-39.5 -12t-40 -21.5t-46.5 -32.5l-84 108q40 30 74.5 48.5t65 29t60 14t61.5 3.5q48 0 89 -16t70.5 -45.5t46.5 -70.5t17 -92q0 -35 -11.5 -68.5t-25.5 -59.5
q-17 -31 -37 -58l-199 -253h288v-137z" />
    <glyph glyph-name="three" unicode="3" horiz-adv-x="642" 
d="M283 -10q-51 0 -107.5 23t-125.5 77l90 107q46 -38 81.5 -51.5t61.5 -13.5q27 0 51.5 10t43 27.5t29 41.5t10.5 53q0 28 -10.5 55.5t-29 49.5t-43 35t-51.5 13h-123l179 246h-243v128h496l-206 -277q39 -15 71.5 -41t56 -60t36.5 -72t13 -77q0 -57 -21.5 -106.5t-59 -87
t-89 -59t-110.5 -21.5z" />
    <glyph glyph-name="four" unicode="4" horiz-adv-x="669" 
d="M629 501v-501h-146v201h-443l418 590h165l-321 -458h181v168h146z" />
    <glyph glyph-name="five" unicode="5" horiz-adv-x="614" 
d="M281 -10q-49 0 -106 22t-125 76l91 112q48 -38 81.5 -52t58.5 -14q27 0 51 10.5t41.5 28.5t27.5 42.5t10 53.5q0 28 -10 55t-27.5 48t-41.5 33.5t-51 12.5h-209l117 373h335v-127h-245l-35 -120h37q58 0 109.5 -22t90 -59.5t61 -87.5t22.5 -106q0 -58 -22.5 -109
t-61 -88.5t-90 -59.5t-109.5 -22z" />
    <glyph glyph-name="six" unicode="6" horiz-adv-x="629" 
d="M503 683q-37 -24 -60 -39t-42 -29t-38 -30.5t-48 -43.5q60 -2 108.5 -22t83 -55.5t53.5 -85t19 -108.5t-18.5 -110.5t-53 -89t-83 -59t-109.5 -21.5t-110 21.5t-83.5 59.5t-53 89t-18.5 110q0 34 7 66t17 58q26 65 57 118.5t73 102t97 95t130 96.5zM315 135q30 0 52 12
t36 31t20.5 43t6.5 49t-6.5 48.5t-20.5 42t-36 29.5t-53 11t-53 -11t-36 -29.5t-20.5 -42t-6.5 -48.5q0 -58 31.5 -96.5t85.5 -38.5z" />
    <glyph glyph-name="seven" unicode="7" horiz-adv-x="690" 
d="M198 0h-158l375 665h-328v126h563z" />
    <glyph glyph-name="eight" unicode="8" horiz-adv-x="621" 
d="M532 590q0 -23 -7.5 -44t-20 -40t-27.5 -34.5t-30 -26.5q24 -14 46 -34.5t39.5 -46.5t28 -56t10.5 -63q0 -57 -19.5 -103.5t-54 -80.5t-82 -52.5t-104.5 -18.5t-104.5 18.5t-82.5 52.5t-54.5 80.5t-19.5 103.5q0 32 11.5 62.5t29.5 56.5t41 46.5t46 33.5q-15 11 -30 27
t-28 34.5t-21 40t-8 44.5q0 48 16.5 87t45.5 66.5t69.5 42t88.5 14.5q47 0 87.5 -14.5t70 -42t46.5 -66.5t17 -87zM239 591q0 -31 19 -54.5t53 -23.5q33 0 51.5 23.5t18.5 54.5q0 32 -18.5 52.5t-51.5 20.5q-34 0 -53 -20.5t-19 -52.5zM311 126q52 0 81 32t29 80
q0 24 -7.5 46t-21.5 38t-34.5 25.5t-46.5 9.5t-46 -9.5t-34 -25.5t-21.5 -38t-7.5 -46q0 -48 29 -80t80 -32z" />
    <glyph glyph-name="nine" unicode="9" horiz-adv-x="629" 
d="M126 109q37 24 60 39t42 29t38 30.5t48 43.5q-60 1 -108.5 21.5t-83 56t-53.5 85t-19 108.5t18.5 110t53 88.5t83 58.5t109.5 21t110 -21.5t83.5 -59t53 -88t18.5 -109.5q0 -34 -7 -66t-17 -58q-26 -65 -57 -118.5t-73 -102t-97 -95t-130 -96.5zM314 655q-30 0 -52 -11.5
t-36 -30.5t-20.5 -42.5t-6.5 -48.5t6.5 -48.5t20.5 -42t36 -29.5t53 -11t53 11t36 29.5t20.5 42t6.5 48.5q0 58 -31.5 95.5t-85.5 37.5z" />
    <glyph glyph-name="colon" unicode=":" horiz-adv-x="239" 
d="M174 188q0 -23 -15 -39t-40 -16q-22 0 -38 16t-16 39t16 38.5t38 15.5q25 0 40 -15.5t15 -38.5zM174 344q0 -23 -15 -39t-40 -16q-22 0 -38 16t-16 39t16 38.5t38 15.5q25 0 40 -15.5t15 -38.5z" />
    <glyph glyph-name="semicolon" unicode=";" horiz-adv-x="253" 
d="M187 47q0 -2 -0.5 -19.5t-8.5 -42t-27 -51.5t-55 -48l-31 53q29 18 39.5 33.5t16.5 27.5q-22 3 -33 19.5t-11 34.5q0 19 15.5 36t39.5 17q23 0 39 -16.5t16 -43.5zM187 188q0 -23 -15 -39t-40 -16q-22 0 -38 16t-16 39t16 38.5t38 15.5q25 0 40 -15.5t15 -38.5z" />
    <glyph glyph-name="less" unicode="&#x3c;" horiz-adv-x="547" 
d="M410 20l-370 258l370 261l71 -134l-202 -128l203 -127z" />
    <glyph glyph-name="equal" unicode="=" horiz-adv-x="577" 
d="M512 297h-447v145h447v-145zM512 109h-447v146h447v-146z" />
    <glyph glyph-name="greater" unicode="&#x3e;" horiz-adv-x="547" 
d="M65 150l203 127l-202 128l71 134l370 -261l-370 -258z" />
    <glyph glyph-name="question" unicode="?" horiz-adv-x="596" 
d="M180 188q0 58 8 94t22.5 60.5t34.5 42t45 37.5q42 33 68 67.5t26 72.5q0 42 -24.5 69t-67.5 27q-31 0 -54.5 -5t-43 -15t-37 -23.5t-36.5 -30.5l-91 98q35 34 66.5 56.5t63 36t64 19t68.5 5.5q52 0 96 -17.5t76 -49t49.5 -75t17.5 -95.5q0 -41 -11.5 -74t-30.5 -60.5
t-44 -50.5t-51 -45q-15 -12 -27.5 -23.5t-22 -27.5t-14.5 -38t-5 -55h-145zM334 82q0 -33 -22.5 -57.5t-60.5 -24.5q-15 0 -30 6.5t-26 18t-18 26t-7 31.5q0 36 25 58.5t56 22.5q38 0 60.5 -22.5t22.5 -58.5z" />
    <glyph glyph-name="at" unicode="@" horiz-adv-x="895" 
d="M448 638q79 0 150.5 -31t126.5 -84t87.5 -125.5t32.5 -154.5q0 -53 -15.5 -107.5t-50 -105.5t-90.5 -95.5t-138 -78.5v180q-11 -11 -24 -21t-29 -18t-36 -13t-45 -5q-41 0 -77.5 14t-64 39.5t-43.5 61t-16 79.5q0 46 17 76.5t45.5 49t65.5 26t78 7.5q26 0 52 -5.5
t49 -13.5q0 35 -18.5 53.5t-53.5 18.5q-18 0 -34 -1.5t-33 -7t-38 -15t-51 -24.5l-56 104q34 18 59 31t48.5 22t48 13t56.5 4q106 0 165 -59.5t59 -162.5v-285q18 18 35.5 40t31.5 51t22.5 65.5t8.5 82.5q0 68 -25 127t-69 103t-103 69.5t-128 25.5q-79 0 -140 -30t-103 -77
t-64 -104.5t-22 -113.5q0 -51 19.5 -108.5t60 -106t102.5 -80t146 -31.5v-68q-93 0 -166.5 32t-124.5 86.5t-78.5 126t-27.5 149.5q0 81 33 153t88 125.5t127 85t150 31.5zM422 116q15 0 31.5 3.5t32 10.5t27.5 18t17 25v28q-21 8 -50 16t-59 8q-13 0 -26.5 -3.5t-24 -9.5
t-17 -15t-6.5 -21q0 -31 23 -45.5t52 -14.5z" />
    <glyph glyph-name="A" unicode="A" 
d="M527 196h-262l-84 -196h-161l376 810l376 -810h-160zM478 327l-81 188l-82 -188h163z" />
    <glyph glyph-name="B" unicode="B" horiz-adv-x="666" 
d="M85 0v786q49 5 90.5 7.5t71.5 4.5q35 2 64 2q46 0 89 -14.5t75 -42.5t51.5 -67.5t19.5 -88.5q0 -20 -6.5 -38.5t-17 -34.5t-23.5 -28.5t-26 -21.5q30 -13 56 -36t45.5 -52t30.5 -61t11 -62q0 -65 -23.5 -112.5t-63 -78.5t-92.5 -46.5t-112 -15.5h-240zM233 374v-231h92
q66 0 100.5 30t34.5 80q0 53 -35 87t-100 34h-92zM233 510h76q40 0 60.5 22.5t20.5 54.5q0 17 -7.5 31t-19.5 24t-27 15.5t-30 5.5q-11 0 -23 -1q-11 -1 -23.5 -2t-26.5 -3v-147z" />
    <glyph glyph-name="C" unicode="C" horiz-adv-x="823" 
d="M446 -10q-88 0 -160.5 32.5t-125 88t-81.5 128.5t-29 155q0 85 30.5 159t83.5 129t125.5 86.5t156.5 31.5q78 0 160 -33t167 -101l-92 -110q-63 53 -123.5 75t-111.5 22q-52 0 -96.5 -20.5t-76.5 -55.5t-50.5 -82t-18.5 -101t18.5 -100.5t50.5 -81t76.5 -54.5t96.5 -20
q51 0 110.5 19.5t123.5 72.5l93 -107q-85 -72 -167 -102.5t-160 -30.5z" />
    <glyph glyph-name="D" unicode="D" horiz-adv-x="797" 
d="M85 785q47 6 79.5 9t56.5 4.5t42 1.5h35q90 0 171.5 -27.5t143 -79.5t98 -127t36.5 -170t-36.5 -168.5t-98 -124t-143 -77t-171.5 -26.5h-213v785zM233 148h65q67 0 121.5 18t93 50.5t59 78t20.5 101.5q0 57 -21 105t-60 82.5t-93 54t-120 19.5q-14 0 -27 -1t-38 -3v-505
z" />
    <glyph glyph-name="E" unicode="E" horiz-adv-x="640" 
d="M590 147v-147h-505v791h498v-146h-350v-244h299v-141h-299v-113h357z" />
    <glyph glyph-name="F" unicode="F" horiz-adv-x="633" 
d="M233 645v-244h299v-141h-299v-260h-148v791h498v-146h-350z" />
    <glyph glyph-name="G" unicode="G" horiz-adv-x="826" 
d="M447 -10q-87 0 -160 33t-125.5 88.5t-82 128.5t-29.5 154q0 85 30.5 159t84 129t126 86.5t156.5 31.5q75 0 157 -32.5t168 -101.5l-89 -108q-64 51 -124 73t-112 22q-56 0 -100.5 -20.5t-76 -55.5t-48.5 -82t-17 -101t17 -101t48.5 -82.5t76 -56t100.5 -20.5q51 0 100 10
t84 33v83h-145v141h290v-298q-31 -27 -71 -48t-84 -35.5t-89 -22t-85 -7.5z" />
    <glyph glyph-name="H" unicode="H" horiz-adv-x="734" 
d="M649 791v-791h-148v260h-268v-260h-148v791h148v-390h268v390h148z" />
    <glyph glyph-name="I" unicode="I" horiz-adv-x="318" 
d="M233 0h-148v791h148v-791z" />
    <glyph glyph-name="J" unicode="J" horiz-adv-x="337" 
d="M40 -212q39 32 51.5 63.5t12.5 54.5v885h148v-885q0 -50 -32.5 -107.5t-90.5 -108.5z" />
    <glyph glyph-name="K" unicode="K" horiz-adv-x="733" 
d="M512 0l-279 263v-263h-148v791h148v-263l261 263h188l-403 -399l434 -392h-201z" />
    <glyph glyph-name="L" unicode="L" horiz-adv-x="610" 
d="M590 0h-505v791h148v-650h357v-141z" />
    <glyph glyph-name="M" unicode="M" horiz-adv-x="838" 
d="M753 0h-148v473l-186 -199l-186 199v-473h-148v810l334 -324l334 324v-810z" />
    <glyph glyph-name="N" unicode="N" horiz-adv-x="715" 
d="M630 791v-791h-147v345l-250 181v-526h-148v810l398 -282v263h147z" />
    <glyph glyph-name="O" unicode="O" horiz-adv-x="868" 
d="M432 -10q-87 0 -158 33.5t-120.5 90t-76.5 129.5t-27 152q0 82 28.5 155.5t79.5 129t121 88t153 32.5q86 0 157 -32.5t122 -88t79 -129t28 -155.5q0 -81 -28.5 -154.5t-79.5 -129t-122 -88.5t-156 -33zM432 652q-49 0 -91 -19.5t-72.5 -54t-47.5 -81.5t-17 -102
q0 -54 17 -101t47.5 -81.5t72.5 -54.5t91 -20q50 0 92.5 20t73 54.5t47.5 81.5t17 101q0 55 -17 102t-47.5 81.5t-73 54t-92.5 19.5z" />
    <glyph glyph-name="P" unicode="P" horiz-adv-x="666" 
d="M233 0h-148v787q52 5 88.5 7.5t63.5 4t47.5 1.5h41.5q60 0 113 -17t92 -50t62 -81.5t23 -111.5q0 -60 -20.5 -109.5t-58 -85.5t-90 -55.5t-116.5 -19.5h-98v-270zM233 417h98q62 0 95.5 33.5t33.5 89.5q0 52 -35 86.5t-99 34.5q-17 0 -29 -0.5t-22 -1t-20 -1.5t-22 -2
v-239z" />
    <glyph glyph-name="Q" unicode="Q" horiz-adv-x="952" 
d="M815 395q0 -64 -16.5 -124t-51.5 -112l155 -159h-204l-54 54q-48 -33 -100.5 -48.5t-112.5 -15.5q-85 0 -155 32.5t-120.5 88t-78 129t-27.5 155.5q0 83 28 157t78.5 129t120.5 87t154 32q85 0 155.5 -32t121.5 -87t79 -128.5t28 -157.5zM431 138q50 0 92 20t72 54.5
t47 81.5t17 101t-17 101t-47 81.5t-72 54.5t-92 20t-91.5 -20t-72 -54.5t-47.5 -81.5t-17 -101t17 -101t47.5 -81.5t72 -54.5t91.5 -20z" />
    <glyph glyph-name="R" unicode="R" horiz-adv-x="735" 
d="M507 0l-179 270h-95v-270h-148v787q55 5 92 7.5t63 4t46 1.5h40q60 0 113 -16.5t92 -49.5t62 -81.5t23 -112.5q0 -79 -37 -143.5t-105 -97.5q24 -35 51.5 -73.5t55 -77.5t54.5 -76.5t50 -71.5h-178zM331 417q62 0 95.5 33.5t33.5 89.5q0 52 -35 86.5t-99 34.5
q-14 0 -34 -1t-59 -5v-238h98z" />
    <glyph glyph-name="S" unicode="S" horiz-adv-x="696" 
d="M373 -10q-77 0 -157.5 24.5t-165.5 89.5l80 114q48 -35 105 -59.5t135 -24.5q23 0 45 4.5t39.5 15t28 27.5t10.5 41q0 17 -15.5 33.5t-39 32t-51 29t-52.5 24.5q-42 19 -87 40t-81.5 48.5t-60 64t-23.5 86.5q0 52 22 93t58 69.5t81.5 43t92.5 14.5q37 0 69.5 -4t66 -15
t72 -30t87.5 -48l-73 -115q-31 18 -57 31t-50.5 22t-51 13t-59.5 4q-20 0 -38 -4.5t-32.5 -13t-23 -21.5t-8.5 -30q0 -16 14 -31.5t36.5 -30.5t50 -29.5t55.5 -27.5q41 -20 85.5 -42.5t81 -50.5t60.5 -63.5t24 -82.5q0 -60 -22.5 -105t-60.5 -75t-87.5 -45.5t-102.5 -15.5z
" />
    <glyph glyph-name="T" unicode="T" horiz-adv-x="646" 
d="M616 645h-220v-645h-147v645h-219v146h586v-146z" />
    <glyph glyph-name="U" unicode="U" horiz-adv-x="752" 
d="M378 -10q-60 0 -113 21t-93 58.5t-63.5 90.5t-23.5 116v515h148v-515q0 -30 10.5 -55t30 -43.5t46 -29t58.5 -10.5q31 0 57 10.5t45 29t29.5 43.5t10.5 55v515h147v-515q0 -63 -23.5 -116t-63 -90.5t-92 -58.5t-110.5 -21z" />
    <glyph glyph-name="V" unicode="V" horiz-adv-x="790" 
d="M395 -20l-375 811h160l215 -488l214 488h161z" />
    <glyph glyph-name="W" unicode="W" horiz-adv-x="1133" 
d="M322 -21l-302 812h157l160 -463l229 463l231 -465l161 465h155l-300 -812l-247 505z" />
    <glyph glyph-name="X" unicode="X" horiz-adv-x="748" 
d="M462 396l266 -396h-177l-178 281l-175 -281h-178l266 396l-266 395h178l175 -281l178 281h177z" />
    <glyph glyph-name="Y" unicode="Y" horiz-adv-x="742" 
d="M445 269v-269h-145v269l-280 522h170l182 -380l181 380h169z" />
    <glyph glyph-name="Z" unicode="Z" horiz-adv-x="770" 
d="M722 0h-682l425 647h-370v144h635l-424 -647h416v-144z" />
    <glyph glyph-name="bracketleft" unicode="[" horiz-adv-x="311" 
d="M261 -44h-211v879h211v-132h-66v-614h66v-133z" />
    <glyph glyph-name="backslash" unicode="\" horiz-adv-x="519" 
d="M20 791h144l335 -791h-143z" />
    <glyph glyph-name="bracketright" unicode="]" horiz-adv-x="326" 
d="M50 89h66v614h-66v132h211v-879h-211v133z" />
    <glyph glyph-name="asciicircum" unicode="^" horiz-adv-x="595" 
d="M370 501l-72 116l-71 -116h-177l248 311l247 -311h-175z" />
    <glyph glyph-name="underscore" unicode="_" horiz-adv-x="621" 
d="M601 -170h-581v134h581v-134z" />
    <glyph glyph-name="grave" unicode="`" horiz-adv-x="404" 
d="M216 791l88 -134h-84l-120 134h116z" />
    <glyph glyph-name="a" unicode="a" horiz-adv-x="534" 
d="M275 514q48 0 86.5 -16.5t66 -46.5t42 -71t14.5 -89v-291h-104l-20 44q-23 -21 -57.5 -37.5t-76.5 -16.5q-39 0 -72 14t-57 39.5t-38 60t-14 75.5q0 35 15 62t41 45.5t60.5 28.5t74.5 11t62.5 -7t44.5 -16q0 34 -16.5 61.5t-51.5 32.5q-31 4 -71 -7.5t-90 -40.5l-56 100
q33 18 60 30.5t52.5 20t50.5 11t54 3.5zM245 112q13 0 28.5 3.5t30 10.5t25.5 17t16 23v41q-20 8 -44.5 14.5t-54.5 6.5q-71 0 -71 -57q0 -26 20 -42.5t50 -16.5z" />
    <glyph glyph-name="b" unicode="b" horiz-adv-x="594" 
d="M327 514q51 0 92 -21t70 -57t44.5 -84t15.5 -102q0 -50 -14.5 -97t-43 -83t-70 -58t-94.5 -22q-38 0 -75 19t-63 46l-24 -55h-100v810h138v-349q9 8 23 17.5t30.5 17.5t34.5 13t36 5zM303 130q42 0 69.5 34t27.5 86q0 26 -7.5 48.5t-20 39.5t-30.5 26.5t-39 9.5
q-28 0 -47 -11t-31 -29t-17 -40t-5 -44t5 -43.5t17 -38.5t31 -27.5t47 -10.5z" />
    <glyph glyph-name="c" unicode="c" horiz-adv-x="565" 
d="M304 -10q-57 0 -104.5 21.5t-82 57.5t-53.5 83.5t-19 99.5t19.5 99.5t54 83.5t82 57.5t103.5 21.5q50 0 103.5 -19.5t117.5 -69.5l-76 -93q-44 37 -78 45.5t-67 6.5q-27 -2 -48.5 -13t-37 -29t-23.5 -41.5t-8 -48.5q0 -26 8 -49.5t23.5 -41t37 -28.5t48.5 -12
q34 -2 67.5 8t79.5 48l74 -97q-63 -53 -117 -71.5t-104 -18.5z" />
    <glyph glyph-name="d" unicode="d" horiz-adv-x="594" 
d="M267 514q18 0 36 -5t34.5 -13t30.5 -17.5t23 -17.5v349h138v-810h-100l-24 55q-26 -27 -63 -46t-75 -19q-53 0 -94.5 22t-70 58t-43 83t-14.5 97q0 54 15.5 102t44.5 84t70 57t92 21zM291 130q28 0 47 10.5t31 27.5t17 38.5t5 43.5t-5 44t-17 40t-31 29t-47 11
q-21 0 -39 -9.5t-30.5 -26.5t-20 -39.5t-7.5 -48.5q0 -52 27.5 -86t69.5 -34z" />
    <glyph glyph-name="e" unicode="e" horiz-adv-x="581" 
d="M308 -10q-54 0 -102 21t-84 57t-56.5 83.5t-20.5 100.5q0 54 20 101.5t55 83.5t81.5 56.5t100.5 20.5q47 0 90 -19t76 -55t53 -88.5t20 -118.5h-352q2 -20 11 -39.5t24 -35.5t36 -26t48 -11q39 -2 76 11.5t74 47.5l79 -90q-60 -55 -117.5 -77.5t-111.5 -22.5zM395 325
q-3 12 -10 24t-18 22t-27.5 16.5t-37.5 6.5q-24 0 -42 -6.5t-30.5 -16.5t-20 -22t-10.5 -23z" />
    <glyph glyph-name="f" unicode="f" horiz-adv-x="309" 
d="M229 697q-8 -2 -15.5 -10t-7.5 -25v-162h87v-112h-87v-388h-138v388h-44v112h44v162q0 32 12 60.5t33 49.5t49.5 33.5t61.5 12.5q29 0 63.5 -16.5t76.5 -59.5l-72 -78q-17 17 -31.5 26.5t-31.5 6.5z" />
    <glyph glyph-name="g" unicode="g" horiz-adv-x="563" 
d="M543 -123q0 -49 -20.5 -84t-56 -58t-83 -34t-101.5 -11q-50 0 -97 10.5t-84 33.5t-59 59.5t-22 87.5q0 38 23 71t60 57q-15 17 -26.5 36t-11.5 42q0 35 19.5 57.5t46.5 36.5q-10 10 -20.5 22.5t-19.5 29t-14.5 37.5t-5.5 49q0 43 17 79t45.5 61.5t65 40t76.5 14.5
q35 0 71.5 -13t65.5 -39h115v-93l-50 -26q1 -8 1 -13.5v-10.5q0 -44 -17 -80t-45.5 -62.5t-66 -41t-77.5 -14.5q-16 0 -32 -1.5t-29 -5.5t-21.5 -10t-8.5 -16q0 -9 9 -22t32 -13h50q60 0 110 -7.5t86 -27t55.5 -53.5t19.5 -88zM208 323q0 -33 20 -51t47 -18q26 0 46 18
t20 51t-20 51t-46 18q-27 0 -47 -18t-20 -51zM281 -182q53 0 87 16t34 43q0 26 -30.5 40.5t-99.5 14.5h-40q-30 0 -50 -14t-20 -34q0 -19 12 -32t30 -20.5t38.5 -10.5t38.5 -3z" />
    <glyph glyph-name="h" unicode="h" horiz-adv-x="579" 
d="M327 514q41 0 75.5 -17t59 -46.5t38.5 -68.5t14 -83v-299h-139v299q0 32 -21.5 53t-51.5 21q-48 0 -73.5 -32.5t-25.5 -89.5v-251h-138v810h138v-347q20 18 54 34.5t70 16.5z" />
    <glyph glyph-name="i" unicode="i" horiz-adv-x="285" 
d="M210 0h-137v501h137v-501zM220 622q0 -15 -6.5 -29t-17.5 -25t-25 -17.5t-29 -6.5q-35 0 -56 24t-21 54q0 32 21 55t56 23q15 0 29 -6t25 -16.5t17.5 -25t6.5 -30.5z" />
    <glyph glyph-name="j" unicode="j" horiz-adv-x="312" 
d="M40 -216q34 29 46.5 55.5t12.5 43.5v618h138v-618q0 -45 -29.5 -95.5t-83.5 -97.5zM247 623q0 -15 -6.5 -28.5t-17 -24.5t-24.5 -17.5t-30 -6.5t-30.5 6.5t-25 17.5t-16.5 24.5t-6 28.5q0 35 23 56t55 21t55 -21t23 -56z" />
    <glyph glyph-name="k" unicode="k" horiz-adv-x="595" 
d="M256 244l319 -244h-203l-169 140v-140h-138v810h138v-455l164 146h193z" />
    <glyph glyph-name="l" unicode="l" horiz-adv-x="268" 
d="M203 0h-138v810h138v-810z" />
    <glyph glyph-name="m" unicode="m" horiz-adv-x="883" 
d="M622 514q43 0 79 -16.5t62 -45.5t40.5 -69t14.5 -86v-297h-139v297q0 18 -6 33t-16 26t-22 17t-25 6q-36 0 -62 -32.5t-26 -85.5v-261h-140v261q0 53 -25.5 85.5t-62.5 32.5q-18 0 -34.5 -8.5t-29 -24t-20 -37.5t-7.5 -48v-261h-138v501h100l22 -43q20 20 51 38t75 18
q49 0 84.5 -23t58.5 -54q32 32 75.5 54.5t90.5 22.5z" />
    <glyph glyph-name="n" unicode="n" horiz-adv-x="584" 
d="M323 514q48 0 84.5 -17t61 -46t37.5 -68t13 -83v-300h-137v300q0 36 -22.5 57.5t-56.5 21.5q-48 0 -74 -35.5t-26 -92.5v-251h-138v501h104l20 -52q12 11 26.5 22.5t31 21t36 15.5t40.5 6z" />
    <glyph glyph-name="o" unicode="o" horiz-adv-x="589" 
d="M296 -10q-56 0 -102.5 20.5t-79.5 56t-51 83.5t-18 102q0 55 17.5 103t50.5 83.5t79.5 55.5t103.5 20t102.5 -20.5t78 -56t50 -83.5t17.5 -102t-17.5 -102t-50 -83.5t-78.5 -56t-102 -20.5zM296 377q-29 0 -49 -11t-32.5 -29t-18.5 -40.5t-6 -44.5q0 -54 28 -89.5
t78 -35.5q28 0 48 11t32.5 28.5t18 40t5.5 45.5q0 22 -5.5 44.5t-18 40.5t-32.5 29t-48 11z" />
    <glyph glyph-name="p" unicode="p" horiz-adv-x="589" 
d="M327 -10q-18 0 -36 4.5t-34.5 12t-30.5 16.5t-23 17v-350h-138v811h100l24 -55q26 27 63 47.5t75 20.5q53 0 94.5 -22.5t70 -59t43 -84t14.5 -97.5q0 -54 -15.5 -101.5t-44.5 -83t-70 -56t-92 -20.5zM303 374q-28 0 -47 -11t-31 -28.5t-17 -39.5t-5 -44t5 -43.5t17 -39
t31 -28t47 -10.5q42 0 69.5 34.5t27.5 86.5q0 26 -7.5 48.5t-20 39t-30.5 26t-39 9.5z" />
    <glyph glyph-name="q" unicode="q" horiz-adv-x="594" 
d="M267 -10q-51 0 -92 20.5t-70 56t-44.5 83t-15.5 101.5q0 50 14.5 97.5t43 84t70 59t94.5 22.5q38 0 75 -20.5t63 -47.5l24 55h100v-811h-138v350q-9 -8 -23 -17t-30.5 -16.5t-34.5 -12t-36 -4.5zM291 374q-21 0 -39 -9.5t-30.5 -26t-20 -39t-7.5 -48.5q0 -52 27.5 -86.5
t69.5 -34.5q28 0 47 10.5t31 28t17 39t5 43.5t-5 44t-17 39.5t-31 28.5t-47 11z" />
    <glyph glyph-name="r" unicode="r" horiz-adv-x="408" 
d="M293 514q25 0 47.5 -5.5t57.5 -21.5l-44 -106q-49 25 -90 19q-28 -4 -44.5 -32t-16.5 -66v-302h-138v501h102l21 -42q14 20 41 37.5t64 17.5z" />
    <glyph glyph-name="s" unicode="s" horiz-adv-x="491" 
d="M260 -10q-66 0 -120 22.5t-95 56.5l60 95q35 -25 76 -37.5t79 -12.5q22 0 35 9t13 26q0 7 -7 14t-18 13.5t-24.5 12.5t-26.5 12q-28 12 -57 26t-53 32.5t-39 43t-15 58.5q0 35 14.5 63.5t38.5 48.5t55 30.5t64 10.5q59 0 104.5 -18.5t98.5 -48.5l-58 -100
q-35 21 -74 33.5t-71 12.5q-20 0 -26.5 -10t-4.5 -18q3 -17 24 -27t50 -23t58 -27t52.5 -32t38 -42t14.5 -57q0 -42 -15.5 -73t-41 -52t-59.5 -31.5t-70 -10.5z" />
    <glyph glyph-name="t" unicode="t" horiz-adv-x="316" 
d="M224 388v-240q0 -14 15.5 -25t36.5 -11v-112q-53 0 -89 10.5t-58.5 28.5t-32.5 41.5t-10 50.5v257h-46v113h46v199h138v-199h52v-113h-52z" />
    <glyph glyph-name="u" unicode="u" horiz-adv-x="584" 
d="M261 -10q-48 0 -84.5 16.5t-61 45t-37.5 67t-13 82.5v300h137v-300q0 -36 22.5 -56t56.5 -20q48 0 74 34t26 91v251h138v-501h-104l-20 52q-24 -22 -57.5 -42t-76.5 -20z" />
    <glyph glyph-name="v" unicode="v" horiz-adv-x="578" 
d="M289 -27l-269 528h152l117 -252l118 252h151z" />
    <glyph glyph-name="w" unicode="w" horiz-adv-x="809" 
d="M555 -28l-151 278l-165 -276l-219 527h145l93 -251l146 251l137 -249l98 249h150z" />
    <glyph glyph-name="x" unicode="x" horiz-adv-x="561" 
d="M367 247l170 -247h-165l-92 143l-91 -143h-165l170 246l-174 255h166l95 -149l95 149h165z" />
    <glyph glyph-name="y" unicode="y" horiz-adv-x="581" 
d="M561 501l-354 -811h-149l158 364l-196 447h150l121 -298l121 298h149z" />
    <glyph glyph-name="z" unicode="z" horiz-adv-x="583" 
d="M528 0h-488l255 376h-209v125h457l-254 -376h239v-125z" />
    <glyph glyph-name="braceleft" unicode="{" horiz-adv-x="396" 
d="M366 -24q-49 0 -92 15.5t-75.5 42t-51.5 60.5t-19 70v165l-63 67l63 67v167q0 35 19 68t51.5 59t75.5 42t92 16v-113q-19 0 -36 -7.5t-29.5 -19t-20 -25t-7.5 -25.5v-189l-49 -41l49 -44v-182q0 -12 7.5 -24t20 -21.5t29.5 -16t36 -6.5v-125z" />
    <glyph glyph-name="bar" unicode="|" horiz-adv-x="275" 
d="M210 -75h-145v940h145v-940z" />
    <glyph glyph-name="braceright" unicode="}" horiz-adv-x="396" 
d="M30 101q19 0 36 6.5t29.5 16t20 21.5t7.5 24v182l49 44l-49 41v189q0 12 -7.5 25.5t-20 25t-29.5 19t-36 7.5v113q49 0 92 -16t75.5 -42t51.5 -59t19 -68v-167l63 -67l-63 -67v-165q0 -36 -19 -70t-51.5 -60.5t-75.5 -42t-92 -15.5v125z" />
    <glyph glyph-name="asciitilde" unicode="~" horiz-adv-x="688" 
d="M50 178q0 120 50.5 179t133.5 59q30 0 53 -7.5t41.5 -20t33 -28.5t27.5 -33t27 -30.5t31 -13.5q9 0 18 9t16.5 24t12 35t4.5 42h140q0 -51 -13.5 -96t-38.5 -79.5t-60.5 -54.5t-78.5 -20q-32 0 -56.5 7.5t-44 20.5t-35 29.5t-27.5 33.5q-11 17 -24 29t-26 12
q-8 0 -16 -7.5t-15 -20.5t-12 -31t-5 -38h-136v0z" />
    <glyph glyph-name="exclamdown" unicode="&#xa1;" horiz-adv-x="293" 
d="M219 -290h-145v603h145v-603zM65 420q0 34 21.5 57.5t59.5 23.5q36 0 59 -23.5t23 -57.5q0 -33 -23 -57.5t-59 -24.5q-38 0 -59.5 24.5t-21.5 57.5z" />
    <glyph glyph-name="cent" unicode="&#xa2;" horiz-adv-x="587" 
d="M381 0h-144v129q-44 12 -80.5 37.5t-62.5 60t-40 76.5t-14 88q0 48 14.5 91t40.5 77.5t62 59t80 36.5v136h144v-134q38 -10 78.5 -31.5t87.5 -61.5l-87 -103q-44 37 -76.5 51t-68.5 14q-27 0 -49.5 -10.5t-39 -28.5t-26 -43t-9.5 -53t9.5 -52t26 -42t39 -28.5t49.5 -10.5
q18 0 34.5 3t34 10.5t36 19.5t40.5 31l87 -97q-40 -40 -82.5 -64.5t-83.5 -34.5v-126z" />
    <glyph glyph-name="sterling" unicode="&#xa3;" horiz-adv-x="583" 
d="M534 131v-131h-494q36 34 62.5 72t44 74t26 67.5t8.5 54.5q0 32 -17 70.5t-37 78.5t-37 80.5t-17 77.5q0 48 16 89.5t44.5 71.5t68.5 47t88 17q32 0 61 -5.5t58.5 -18.5t62 -33.5t71.5 -50.5l-81 -106q-26 19 -47.5 32.5t-41 22t-39.5 12.5t-42 4q-31 0 -51.5 -23
t-20.5 -58q0 -29 10.5 -59t24.5 -60t29 -59t24 -56h178v-132h-179q-4 -17 -11 -38.5t-15 -40.5h253z" />
    <glyph glyph-name="currency" unicode="&#xa4;" horiz-adv-x="765" 
d="M703 400q0 -90 -46 -168l68 -69l-101 -104l-70 70q-38 -25 -79.5 -35.5t-88.5 -10.5q-41 0 -84 13t-81 33l-68 -69l-103 102l67 66q-23 38 -35.5 82t-12.5 90q0 45 11.5 89.5t36.5 82.5l-66 67l103 102l67 -68q37 23 78.5 34t86.5 11q44 0 86.5 -12t78.5 -33l68 68
l102 -102l-67 -68q23 -38 36 -82.5t13 -88.5zM386 227q36 0 67.5 13.5t55 37t37 55t13.5 67.5t-13.5 67t-37 54.5t-55 37t-67.5 13.5t-67.5 -13.5t-55 -37t-37 -54.5t-13.5 -67t13.5 -67.5t37 -55t55 -37t67.5 -13.5z" />
    <glyph glyph-name="yen" unicode="&#xa5;" horiz-adv-x="747" 
d="M530 341v-113h-85v-228h-143v228h-88v113h46l-240 450h166l188 -372l189 372h164l-241 -450h44z" />
    <glyph glyph-name="brokenbar" unicode="&#xa6;" horiz-adv-x="275" 
d="M210 -75h-145v399h145v-399zM210 466h-145v399h145v-399z" />
    <glyph glyph-name="section" unicode="&#xa7;" horiz-adv-x="536" 
d="M486 402q0 -24 -7 -45t-18.5 -38t-25.5 -30t-29 -21q13 -10 26.5 -20.5t24 -23.5t17 -27.5t6.5 -32.5q0 -44 -16 -76t-43 -53t-62 -31.5t-73 -10.5t-70.5 7.5t-61.5 20t-54.5 29t-49.5 34.5l84 105q33 -26 70.5 -46t81.5 -20q18 0 34 10t16 29q0 18 -26 36t-61 35
q-29 14 -59 30.5t-54.5 37.5t-40 47.5t-15.5 61.5q0 45 19.5 79.5t49.5 52.5q-12 7 -23.5 17t-20.5 22.5t-15 26t-6 28.5q0 38 15.5 68.5t41 51.5t58 32.5t67.5 11.5q32 0 58.5 -5.5t51.5 -15.5t51 -24t57 -31l-71 -111q-23 14 -41 25t-35 18.5t-33.5 11.5t-36.5 4
q-15 0 -25.5 -8t-10.5 -18q0 -19 24.5 -36t57.5 -32q30 -14 61 -29.5t55.5 -35.5t40.5 -47t16 -64zM221 415q0 -6 8 -13t20 -14.5t25.5 -14t25.5 -10.5q20 2 32.5 14t12.5 27q0 4 -6.5 10t-16.5 12.5t-22 12.5t-24 11q-23 -4 -39 -12.5t-16 -22.5z" />
    <glyph glyph-name="dieresis" unicode="&#xa8;" horiz-adv-x="455" 
d="M210 736q0 -23 -16 -38.5t-39 -15.5t-39 15.5t-16 38.5t16 39t39 16t39 -16t16 -39zM355 736q0 -23 -15.5 -38.5t-39.5 -15.5q-23 0 -39.5 15.5t-16.5 38.5t16.5 39t39.5 16q24 0 39.5 -16t15.5 -39z" />
    <glyph glyph-name="copyright" unicode="&#xa9;" horiz-adv-x="591" 
d="M295 300q-57 0 -104 21t-80.5 56.5t-52 81t-18.5 95.5q0 55 20.5 101.5t55.5 81t81 54t98 19.5q51 0 97.5 -20.5t82 -55.5t56 -81.5t20.5 -98.5q0 -50 -20 -95.5t-54.5 -81t-81 -56.5t-100.5 -21zM295 750q-39 0 -73.5 -15.5t-61 -42t-41.5 -62.5t-15 -77q0 -39 15 -73.5
t41.5 -60.5t61 -41t73.5 -15q40 0 76 15t62.5 41t42 60.5t15.5 73.5q0 41 -15.5 77t-42 62.5t-62.5 42t-76 15.5zM297 403q-33 0 -60.5 11.5t-48 31.5t-32 48t-11.5 61q0 34 11.5 62t32 48t48 31.5t60.5 11.5q58 0 131 -62l-57 -59q-14 10 -24 16t-17.5 9t-14.5 4t-16 1
q-23 0 -40.5 -18.5t-17.5 -43.5q0 -23 17.5 -40.5t40.5 -17.5q19 0 33.5 3.5t41.5 22.5l54 -56q-36 -32 -69.5 -48t-61.5 -16z" />
    <glyph glyph-name="ordfeminine" unicode="&#xaa;" horiz-adv-x="464" 
d="M233 803q40 0 72.5 -12.5t55.5 -35.5t35.5 -55t12.5 -71v-245h-107v38q-21 -14 -49 -29t-57 -15q-31 0 -59 10.5t-49.5 30t-34.5 47.5t-13 62t14.5 56.5t38 36t54 18.5t63.5 4q20 -1 45 -7.5t45 -12.5q3 -1 1 0t0 0q-2 15 -7 29t-13.5 25.5t-20.5 18.5t-27 7
q-29 0 -60 -9t-77 -32l-48 83q25 14 47.5 25t44.5 18.5t44.5 11t48.5 3.5zM209 478q13 0 27 4.5t27 12.5t23.5 18.5t15.5 22.5v12q-17 7 -41.5 13.5t-47.5 8.5q-27 0 -47.5 -8.5t-20.5 -28.5q0 -11 5.5 -21t14.5 -17.5t20.5 -12t23.5 -4.5z" />
    <glyph glyph-name="guillemotleft" unicode="&#xab;" horiz-adv-x="655" 
d="M257 23l-217 252l217 254l99 -98l-145 -156l145 -154zM491 23l-217 252l217 254l99 -98l-145 -156l145 -154z" />
    <glyph glyph-name="logicalnot" unicode="&#xac;" horiz-adv-x="577" 
d="M366 148v120h-301v145h447v-265h-146z" />
    <glyph glyph-name="registered" unicode="&#xae;" horiz-adv-x="591" 
d="M396 605q0 -50 -36 -81l62 -97h-104l-38 61v-61h-91v269q32 7 56.5 9t37.5 2q47 0 80 -27t33 -75zM285 586q32 0 32 26q0 20 -36 20h-7v-46h11zM295 300q-57 0 -104 21t-80.5 56.5t-52 81t-18.5 95.5q0 55 20.5 101.5t55.5 81t81 54t98 19.5q51 0 97.5 -20.5t82 -55.5
t56 -81.5t20.5 -98.5q0 -50 -20 -95.5t-54.5 -81t-81 -56.5t-100.5 -21zM295 750q-39 0 -73.5 -15.5t-61 -42t-41.5 -62.5t-15 -77q0 -39 15 -73.5t41.5 -60.5t61 -41t73.5 -15q40 0 76 15t62.5 41t42 60.5t15.5 73.5q0 41 -15.5 77t-42 62.5t-62.5 42t-76 15.5z" />
    <glyph glyph-name="macron" unicode="&#xaf;" horiz-adv-x="443" 
d="M343 791v-78h-243v78h243z" />
    <glyph glyph-name="degree" unicode="&#xb0;" horiz-adv-x="361" 
d="M180 543q-27 0 -50.5 9.5t-41.5 27t-28 41t-10 51.5q0 26 10.5 49.5t28.5 41.5t41.5 29t49.5 11t50 -11t42 -29t28.5 -41.5t10.5 -49.5q0 -28 -10 -51.5t-27.5 -41t-41.5 -27t-52 -9.5zM180 710q-15 0 -25.5 -10.5t-10.5 -25.5t10.5 -26.5t25.5 -11.5t26.5 11.5
t11.5 26.5t-11.5 25.5t-26.5 10.5z" />
    <glyph glyph-name="plusminus" unicode="&#xb1;" horiz-adv-x="577" 
d="M512 356h-152v-151h-145v151h-150v145h150v152h145v-152h152v-145zM512 20h-447v145h447v-145z" />
    <glyph glyph-name="uni00B2" unicode="&#xb2;" horiz-adv-x="403" 
d="M363 384h-323q56 66 94 111t62 74.5t36.5 46.5t17.5 26.5t5.5 15t0.5 12.5q0 18 -13.5 27.5t-24.5 9.5t-19.5 -2t-18 -6.5t-22 -12.5t-31.5 -21l-53 71q19 16 35.5 29t33 22t34.5 14t41 5q63 0 99 -40t36 -101q-1 -22 -10 -42.5t-24 -41.5t-35 -44t-42 -48h121v-105z" />
    <glyph glyph-name="uni00B3" unicode="&#xb3;" horiz-adv-x="393" 
d="M176 373q-17 0 -31.5 4t-30 12.5t-33.5 22t-41 31.5l71 79q32 -26 47 -33.5t23 -7.5q23 0 38 16.5t15 40.5q0 23 -17.5 36.5t-40.5 13.5h-85l81 107h-111v96h292l-109 -140q19 -6 37 -16t32 -24.5t22.5 -33t8.5 -39.5q0 -37 -12.5 -67.5t-35 -52t-53.5 -33.5t-67 -12z
" />
    <glyph glyph-name="acute" unicode="&#xb4;" horiz-adv-x="405" 
d="M305 791l-121 -134h-84l88 134h117z" />
    <glyph glyph-name="mu" unicode="&#xb5;" horiz-adv-x="579" 
d="M514 501v-501h-101l-22 52q-13 -12 -29 -23t-33 -20t-34 -14t-33 -5q-19 0 -32 3t-27 8v-310h-138v810h138v-299q0 -31 21.5 -52t53.5 -21q47 0 73 32t26 90v250h137z" />
    <glyph glyph-name="paragraph" unicode="&#xb6;" horiz-adv-x="757" 
d="M692 646h-36v-646h-145v646h-44v-646h-145v276q-57 2 -104 22.5t-81 55.5t-53 82.5t-19 103.5q0 63 22.5 110t61.5 78.5t91 47t111 15.5h341v-145z" />
    <glyph glyph-name="periodcentered" unicode="&#xb7;" horiz-adv-x="239" 
d="M174 349q0 -25 -15 -40t-40 -15q-22 0 -38 15t-16 40q0 21 16 37.5t38 16.5q25 0 40 -16.5t15 -37.5z" />
    <glyph glyph-name="cedilla" unicode="&#xb8;" horiz-adv-x="352" 
d="M192 -30q4 -2 13.5 -11t20 -23t18.5 -32.5t8 -38.5q0 -36 -22.5 -55.5t-50 -28t-51.5 -9.5t-28 -1v85q29 0 51.5 2.5t22.5 16.5q0 17 -7 33.5t-15 30.5q-10 16 -21 31h61z" />
    <glyph glyph-name="uni00B9" unicode="&#xb9;" horiz-adv-x="278" 
d="M228 384h-111v253l-18 -17l-49 63l178 128v-427z" />
    <glyph glyph-name="ordmasculine" unicode="&#xba;" horiz-adv-x="519" 
d="M50 589q0 47 14.5 87t42 69t66.5 45t87 16t86.5 -16.5t65.5 -45.5t42 -68.5t15 -86.5t-14.5 -86.5t-42 -68.5t-66 -45t-86.5 -16t-86.5 16.5t-66 45t-42.5 68t-15 86.5zM158 589q0 -47 26.5 -80t75.5 -33t76.5 32.5t27.5 80.5t-27.5 80.5t-76.5 32.5q-48 0 -75 -32.5
t-27 -80.5z" />
    <glyph glyph-name="guillemotright" unicode="&#xbb;" horiz-adv-x="655" 
d="M299 121l145 154l-145 156l99 98l217 -254l-217 -252zM65 121l145 154l-145 156l99 98l217 -254l-217 -252z" />
    <glyph glyph-name="onequarter" unicode="&#xbc;" 
d="M228 384h-111v253l-18 -17l-49 63l178 128v-427zM742 267v-267h-109v97h-267l215 310h124l-160 -211h88v71h109zM669 791l-461 -791h-131l460 791h132z" />
    <glyph glyph-name="onehalf" unicode="&#xbd;" horiz-adv-x="810" 
d="M228 384h-111v253l-18 -17l-49 63l178 128v-427zM669 791l-461 -791h-131l460 791h132zM760 0h-323q56 66 94 111t62 74.5t36.5 46.5t17.5 26.5t5.5 15t0.5 12.5q0 18 -13.5 27.5t-24.5 9.5t-19.5 -2t-18 -6.5t-22 -12.5t-31.5 -21l-53 71q19 16 35.5 29t33 22t34.5 14
t41 5q63 0 99 -40t36 -101q-1 -22 -10 -42.5t-24 -41.5t-35 -44t-42 -48h121v-105z" />
    <glyph glyph-name="threequarters" unicode="&#xbe;" horiz-adv-x="871" 
d="M821 267v-267h-109v97h-267l215 310h124l-160 -211h88v71h109zM748 791l-461 -791h-131l460 791h132zM186 373q-17 0 -31.5 4t-30 12.5t-33.5 22t-41 31.5l71 79q32 -26 47 -33.5t23 -7.5q23 0 38 16.5t15 40.5q0 23 -17.5 36.5t-40.5 13.5h-85l81 107h-111v96h292
l-109 -140q19 -6 37 -16t32 -24.5t22.5 -33t8.5 -39.5q0 -37 -12.5 -67.5t-35 -52t-53.5 -33.5t-67 -12z" />
    <glyph glyph-name="questiondown" unicode="&#xbf;" horiz-adv-x="581" 
d="M401 313q0 -58 -8 -94t-22.5 -60.5t-34.5 -42t-45 -37.5q-42 -33 -68 -67.5t-26 -72.5q0 -42 24.5 -69t67.5 -27q31 0 54.5 5t43 15t37 23.5t36.5 30.5l91 -98q-35 -34 -66.5 -56.5t-63 -36t-64 -19t-68.5 -5.5q-53 0 -96.5 17.5t-75.5 49t-49.5 75t-17.5 95.5
q0 41 11.5 74t30.5 60.5t44 50.5t51 45q15 12 27.5 23.5t22 27.5t14.5 38t5 55h145zM247 419q0 33 22.5 57.5t60.5 24.5q15 0 30 -6.5t26 -18t18 -26.5t7 -31q0 -36 -25 -58.5t-56 -22.5q-38 0 -60.5 22.5t-22.5 58.5z" />
    <glyph glyph-name="Agrave" unicode="&#xc0;" 
d="M527 196h-262l-84 -196h-161l376 810l376 -810h-160zM478 327l-81 188l-82 -188h163zM410 966l88 -134h-84l-120 134h116z" />
    <glyph glyph-name="Aacute" unicode="&#xc1;" 
d="M527 196h-262l-84 -196h-161l376 810l376 -810h-160zM478 327l-81 188l-82 -188h163zM499 966l-121 -134h-84l88 134h117z" />
    <glyph glyph-name="Acircumflex" unicode="&#xc2;" 
d="M527 196h-262l-84 -196h-161l376 810l376 -810h-160zM478 327l-81 188l-82 -188h163zM446 832l-49 54l-52 -54h-88l112 134h55l114 -134h-92z" />
    <glyph glyph-name="Atilde" unicode="&#xc3;" 
d="M527 196h-262l-84 -196h-161l376 810l376 -810h-160zM478 327l-81 188l-82 -188h163zM360 933q12 0 21.5 -5.5t18.5 -10.5q8 -5 16 -8.5t16 -3.5t21.5 6.5t27.5 25.5l59 -42q-13 -18 -28 -30t-29.5 -18.5t-28 -9t-23.5 -2.5q-12 0 -21.5 4t-18.5 10l-16 8t-16 4
q-7 0 -20.5 -6t-24.5 -23l-61 42q26 34 55.5 46.5t51.5 12.5z" />
    <glyph glyph-name="Adieresis" unicode="&#xc4;" 
d="M527 196h-262l-84 -196h-161l376 810l376 -810h-160zM478 327l-81 188l-82 -188h163zM379 885q0 -23 -16 -38.5t-39 -15.5t-39 15.5t-16 38.5t16 39t39 16t39 -16t16 -39zM524 885q0 -23 -15.5 -38.5t-39.5 -15.5q-23 0 -39.5 15.5t-16.5 38.5t16.5 39t39.5 16
q24 0 39.5 -16t15.5 -39z" />
    <glyph glyph-name="Aring" unicode="&#xc5;" 
d="M314 859q0 34 23.5 57t57.5 23t57.5 -23t23.5 -57q0 -31 -18.5 -53t-47.5 -27l362 -779h-160l-85 196h-262l-84 -196h-161l361 779q-29 5 -48 26.5t-19 53.5zM478 327l-81 188l-82 -188h163zM369 862q0 -28 28 -28q24 0 24 28q0 8 -6 16.5t-18 8.5q-14 0 -21 -8.5
t-7 -16.5z" />
    <glyph glyph-name="AE" unicode="&#xc6;" horiz-adv-x="1046" 
d="M996 147v-147h-376l-87 204h-265l-87 -204h-161l328 791h641v-146h-477l121 -294h302v-147h-240l24 -57h277zM478 351l-78 194l-77 -194h155z" />
    <glyph glyph-name="Ccedilla" unicode="&#xc7;" horiz-adv-x="823" 
d="M446 -10q-88 0 -160.5 32.5t-125 88t-81.5 128.5t-29 155q0 85 30.5 159t83.5 129t125.5 86.5t156.5 31.5q78 0 160 -33t167 -101l-92 -110q-63 53 -123.5 75t-111.5 22q-52 0 -96.5 -20.5t-76.5 -55.5t-50.5 -82t-18.5 -101t18.5 -100.5t50.5 -81t76.5 -54.5t96.5 -20
q51 0 110.5 19.5t123.5 72.5l93 -107q-85 -72 -167 -102.5t-160 -30.5zM454 -30q4 -2 13.5 -11t20 -23t18.5 -32.5t8 -38.5q0 -36 -22.5 -55.5t-50 -28t-51.5 -9.5t-28 -1v85q29 0 51.5 2.5t22.5 16.5q0 17 -7 33.5t-15 30.5q-10 16 -21 31h61z" />
    <glyph glyph-name="Egrave" unicode="&#xc8;" horiz-adv-x="640" 
d="M590 147v-147h-505v791h498v-146h-350v-244h299v-141h-299v-113h357zM350 966l88 -134h-84l-120 134h116z" />
    <glyph glyph-name="Eacute" unicode="&#xc9;" horiz-adv-x="640" 
d="M590 147v-147h-505v791h498v-146h-350v-244h299v-141h-299v-113h357zM440 966l-121 -134h-84l88 134h117z" />
    <glyph glyph-name="Ecircumflex" unicode="&#xca;" horiz-adv-x="640" 
d="M590 147v-147h-505v791h498v-146h-350v-244h299v-141h-299v-113h357zM387 832l-49 54l-52 -54h-88l112 134h55l114 -134h-92z" />
    <glyph glyph-name="Edieresis" unicode="&#xcb;" horiz-adv-x="640" 
d="M590 147v-147h-505v791h498v-146h-350v-244h299v-141h-299v-113h357zM320 885q0 -23 -16 -38.5t-39 -15.5t-39 15.5t-16 38.5t16 39t39 16t39 -16t16 -39zM465 885q0 -23 -15.5 -38.5t-39.5 -15.5q-23 0 -39.5 15.5t-16.5 38.5t16.5 39t39.5 16q24 0 39.5 -16t15.5 -39z
" />
    <glyph glyph-name="Igrave" unicode="&#xcc;" horiz-adv-x="294" 
d="M223 0h-148v791h148v-791zM163 966l88 -134h-84l-120 134h116z" />
    <glyph glyph-name="Iacute" unicode="&#xcd;" horiz-adv-x="290" 
d="M223 0h-148v791h148v-791zM252 966l-121 -134h-84l88 134h117z" />
    <glyph glyph-name="Icircumflex" unicode="&#xce;" horiz-adv-x="291" 
d="M219 0h-148v791h148v-791zM194 832l-49 54l-52 -54h-88l112 134h55l114 -134h-92z" />
    <glyph glyph-name="Idieresis" unicode="&#xcf;" horiz-adv-x="265" 
d="M207 0h-148v791h148v-791zM115 885q0 -23 -16 -38.5t-39 -15.5t-39 15.5t-16 38.5t16 39t39 16t39 -16t16 -39zM260 885q0 -23 -15.5 -38.5t-39.5 -15.5q-23 0 -39.5 15.5t-16.5 38.5t16.5 39t39.5 16q24 0 39.5 -16t15.5 -39z" />
    <glyph glyph-name="Eth" unicode="&#xd0;" horiz-adv-x="830" 
d="M118 336v449q47 6 79.5 9t56.5 4.5t42 1.5h35q90 0 171.5 -27.5t143 -79.5t98 -127t36.5 -170t-36.5 -168.5t-98 -124t-143 -77t-171.5 -26.5h-213v258h-63v78h63zM266 336h128v-78h-128v-110h65q67 0 121.5 18t93 50.5t59 78t20.5 101.5q0 57 -21 105t-60 82.5t-93 54
t-120 19.5q-14 0 -27 -1t-38 -3v-317z" />
    <glyph glyph-name="Ntilde" unicode="&#xd1;" horiz-adv-x="715" 
d="M630 791v-791h-147v345l-250 181v-526h-148v810l398 -282v263h147zM317 933q12 0 21.5 -5.5t18.5 -10.5q8 -5 16 -8.5t16 -3.5t21.5 6.5t27.5 25.5l59 -42q-13 -18 -28 -30t-29.5 -18.5t-28 -9t-23.5 -2.5q-12 0 -21.5 4t-18.5 10l-16 8t-16 4q-7 0 -20.5 -6t-24.5 -23
l-61 42q26 34 55.5 46.5t51.5 12.5z" />
    <glyph glyph-name="Ograve" unicode="&#xd2;" horiz-adv-x="868" 
d="M432 -10q-87 0 -158 33.5t-120.5 90t-76.5 129.5t-27 152q0 82 28.5 155.5t79.5 129t121 88t153 32.5q86 0 157 -32.5t122 -88t79 -129t28 -155.5q0 -81 -28.5 -154.5t-79.5 -129t-122 -88.5t-156 -33zM432 652q-49 0 -91 -19.5t-72.5 -54t-47.5 -81.5t-17 -102
q0 -54 17 -101t47.5 -81.5t72.5 -54.5t91 -20q50 0 92.5 20t73 54.5t47.5 81.5t17 101q0 55 -17 102t-47.5 81.5t-73 54t-92.5 19.5zM449 966l88 -134h-84l-120 134h116z" />
    <glyph glyph-name="Oacute" unicode="&#xd3;" horiz-adv-x="868" 
d="M432 -10q-87 0 -158 33.5t-120.5 90t-76.5 129.5t-27 152q0 82 28.5 155.5t79.5 129t121 88t153 32.5q86 0 157 -32.5t122 -88t79 -129t28 -155.5q0 -81 -28.5 -154.5t-79.5 -129t-122 -88.5t-156 -33zM432 652q-49 0 -91 -19.5t-72.5 -54t-47.5 -81.5t-17 -102
q0 -54 17 -101t47.5 -81.5t72.5 -54.5t91 -20q50 0 92.5 20t73 54.5t47.5 81.5t17 101q0 55 -17 102t-47.5 81.5t-73 54t-92.5 19.5zM537 966l-121 -134h-84l88 134h117z" />
    <glyph glyph-name="Ocircumflex" unicode="&#xd4;" horiz-adv-x="868" 
d="M432 -10q-87 0 -158 33.5t-120.5 90t-76.5 129.5t-27 152q0 82 28.5 155.5t79.5 129t121 88t153 32.5q86 0 157 -32.5t122 -88t79 -129t28 -155.5q0 -81 -28.5 -154.5t-79.5 -129t-122 -88.5t-156 -33zM432 652q-49 0 -91 -19.5t-72.5 -54t-47.5 -81.5t-17 -102
q0 -54 17 -101t47.5 -81.5t72.5 -54.5t91 -20q50 0 92.5 20t73 54.5t47.5 81.5t17 101q0 55 -17 102t-47.5 81.5t-73 54t-92.5 19.5zM483 832l-49 54l-52 -54h-88l112 134h55l114 -134h-92z" />
    <glyph glyph-name="Otilde" unicode="&#xd5;" horiz-adv-x="868" 
d="M432 -10q-87 0 -158 33.5t-120.5 90t-76.5 129.5t-27 152q0 82 28.5 155.5t79.5 129t121 88t153 32.5q86 0 157 -32.5t122 -88t79 -129t28 -155.5q0 -81 -28.5 -154.5t-79.5 -129t-122 -88.5t-156 -33zM432 652q-49 0 -91 -19.5t-72.5 -54t-47.5 -81.5t-17 -102
q0 -54 17 -101t47.5 -81.5t72.5 -54.5t91 -20q50 0 92.5 20t73 54.5t47.5 81.5t17 101q0 55 -17 102t-47.5 81.5t-73 54t-92.5 19.5zM398 933q12 0 21.5 -5.5t18.5 -10.5q8 -5 16 -8.5t16 -3.5t21.5 6.5t27.5 25.5l59 -42q-13 -18 -28 -30t-29.5 -18.5t-28 -9t-23.5 -2.5
q-12 0 -21.5 4t-18.5 10l-16 8t-16 4q-7 0 -20.5 -6t-24.5 -23l-61 42q26 34 55.5 46.5t51.5 12.5z" />
    <glyph glyph-name="Odieresis" unicode="&#xd6;" horiz-adv-x="868" 
d="M432 -10q-87 0 -158 33.5t-120.5 90t-76.5 129.5t-27 152q0 82 28.5 155.5t79.5 129t121 88t153 32.5q86 0 157 -32.5t122 -88t79 -129t28 -155.5q0 -81 -28.5 -154.5t-79.5 -129t-122 -88.5t-156 -33zM432 652q-49 0 -91 -19.5t-72.5 -54t-47.5 -81.5t-17 -102
q0 -54 17 -101t47.5 -81.5t72.5 -54.5t91 -20q50 0 92.5 20t73 54.5t47.5 81.5t17 101q0 55 -17 102t-47.5 81.5t-73 54t-92.5 19.5zM417 886q0 -23 -16 -38.5t-39 -15.5t-39 15.5t-16 38.5t16 39t39 16t39 -16t16 -39zM562 886q0 -23 -15.5 -38.5t-39.5 -15.5
q-23 0 -39.5 15.5t-16.5 38.5t16.5 39t39.5 16q24 0 39.5 -16t15.5 -39z" />
    <glyph glyph-name="multiply" unicode="&#xd7;" horiz-adv-x="559" 
d="M494 393l-110 -109l110 -110l-105 -105l-109 110l-109 -109l-105 104l110 109l-111 110l106 105l109 -110l109 109z" />
    <glyph glyph-name="Oslash" unicode="&#xd8;" horiz-adv-x="868" 
d="M172 95q-59 57 -90.5 135t-31.5 165q0 82 28.5 155.5t79.5 129t121 88t153 32.5q52 0 98.5 -12t86.5 -35l26 38h96l-57 -84q64 -57 100 -137.5t36 -174.5q0 -81 -28.5 -154.5t-79.5 -129t-122 -88.5t-156 -33q-57 0 -106 15t-91 41l-31 -46h-96zM662 395q0 56 -17.5 103
t-48.5 82l-277 -409q25 -15 53 -24t60 -9q50 0 92.5 20t73 54.5t47.5 81.5t17 101zM432 652q-49 0 -91 -19.5t-72.5 -54t-47.5 -81.5t-17 -102q0 -51 15 -94t41 -77l273 404q-45 24 -101 24z" />
    <glyph glyph-name="Ugrave" unicode="&#xd9;" horiz-adv-x="752" 
d="M378 -10q-60 0 -113 21t-93 58.5t-63.5 90.5t-23.5 116v515h148v-515q0 -30 10.5 -55t30 -43.5t46 -29t58.5 -10.5q31 0 57 10.5t45 29t29.5 43.5t10.5 55v515h147v-515q0 -63 -23.5 -116t-63 -90.5t-92 -58.5t-110.5 -21zM390 967l88 -134h-84l-120 134h116z" />
    <glyph glyph-name="Uacute" unicode="&#xda;" horiz-adv-x="752" 
d="M378 -10q-60 0 -113 21t-93 58.5t-63.5 90.5t-23.5 116v515h148v-515q0 -30 10.5 -55t30 -43.5t46 -29t58.5 -10.5q31 0 57 10.5t45 29t29.5 43.5t10.5 55v515h147v-515q0 -63 -23.5 -116t-63 -90.5t-92 -58.5t-110.5 -21zM482 967l-121 -134h-84l88 134h117z" />
    <glyph glyph-name="Ucircumflex" unicode="&#xdb;" horiz-adv-x="752" 
d="M378 -10q-60 0 -113 21t-93 58.5t-63.5 90.5t-23.5 116v515h148v-515q0 -30 10.5 -55t30 -43.5t46 -29t58.5 -10.5q31 0 57 10.5t45 29t29.5 43.5t10.5 55v515h147v-515q0 -63 -23.5 -116t-63 -90.5t-92 -58.5t-110.5 -21zM426 832l-49 54l-52 -54h-88l112 134h55
l114 -134h-92z" />
    <glyph glyph-name="Udieresis" unicode="&#xdc;" horiz-adv-x="752" 
d="M378 -10q-60 0 -113 21t-93 58.5t-63.5 90.5t-23.5 116v515h148v-515q0 -30 10.5 -55t30 -43.5t46 -29t58.5 -10.5q31 0 57 10.5t45 29t29.5 43.5t10.5 55v515h147v-515q0 -63 -23.5 -116t-63 -90.5t-92 -58.5t-110.5 -21zM359 886q0 -23 -16 -38.5t-39 -15.5t-39 15.5
t-16 38.5t16 39t39 16t39 -16t16 -39zM504 886q0 -23 -15.5 -38.5t-39.5 -15.5q-23 0 -39.5 15.5t-16.5 38.5t16.5 39t39.5 16q24 0 39.5 -16t15.5 -39z" />
    <glyph glyph-name="Yacute" unicode="&#xdd;" horiz-adv-x="742" 
d="M445 269v-269h-145v269l-280 522h170l182 -380l181 380h169zM475 966l-121 -134h-84l88 134h117z" />
    <glyph glyph-name="Thorn" unicode="&#xde;" horiz-adv-x="580" 
d="M236 671q58 0 111.5 -16t94 -48.5t64.5 -81.5t24 -115q0 -59 -20.5 -108.5t-57.5 -85t-87 -55.5t-110 -20h-42v-141h-148v791h148v-121zM244 288q63 0 97 33t34 89q0 53 -36.5 84.5t-102.5 31.5q-13 0 -23 -2v-236h31z" />
    <glyph glyph-name="germandbls" unicode="&#xdf;" horiz-adv-x="694" 
d="M644 791l-195 -287q34 -16 65 -41t54.5 -56t37 -66.5t13.5 -72.5q0 -52 -24 -100t-66 -85.5t-100 -60t-126 -22.5v131q39 0 70.5 12t54 31.5t35 43.5t12.5 49q0 24 -11 50t-30 47t-45 34.5t-56 13.5h-112l187 255h-205v-667h-138v791h579z" />
    <glyph glyph-name="agrave" unicode="&#xe0;" horiz-adv-x="534" 
d="M275 514q48 0 86.5 -16.5t66 -46.5t42 -71t14.5 -89v-291h-104l-20 44q-23 -21 -57.5 -37.5t-76.5 -16.5q-39 0 -72 14t-57 39.5t-38 60t-14 75.5q0 35 15 62t41 45.5t60.5 28.5t74.5 11t62.5 -7t44.5 -16q0 34 -16.5 61.5t-51.5 32.5q-31 4 -71 -7.5t-90 -40.5l-56 100
q33 18 60 30.5t52.5 20t50.5 11t54 3.5zM245 112q13 0 28.5 3.5t30 10.5t25.5 17t16 23v41q-20 8 -44.5 14.5t-54.5 6.5q-71 0 -71 -57q0 -26 20 -42.5t50 -16.5zM281 725l88 -134h-84l-120 134h116z" />
    <glyph glyph-name="aacute" unicode="&#xe1;" horiz-adv-x="534" 
d="M275 514q48 0 86.5 -16.5t66 -46.5t42 -71t14.5 -89v-291h-104l-20 44q-23 -21 -57.5 -37.5t-76.5 -16.5q-39 0 -72 14t-57 39.5t-38 60t-14 75.5q0 35 15 62t41 45.5t60.5 28.5t74.5 11t62.5 -7t44.5 -16q0 34 -16.5 61.5t-51.5 32.5q-31 4 -71 -7.5t-90 -40.5l-56 100
q33 18 60 30.5t52.5 20t50.5 11t54 3.5zM245 112q13 0 28.5 3.5t30 10.5t25.5 17t16 23v41q-20 8 -44.5 14.5t-54.5 6.5q-71 0 -71 -57q0 -26 20 -42.5t50 -16.5zM385 724l-121 -134h-84l88 134h117z" />
    <glyph glyph-name="acircumflex" unicode="&#xe2;" horiz-adv-x="534" 
d="M275 514q48 0 86.5 -16.5t66 -46.5t42 -71t14.5 -89v-291h-104l-20 44q-23 -21 -57.5 -37.5t-76.5 -16.5q-39 0 -72 14t-57 39.5t-38 60t-14 75.5q0 35 15 62t41 45.5t60.5 28.5t74.5 11t62.5 -7t44.5 -16q0 34 -16.5 61.5t-51.5 32.5q-31 4 -71 -7.5t-90 -40.5l-56 100
q33 18 60 30.5t52.5 20t50.5 11t54 3.5zM245 112q13 0 28.5 3.5t30 10.5t25.5 17t16 23v41q-20 8 -44.5 14.5t-54.5 6.5q-71 0 -71 -57q0 -26 20 -42.5t50 -16.5zM317 591l-49 54l-52 -54h-88l112 134h55l114 -134h-92z" />
    <glyph glyph-name="atilde" unicode="&#xe3;" horiz-adv-x="534" 
d="M275 514q48 0 86.5 -16.5t66 -46.5t42 -71t14.5 -89v-291h-104l-20 44q-23 -21 -57.5 -37.5t-76.5 -16.5q-39 0 -72 14t-57 39.5t-38 60t-14 75.5q0 35 15 62t41 45.5t60.5 28.5t74.5 11t62.5 -7t44.5 -16q0 34 -16.5 61.5t-51.5 32.5q-31 4 -71 -7.5t-90 -40.5l-56 100
q33 18 60 30.5t52.5 20t50.5 11t54 3.5zM245 112q13 0 28.5 3.5t30 10.5t25.5 17t16 23v41q-20 8 -44.5 14.5t-54.5 6.5q-71 0 -71 -57q0 -26 20 -42.5t50 -16.5zM232 691q12 0 21.5 -5.5t18.5 -10.5q8 -5 16 -8.5t16 -3.5t21.5 6.5t27.5 25.5l59 -42q-13 -18 -28 -30
t-29.5 -18.5t-28 -9t-23.5 -2.5q-12 0 -21.5 4t-18.5 10l-16 8t-16 4q-7 0 -20.5 -6t-24.5 -23l-61 42q26 34 55.5 46.5t51.5 12.5z" />
    <glyph glyph-name="adieresis" unicode="&#xe4;" horiz-adv-x="534" 
d="M275 514q48 0 86.5 -16.5t66 -46.5t42 -71t14.5 -89v-291h-104l-20 44q-23 -21 -57.5 -37.5t-76.5 -16.5q-39 0 -72 14t-57 39.5t-38 60t-14 75.5q0 35 15 62t41 45.5t60.5 28.5t74.5 11t62.5 -7t44.5 -16q0 34 -16.5 61.5t-51.5 32.5q-31 4 -71 -7.5t-90 -40.5l-56 100
q33 18 60 30.5t52.5 20t50.5 11t54 3.5zM245 112q13 0 28.5 3.5t30 10.5t25.5 17t16 23v41q-20 8 -44.5 14.5t-54.5 6.5q-71 0 -71 -57q0 -26 20 -42.5t50 -16.5zM249 644q0 -23 -16 -38.5t-39 -15.5t-39 15.5t-16 38.5t16 39t39 16t39 -16t16 -39zM394 644
q0 -23 -15.5 -38.5t-39.5 -15.5q-23 0 -39.5 15.5t-16.5 38.5t16.5 39t39.5 16q24 0 39.5 -16t15.5 -39z" />
    <glyph glyph-name="aring" unicode="&#xe5;" horiz-adv-x="534" 
d="M275 514q48 0 86.5 -16.5t66 -46.5t42 -71t14.5 -89v-291h-104l-20 44q-23 -21 -57.5 -37.5t-76.5 -16.5q-39 0 -72 14t-57 39.5t-38 60t-14 75.5q0 35 15 62t41 45.5t60.5 28.5t74.5 11t62.5 -7t44.5 -16q0 34 -16.5 61.5t-51.5 32.5q-31 4 -71 -7.5t-90 -40.5l-56 100
q33 18 60 30.5t52.5 20t50.5 11t54 3.5zM245 112q13 0 28.5 3.5t30 10.5t25.5 17t16 23v41q-20 8 -44.5 14.5t-54.5 6.5q-71 0 -71 -57q0 -26 20 -42.5t50 -16.5zM192 671q0 34 23.5 57t57.5 23t57.5 -23t23.5 -57q0 -35 -23.5 -58t-57.5 -23t-57.5 23t-23.5 58zM247 674
q0 -28 28 -28q24 0 24 28q0 8 -6 16.5t-18 8.5q-14 0 -21 -8.5t-7 -16.5z" />
    <glyph glyph-name="ae" unicode="&#xe6;" horiz-adv-x="958" 
d="M567 233q4 -28 15.5 -49t28.5 -35.5t38 -21.5t44 -7q40 0 74.5 14t68.5 45l79 -89q-51 -48 -110 -74t-125 -26q-33 0 -61.5 8t-53 21.5t-45 31t-36.5 35.5v-86h-104l-20 43q-29 -24 -62 -38.5t-69 -14.5q-37 0 -70 12.5t-58.5 36.5t-40.5 57.5t-15 75.5q0 43 17 72.5
t45 47.5t64 25.5t73 7.5q17 0 29 -1.5t22.5 -4.5t21 -7t25.5 -9q0 48 -23.5 71.5t-66.5 23.5q-27 0 -57 -11t-81 -38l-56 100q30 16 56 28t52 20.5t55.5 12.5t67.5 4q31 0 58.5 -10.5t50 -27t39.5 -38t27 -43.5q15 24 37.5 45.5t49.5 38t57 26t60 9.5q58 0 104.5 -21
t78.5 -58.5t49.5 -89t17.5 -112.5h-351zM676 394q-38 0 -63.5 -18t-37.5 -51h198q-11 34 -33 51.5t-64 17.5zM246 112q9 0 24 2.5t30 8.5t27.5 16.5t17.5 26.5l-1 40q-13 5 -23.5 9t-21.5 7t-23.5 4.5t-28.5 1.5q-34 0 -53 -13.5t-19 -42.5q0 -34 22.5 -47t48.5 -13z" />
    <glyph glyph-name="ccedilla" unicode="&#xe7;" horiz-adv-x="570" 
d="M309 -10q-57 0 -104.5 21.5t-82 57.5t-53.5 83.5t-19 99.5t19.5 99.5t54 83.5t82 57.5t103.5 21.5q50 0 103.5 -19.5t117.5 -69.5l-76 -93q-44 37 -78 45.5t-67 6.5q-27 -2 -48.5 -13t-37 -29t-23.5 -41.5t-8 -48.5q0 -26 8 -49.5t23.5 -41t37 -28.5t48.5 -12
q34 -2 67.5 8t79.5 48l74 -97q-63 -53 -117 -71.5t-104 -18.5zM324 -30q4 -2 13.5 -11t20 -23t18.5 -32.5t8 -38.5q0 -36 -22.5 -55.5t-50 -28t-51.5 -9.5t-28 -1v85q29 0 51.5 2.5t22.5 16.5q0 17 -7 33.5t-15 30.5q-10 16 -21 31h61z" />
    <glyph glyph-name="egrave" unicode="&#xe8;" horiz-adv-x="586" 
d="M313 -10q-54 0 -102 21t-84 57t-56.5 83.5t-20.5 100.5q0 54 20 101.5t55 83.5t81.5 56.5t100.5 20.5q47 0 90 -19t76 -55t53 -88.5t20 -118.5h-352q2 -20 11 -39.5t24 -35.5t36 -26t48 -11q39 -2 76 11.5t74 47.5l79 -90q-60 -55 -117.5 -77.5t-111.5 -22.5zM400 325
q-3 12 -10 24t-18 22t-27.5 16.5t-37.5 6.5q-24 0 -42 -6.5t-30.5 -16.5t-20 -22t-10.5 -23zM315 724l88 -134h-84l-120 134h116z" />
    <glyph glyph-name="eacute" unicode="&#xe9;" horiz-adv-x="586" 
d="M313 -10q-54 0 -102 21t-84 57t-56.5 83.5t-20.5 100.5q0 54 20 101.5t55 83.5t81.5 56.5t100.5 20.5q47 0 90 -19t76 -55t53 -88.5t20 -118.5h-352q2 -20 11 -39.5t24 -35.5t36 -26t48 -11q39 -2 76 11.5t74 47.5l79 -90q-60 -55 -117.5 -77.5t-111.5 -22.5zM400 325
q-3 12 -10 24t-18 22t-27.5 16.5t-37.5 6.5q-24 0 -42 -6.5t-30.5 -16.5t-20 -22t-10.5 -23zM417 724l-121 -134h-84l88 134h117z" />
    <glyph glyph-name="ecircumflex" unicode="&#xea;" horiz-adv-x="586" 
d="M313 -10q-54 0 -102 21t-84 57t-56.5 83.5t-20.5 100.5q0 54 20 101.5t55 83.5t81.5 56.5t100.5 20.5q47 0 90 -19t76 -55t53 -88.5t20 -118.5h-352q2 -20 11 -39.5t24 -35.5t36 -26t48 -11q39 -2 76 11.5t74 47.5l79 -90q-60 -55 -117.5 -77.5t-111.5 -22.5zM400 325
q-3 12 -10 24t-18 22t-27.5 16.5t-37.5 6.5q-24 0 -42 -6.5t-30.5 -16.5t-20 -22t-10.5 -23zM353 590l-49 54l-52 -54h-88l112 134h55l114 -134h-92z" />
    <glyph glyph-name="edieresis" unicode="&#xeb;" horiz-adv-x="586" 
d="M313 -10q-54 0 -102 21t-84 57t-56.5 83.5t-20.5 100.5q0 54 20 101.5t55 83.5t81.5 56.5t100.5 20.5q47 0 90 -19t76 -55t53 -88.5t20 -118.5h-352q2 -20 11 -39.5t24 -35.5t36 -26t48 -11q39 -2 76 11.5t74 47.5l79 -90q-60 -55 -117.5 -77.5t-111.5 -22.5zM400 325
q-3 12 -10 24t-18 22t-27.5 16.5t-37.5 6.5q-24 0 -42 -6.5t-30.5 -16.5t-20 -22t-10.5 -23zM288 644q0 -23 -16 -38.5t-39 -15.5t-39 15.5t-16 38.5t16 39t39 16t39 -16t16 -39zM433 644q0 -23 -15.5 -38.5t-39.5 -15.5q-23 0 -39.5 15.5t-16.5 38.5t16.5 39t39.5 16
q24 0 39.5 -16t15.5 -39z" />
    <glyph glyph-name="igrave" unicode="&#xec;" horiz-adv-x="264" 
d="M202 0h-138v501h138v-501zM146 724l88 -134h-84l-120 134h116z" />
    <glyph glyph-name="iacute" unicode="&#xed;" horiz-adv-x="265" 
d="M202 0h-138v501h138v-501zM235 724l-121 -134h-84l88 134h117z" />
    <glyph glyph-name="icircumflex" unicode="&#xee;" horiz-adv-x="271" 
d="M204 0h-138v501h138v-501zM184 590l-49 54l-52 -54h-88l112 134h55l114 -134h-92z" />
    <glyph glyph-name="idieresis" unicode="&#xef;" horiz-adv-x="245" 
d="M191 0h-138v501h138v-501zM105 644q0 -23 -16 -38.5t-39 -15.5t-39 15.5t-16 38.5t16 39t39 16t39 -16t16 -39zM250 644q0 -23 -15.5 -38.5t-39.5 -15.5q-23 0 -39.5 15.5t-16.5 38.5t16.5 39t39.5 16q24 0 39.5 -16t15.5 -39z" />
    <glyph glyph-name="eth" unicode="&#xf0;" horiz-adv-x="624" 
d="M209 628q-16 11 -35.5 24t-47.5 31l72 123q42 -29 77.5 -55.5t65.5 -52.5l58 30l36 -69l-34 -18q51 -54 87.5 -113.5t66.5 -133.5q10 -26 17 -58t7 -66q0 -59 -18.5 -110t-53 -89t-83.5 -59.5t-110 -21.5t-109.5 21.5t-83 59t-53 89t-18.5 110.5t19 108.5t53.5 85
t83 55.5t108.5 22l-38 34l-56 -29l-36 69zM314 135q54 0 85.5 38.5t31.5 96.5q0 25 -6.5 48.5t-20.5 42t-36 29.5t-53 11t-53 -11t-36 -29.5t-20.5 -42t-6.5 -48.5t6.5 -49t20.5 -43t36 -31t52 -12z" />
    <glyph glyph-name="ntilde" unicode="&#xf1;" horiz-adv-x="584" 
d="M323 514q48 0 84.5 -17t61 -46t37.5 -68t13 -83v-300h-137v300q0 36 -22.5 57.5t-56.5 21.5q-48 0 -74 -35.5t-26 -92.5v-251h-138v501h104l20 -52q12 11 26.5 22.5t31 21t36 15.5t40.5 6zM264 691q12 0 21.5 -5.5t18.5 -10.5q8 -5 16 -8.5t16 -3.5t21.5 6.5t27.5 25.5
l59 -42q-13 -18 -28 -30t-29.5 -18.5t-28 -9t-23.5 -2.5q-12 0 -21.5 4t-18.5 10l-16 8t-16 4q-7 0 -20.5 -6t-24.5 -23l-61 42q26 34 55.5 46.5t51.5 12.5z" />
    <glyph glyph-name="ograve" unicode="&#xf2;" horiz-adv-x="589" 
d="M296 -10q-56 0 -102.5 20.5t-79.5 56t-51 83.5t-18 102q0 55 17.5 103t50.5 83.5t79.5 55.5t103.5 20t102.5 -20.5t78 -56t50 -83.5t17.5 -102t-17.5 -102t-50 -83.5t-78.5 -56t-102 -20.5zM296 377q-29 0 -49 -11t-32.5 -29t-18.5 -40.5t-6 -44.5q0 -54 28 -89.5
t78 -35.5q28 0 48 11t32.5 28.5t18 40t5.5 45.5q0 22 -5.5 44.5t-18 40.5t-32.5 29t-48 11zM308 724l88 -134h-84l-120 134h116z" />
    <glyph glyph-name="oacute" unicode="&#xf3;" horiz-adv-x="589" 
d="M296 -10q-56 0 -102.5 20.5t-79.5 56t-51 83.5t-18 102q0 55 17.5 103t50.5 83.5t79.5 55.5t103.5 20t102.5 -20.5t78 -56t50 -83.5t17.5 -102t-17.5 -102t-50 -83.5t-78.5 -56t-102 -20.5zM296 377q-29 0 -49 -11t-32.5 -29t-18.5 -40.5t-6 -44.5q0 -54 28 -89.5
t78 -35.5q28 0 48 11t32.5 28.5t18 40t5.5 45.5q0 22 -5.5 44.5t-18 40.5t-32.5 29t-48 11zM399 724l-121 -134h-84l88 134h117z" />
    <glyph glyph-name="ocircumflex" unicode="&#xf4;" horiz-adv-x="589" 
d="M296 -10q-56 0 -102.5 20.5t-79.5 56t-51 83.5t-18 102q0 55 17.5 103t50.5 83.5t79.5 55.5t103.5 20t102.5 -20.5t78 -56t50 -83.5t17.5 -102t-17.5 -102t-50 -83.5t-78.5 -56t-102 -20.5zM296 377q-29 0 -49 -11t-32.5 -29t-18.5 -40.5t-6 -44.5q0 -54 28 -89.5
t78 -35.5q28 0 48 11t32.5 28.5t18 40t5.5 45.5q0 22 -5.5 44.5t-18 40.5t-32.5 29t-48 11zM343 589l-49 54l-52 -54h-88l112 134h55l114 -134h-92z" />
    <glyph glyph-name="otilde" unicode="&#xf5;" horiz-adv-x="589" 
d="M296 -10q-56 0 -102.5 20.5t-79.5 56t-51 83.5t-18 102q0 55 17.5 103t50.5 83.5t79.5 55.5t103.5 20t102.5 -20.5t78 -56t50 -83.5t17.5 -102t-17.5 -102t-50 -83.5t-78.5 -56t-102 -20.5zM296 377q-29 0 -49 -11t-32.5 -29t-18.5 -40.5t-6 -44.5q0 -54 28 -89.5
t78 -35.5q28 0 48 11t32.5 28.5t18 40t5.5 45.5q0 22 -5.5 44.5t-18 40.5t-32.5 29t-48 11zM257 691q12 0 21.5 -5.5t18.5 -10.5q8 -5 16 -8.5t16 -3.5t21.5 6.5t27.5 25.5l59 -42q-13 -18 -28 -30t-29.5 -18.5t-28 -9t-23.5 -2.5q-12 0 -21.5 4t-18.5 10l-16 8t-16 4
q-7 0 -20.5 -6t-24.5 -23l-61 42q26 34 55.5 46.5t51.5 12.5z" />
    <glyph glyph-name="odieresis" unicode="&#xf6;" horiz-adv-x="589" 
d="M296 -10q-56 0 -102.5 20.5t-79.5 56t-51 83.5t-18 102q0 55 17.5 103t50.5 83.5t79.5 55.5t103.5 20t102.5 -20.5t78 -56t50 -83.5t17.5 -102t-17.5 -102t-50 -83.5t-78.5 -56t-102 -20.5zM296 377q-29 0 -49 -11t-32.5 -29t-18.5 -40.5t-6 -44.5q0 -54 28 -89.5
t78 -35.5q28 0 48 11t32.5 28.5t18 40t5.5 45.5q0 22 -5.5 44.5t-18 40.5t-32.5 29t-48 11zM277 644q0 -23 -16 -38.5t-39 -15.5t-39 15.5t-16 38.5t16 39t39 16t39 -16t16 -39zM422 644q0 -23 -15.5 -38.5t-39.5 -15.5q-23 0 -39.5 15.5t-16.5 38.5t16.5 39t39.5 16
q24 0 39.5 -16t15.5 -39z" />
    <glyph glyph-name="divide" unicode="&#xf7;" horiz-adv-x="585" 
d="M520 213h-455v147h455v-147zM376 102q0 -34 -22.5 -59t-59.5 -25q-17 0 -32 7t-26 18.5t-18 26.5t-7 32q0 37 25 59.5t58 22.5q37 0 59.5 -22.5t22.5 -59.5zM374 467q0 -37 -22.5 -59.5t-59.5 -22.5q-33 0 -58 22.5t-25 59.5q0 16 7 31.5t18 26.5t26 18t32 7
q37 0 59.5 -25t22.5 -58z" />
    <glyph glyph-name="oslash" unicode="&#xf8;" horiz-adv-x="609" 
d="M296 -10q-30 0 -57 6t-50 17l-9 -13h-96l39 58q-38 35 -58 85.5t-20 108.5q0 55 17.5 103t50.5 83.5t79.5 55.5t103.5 20q64 0 117 -28l10 15h96l-43 -64q32 -35 50 -83t18 -102t-17.5 -102t-50 -83.5t-78.5 -56t-102 -20.5zM296 377q-29 0 -49 -11t-32.5 -29
t-18.5 -40.5t-6 -44.5q0 -39 16 -71l128 189q-15 7 -38 7zM400 252q0 14 -2.5 29t-7.5 29l-121 -179q6 -2 12.5 -3t14.5 -1q28 0 48 11t32.5 28.5t18 40t5.5 45.5z" />
    <glyph glyph-name="ugrave" unicode="&#xf9;" horiz-adv-x="584" 
d="M261 -10q-48 0 -84.5 16.5t-61 45t-37.5 67t-13 82.5v300h137v-300q0 -36 22.5 -56t56.5 -20q48 0 74 34t26 91v251h138v-501h-104l-20 52q-24 -22 -57.5 -42t-76.5 -20zM302 724l88 -134h-84l-120 134h116z" />
    <glyph glyph-name="uacute" unicode="&#xfa;" horiz-adv-x="584" 
d="M261 -10q-48 0 -84.5 16.5t-61 45t-37.5 67t-13 82.5v300h137v-300q0 -36 22.5 -56t56.5 -20q48 0 74 34t26 91v251h138v-501h-104l-20 52q-24 -22 -57.5 -42t-76.5 -20zM403 724l-121 -134h-84l88 134h117z" />
    <glyph glyph-name="ucircumflex" unicode="&#xfb;" horiz-adv-x="584" 
d="M261 -10q-48 0 -84.5 16.5t-61 45t-37.5 67t-13 82.5v300h137v-300q0 -36 22.5 -56t56.5 -20q48 0 74 34t26 91v251h138v-501h-104l-20 52q-24 -22 -57.5 -42t-76.5 -20zM347 590l-49 54l-52 -54h-88l112 134h55l114 -134h-92z" />
    <glyph glyph-name="udieresis" unicode="&#xfc;" horiz-adv-x="584" 
d="M261 -10q-48 0 -84.5 16.5t-61 45t-37.5 67t-13 82.5v300h137v-300q0 -36 22.5 -56t56.5 -20q48 0 74 34t26 91v251h138v-501h-104l-20 52q-24 -22 -57.5 -42t-76.5 -20zM276 644q0 -23 -16 -38.5t-39 -15.5t-39 15.5t-16 38.5t16 39t39 16t39 -16t16 -39zM421 644
q0 -23 -15.5 -38.5t-39.5 -15.5q-23 0 -39.5 15.5t-16.5 38.5t16.5 39t39.5 16q24 0 39.5 -16t15.5 -39z" />
    <glyph glyph-name="yacute" unicode="&#xfd;" horiz-adv-x="581" 
d="M561 501l-354 -811h-149l158 364l-196 447h150l121 -298l121 298h149zM393 724l-121 -134h-84l88 134h117z" />
    <glyph glyph-name="thorn" unicode="&#xfe;" horiz-adv-x="593" 
d="M325 512q55 0 96 -21.5t68 -57.5t40.5 -83.5t13.5 -99.5q0 -51 -13 -98t-39.5 -83t-67 -57.5t-95.5 -21.5q-32 0 -66.5 14t-60.5 35v-347h-136v1098h136v-328q23 19 55.5 34.5t68.5 15.5zM301 129q43 0 69.5 34.5t26.5 86.5t-26.5 87t-69.5 35q-48 0 -74 -32t-26 -90
q0 -57 26 -89t74 -32z" />
    <glyph glyph-name="ydieresis" unicode="&#xff;" horiz-adv-x="581" 
d="M561 501l-354 -811h-149l158 364l-196 447h150l121 -298l121 298h149zM274 645q0 -23 -16 -38.5t-39 -15.5t-39 15.5t-16 38.5t16 39t39 16t39 -16t16 -39zM419 645q0 -23 -15.5 -38.5t-39.5 -15.5q-23 0 -39.5 15.5t-16.5 38.5t16.5 39t39.5 16q24 0 39.5 -16t15.5 -39z
" />
    <glyph glyph-name="dotlessi" unicode="&#x131;" horiz-adv-x="268" 
d="M203 0h-138v501h138v-501z" />
    <glyph glyph-name="OE" unicode="&#x152;" horiz-adv-x="1268" 
d="M1218 147v-147h-550v73q-48 -41 -106.5 -62t-131.5 -21q-86 0 -156 32t-119.5 87t-77 128.5t-27.5 157.5t28 157.5t78 128.5t120 87t154 32q69 0 129.5 -22t108.5 -62v75h543v-147h-396v-236h342v-148h-342v-113h403zM430 138q50 0 92 20t72 54.5t46.5 81.5t16.5 101
t-16.5 101t-46.5 81.5t-72 54.5t-92 20t-91.5 -20t-71.5 -54.5t-47 -81.5t-17 -101t17 -101t47 -81.5t71.5 -54.5t91.5 -20z" />
    <glyph glyph-name="oe" unicode="&#x153;" horiz-adv-x="1011" 
d="M620 233q4 -30 16 -51t28.5 -34.5t37 -19.5t42.5 -6q43 0 75.5 13t67.5 45l80 -90q-57 -51 -112.5 -75.5t-120.5 -24.5q-38 0 -71 10.5t-61 28t-50.5 40.5t-39.5 49q-13 -26 -34.5 -49t-49.5 -40.5t-61 -28t-69 -10.5q-56 0 -102 20t-80 55t-52.5 82.5t-18.5 102.5
q0 54 17.5 102t49.5 84t77.5 57t102.5 21q43 0 77 -10t61 -27t47 -39.5t35 -48.5q16 25 39.5 48t51.5 40t58.5 27t60.5 10q54 0 100 -20t79 -57t51.5 -88.5t18.5 -115.5h-351zM731 395q-41 0 -66 -18.5t-35 -50.5h195q-8 30 -33 49.5t-61 19.5zM292 129q31 0 52 11
t33.5 28.5t17.5 39t5 42.5q0 19 -4.5 41.5t-16.5 41.5t-31.5 31.5t-49.5 12.5q-32 0 -53 -12t-33 -30.5t-17 -40.5t-5 -41q0 -51 26 -87.5t76 -36.5z" />
    <glyph glyph-name="Scaron" unicode="&#x160;" horiz-adv-x="696" 
d="M373 -10q-77 0 -157.5 24.5t-165.5 89.5l80 114q48 -35 105 -59.5t135 -24.5q23 0 45 4.5t39.5 15t28 27.5t10.5 41q0 17 -15.5 33.5t-39 32t-51 29t-52.5 24.5q-42 19 -87 40t-81.5 48.5t-60 64t-23.5 86.5q0 52 22 93t58 69.5t81.5 43t92.5 14.5q37 0 69.5 -4t66 -15
t72 -30t87.5 -48l-73 -115q-31 18 -57 31t-50.5 22t-51 13t-59.5 4q-20 0 -38 -4.5t-32.5 -13t-23 -21.5t-8.5 -30q0 -16 14 -31.5t36.5 -30.5t50 -29.5t55.5 -27.5q41 -20 85.5 -42.5t81 -50.5t60.5 -63.5t24 -82.5q0 -60 -22.5 -105t-60.5 -75t-87.5 -45.5t-102.5 -15.5z
M484 966l-114 -134h-55l-112 134h88l52 -54l49 54h92z" />
    <glyph glyph-name="scaron" unicode="&#x161;" horiz-adv-x="486" 
d="M260 -10q-66 0 -120 22.5t-95 56.5l60 95q35 -25 76 -37.5t79 -12.5q22 0 35 9t13 26q0 7 -7 14t-18 13.5t-24.5 12.5t-26.5 12q-28 12 -57 26t-53 32.5t-39 43t-15 58.5q0 35 14.5 63.5t38.5 48.5t55 30.5t64 10.5q59 0 104.5 -18.5t98.5 -48.5l-58 -100
q-35 21 -74 33.5t-71 12.5q-20 0 -26.5 -10t-4.5 -18q3 -17 24 -27t50 -23t58 -27t52.5 -32t38 -42t14.5 -57q0 -42 -15.5 -73t-41 -52t-59.5 -31.5t-70 -10.5zM389 725l-114 -134h-55l-112 134h88l52 -54l49 54h92z" />
    <glyph glyph-name="Ydieresis" unicode="&#x178;" horiz-adv-x="742" 
d="M445 269v-269h-145v269l-280 522h170l182 -380l181 380h169zM355 885q0 -23 -16 -38.5t-39 -15.5t-39 15.5t-16 38.5t16 39t39 16t39 -16t16 -39zM500 885q0 -23 -15.5 -38.5t-39.5 -15.5q-23 0 -39.5 15.5t-16.5 38.5t16.5 39t39.5 16q24 0 39.5 -16t15.5 -39z" />
    <glyph glyph-name="Zcaron" unicode="&#x17d;" horiz-adv-x="770" 
d="M722 0h-682l425 647h-370v144h635l-424 -647h416v-144zM536 965l-114 -134h-55l-112 134h88l52 -54l49 54h92z" />
    <glyph glyph-name="zcaron" unicode="&#x17e;" horiz-adv-x="583" 
d="M528 0h-488l255 376h-209v125h457l-254 -376h239v-125zM444 725l-114 -134h-55l-112 134h88l52 -54l49 54h92z" />
    <glyph glyph-name="florin" unicode="&#x192;" horiz-adv-x="540" 
d="M388 810q30 0 70 -18t82 -67l-97 -80q-19 20 -31.5 26.5t-20.5 6.5q-14 0 -22 -11.5t-10 -23.5l-45 -352h88l1 -105h-106l-44 -350q-5 -29 -21.5 -55.5t-39.5 -47t-50.5 -32.5t-55.5 -12q-32 0 -69.5 18.5t-81.5 70.5l101 82q20 -24 29.5 -31.5t20.5 -7.5q14 0 22 13
t9 24l41 328h-34l-1 105h53l45 373q5 28 21 54.5t38.5 47t50.5 32.5t57 12z" />
    <glyph glyph-name="circumflex" unicode="&#x2c6;" horiz-adv-x="481" 
d="M289 657l-49 54l-52 -54h-88l112 134h55l114 -134h-92z" />
    <glyph glyph-name="tilde" unicode="&#x2dc;" horiz-adv-x="487" 
d="M207 795q12 0 21.5 -5.5t18.5 -10.5q8 -5 16 -8.5t16 -3.5t21.5 6.5t27.5 25.5l59 -42q-13 -18 -28 -30t-29.5 -18.5t-28 -9t-23.5 -2.5q-12 0 -21.5 4t-18.5 10l-16 8t-16 4q-7 0 -20.5 -6t-24.5 -23l-61 42q26 34 55.5 46.5t51.5 12.5z" />
    <glyph glyph-name="endash" unicode="&#x2013;" horiz-adv-x="595" 
d="M555 209h-515v145h515v-145z" />
    <glyph glyph-name="emdash" unicode="&#x2014;" horiz-adv-x="673" 
d="M633 209h-593v145h593v-145z" />
    <glyph glyph-name="quoteleft" unicode="&#x2018;" horiz-adv-x="163" 
d="M21 750q0 27 16 43.5t39 16.5q24 0 39.5 -17t15.5 -36q0 -18 -11 -34.5t-33 -19.5q6 -12 16.5 -27.5t39.5 -33.5l-31 -53q-36 21 -55 48t-27 51.5t-8.5 42t-0.5 19.5z" />
    <glyph glyph-name="quoteright" unicode="&#x2019;" horiz-adv-x="163" 
d="M142 750q0 -2 -0.5 -19.5t-8.5 -42t-27 -51.5t-55 -48l-31 53q29 18 39.5 33.5t16.5 27.5q-22 3 -33 19.5t-11 34.5q0 19 15.5 36t39.5 17q23 0 39 -16.5t16 -43.5z" />
    <glyph glyph-name="quotesinglbase" unicode="&#x201a;" horiz-adv-x="163" 
d="M142 6q0 -2 -0.5 -19.5t-8.5 -42t-27 -51.5t-55 -48l-31 53q29 18 39.5 33.5t16.5 27.5q-22 3 -33 19.5t-11 34.5q0 19 15.5 36t39.5 17q23 0 39 -16.5t16 -43.5z" />
    <glyph glyph-name="quotedblleft" unicode="&#x201c;" horiz-adv-x="305" 
d="M163 750q0 27 16 43.5t39 16.5q24 0 39.5 -17t15.5 -36q0 -18 -11 -34.5t-33 -19.5q6 -12 16.5 -27.5t39.5 -33.5l-31 -53q-36 21 -55 48t-27 51.5t-8.5 42t-0.5 19.5zM21 750q0 27 16 43.5t39 16.5q24 0 39.5 -17t15.5 -36q0 -18 -11 -34.5t-33 -19.5q6 -12 16.5 -27.5
t39.5 -33.5l-31 -53q-36 21 -55 48t-27 51.5t-8.5 42t-0.5 19.5z" />
    <glyph glyph-name="quotedblright" unicode="&#x201d;" horiz-adv-x="305" 
d="M142 750q0 -2 -0.5 -19.5t-8.5 -42t-27 -51.5t-55 -48l-31 53q29 18 39.5 33.5t16.5 27.5q-22 3 -33 19.5t-11 34.5q0 19 15.5 36t39.5 17q23 0 39 -16.5t16 -43.5zM284 750q0 -2 -0.5 -19.5t-8.5 -42t-27 -51.5t-55 -48l-31 53q29 18 39.5 33.5t16.5 27.5
q-22 3 -33 19.5t-11 34.5q0 19 15.5 36t39.5 17q23 0 39 -16.5t16 -43.5z" />
    <glyph glyph-name="quotedblbase" unicode="&#x201e;" horiz-adv-x="305" 
d="M142 6q0 -2 -0.5 -19.5t-8.5 -42t-27 -51.5t-55 -48l-31 53q29 18 39.5 33.5t16.5 27.5q-22 3 -33 19.5t-11 34.5q0 19 15.5 36t39.5 17q23 0 39 -16.5t16 -43.5zM284 6q0 -2 -0.5 -19.5t-8.5 -42t-27 -51.5t-55 -48l-31 53q29 18 39.5 33.5t16.5 27.5q-22 3 -33 19.5
t-11 34.5q0 19 15.5 36t39.5 17q23 0 39 -16.5t16 -43.5z" />
    <glyph glyph-name="dagger" unicode="&#x2020;" horiz-adv-x="486" 
d="M316 -75h-147v548h-104v135h104v256h147v-256h105v-135h-105v-548z" />
    <glyph glyph-name="daggerdbl" unicode="&#x2021;" horiz-adv-x="486" 
d="M316 -75h-147v259h-104v136h104v152h-104v136h104v256h147v-256h105v-136h-105v-152h105v-136h-105v-259z" />
    <glyph glyph-name="bullet" unicode="&#x2022;" horiz-adv-x="328" 
d="M65 319q0 41 27.5 70t70.5 29q20 0 38.5 -8t32 -21.5t21.5 -31.5t8 -38q0 -44 -29.5 -71t-70.5 -27q-43 0 -70.5 27t-27.5 71z" />
    <glyph glyph-name="ellipsis" unicode="&#x2026;" horiz-adv-x="689" 
d="M174 55q0 -23 -15 -39t-40 -16q-22 0 -38 16t-16 39t16 38.5t38 15.5q25 0 40 -15.5t15 -38.5zM401 55q0 -23 -15 -39t-40 -16q-22 0 -38 16t-16 39t16 38.5t38 15.5q25 0 40 -15.5t15 -38.5zM624 55q0 -23 -15 -39t-40 -16q-22 0 -38 16t-16 39t16 38.5t38 15.5
q25 0 40 -15.5t15 -38.5z" />
    <glyph glyph-name="perthousand" unicode="&#x2030;" horiz-adv-x="1641" 
d="M279 370q-45 0 -84 16.5t-68 45t-45.5 67.5t-16.5 85q0 45 16.5 84t45 68.5t67.5 46t85 16.5q44 0 83 -16.5t68 -46t46 -68.5t17 -84q0 -46 -17 -85t-46 -67.5t-68 -45t-83 -16.5zM278 657q-30 0 -50.5 -21t-20.5 -53q0 -29 20.5 -51t50.5 -22t50.5 22t20.5 51
q0 32 -20.5 53t-50.5 21zM853 -7q-47 0 -87.5 17t-70.5 47t-47.5 71t-17.5 89q0 47 17 88t47 71.5t71 48t88 17.5q46 0 87 -17.5t71.5 -48t48 -71.5t17.5 -88t-17.5 -88t-48 -71t-71.5 -47.5t-87 -17.5zM853 300q-35 0 -58 -24t-23 -59t23 -58.5t58 -23.5q34 0 58 23.5
t24 58.5t-24 59t-58 24zM320 0h-183l651 791h180zM1352 -7q-47 0 -87.5 17t-70.5 47t-47.5 71t-17.5 89q0 47 17 88t47 71.5t71 48t88 17.5q46 0 87 -17.5t71.5 -48t48 -71.5t17.5 -88t-17.5 -88t-48 -71t-71.5 -47.5t-87 -17.5zM1352 300q-35 0 -58 -24t-23 -59t23 -58.5
t58 -23.5q34 0 58 23.5t24 58.5t-24 59t-58 24z" />
    <glyph glyph-name="guilsinglleft" unicode="&#x2039;" horiz-adv-x="421" 
d="M257 23l-217 252l217 254l99 -98l-145 -156l145 -154z" />
    <glyph glyph-name="guilsinglright" unicode="&#x203a;" horiz-adv-x="421" 
d="M65 121l145 154l-145 156l99 98l217 -254l-217 -252z" />
    <glyph glyph-name="Euro" unicode="&#x20ac;" horiz-adv-x="858" 
d="M108 499q16 65 51.5 120.5t86 95.5t112.5 62.5t133 22.5q78 0 160 -33t167 -101l-92 -110q-63 53 -123.5 75t-111.5 22q-78 0 -136.5 -42.5t-85.5 -111.5h208v-78h-227q-1 -7 -1 -13.5v-13.5q0 -31 6 -59h222v-78h-192q31 -54 84.5 -86t121.5 -32q51 0 110.5 19t123.5 72
l93 -107q-85 -72 -167 -102t-160 -30q-69 0 -128.5 20t-107.5 55.5t-83.5 84.5t-54.5 106h-67v78h49q-2 14 -3 29t-1 30v13.5t1 13.5h-46v78h58z" />
    <glyph glyph-name="trademark" unicode="&#x2122;" horiz-adv-x="687" 
d="M637 800v-317h-104v99l-46 -52l-47 50v-97h-103v319l150 -141zM40 791h271v-105h-82v-203h-105v203h-84v105z" />
    </font>
</defs>
</svg>
