<svg width="109" height="109" viewBox="0 0 109 109" fill="none" xmlns="http://www.w3.org/2000/svg">
<g clip-path="url(#clip0_115_81)">
<path d="M54.18 108.37C43.4639 108.37 32.9884 105.193 24.0778 99.2401C15.1672 93.2874 8.22149 84.8264 4.1188 74.9268C0.0161157 65.0272 -1.05935 54.1335 1.02834 43.6228C3.11603 33.112 8.27315 23.4562 15.8478 15.876C23.4224 8.29583 33.0744 3.13157 43.5836 1.03612C54.0928 -1.05933 64.9873 0.00812626 74.8899 4.10351C84.7925 8.19889 93.2586 15.1383 99.2179 24.0445C105.177 32.9508 108.362 43.4239 108.37 54.14C108.365 68.5141 102.655 82.2986 92.4947 92.4664C82.3344 102.634 68.5541 108.354 54.18 108.37ZM54.18 3.30001C44.1152 3.30001 34.2765 6.28508 25.9084 11.8776C17.5404 17.4702 11.019 25.4189 7.16919 34.7183C3.31938 44.0177 2.31413 54.2501 4.28059 64.1209C6.24705 73.9918 11.0969 83.0576 18.2166 90.1717C25.3363 97.2858 34.406 102.129 44.2783 104.087C54.1507 106.046 64.3823 105.033 73.6787 101.176C82.9751 97.3184 90.9187 90.7908 96.5046 82.4183C102.091 74.0459 105.068 64.2048 105.06 54.14C105.034 40.6576 99.6632 27.7356 90.126 18.2058C80.5887 8.67603 67.6624 3.31586 54.18 3.30001Z" fill="white"/>
<path d="M54.18 98.65C45.3868 98.648 36.7915 96.0392 29.4806 91.1534C22.1698 86.2675 16.4715 79.3239 13.106 71.2002C9.74055 63.0766 8.85899 54.1375 10.5728 45.5129C12.2865 36.8883 16.5187 28.9654 22.7344 22.7456C28.95 16.5257 36.8701 12.2882 45.4935 10.5686C54.1169 8.84904 63.0566 9.72457 71.1825 13.0846C79.3085 16.4445 86.2559 22.1382 91.1467 29.4457C96.0375 36.7533 98.6521 45.3468 98.66 54.14C98.6573 65.9388 93.9712 77.254 85.631 85.5998C77.2908 93.9456 65.9787 98.6394 54.18 98.65ZM54.18 13.02C46.0352 13.02 38.0734 15.4358 31.302 19.9619C24.5305 24.4879 19.2537 30.9207 16.1391 38.4465C13.0245 45.9722 12.2121 54.2527 13.8047 62.2403C15.3974 70.2278 19.3234 77.5635 25.0861 83.3193C30.8488 89.075 38.1893 92.9921 46.1788 94.575C54.1683 96.1579 62.4478 95.3355 69.9697 92.2118C77.4917 89.0881 83.9181 83.8034 88.4359 77.0265C92.9537 70.2495 95.3599 62.2848 95.35 54.14C95.3288 43.2322 90.9829 32.7779 83.2651 25.0695C75.5474 17.3612 65.0878 13.0279 54.18 13.02Z" fill="white"/>
<path d="M54.42 55.94C54.2022 55.9401 53.9866 55.8968 53.7857 55.8127C53.5848 55.7286 53.4027 55.6053 53.25 55.45L43.88 46.08C43.7264 45.927 43.6044 45.7453 43.521 45.5451C43.4375 45.345 43.3944 45.1304 43.3939 44.9135C43.3935 44.6967 43.4357 44.4819 43.5183 44.2814C43.6008 44.0809 43.722 43.8987 43.875 43.745C44.028 43.5914 44.2098 43.4693 44.4099 43.3859C44.61 43.3025 44.8247 43.2594 45.0415 43.2589C45.2583 43.2584 45.4731 43.3007 45.6736 43.3832C45.8741 43.4658 46.0564 43.587 46.21 43.74L54.42 51.95L68.86 37.52C69.0097 37.3531 69.1919 37.2184 69.3954 37.1242C69.5989 37.03 69.8194 36.9783 70.0436 36.9722C70.2677 36.9661 70.4908 37.0057 70.6991 37.0887C70.9074 37.1717 71.0966 37.2963 71.2552 37.4548C71.4137 37.6134 71.5383 37.8026 71.6213 38.0109C71.7043 38.2192 71.7439 38.4423 71.7378 38.6664C71.7317 38.8906 71.68 39.1112 71.5858 39.3147C71.4916 39.5181 71.357 39.7003 71.19 39.85L55.59 55.45C55.4376 55.6057 55.2556 55.7293 55.0546 55.8135C54.8537 55.8977 54.6379 55.9407 54.42 55.94Z" fill="white"/>
<path d="M23.18 55.78H19.38C18.9424 55.78 18.5227 55.6062 18.2133 55.2967C17.9038 54.9873 17.73 54.5676 17.73 54.13C17.73 53.6924 17.9038 53.2727 18.2133 52.9633C18.5227 52.6538 18.9424 52.48 19.38 52.48H23.18C23.6176 52.48 24.0373 52.6538 24.3467 52.9633C24.6561 53.2727 24.83 53.6924 24.83 54.13C24.83 54.5676 24.6561 54.9873 24.3467 55.2967C24.0373 55.6062 23.6176 55.78 23.18 55.78Z" fill="white"/>
<path d="M89.09 55.78H85.29C84.8524 55.78 84.4327 55.6062 84.1233 55.2967C83.8139 54.9873 83.64 54.5676 83.64 54.13C83.64 53.6924 83.8139 53.2727 84.1233 52.9633C84.4327 52.6538 84.8524 52.48 85.29 52.48H89.09C89.5276 52.48 89.9473 52.6538 90.2567 52.9633C90.5662 53.2727 90.74 53.6924 90.74 54.13C90.74 54.5676 90.5662 54.9873 90.2567 55.2967C89.9473 55.6062 89.5276 55.78 89.09 55.78Z" fill="white"/>
<path d="M54.23 90.64C54.0133 90.64 53.7988 90.5973 53.5986 90.5144C53.3984 90.4315 53.2165 90.3099 53.0633 90.1567C52.9101 90.0035 52.7885 89.8216 52.7056 89.6214C52.6227 89.4213 52.58 89.2067 52.58 88.99V85.19C52.6124 84.7733 52.8009 84.3841 53.1077 84.1003C53.4144 83.8164 53.817 83.6587 54.235 83.6587C54.653 83.6587 55.0556 83.8164 55.3624 84.1003C55.6692 84.3841 55.8576 84.7733 55.89 85.19V88.99C55.89 89.2075 55.847 89.4229 55.7635 89.6238C55.6799 89.8246 55.5575 90.0069 55.4032 90.1603C55.2489 90.3136 55.0658 90.4349 54.8645 90.5173C54.6632 90.5996 54.4475 90.6413 54.23 90.64Z" fill="white"/>
<path d="M54.23 24.73C54.0125 24.73 53.7971 24.687 53.5962 24.6034C53.3954 24.5199 53.2131 24.3975 53.0597 24.2432C52.9064 24.0889 52.785 23.9059 52.7027 23.7045C52.6204 23.5032 52.5787 23.2875 52.58 23.07V19.27C52.6124 18.8533 52.8008 18.4641 53.1076 18.1803C53.4144 17.8964 53.817 17.7388 54.235 17.7388C54.653 17.7388 55.0555 17.8964 55.3623 18.1803C55.6691 18.4641 55.8576 18.8533 55.89 19.27V23.07C55.89 23.5103 55.7151 23.9325 55.4038 24.2438C55.0925 24.5551 54.6702 24.73 54.23 24.73Z" fill="white"/>
</g>
<defs>
<clipPath id="clip0_115_81">
<rect width="108.37" height="108.37" fill="white"/>
</clipPath>
</defs>
</svg>
