<svg width="106" height="106" viewBox="0 0 106 106" fill="none" xmlns="http://www.w3.org/2000/svg">
<g clip-path="url(#clip0_115_52)">
<path d="M35.29 87.48L18.29 70.48C18.025 70.2092 17.8594 69.8568 17.82 69.48L16.27 56.39C16.2398 56.1425 16.2664 55.8914 16.3479 55.6557C16.4293 55.42 16.5634 55.206 16.74 55.03L50.24 21.61C59.8425 12.0206 71.7833 5.10566 84.88 1.55L88.88 0.46C91.1581 -0.15718 93.5587 -0.162171 95.8394 0.445549C98.1201 1.05327 100.2 2.25216 101.869 3.9211C103.538 5.59004 104.737 7.66991 105.344 9.95057C105.952 12.2312 105.947 14.6319 105.33 16.91L104.24 20.91C100.707 34.0056 93.8124 45.9503 84.24 55.56L50.76 89.03C50.5844 89.2072 50.3704 89.3417 50.1347 89.4232C49.8989 89.5047 49.6475 89.5309 49.4 89.5L36.24 87.96C35.8785 87.9108 35.544 87.7418 35.29 87.48ZM21.06 68.58L37.24 84.74L48.96 86.13L81.85 53.19C91.0342 44 97.6564 32.5688 101.06 20.03L102.15 16.03C102.615 14.3128 102.618 12.5034 102.16 10.7845C101.702 9.06556 100.798 7.498 99.5399 6.24009C98.282 4.98217 96.7144 4.07844 94.9955 3.62016C93.2766 3.16187 91.4672 3.16528 89.75 3.63L85.75 4.71999C73.2112 8.12354 61.78 14.7458 52.59 23.93L19.68 56.84L21.06 68.58Z" fill="white"/>
<path d="M61.47 102.12L48.38 89.03C48.2261 88.8775 48.1039 88.6961 48.0206 88.4961C47.9372 88.2961 47.8943 88.0816 47.8943 87.865C47.8943 87.6483 47.9372 87.4339 48.0206 87.2339C48.1039 87.034 48.2261 86.8525 48.38 86.7L69.88 65.19C70.076 64.9931 70.3185 64.8489 70.585 64.7708C70.8516 64.6926 71.1336 64.6829 71.4048 64.7428C71.6761 64.8026 71.9279 64.93 72.1368 65.113C72.3457 65.2961 72.505 65.529 72.6 65.79C74.8001 71.8 75.2395 78.3131 73.8667 84.5642C72.4939 90.8153 69.3659 96.5449 64.85 101.08L63.8 102.08C63.6502 102.237 63.4708 102.362 63.2723 102.449C63.0737 102.535 62.86 102.582 62.6433 102.586C62.4267 102.59 62.2114 102.55 62.01 102.47C61.8086 102.39 61.6251 102.271 61.47 102.12ZM51.88 87.86L62.64 98.62C66.3508 94.8467 69.0101 90.1684 70.3539 85.0496C71.6976 79.9307 71.6791 74.5494 70.3 69.44L51.88 87.86Z" fill="white"/>
<path d="M16.77 57.42L3.67999 44.33C3.5261 44.1775 3.40392 43.9961 3.32056 43.7961C3.23719 43.5961 3.19427 43.3816 3.19427 43.165C3.19427 42.9484 3.23719 42.7339 3.32056 42.5339C3.40392 42.3339 3.5261 42.1525 3.67999 42L4.67999 40.95C9.21826 36.4258 14.9543 33.292 21.2132 31.9173C27.4721 30.5426 33.9935 30.9841 40.01 33.19C40.2714 33.2833 40.5049 33.4414 40.6885 33.6495C40.8722 33.8577 41 34.109 41.06 34.38C41.1195 34.6523 41.1094 34.9352 41.0308 35.2026C40.9521 35.47 40.8074 35.7133 40.61 35.91L19.11 57.41C18.9573 57.5649 18.7755 57.688 18.5751 57.7724C18.3747 57.8567 18.1595 57.9006 17.9421 57.9016C17.7246 57.9025 17.5091 57.8604 17.308 57.7778C17.1068 57.6951 16.924 57.5736 16.77 57.42ZM7.17999 43.19L17.94 53.94L36.36 35.52C31.2498 34.1402 25.8675 34.1221 20.7482 35.4678C15.629 36.8134 10.9511 39.4757 7.17999 43.19Z" fill="white"/>
<path d="M47.54 88.19L17.6 58.25C17.2897 57.9397 17.1154 57.5189 17.1154 57.08C17.1154 56.6412 17.2897 56.2203 17.6 55.91C17.9103 55.5997 18.3312 55.4254 18.77 55.4254C19.2088 55.4254 19.6297 55.5997 19.94 55.91L49.88 85.85C50.1903 86.1603 50.3646 86.5812 50.3646 87.02C50.3646 87.4588 50.1903 87.8797 49.88 88.19C49.5697 88.5003 49.1488 88.6746 48.71 88.6746C48.2712 88.6746 47.8503 88.5003 47.54 88.19Z" fill="white"/>
<path d="M93.5 38.54L67.31 12.35C67.001 12.0397 66.8279 11.6194 66.8289 11.1815C66.8298 10.7436 67.0047 10.324 67.315 10.015C67.6253 9.70603 68.0456 9.53297 68.4835 9.53391C68.9214 9.53485 69.341 9.7097 69.6499 10.02L95.8399 36.19C96.1489 36.5003 96.322 36.9206 96.3211 37.3585C96.3201 37.7964 96.1452 38.216 95.8349 38.525C95.6813 38.678 95.4991 38.7992 95.2986 38.8818C95.0981 38.9643 94.8832 39.0066 94.6664 39.0061C94.2285 39.0052 93.809 38.8303 93.5 38.52V38.54Z" fill="white"/>
<path d="M56.29 49.51C54.6993 47.9181 53.6164 45.8904 53.178 43.6831C52.7396 41.4759 52.9655 39.1882 53.8271 37.1093C54.6886 35.0304 56.1473 33.2536 58.0185 32.0035C59.8897 30.7534 62.0896 30.0863 64.34 30.0863C66.5903 30.0863 68.7902 30.7534 70.6614 32.0035C72.5327 33.2536 73.9913 35.0304 74.8529 37.1093C75.7145 39.1882 75.9403 41.4759 75.5019 43.6831C75.0635 45.8904 73.9806 47.9181 72.39 49.51C70.2517 51.6388 67.3572 52.8339 64.34 52.8339C61.3227 52.8339 58.4283 51.6388 56.29 49.51ZM70.05 35.75C68.9203 34.619 67.4806 33.8485 65.913 33.536C64.3454 33.2234 62.7203 33.3829 61.2433 33.9941C59.7663 34.6054 58.5038 35.641 57.6155 36.97C56.7272 38.2989 56.2531 39.8615 56.2531 41.46C56.2531 43.0585 56.7272 44.6211 57.6155 45.95C58.5038 47.279 59.7663 48.3146 61.2433 48.9259C62.7203 49.5371 64.3454 49.6966 65.913 49.384C67.4806 49.0715 68.9203 48.301 70.05 47.17C71.5632 45.655 72.4131 43.6013 72.4131 41.46C72.4131 39.3187 71.5632 37.265 70.05 35.75Z" fill="white"/>
<path d="M0 105.8L0.0899963 103.98C0.169996 102.25 1.04 86.98 5.63 82.39C7.99043 80.0309 11.1913 78.7061 14.5285 78.707C17.8657 78.708 21.0659 80.0346 23.425 82.395C25.7841 84.7554 27.1089 87.9563 27.1079 91.2935C27.107 94.6308 25.7804 97.8309 23.42 100.19C18.83 104.78 3.54998 105.65 1.81998 105.73L0 105.8ZM21.08 84.72C19.3389 82.9864 16.982 82.013 14.525 82.013C12.068 82.013 9.71106 82.9864 7.97 84.72C5.21 87.48 3.91998 97.07 3.50998 102.29C8.72998 101.88 18.33 100.59 21.08 97.84C22.8143 96.0972 23.7878 93.7386 23.7878 91.28C23.7878 88.8214 22.8143 86.4628 21.08 84.72Z" fill="white"/>
</g>
<defs>
<clipPath id="clip0_115_52">
<rect width="105.8" height="105.8" fill="white"/>
</clipPath>
</defs>
</svg>
