<svg width="61" height="106" viewBox="0 0 61 106" fill="none" xmlns="http://www.w3.org/2000/svg">
<g clip-path="url(#clip0_115_63)">
<path d="M30.39 54.43C27.1558 54.432 23.9938 53.4747 21.3037 51.6794C18.6136 49.884 16.5165 47.3312 15.2774 44.3438C14.0384 41.3564 13.7132 38.0686 14.3429 34.8964C14.9727 31.7241 16.5291 28.8099 18.8153 26.5223C21.1014 24.2347 24.0147 22.6766 27.1866 22.0449C30.3585 21.4132 33.6464 21.7364 36.6346 22.9736C39.6227 24.2108 42.1768 26.3064 43.9738 28.9954C45.7708 31.6843 46.73 34.8458 46.73 38.08C46.7247 42.4129 45.0018 46.567 41.9389 49.6318C38.876 52.6966 34.7229 54.422 30.39 54.43ZM30.39 25.03C27.821 25.03 25.3095 25.7912 23.1728 27.2175C21.0361 28.6437 19.3698 30.6711 18.3844 33.0436C17.399 35.4162 17.1387 38.0274 17.6363 40.5478C18.1338 43.0682 19.367 45.3846 21.1801 47.2047C22.9932 49.0248 25.3049 50.2668 27.8233 50.7741C30.3418 51.2813 32.954 51.031 35.3303 50.0547C37.7066 49.0784 39.7404 47.42 41.1748 45.2887C42.6093 43.1575 43.3801 40.649 43.39 38.08C43.398 34.6205 42.0341 31.299 39.5973 28.8434C37.1604 26.3878 33.8494 24.9985 30.39 24.98V25.03Z" fill="white"/>
<path d="M30.39 97.69C32.0027 97.69 33.31 96.3827 33.31 94.77C33.31 93.1573 32.0027 91.85 30.39 91.85C28.7773 91.85 27.47 93.1573 27.47 94.77C27.47 96.3827 28.7773 97.69 30.39 97.69Z" fill="white"/>
<path d="M50.6 105.43H10.17C8.83314 105.433 7.50885 105.172 6.27275 104.663C5.03665 104.154 3.91295 103.406 2.96579 102.462C2.01863 101.519 1.26658 100.398 0.752563 99.1642C0.238545 97.9301 -0.0273749 96.6069 -0.0299988 95.27V10.17C-0.0273513 7.47354 1.04497 4.8883 2.95164 2.98163C4.85832 1.07496 7.44356 0.00264746 10.14 0H50.57C53.2674 0.00264188 55.8536 1.07463 57.7619 2.98102C59.6702 4.8874 60.7447 7.47263 60.75 10.17V95.27C60.7421 97.9605 59.6705 100.539 57.769 102.442C55.8675 104.345 53.2904 105.419 50.6 105.43ZM10.17 3.31C8.34969 3.31 6.60379 4.03242 5.3157 5.31863C4.02762 6.60485 3.30265 8.34968 3.3 10.17V95.27C3.30265 97.0912 4.02729 98.8371 5.31509 100.125C6.6029 101.413 8.34877 102.137 10.17 102.14H50.6C52.4212 102.137 54.1671 101.413 55.4549 100.125C56.7427 98.8371 57.4674 97.0912 57.47 95.27V10.17C57.4674 8.34968 56.7424 6.60485 55.4543 5.31863C54.1662 4.03242 52.4203 3.31 50.6 3.31H10.17Z" fill="white"/>
<path d="M36.63 12.28H24.15C23.7124 12.28 23.2927 12.1062 22.9833 11.7967C22.6738 11.4873 22.5 11.0676 22.5 10.63C22.5 10.1924 22.6738 9.77269 22.9833 9.46326C23.2927 9.15382 23.7124 8.97998 24.15 8.97998H36.63C37.0676 8.97998 37.4873 9.15382 37.7967 9.46326C38.1062 9.77269 38.28 10.1924 38.28 10.63C38.28 11.0676 38.1062 11.4873 37.7967 11.7967C37.4873 12.1062 37.0676 12.28 36.63 12.28Z" fill="white"/>
<path d="M58.53 87.43H2.24001C1.82329 87.3976 1.43414 87.2091 1.15028 86.9024C0.866425 86.5956 0.70874 86.1929 0.70874 85.775C0.70874 85.357 0.866425 84.9545 1.15028 84.6477C1.43414 84.3409 1.82329 84.1524 2.24001 84.12H58.53C58.9467 84.1524 59.3359 84.3409 59.6197 84.6477C59.9036 84.9545 60.0613 85.357 60.0613 85.775C60.0613 86.1929 59.9036 86.5956 59.6197 86.9024C59.3359 87.2091 58.9467 87.3976 58.53 87.43Z" fill="white"/>
<path d="M47.4 68.82H13.4C13.1825 68.8213 12.9668 68.7796 12.7655 68.6973C12.5642 68.6149 12.3811 68.4936 12.2268 68.3403C12.0725 68.1869 11.9501 68.0046 11.8665 67.8037C11.783 67.6029 11.74 67.3875 11.74 67.17V59.69C11.74 59.4725 11.783 59.2571 11.8665 59.0562C11.9501 58.8554 12.0725 58.6731 12.2268 58.5197C12.3811 58.3664 12.5642 58.245 12.7655 58.1627C12.9668 58.0804 13.1825 58.0387 13.4 58.04H47.4C47.8376 58.04 48.2573 58.2138 48.5667 58.5233C48.8762 58.8327 49.05 59.2524 49.05 59.69V67.17C49.05 67.6076 48.8762 68.0273 48.5667 68.3367C48.2573 68.6462 47.8376 68.82 47.4 68.82ZM15.03 65.52H45.74V61.34H15.03V65.52Z" fill="white"/>
<path d="M42.06 75.59H18.71C18.2933 75.5576 17.9041 75.3691 17.6203 75.0623C17.3364 74.7555 17.1787 74.353 17.1787 73.935C17.1787 73.517 17.3364 73.1144 17.6203 72.8076C17.9041 72.5008 18.2933 72.3124 18.71 72.28H42.06C42.4767 72.3124 42.8659 72.5008 43.1497 72.8076C43.4336 73.1144 43.5913 73.517 43.5913 73.935C43.5913 74.353 43.4336 74.7555 43.1497 75.0623C42.8659 75.3691 42.4767 75.5576 42.06 75.59Z" fill="white"/>
</g>
<defs>
<clipPath id="clip0_115_63">
<rect width="60.78" height="105.44" fill="white"/>
</clipPath>
</defs>
</svg>
