<svg width="125" height="110" viewBox="0 0 125 110" fill="none" xmlns="http://www.w3.org/2000/svg">
<g clip-path="url(#clip0_115_73)">
<path d="M65.53 21.47C63.4054 21.47 61.3285 20.8399 59.5621 19.6593C57.7957 18.4788 56.4192 16.8008 55.6066 14.8377C54.794 12.8747 54.5819 10.7147 54.9971 8.63106C55.4123 6.54743 56.4362 4.63378 57.9392 3.13216C59.4422 1.63054 61.3568 0.608424 63.4409 0.195149C65.5249 -0.218126 67.6847 -0.00397426 69.647 0.810445C71.6093 1.62486 73.2859 3.00297 74.4648 4.77047C75.6438 6.53797 76.272 8.61541 76.27 10.74C76.2647 13.5859 75.1312 16.3136 73.1179 18.325C71.1046 20.3364 68.3759 21.4673 65.53 21.47ZM65.53 3.31002C64.0605 3.31002 62.624 3.7458 61.4021 4.56221C60.1803 5.37863 59.228 6.53903 58.6656 7.89669C58.1032 9.25434 57.9561 10.7483 58.2428 12.1895C58.5295 13.6308 59.2371 14.9547 60.2762 15.9938C61.3153 17.0329 62.6392 17.7406 64.0805 18.0272C65.5218 18.3139 67.0157 18.1668 68.3734 17.6045C69.731 17.0421 70.8914 16.0897 71.7078 14.8679C72.5243 13.646 72.96 12.2095 72.96 10.74C72.9613 9.76345 72.7701 8.79618 72.3973 7.89357C72.0245 6.99097 71.4774 6.17075 70.7874 5.47976C70.0973 4.78876 69.2777 4.24055 68.3756 3.86654C67.4735 3.49252 66.5066 3.30001 65.53 3.30001V3.31002Z" fill="white"/>
<path d="M87.33 109.05H80.4C78.4294 109.05 76.5396 108.267 75.1462 106.874C73.7528 105.48 72.97 103.591 72.97 101.62V99.77H50.86V101.62C50.86 103.591 50.0772 105.48 48.6838 106.874C47.2904 108.267 45.4006 109.05 43.43 109.05H36.51C34.5385 109.05 32.6476 108.268 31.2527 106.874C29.8577 105.481 29.0727 103.591 29.07 101.62V94.96C22.2361 90.9899 16.9142 84.8625 13.94 77.54H8.54001C6.27679 77.54 4.10611 76.6417 2.50484 75.0423C0.903563 73.4429 0.00265014 71.2732 0 69.01V59.3C0.00264657 57.0359 0.903255 54.8652 2.50424 53.2642C4.10523 51.6633 6.27587 50.7627 8.54001 50.76H13.94C16.0911 45.4886 19.4677 40.8058 23.79 37.1V17.42C23.7871 17.0793 23.883 16.7452 24.0663 16.458C24.2496 16.1708 24.5122 15.943 24.8225 15.8021C25.1327 15.6613 25.4771 15.6135 25.8139 15.6646C26.1508 15.7157 26.4655 15.8635 26.72 16.09C32.85 21.49 39.81 27.48 41.72 28.89C43.4646 28.6302 45.2261 28.4998 46.99 28.5H75.99C84.3881 28.5121 92.5132 31.4846 98.9365 36.8947C105.36 42.3048 109.67 49.8062 111.11 58.08C114.739 57.9407 118.339 57.3836 121.84 56.42C122.181 56.3382 122.538 56.3593 122.867 56.4809C123.196 56.6024 123.481 56.8187 123.687 57.1026C123.892 57.3864 124.009 57.7249 124.022 58.0752C124.035 58.4254 123.944 58.7717 123.76 59.07C123.56 59.41 118.92 66.75 111.41 68.12C110.81 73.4781 109.001 78.6297 106.118 83.1859C103.235 87.742 99.355 91.5835 94.77 94.42V101.62C94.77 102.597 94.5775 103.564 94.2035 104.466C93.8294 105.368 93.2813 106.187 92.5903 106.877C91.8993 107.567 91.079 108.115 90.1764 108.487C89.2738 108.86 88.3066 109.051 87.33 109.05ZM49.09 96.23H74.74C75.2094 96.23 75.6596 96.4165 75.9916 96.7484C76.3235 97.0804 76.51 97.5306 76.51 98V101.62C76.5126 102.651 76.9233 103.639 77.6523 104.368C78.3812 105.097 79.3691 105.507 80.4 105.51H87.33C88.3609 105.507 89.3488 105.097 90.0777 104.368C90.8067 103.639 91.2174 102.651 91.22 101.62V93.42C91.2187 93.1114 91.2995 92.808 91.4541 92.5409C91.6088 92.2738 91.8317 92.0525 92.1 91.9C96.6264 89.2706 100.441 85.5745 103.213 81.1336C105.984 76.6926 107.627 71.6414 108 66.42C108.028 65.9933 108.209 65.5911 108.511 65.2877C108.812 64.9844 109.213 64.8005 109.64 64.77C112.618 64.4329 115.394 63.0929 117.51 60.97C114.818 61.5499 112.054 61.7251 109.31 61.49C108.927 61.434 108.573 61.2541 108.302 60.9777C108.031 60.7014 107.858 60.3439 107.81 59.96C106.785 52.2406 102.994 45.1555 97.14 40.0205C91.2859 34.8856 83.7671 32.0498 75.98 32.04H46.98C45.1877 32.0411 43.3984 32.1883 41.63 32.48C40.63 32.64 40.31 32.71 27.35 21.33V37.89C27.3504 38.1622 27.2885 38.4308 27.1688 38.6752C27.0492 38.9196 26.8751 39.1334 26.66 39.3C22.1897 42.946 18.7809 47.7259 16.79 53.14C16.6677 53.4816 16.4422 53.7767 16.1448 53.9845C15.8474 54.1923 15.4928 54.3026 15.13 54.3H8.52C7.19392 54.3 5.92215 54.8268 4.98447 55.7645C4.04678 56.7022 3.52 57.9739 3.52 59.3V69.05C3.52 70.3761 4.04678 71.6479 4.98447 72.5855C5.92215 73.5232 7.19392 74.05 8.52 74.05H15.13C15.4928 74.0474 15.8474 74.1577 16.1448 74.3655C16.4422 74.5733 16.6677 74.8684 16.79 75.21C19.4993 82.5454 24.7847 88.6447 31.66 92.37C31.9388 92.5215 32.1715 92.7454 32.3335 93.0183C32.4954 93.2911 32.5806 93.6027 32.58 93.92V101.62C32.5826 102.653 32.9947 103.642 33.7258 104.371C34.4569 105.1 35.4474 105.51 36.48 105.51H43.4C44.4317 105.51 45.4211 105.1 46.1506 104.371C46.8801 103.641 47.29 102.652 47.29 101.62V98C47.29 97.765 47.3367 97.5324 47.4276 97.3156C47.5184 97.0989 47.6515 96.9025 47.819 96.7377C47.9865 96.5729 48.1852 96.4432 48.4034 96.356C48.6217 96.2689 48.855 96.226 49.09 96.23Z" fill="white"/>
<path d="M30.93 54.44C30.3367 54.44 29.7566 54.2641 29.2633 53.9344C28.7699 53.6048 28.3854 53.1362 28.1584 52.5881C27.9313 52.0399 27.8719 51.4367 27.9876 50.8548C28.1034 50.2728 28.3891 49.7383 28.8087 49.3187C29.2282 48.8992 29.7628 48.6134 30.3447 48.4977C30.9267 48.3819 31.5299 48.4413 32.078 48.6684C32.6262 48.8954 33.0948 49.28 33.4244 49.7733C33.754 50.2666 33.93 50.8467 33.93 51.44C33.93 52.2357 33.6139 52.9987 33.0513 53.5613C32.4887 54.1239 31.7257 54.44 30.93 54.44ZM30.93 50.9C30.7974 50.9 30.6702 50.9527 30.5764 51.0465C30.4827 51.1403 30.43 51.2674 30.43 51.4C30.43 51.95 31.43 51.95 31.43 51.4C31.43 51.2674 31.3773 51.1403 31.2835 51.0465C31.1898 50.9527 31.0626 50.9 30.93 50.9Z" fill="white"/>
<path d="M74.5 42.22H56.57C56.1006 42.22 55.6504 42.0335 55.3184 41.7016C54.9865 41.3696 54.8 40.9195 54.8 40.45C54.8 39.9806 54.9865 39.5304 55.3184 39.1984C55.6504 38.8665 56.1006 38.68 56.57 38.68H74.5C74.9694 38.68 75.4196 38.8665 75.7516 39.1984C76.0835 39.5304 76.27 39.9806 76.27 40.45C76.27 40.9195 76.0835 41.3696 75.7516 41.7016C75.4196 42.0335 74.9694 42.22 74.5 42.22Z" fill="white"/>
</g>
<defs>
<clipPath id="clip0_115_73">
<rect width="124.02" height="109.05" fill="white"/>
</clipPath>
</defs>
</svg>
