<svg width="447" height="228" viewBox="0 0 447 228" fill="none" xmlns="http://www.w3.org/2000/svg">
<g clip-path="url(#clip0_115_115)">
<path d="M197.124 136.201C196.817 135.333 196.177 134.624 195.347 134.227C194.516 133.831 193.562 133.78 192.695 134.086C189.312 135.358 185.717 135.973 182.104 135.9C176.852 135.9 172.596 133.397 172.596 126.392V101.834C172.596 100.912 172.962 100.027 173.614 99.3755C174.265 98.7236 175.149 98.3574 176.07 98.3574H197.136C198.057 98.3574 198.941 97.9911 199.593 97.3392C200.244 96.6873 200.61 95.8032 200.61 94.8812V69.0477C200.61 68.1258 200.244 67.2416 199.593 66.5897C198.941 65.9378 198.057 65.5716 197.136 65.5716H176.07C175.149 65.5716 174.265 65.2054 173.614 64.5535C172.962 63.9016 172.596 63.0174 172.596 62.0955V34.0082C172.596 33.0863 172.23 32.2021 171.579 31.5502C170.927 30.8983 170.043 30.5321 169.122 30.5321H137.604C136.716 30.5307 135.861 30.8698 135.215 31.4796C134.569 32.0895 134.18 32.9239 134.13 33.8113L132.503 62.2924C132.453 63.1798 132.064 64.0142 131.418 64.6241C130.772 65.234 129.917 65.573 129.029 65.5716H93.18C92.5396 65.5725 91.9119 65.7504 91.3663 66.0857C90.8206 66.4211 90.3782 66.9008 90.0879 67.4719L85.9767 75.5539C85.7206 76.0523 85.3479 76.4813 84.8904 76.8044C84.4329 77.1276 83.9041 77.3353 83.349 77.4098C82.7939 77.4843 82.2291 77.4235 81.7026 77.2325C81.1761 77.0415 80.7035 76.726 80.3252 76.3129C71.7843 66.8114 60.2844 62.3156 47.0243 62.3156C19.2301 62.3156 0 85.5942 0 117.129C0 148.663 18.5294 171.188 47.0243 171.188C55.2815 171.188 63.0696 169.334 70.2788 165.018C70.8096 164.689 71.4192 164.509 72.0436 164.497C72.6679 164.485 73.284 164.642 73.8268 164.951C74.3696 165.26 74.8192 165.71 75.1282 166.253C75.4372 166.796 75.5943 167.412 75.5828 168.037C75.5423 169.879 75.5423 171.762 75.5423 173.691C75.5423 186.958 67.2851 192.711 52.2762 192.711C40.6548 192.711 29.9945 190.017 21.3031 185.475C20.8612 185.24 20.3737 185.103 19.8739 185.074C19.3742 185.045 18.8741 185.124 18.4077 185.306C17.9414 185.488 17.52 185.769 17.1722 186.129C16.8244 186.489 16.5585 186.92 16.3928 187.393L7.94449 211.761C7.67817 212.527 7.68811 213.362 7.97259 214.122C8.25706 214.882 8.79814 215.518 9.50212 215.92C23.7171 223.877 39.7403 228.037 56.0285 228C94.5524 228 116.568 209.982 116.568 172.44V100.489C116.565 99.9989 116.665 99.5133 116.863 99.0645C117.061 98.6158 117.352 98.214 117.716 97.8857C118.081 97.5573 118.51 97.3099 118.977 97.1595C119.444 97.0091 119.937 96.9593 120.424 97.0133L129.231 97.9924C130.085 98.0869 130.874 98.4945 131.445 99.1364C132.016 99.7784 132.329 100.609 132.323 101.469V132.899C132.323 159.926 149.834 172.44 171.12 172.44C183.123 172.44 193.43 169.456 203.795 163.68C204.527 163.286 205.094 162.643 205.392 161.867C205.691 161.091 205.701 160.234 205.422 159.451L197.124 136.201ZM58.7789 139.405C47.2733 139.405 40.5216 130.894 40.5216 117.129C40.5216 103.612 47.0243 95.3563 58.7789 95.3563C71.0373 95.3563 77.54 103.861 77.54 117.129C77.54 130.645 70.7883 139.405 58.7789 139.405Z" fill="#21005C"/>
<path d="M264.612 3.25018H292.406C293.282 3.25018 294.121 3.59811 294.74 4.21742C295.359 4.83672 295.707 5.67669 295.707 6.55252V165.876C295.707 166.309 295.622 166.739 295.456 167.139C295.29 167.54 295.047 167.904 294.74 168.211C294.434 168.517 294.07 168.761 293.67 168.927C293.269 169.092 292.84 169.178 292.406 169.178H254.479C254.046 169.178 253.616 169.092 253.216 168.927C252.815 168.761 252.452 168.517 252.145 168.211C251.839 167.904 251.596 167.54 251.43 167.139C251.264 166.739 251.178 166.309 251.178 165.876V68.8102C251.178 66.0525 251.265 63.2136 251.387 60.4327C251.412 59.874 251.296 59.3179 251.048 58.8166C250.8 58.3153 250.429 57.8852 249.969 57.5667C249.51 57.2482 248.977 57.0517 248.421 56.9957C247.864 56.9396 247.303 57.0258 246.789 57.2462L246.575 57.3505L228.804 66.5623C228.034 66.9603 227.139 67.0395 226.311 66.7826C225.483 66.5257 224.79 65.9534 224.38 65.1892L210.587 39.5295C210.188 38.7908 210.085 37.9274 210.3 37.1155C210.516 36.3037 211.032 35.6046 211.745 35.1612L262.875 3.74264C263.398 3.42098 263.999 3.25051 264.612 3.25018ZM447.012 123.386C447.012 153.669 422.75 172.944 382.975 172.944C342.951 172.944 318.701 153.419 318.701 123.386C318.701 106.799 328.018 92.8824 342.013 85.6057C342.527 85.3261 342.956 84.9146 343.258 84.4136C343.56 83.9126 343.722 83.3402 343.729 82.7554C343.736 82.1706 343.588 81.5944 343.298 81.0863C343.009 80.5781 342.589 80.1563 342.083 79.8643C331.515 73.4914 324.457 61.2206 324.457 47.5536C324.457 19.5185 347.717 0 382.987 0C418.256 0 441.221 19.5185 441.221 47.5536C441.221 61.632 434.105 72.7093 423.271 79.818C422.79 80.1281 422.398 80.5586 422.134 81.0668C421.87 81.575 421.743 82.1433 421.765 82.7156C421.788 83.2879 421.96 83.8443 422.264 84.3298C422.567 84.8154 422.992 85.2132 423.497 85.4841C437.538 93.1432 447.012 106.503 447.012 123.386ZM365.453 49.5524C365.453 59.3145 372.46 66.0756 382.963 66.0756C393.467 66.0756 400.474 59.3145 400.474 49.5524C400.474 39.5411 393.473 33.7881 382.963 33.7881C372.454 33.7881 365.453 39.5411 365.453 49.5524ZM403.224 118.131C403.224 107.366 395.222 99.3596 382.714 99.3596C370.96 99.3596 362.448 107.366 362.448 118.131C362.448 130.645 371.95 136.67 382.958 136.67C393.965 136.67 403.224 130.894 403.224 118.131Z" fill="url(#paint0_linear_115_115)"/>
</g>
<defs>
<linearGradient id="paint0_linear_115_115" x1="247.478" y1="-0.70102" x2="419.101" y2="170.83" gradientUnits="userSpaceOnUse">
<stop stop-color="#00ECFF"/>
<stop offset="1" stop-color="#6A00FF"/>
</linearGradient>
<clipPath id="clip0_115_115">
<rect width="447" height="228" fill="white"/>
</clipPath>
</defs>
</svg>
