<svg xmlns="http://www.w3.org/2000/svg" xmlns:xlink="http://www.w3.org/1999/xlink" preserveAspectRatio="xMidYMid" width="1920" height="568.78" viewBox="0 0 1920 568.78">
  <defs>
    <style>
      .cls-1 {
        fill: #e4e4e4;
        fill-rule: evenodd;
      }
    </style>
  </defs>
  <path d="M2035.670,378.780 L2015.000,568.790 C2015.000,568.790 1953.688,542.997 1828.000,544.985 C1702.312,546.973 1561.466,555.096 1434.000,532.978 C1306.535,510.860 1297.786,542.512 1158.000,547.987 C1018.214,553.461 1030.148,561.345 830.000,544.985 C629.852,528.625 692.983,512.641 537.000,532.978 C381.017,553.316 424.560,568.071 299.000,550.988 C173.440,533.906 238.844,508.787 102.000,531.978 C-34.844,555.168 -82.028,547.165 -130.000,545.986 L-130.000,329.780 L-126.637,329.780 L-104.000,-0.011 C-104.000,-0.011 -42.688,25.767 83.000,23.780 C208.688,21.793 349.534,13.674 477.000,35.780 C604.465,57.885 613.214,26.252 753.000,20.780 C892.786,15.308 880.852,7.429 1081.000,23.780 C1281.148,40.131 1218.017,56.106 1374.000,35.780 C1529.983,15.454 1486.440,0.708 1612.000,17.780 C1737.560,34.852 1672.156,59.957 1809.000,36.780 C1945.844,13.603 1993.028,21.602 2041.000,22.780 L2041.000,378.780 L2035.670,378.780 Z" class="cls-1"/>
</svg>
