<svg xmlns="http://www.w3.org/2000/svg" width="114.125" height="111.876" viewBox="0 0 114.125 111.876">
  <g id="icon-photo" transform="translate(0 -5.044)">
    <g id="Group_97" data-name="Group 97" transform="translate(0 5.044)">
      <g id="Group_96" data-name="Group 96">
        <path id="Path_37" data-name="Path 37" d="M339.83,131.063a11.488,11.488,0,1,0,11.488,11.488A11.5,11.5,0,0,0,339.83,131.063Zm0,18.517a7.03,7.03,0,1,1,7.03-7.03A7.037,7.037,0,0,1,339.83,149.58Z" transform="translate(-255.155 -102.973)" fill="#ebb23f"/>
        <path id="Path_38" data-name="Path 38" d="M365.286,446.382a2.2,2.2,0,0,0-.205-.386,2.166,2.166,0,0,0-.615-.615,2.2,2.2,0,0,0-.386-.205,2.092,2.092,0,0,0-.417-.127,2.2,2.2,0,0,0-.869,0,2.092,2.092,0,0,0-.417.127,2.2,2.2,0,0,0-.386.205,2.166,2.166,0,0,0-.615.615,2.2,2.2,0,0,0-.205.386,2.092,2.092,0,0,0-.127.417,2.141,2.141,0,0,0,0,.869,2.091,2.091,0,0,0,.127.417,2.2,2.2,0,0,0,.205.386,2.129,2.129,0,0,0,.276.339c.051.051.1.1.161.146a2.064,2.064,0,0,0,.178.13,2.2,2.2,0,0,0,.386.205,2.092,2.092,0,0,0,.417.127,2.14,2.14,0,0,0,.869,0,2.092,2.092,0,0,0,.417-.127,2.2,2.2,0,0,0,.386-.205,2.117,2.117,0,0,0,.178-.13,2.17,2.17,0,0,0,.161-.146,2.13,2.13,0,0,0,.276-.339,2.2,2.2,0,0,0,.205-.386,2.259,2.259,0,0,0,.129-.417,2.251,2.251,0,0,0,0-.869A2.249,2.249,0,0,0,365.286,446.382Z" transform="translate(-280.533 -346.939)" fill="#ebb23f"/>
        <path id="Path_39" data-name="Path 39" d="M207.906,50.652a2.374,2.374,0,0,0-.205-.386,2.237,2.237,0,0,0-.276-.339,2.134,2.134,0,0,0-.339-.276,2.2,2.2,0,0,0-.386-.205,2.252,2.252,0,0,0-.417-.127,2.2,2.2,0,0,0-.869,0,2.326,2.326,0,0,0-.419.127,2.261,2.261,0,0,0-.383.205,2.134,2.134,0,0,0-.339.276,2.4,2.4,0,0,0-.279.339,2.359,2.359,0,0,0-.2.386,2.094,2.094,0,0,0-.127.417,2.152,2.152,0,0,0,0,.872,2.092,2.092,0,0,0,.127.417,2.36,2.36,0,0,0,.2.386,2.4,2.4,0,0,0,.279.339,2.134,2.134,0,0,0,.339.276,2.26,2.26,0,0,0,.383.205,2.326,2.326,0,0,0,.419.127,2.141,2.141,0,0,0,.869,0,2.251,2.251,0,0,0,.417-.127,2.2,2.2,0,0,0,.386-.205,2.134,2.134,0,0,0,.339-.276,2.237,2.237,0,0,0,.276-.339,2.374,2.374,0,0,0,.205-.386,2.094,2.094,0,0,0,.127-.417,2.152,2.152,0,0,0,0-.872A2.094,2.094,0,0,0,207.906,50.652Z" transform="translate(-158.233 -39.417)" fill="#ebb23f"/>
        <path id="Path_40" data-name="Path 40" d="M101.671,14.913A12.839,12.839,0,0,0,89.2,5.044H19.262A19.284,19.284,0,0,0,0,24.306V94.242a12.832,12.832,0,0,0,12.454,12.81,12.839,12.839,0,0,0,12.473,9.869h76.379A12.833,12.833,0,0,0,114.125,104.1V27.722A12.832,12.832,0,0,0,101.671,14.913Zm8,89.189a8.37,8.37,0,0,1-8.361,8.361H24.926a8.366,8.366,0,0,1-8.361-8.361V92.276L42.138,48.917a4.2,4.2,0,0,1,7.308.125L60.456,69.26l16,29.388a2.229,2.229,0,0,0,3.915-2.132l-5.194-9.537a9.194,9.194,0,0,0,6.309-2.115l10.024-8.315a4.217,4.217,0,0,1,5.521.137l.523.48,4.458,4.086,7.649,7.012Zm0-21.887L102.017,75.2l-4.458-3.395a8.7,8.7,0,0,0-8.891,1.308L78.645,81.432A4.774,4.774,0,0,1,71.4,80.041L64.371,67.127l-3.927-7.211h0L53.361,46.91A8.659,8.659,0,0,0,38.3,46.652L16.565,83.5V27.722a8.37,8.37,0,0,1,8.361-8.361H38.7a2.229,2.229,0,1,0,0-4.458H24.926A12.834,12.834,0,0,0,12.107,27.722V102.57a8.371,8.371,0,0,1-7.649-8.328V24.306a14.821,14.821,0,0,1,14.8-14.8H89.2a8.373,8.373,0,0,1,7.818,5.4H56.532a2.229,2.229,0,1,0,0,4.458H97.559l4.458.033a8.37,8.37,0,0,1,7.649,8.328Z" transform="translate(0 -5.044)" fill="#ebb23f"/>
      </g>
    </g>
  </g>
</svg>
