<svg xmlns="http://www.w3.org/2000/svg" width="40.414" height="40.414" viewBox="0 0 40.414 40.414">
  <g id="icon-facebook" transform="translate(0 0)">
    <g id="Group_2" data-name="Group 2" transform="translate(0 0)">
      <path id="Path_8" data-name="Path 8" d="M35.678,0H4.736A4.741,4.741,0,0,0,0,4.736V35.678a4.741,4.741,0,0,0,4.736,4.736H35.678a4.741,4.741,0,0,0,4.736-4.736V4.736A4.741,4.741,0,0,0,35.678,0Zm1.579,35.678a1.58,1.58,0,0,1-1.579,1.579h-9V24.39h4.877l.806-4.894H26.679V16.1a2.328,2.328,0,0,1,2.368-2.368h3.236V8.841H29.047a7.261,7.261,0,0,0-7.26,7.276V19.5H17.05V24.39h4.738V37.256H4.736a1.58,1.58,0,0,1-1.579-1.579V4.736A1.58,1.58,0,0,1,4.736,3.157H35.678a1.58,1.58,0,0,1,1.579,1.579Z" transform="translate(0 0)" fill="#212226"/>
    </g>
  </g>
</svg>
