<svg xmlns="http://www.w3.org/2000/svg" width="72.55" height="69.182" viewBox="0 0 72.55 69.182">
  <path id="icon-quote" d="M16.836,36.35v5.84h14.59V73.616H0V42.19H0V36.35C0,24.492,3.413,15.686,10.143,10.176,14.8,6.365,20.691,4.433,27.657,4.433V21.267C23.875,21.267,16.836,21.267,16.836,36.35ZM68.782,21.267V4.433c-6.966,0-12.859,1.932-17.514,5.743-6.73,5.51-10.142,14.316-10.142,26.174v5.84h0V73.616H72.55V42.19H57.96V36.35C57.96,21.267,65,21.267,68.782,21.267Z" transform="translate(0 -4.433)" fill="#19191c"/>
</svg>
