<svg xmlns="http://www.w3.org/2000/svg" width="264.154" height="85.41" viewBox="0 0 264.154 85.41">
  <g id="icon-whatsapp" transform="translate(-267 -6880)">
    <g id="Ellipse_9" data-name="Ellipse 9" transform="translate(273.833 6886.833)" fill="none" stroke="#ebb23f" stroke-width="1" opacity="0.7">
      <circle cx="35.872" cy="35.872" r="35.872" stroke="none"/>
      <circle cx="35.872" cy="35.872" r="35.372" fill="none"/>
    </g>
    <g id="Ellipse_10" data-name="Ellipse 10" transform="translate(280.666 6893.666)" fill="none" stroke="#ebb23f" stroke-width="1">
      <circle cx="29.039" cy="29.039" r="29.039" stroke="none"/>
      <circle cx="29.039" cy="29.039" r="28.539" fill="none"/>
    </g>
    <g id="Group_135" data-name="Group 135" transform="translate(284.082 6898.259)">
      <text id="Whatsapp" transform="translate(89.072 32.375)" font-size="28" font-family="Averta-Bold, Averta â˜" font-weight="700" letter-spacing="0.106em"><tspan x="0" y="0">Whatsapp</tspan></text>
      <g id="Group_127" data-name="Group 127" transform="translate(0 0)">
        <path id="XMLID_469_" d="M104.628,95.364c-.1-.047-3.723-1.832-4.367-2.064a2.508,2.508,0,0,0-.844-.187,1.437,1.437,0,0,0-1.221.723c-.362.538-1.459,1.82-1.8,2.2-.044.051-.1.111-.141.111s-.594-.231-.763-.3c-3.889-1.689-6.841-5.752-7.246-6.437a.4.4,0,0,1-.061-.143,1.169,1.169,0,0,1,.212-.251c.2-.2.411-.453.618-.7.1-.118.2-.236.293-.348a3.906,3.906,0,0,0,.589-.935l.081-.163a1.691,1.691,0,0,0-.049-1.591c-.086-.171-1.617-3.866-1.779-4.254-.391-.937-.909-1.373-1.627-1.373-.067,0,0,0-.28.012a8.69,8.69,0,0,0-3.015.775c-.87.548-2.34,2.3-2.34,5.369a11.571,11.571,0,0,0,2.509,6.37c.019.025.053.076.1.149,2.886,4.215,6.484,7.338,10.131,8.8,3.511,1.4,5.174,1.565,6.119,1.565h0a9.559,9.559,0,0,0,1-.059l.178-.017c1.213-.108,3.878-1.489,4.485-3.174a5.017,5.017,0,0,0,.286-3.3A2.288,2.288,0,0,0,104.628,95.364Z" transform="translate(-67.829 -66.787)"/>
        <path id="XMLID_470_" d="M25.308,0A24.363,24.363,0,0,0,.881,24.243,24.065,24.065,0,0,0,4.23,36.5L.034,48.879a.646.646,0,0,0,.807.823l12.9-4.1A24.466,24.466,0,0,0,49.732,24.243,24.362,24.362,0,0,0,25.308,0Zm0,43.434A19.351,19.351,0,0,1,14.661,40.26a.646.646,0,0,0-.55-.075L7.647,42.239l2.087-6.157a.646.646,0,0,0-.091-.589A18.93,18.93,0,0,1,5.959,24.243,19.348,19.348,0,1,1,25.308,43.434Z" transform="translate(0)"/>
      </g>
    </g>
    <g id="Ellipse_11" data-name="Ellipse 11" transform="translate(267 6880)" fill="none" stroke="#ebb23f" stroke-width="1" opacity="0.5">
      <circle cx="42.705" cy="42.705" r="42.705" stroke="none"/>
      <circle cx="42.705" cy="42.705" r="42.205" fill="none"/>
    </g>
  </g>
</svg>
