<svg xmlns="http://www.w3.org/2000/svg" width="61.234" height="43.449" viewBox="0 0 61.234 43.449">
  <path id="icon-camera" d="M59.368,17.035a4.03,4.03,0,0,0-3.876-.265l-8.224,3.8v-.141a3.557,3.557,0,0,0-3.553-3.553H38.674V11.5a3.227,3.227,0,0,0-3.223-3.223H1.074a1.074,1.074,0,0,0,0,2.149H35.451A1.075,1.075,0,0,1,36.525,11.5v5.371H3.553A3.557,3.557,0,0,0,0,20.424V47.7a3.557,3.557,0,0,0,3.553,3.553H43.716A3.556,3.556,0,0,0,47.268,47.7v-.141l8.224,3.8a4.046,4.046,0,0,0,5.742-3.673V20.443A4.028,4.028,0,0,0,59.368,17.035ZM45.12,47.7a1.405,1.405,0,0,1-1.4,1.4H3.553a1.405,1.405,0,0,1-1.4-1.4V20.424a1.405,1.405,0,0,1,1.4-1.4H43.716a1.405,1.405,0,0,1,1.4,1.4V47.7Zm13.966-.018A1.9,1.9,0,0,1,56.393,49.4l-9.125-4.21V22.93l9.124-4.21a1.9,1.9,0,0,1,2.693,1.723Z" transform="translate(0 -8.277)" fill="#ebb23f"/>
</svg>
