<svg xmlns="http://www.w3.org/2000/svg" width="59.958" height="58.405" viewBox="0 0 59.958 58.405">
  <path id="icon-share" d="M52.768,24.841a1.13,1.13,0,0,0-1.6,1.6L55.633,30.9H34.994a26.953,26.953,0,0,0-5.146-14.775l11.1-7.4L39.477,14.64a1.131,1.131,0,0,0,.823,1.37,1.184,1.184,0,0,0,.275.033,1.132,1.132,0,0,0,1.1-.856l2.459-9.866-9.864-2.46a1.13,1.13,0,0,0-.547,2.193l6.306,1.572L28.439,14.351A27.054,27.054,0,0,0,7.908,4.917v2.26a24.8,24.8,0,0,1,18.637,8.436l-4.762,3.175A19.136,19.136,0,0,0,7.908,12.825H6.779V24.213a7.9,7.9,0,0,0,0,15.636V51.237h1.13a19.136,19.136,0,0,0,13.875-5.962l4.762,3.175A24.8,24.8,0,0,1,7.908,56.886v2.26a27.054,27.054,0,0,0,20.53-9.434l11.585,7.723-6.306,1.572a1.13,1.13,0,0,0,.273,2.226,1.167,1.167,0,0,0,.275-.033l9.864-2.46L41.67,48.875a1.13,1.13,0,0,0-2.193.547l1.476,5.917-11.1-7.4a26.953,26.953,0,0,0,5.146-14.775H55.633L51.17,37.624a1.13,1.13,0,1,0,1.6,1.6l7.19-7.19ZM24.8,30.9H15.726a7.869,7.869,0,0,0-1.9-4.1l7.55-5.033A16.843,16.843,0,0,1,24.8,30.9ZM9.038,15.122a16.884,16.884,0,0,1,10.833,4.94l-7.845,5.23a7.843,7.843,0,0,0-2.988-1.079ZM2.26,32.031A5.649,5.649,0,1,1,7.909,37.68,5.656,5.656,0,0,1,2.26,32.031ZM9.038,48.94V39.849a7.846,7.846,0,0,0,2.988-1.079L19.871,44A16.884,16.884,0,0,1,9.038,48.94Zm12.341-6.65-7.55-5.033a7.872,7.872,0,0,0,1.9-4.1H24.8A16.843,16.843,0,0,1,21.379,42.29Zm6.59,4.393L23.25,43.537a19.072,19.072,0,0,0,3.807-10.376h5.677A24.709,24.709,0,0,1,27.968,46.683ZM27.057,30.9A19.072,19.072,0,0,0,23.25,20.526l4.718-3.146A24.709,24.709,0,0,1,32.735,30.9Z" transform="translate(0 -2.83)" fill="#ebb23f"/>
</svg>
