<svg xmlns="http://www.w3.org/2000/svg" width="53.168" height="53.169" viewBox="0 0 53.168 53.169">
  <path id="icon-pencil" d="M50.635,2.532a8.674,8.674,0,0,0-12.249,0l-34.7,34.7c-.016.016-.026.037-.04.054s-.038.048-.056.073a.936.936,0,0,0-.12.23c-.009.025-.021.047-.028.072,0,.01-.009.019-.012.029l-3.4,14.29A.954.954,0,0,0,0,52.178c0,.013,0,.024,0,.037a.957.957,0,0,0,.063.319c.009.024.018.045.029.068a.96.96,0,0,0,.189.285A.968.968,0,0,0,.6,53.1a.955.955,0,0,0,.365.072.968.968,0,0,0,.222-.026l14.29-3.4a.7.7,0,0,0,.074-.029.889.889,0,0,0,.1-.038.948.948,0,0,0,.193-.118c.023-.018.047-.032.069-.052s.017-.012.025-.019l34.7-34.7A8.671,8.671,0,0,0,50.635,2.532ZM49.275,3.893a6.743,6.743,0,0,1,.626,8.793L40.482,3.267A6.742,6.742,0,0,1,49.275,3.893Zm-4.763,14.29L34.984,8.656,36.345,7.3l9.527,9.527ZM4.774,48.393a.961.961,0,0,0-1.361,0l-.728.728L5.143,38.8,9.4,38.325,8.85,43.254a.961.961,0,0,0,.01.106.983.983,0,0,0-.01.106c0,.032.02.058.027.089a.978.978,0,0,0,.048.159.937.937,0,0,0,.091.174.911.911,0,0,0,.1.122.965.965,0,0,0,.151.129.978.978,0,0,0,.133.081,1,1,0,0,0,.2.064,1,1,0,0,0,.1.034.943.943,0,0,0,.1.006h0a.956.956,0,0,0,.1-.006l4.929-.548-.472,4.255L4.046,50.482l.728-.728A.963.963,0,0,0,4.774,48.393Zm12.077-5.273L38.386,21.585a.962.962,0,0,0-1.361-1.361L15.49,41.76l-4.593.51.51-4.593L32.944,16.142a.962.962,0,0,0-1.361-1.361L10.047,36.316l-3.063.341,26.64-26.64,9.527,9.527-26.64,26.64ZM47.233,15.462,37.706,5.935l1.362-1.362L48.594,14.1Z" fill="#ebb23f"/>
</svg>
