<svg xmlns="http://www.w3.org/2000/svg" width="60.284" height="60.284" viewBox="0 0 60.284 60.284">
  <g id="icon-rocket" transform="translate(-1504 -5862)">
    <path id="Path_18" data-name="Path 18" d="M41.482,366.39a.883.883,0,0,0-1.249,0l-3,3a.883.883,0,0,0,1.249,1.249l3-3A.883.883,0,0,0,41.482,366.39Z" transform="translate(1471.381 5538.978)" fill="#ebb23f"/>
    <path id="Path_19" data-name="Path 19" d="M66.29,391.2a.883.883,0,0,0-1.249,0l-3,3a.883.883,0,0,0,1.249,1.249l3-3A.883.883,0,0,0,66.29,391.2Z" transform="translate(1449.494 5517.091)" fill="#ebb23f"/>
    <path id="Path_20" data-name="Path 20" d="M115.905,440.813a.883.883,0,0,0-1.249,0l-3,3a.883.883,0,0,0,1.249,1.249l3-3A.883.883,0,0,0,115.905,440.813Z" transform="translate(1405.721 5473.318)" fill="#ebb23f"/>
    <path id="Path_21" data-name="Path 21" d="M91.1,416.006a.883.883,0,0,0-1.249,0l-3,3a.883.883,0,0,0,1.249,1.249l3-3A.883.883,0,0,0,91.1,416.006Z" transform="translate(1427.608 5495.204)" fill="#ebb23f"/>
    <path id="Path_22" data-name="Path 22" d="M58.084.072,39.6,5.474a.882.882,0,0,0-.377.223l-12.35,12.35-5.518.464A33.393,33.393,0,0,0,.573,28.162a1.949,1.949,0,0,0,1.208,3.319l10.724.937-1.111,1.111a1.763,1.763,0,0,0,0,2.5L12.467,37.1l-2.175,2.175a2.187,2.187,0,0,0,0,3.09l7.632,7.632a2.187,2.187,0,0,0,3.09,0l2.175-2.175L24.2,48.834a1.848,1.848,0,0,0,2.61,0l1.054-1.054L28.8,58.5a1.949,1.949,0,0,0,3.319,1.208A33.121,33.121,0,0,0,39.817,47.7a.883.883,0,1,0-1.656-.613,31.368,31.368,0,0,1-7.287,11.374.181.181,0,0,1-.311-.113L29.5,46.149,40.306,35.341a47.946,47.946,0,0,1-.957,7.739.883.883,0,1,0,1.723.389c.611-2.709.658-4,1.166-10.06l12.35-12.35a.883.883,0,0,0,.223-.377l2.452-8.39h0L60.214,2.2A1.718,1.718,0,0,0,58.084.072ZM1.935,29.722a.181.181,0,0,1-.113-.311,31.625,31.625,0,0,1,19.684-9.14l3.435-.289-10.8,10.8Zm12.534,3.23,4.81,4.81-1.825,1.825-4.812-4.809Zm-.4,10.026a2.25,2.25,0,0,0-.294.365l-2.229-2.229a.424.424,0,0,1,0-.592l2.175-2.175,2.49,2.49ZM16.1,44.929a.527.527,0,0,1-.745-.745l17.6-17.6a.527.527,0,1,1,.745.745L21.9,39.132Zm3.662,3.816a.422.422,0,0,1-.592,0l-2.229-2.229a2.255,2.255,0,0,0,.365-.294l2.142-2.142,2.49,2.49Zm5.8-1.16-.006,0a.079.079,0,0,1-.106,0L20.7,42.831l1.825-1.825,4.81,4.81ZM53.18,19.97l-24.6,24.6-4.81-4.81L35,28.532a2.294,2.294,0,0,0-3.243-3.243L20.529,36.514l-4.81-4.81,24.6-24.6,7.671-2.242L55.422,12.3Zm2.807-9.6L49.919,4.3l8.573-2.506Z" transform="translate(1504 5861.999)" fill="#ebb23f"/>
    <path id="Path_23" data-name="Path 23" d="M306.626,120.5a5.866,5.866,0,0,0-1.738-1.2.883.883,0,1,0-.727,1.61,4.12,4.12,0,1,1-3.394,0,.883.883,0,1,0-.727-1.61,5.885,5.885,0,1,0,6.586,1.2Z" transform="translate(1242.341 5756.818)" fill="#ebb23f"/>
  </g>
</svg>
