<svg xmlns="http://www.w3.org/2000/svg" width="30.331" height="43.071" viewBox="0 0 30.331 43.071">
  <g id="icon-mouse" transform="translate(-75.726)">
    <g id="Group_25" data-name="Group 25" transform="translate(75.726)">
      <g id="Group_24" data-name="Group 24">
        <path id="Path_16" data-name="Path 16" d="M90.891,0A15.3,15.3,0,0,0,75.726,15.4V27.669a15.167,15.167,0,1,0,30.331.047V15.4A15.3,15.3,0,0,0,90.891,0ZM103.2,27.716a12.315,12.315,0,1,1-24.626-.048V15.4a12.315,12.315,0,1,1,24.626,0Z" transform="translate(-75.726)" fill="#fff"/>
      </g>
    </g>
    <g id="Group_27" data-name="Group 27" transform="translate(89.465 11.79)">
      <g id="Group_26" data-name="Group 26">
        <path id="Path_17" data-name="Path 17" d="M240.472,140.15a1.426,1.426,0,0,0-1.426,1.426v4.992a1.426,1.426,0,0,0,2.852,0v-4.992A1.426,1.426,0,0,0,240.472,140.15Z" transform="translate(-239.046 -140.15)" fill="#fff"/>
      </g>
    </g>
  </g>
</svg>
