<svg xmlns="http://www.w3.org/2000/svg" width="121.868" height="121.477" viewBox="0 0 121.868 121.477">
  <g id="icon-draw" transform="translate(0 -0.82)">
    <g id="Group_93" data-name="Group 93" transform="translate(85.811 86.491)">
      <g id="Group_92" data-name="Group 92">
        <path id="Path_35" data-name="Path 35" d="M382.538,360.885a1.789,1.789,0,0,0-1.949.388l-19.548,19.548a1.789,1.789,0,0,0,1.265,3.054h19.548a1.789,1.789,0,0,0,1.789-1.789V362.538A1.789,1.789,0,0,0,382.538,360.885ZM366.624,380.3l13.441-13.441V380.3Z" transform="translate(-360.517 -360.749)" fill="#ebb23f"/>
      </g>
    </g>
    <g id="Group_95" data-name="Group 95" transform="translate(0 0.82)">
      <g id="Group_94" data-name="Group 94">
        <path id="Path_36" data-name="Path 36" d="M120.763,57.957a1.789,1.789,0,0,0-1.949.388L113.457,63.7V27.276a1.789,1.789,0,0,0-1.789-1.789H97.924l4.989-4.989,0,0,4.807-4.807a5.455,5.455,0,0,0,0-7.713l-5.559-5.559a5.455,5.455,0,0,0-7.713,0L89.641,7.227l-5.812,5.812L71.38,25.487H15.857V7.792A1.789,1.789,0,0,0,14.068,6,14.085,14.085,0,0,0,0,20.072V96.045a1.793,1.793,0,0,0,.042.384A13.548,13.548,0,0,0,13.55,108.949H68.209L57.915,119.243A1.789,1.789,0,0,0,59.18,122.3h60.9a1.789,1.789,0,0,0,1.789-1.789v-60.9A1.789,1.789,0,0,0,120.763,57.957ZM96.981,4.947a1.878,1.878,0,0,1,2.654,0l5.559,5.559a1.879,1.879,0,0,1,0,2.654L101.649,16.7,93.436,8.492Zm-6.075,6.074,8.213,8.213-3.282,3.282L87.625,14.3Zm27.385,68.687h-3.3a1.789,1.789,0,0,0,0,3.577h3.3v5.39h-3.3a1.789,1.789,0,0,0,0,3.577h3.3v5.39h-3.3a1.789,1.789,0,0,0,0,3.577h3.3v5.39h-3.3a1.789,1.789,0,0,0,0,3.577h3.3v8.531H63.5l18.068-18.068a1.789,1.789,0,0,0-2.53-2.53l-7.249,7.249H13.55a9.916,9.916,0,0,1-9.964-9.651q.015-.51.079-1.01v-.006q.03-.237.071-.472l.01-.054q.037-.21.084-.417c.009-.039.018-.077.027-.115q.041-.176.088-.349c.017-.063.035-.125.053-.188.026-.091.053-.182.082-.271s.06-.179.091-.267c.022-.062.043-.124.066-.186.044-.117.09-.233.137-.348.014-.033.027-.067.041-.1.061-.143.125-.284.192-.423l.008-.018a10.53,10.53,0,0,1,7.319-5.724l.027-.006c.148-.03.3-.056.448-.08l.075-.013c.136-.021.273-.037.411-.052l.116-.014c.133-.013.266-.022.4-.03l.127-.009q.263-.013.529-.013a1.789,1.789,0,0,0,1.789-1.789V70.8a1.789,1.789,0,1,0-3.577,0V82.089a13.971,13.971,0,0,0-8.035,3.888c-.233.227-.453.463-.668.7V20.072a10.509,10.509,0,0,1,8.7-10.339V63.641h0a1.789,1.789,0,1,0,3.577,0h0V29.065H67.8l-9.888,9.888a1.789,1.789,0,0,0,2.529,2.53L73.386,28.541h0L85.094,16.833l8.212,8.213-.964.964,0,0L56.274,62.079l-8.213-8.213,7.109-7.109a1.789,1.789,0,1,0-2.529-2.53L44.267,52.6a1.8,1.8,0,0,0-.126.141c-.013.016-.025.034-.037.05-.025.034-.05.067-.073.1s-.025.041-.037.063-.039.067-.056.1-.022.045-.032.068-.031.071-.044.106c0,.013-.011.025-.015.037L40.36,63.143l-2.376,6.731a1.808,1.808,0,0,0-.071.272H31.965a1.789,1.789,0,0,0,0,3.577H81.5a1.789,1.789,0,1,0,0-3.577H45.961L56.869,66.3l.027-.011c.042-.016.084-.033.125-.052l.049-.023c.043-.021.085-.045.126-.07l.04-.024c.043-.028.085-.058.126-.09L57.393,66a1.8,1.8,0,0,0,.145-.129L94.347,29.065h15.532V67.279L84.293,92.866a1.789,1.789,0,0,0,0,2.53,1.829,1.829,0,0,0,.136.123,1.788,1.788,0,0,0,2.394-.123h0l31.468-31.468ZM53,63.867l-5.124,1.809-3.414-3.414,1.809-5.124Z" transform="translate(0 -0.82)" fill="#ebb23f"/>
      </g>
    </g>
  </g>
</svg>
