<svg id="icon-video" xmlns="http://www.w3.org/2000/svg" width="127.361" height="127.361" viewBox="0 0 127.361 127.361">
  <path id="Path_29" data-name="Path 29" d="M125.2,123.044a17.289,17.289,0,0,1-17.269-17.269c0-.019-.011-.037-.011-.056a62.656,62.656,0,1,0-3.957,3.812A21.606,21.606,0,0,0,125.2,127.361a2.159,2.159,0,0,0,0-4.317ZM4.317,62.6A58.284,58.284,0,1,1,62.6,120.885,58.349,58.349,0,0,1,4.317,62.6Z" fill="#ebb23f"/>
  <path id="Path_30" data-name="Path 30" d="M57.966,4a53.966,53.966,0,1,0,53.966,53.966A54.028,54.028,0,0,0,57.966,4Zm0,103.616a49.649,49.649,0,1,1,49.649-49.649A49.7,49.7,0,0,1,57.966,107.616Z" transform="translate(4.635 4.635)" fill="#ebb23f"/>
  <path id="Path_31" data-name="Path 31" d="M49.111,22A15.076,15.076,0,0,0,47,22.164l-.05-.089-1.619.414-.063.022a14.843,14.843,0,0,0-2.31.807c-.032.015-.063.032-.095.045a14.858,14.858,0,0,0-2.081,1.146c-.017.011-.037.022-.052.032a15.146,15.146,0,0,0-1.72,1.358c-.11.1-.22.2-.328.3a15.242,15.242,0,0,0-1.4,1.535c-.093.117-.177.237-.268.356a15.081,15.081,0,0,0-1.176,1.8c-.006.013-.015.026-.022.041a15.258,15.258,0,0,0-.889,2.012c-.045.123-.093.246-.136.371a15.13,15.13,0,0,0-.54,2.1c-.024.134-.041.27-.063.406a15.39,15.39,0,0,0-.19,2.29,15.16,15.16,0,0,0,.192,2.292c.022.136.037.27.063.406a14.831,14.831,0,0,0,.54,2.1c.041.125.091.246.136.369a14.979,14.979,0,0,0,.889,2.012c.006.013.015.026.022.041a15.132,15.132,0,0,0,1.174,1.8c.089.119.175.24.268.358a14.991,14.991,0,0,0,1.4,1.535c.108.1.218.2.328.3a15.169,15.169,0,0,0,1.723,1.358l.052.032a15.313,15.313,0,0,0,2.081,1.146c.032.015.063.032.095.045a14.818,14.818,0,0,0,2.308.807l.063.022,1.619.414.05-.089A15.1,15.1,0,1,0,49.111,22ZM46.952,37.111a23.789,23.789,0,0,1-2.157,9.88,10.825,10.825,0,0,1-1.541-.838c-.175-.112-.332-.242-.5-.365a11.312,11.312,0,0,1-1.01-.833c-.147-.136-.291-.274-.427-.417a11.323,11.323,0,0,1-1.006-1.217c-.054-.078-.119-.145-.173-.225a10.767,10.767,0,0,1-.885-1.628c-.071-.162-.127-.332-.192-.5a10.584,10.584,0,0,1-.421-1.353c-.045-.186-.093-.371-.127-.561a10.9,10.9,0,0,1-.194-1.945,10.705,10.705,0,0,1,.2-1.945c.035-.19.082-.376.127-.561a10.583,10.583,0,0,1,.421-1.353c.065-.166.121-.337.192-.5a10.767,10.767,0,0,1,.885-1.628c.052-.078.119-.147.173-.224a10.459,10.459,0,0,1,1.006-1.217c.138-.145.283-.281.427-.417a10.406,10.406,0,0,1,1.01-.833c.166-.121.326-.25.5-.365A10.943,10.943,0,0,1,44.8,27.23,23.821,23.821,0,0,1,46.952,37.111ZM49.111,47.9l-.03,0a27.694,27.694,0,0,0,0-21.582l.03,0a10.793,10.793,0,0,1,0,21.587Z" transform="translate(39.394 25.49)" fill="#ebb23f"/>
  <path id="Path_32" data-name="Path 32" d="M36.938,46.488c.093-.117.177-.237.268-.356a15.283,15.283,0,0,0,1.174-1.8c.009-.015.017-.03.026-.047a14.942,14.942,0,0,0,.887-2.01c.045-.123.093-.244.136-.369a14.783,14.783,0,0,0,.54-2.1c.024-.134.041-.27.063-.4a15.42,15.42,0,0,0,.19-2.292,15.136,15.136,0,0,0-.192-2.292c-.022-.136-.037-.27-.063-.4a14.934,14.934,0,0,0-.54-2.1c-.041-.125-.091-.246-.136-.371a14.8,14.8,0,0,0-.887-2.008c-.009-.015-.017-.03-.026-.047a15.31,15.31,0,0,0-1.174-1.8c-.089-.119-.175-.24-.266-.356a14.991,14.991,0,0,0-1.4-1.535c-.108-.1-.218-.2-.328-.3a15.17,15.17,0,0,0-1.723-1.358l-.052-.03a15.313,15.313,0,0,0-2.081-1.146l-.1-.047a15.071,15.071,0,0,0-2.31-.807c-.022-.006-.041-.015-.06-.022l-1.619-.414-.05.089a15.353,15.353,0,0,0-2.1-.162,15.111,15.111,0,1,0,2.107,30.057l.05.089,1.619-.414.063-.022a14.74,14.74,0,0,0,2.308-.807l.1-.047a15.083,15.083,0,0,0,2.081-1.146c.017-.011.035-.019.05-.03a15.17,15.17,0,0,0,1.723-1.358c.11-.1.22-.2.328-.3A15.243,15.243,0,0,0,36.938,46.488Zm-1.23-7.432c-.035.19-.082.376-.127.561a10.584,10.584,0,0,1-.421,1.353c-.065.166-.121.337-.192.5a10.767,10.767,0,0,1-.885,1.628c-.052.078-.119.147-.173.225A10.462,10.462,0,0,1,32.9,44.539c-.138.145-.283.281-.427.417a10.407,10.407,0,0,1-1.01.833c-.166.121-.326.25-.5.365a10.943,10.943,0,0,1-1.541.838,23.723,23.723,0,0,1,0-19.76,10.824,10.824,0,0,1,1.541.838c.175.112.332.242.5.365a11.313,11.313,0,0,1,1.01.833c.147.136.291.274.427.417A11.323,11.323,0,0,1,33.911,30.9c.054.078.119.145.173.224a10.767,10.767,0,0,1,.885,1.628c.071.162.127.332.192.5a10.584,10.584,0,0,1,.421,1.353c.045.186.093.371.127.561a10.9,10.9,0,0,1,.194,1.945A10.705,10.705,0,0,1,35.707,39.056Zm-21.39-1.945A10.806,10.806,0,0,1,25.111,26.317l.03,0a27.694,27.694,0,0,0,0,21.582l-.03,0A10.806,10.806,0,0,1,14.317,37.111Z" transform="translate(11.587 25.49)" fill="#ebb23f"/>
  <path id="Path_33" data-name="Path 33" d="M22.076,27.267l.414,1.619c.006.022.015.041.022.063a14.74,14.74,0,0,0,.807,2.308c.015.032.032.063.045.095a15.082,15.082,0,0,0,1.146,2.081l.032.052A15.364,15.364,0,0,0,25.9,35.207c.1.11.2.22.3.328a15.242,15.242,0,0,0,1.535,1.4c.117.093.237.179.356.268a15.082,15.082,0,0,0,1.8,1.176.246.246,0,0,0,.041.022,15.258,15.258,0,0,0,2.012.889c.123.045.244.093.369.136a15.128,15.128,0,0,0,2.1.54c.134.024.27.041.406.063a15.445,15.445,0,0,0,2.292.19,15.16,15.16,0,0,0,2.292-.192c.136-.022.27-.037.406-.063a14.83,14.83,0,0,0,2.1-.54c.125-.041.246-.091.371-.136a14.98,14.98,0,0,0,2.012-.889c.013-.006.026-.015.041-.022a15.082,15.082,0,0,0,1.8-1.176c.119-.089.24-.175.356-.268a14.991,14.991,0,0,0,1.535-1.4c.1-.108.2-.218.3-.328a15.147,15.147,0,0,0,1.358-1.72l.032-.052a15.314,15.314,0,0,0,1.146-2.081c.015-.032.032-.063.045-.095a15.07,15.07,0,0,0,.807-2.31c.006-.022.015-.041.022-.063l.414-1.619-.089-.05a15.352,15.352,0,0,0,.162-2.1,15.111,15.111,0,1,0-30.057,2.107Zm24.078,3.7c-.112.175-.242.332-.365.5a11.312,11.312,0,0,1-.833,1.01c-.136.145-.274.291-.417.427a11.324,11.324,0,0,1-1.217,1.006c-.078.054-.145.119-.225.173a10.767,10.767,0,0,1-1.628.885c-.162.071-.332.127-.5.192a10.584,10.584,0,0,1-1.353.421c-.186.045-.371.093-.561.127a9.727,9.727,0,0,1-3.89,0c-.19-.035-.376-.082-.561-.127a10.584,10.584,0,0,1-1.353-.421c-.166-.065-.335-.121-.5-.192a10.767,10.767,0,0,1-1.628-.885c-.078-.052-.147-.119-.224-.173A10.683,10.683,0,0,1,29.683,32.9c-.145-.138-.281-.283-.417-.427a10.729,10.729,0,0,1-.833-1.01c-.121-.166-.25-.326-.365-.5a10.727,10.727,0,0,1-.838-1.541,24.074,24.074,0,0,1,19.76,0A10.824,10.824,0,0,1,46.153,30.967Zm-9.043-16.65A10.806,10.806,0,0,1,47.9,25.111c0,.013,0,.026,0,.039a28.664,28.664,0,0,0-21.578,0c0-.013,0-.026,0-.039A10.806,10.806,0,0,1,37.111,14.317Z" transform="translate(25.49 11.587)" fill="#ebb23f"/>
  <path id="Path_34" data-name="Path 34" d="M52.146,46.954l-.414-1.619c-.006-.022-.015-.041-.022-.06a15.07,15.07,0,0,0-.807-2.31c-.015-.032-.032-.065-.047-.1a15.084,15.084,0,0,0-1.146-2.081c-.011-.017-.019-.035-.03-.052a15.169,15.169,0,0,0-1.358-1.723c-.1-.11-.2-.22-.3-.328a14.991,14.991,0,0,0-1.535-1.4c-.117-.093-.237-.177-.356-.266a15.131,15.131,0,0,0-1.8-1.174l-.047-.026a15.037,15.037,0,0,0-2.008-.887c-.123-.045-.246-.093-.371-.136a15.081,15.081,0,0,0-2.1-.54c-.134-.024-.268-.041-.4-.063a15.367,15.367,0,0,0-2.29-.19,15.136,15.136,0,0,0-2.292.192c-.136.022-.27.037-.4.063a15.238,15.238,0,0,0-2.1.54c-.125.041-.246.091-.369.136a14.942,14.942,0,0,0-2.01.887l-.047.026a15.014,15.014,0,0,0-1.8,1.174c-.119.089-.24.175-.356.268a14.991,14.991,0,0,0-1.535,1.4c-.1.108-.2.218-.3.328a14.982,14.982,0,0,0-1.358,1.723c-.011.017-.019.035-.03.052a15.083,15.083,0,0,0-1.146,2.081c-.015.032-.032.065-.047.1a15.045,15.045,0,0,0-.807,2.308c-.006.022-.017.041-.022.063l-.414,1.619.089.05a14.963,14.963,0,0,0-.164,2.1A15.111,15.111,0,1,0,52.057,47Zm-24.078-3.7c.112-.175.242-.332.365-.5a11.313,11.313,0,0,1,.833-1.01c.136-.145.274-.291.417-.427A11.322,11.322,0,0,1,30.9,40.312c.078-.054.145-.119.224-.173a10.768,10.768,0,0,1,1.628-.885c.162-.071.332-.127.5-.192a10.583,10.583,0,0,1,1.353-.421c.186-.045.371-.093.561-.127a9.727,9.727,0,0,1,3.89,0c.19.035.376.082.561.127a10.583,10.583,0,0,1,1.353.421c.166.065.335.121.5.192a10.767,10.767,0,0,1,1.628.885c.078.052.147.119.225.173a10.682,10.682,0,0,1,1.217,1.006c.145.138.281.283.417.427a10.733,10.733,0,0,1,.833,1.01c.121.166.25.326.365.5a10.727,10.727,0,0,1,.838,1.541,24.074,24.074,0,0,1-19.76,0A10.823,10.823,0,0,1,28.068,43.254ZM37.111,59.9A10.806,10.806,0,0,1,26.317,49.111c0-.011,0-.019,0-.03a27.694,27.694,0,0,0,21.582,0c0,.011,0,.019,0,.03A10.806,10.806,0,0,1,37.111,59.9Z" transform="translate(25.49 39.394)" fill="#ebb23f"/>
</svg>
