<svg xmlns="http://www.w3.org/2000/svg" width="40.414" height="40.414" viewBox="0 0 40.414 40.414">
  <g id="icon-behance" transform="translate(0 0)">
    <path id="Path_4" data-name="Path 4" d="M94.935,159.678a5.609,5.609,0,0,0,1.837-.837,4.117,4.117,0,0,0,1.277-1.462,4.979,4.979,0,0,0-.26-4.708,3.854,3.854,0,0,0-2.218-1.5,4.018,4.018,0,0,0,1.648-1.332,3.541,3.541,0,0,0,.553-2.034,4.34,4.34,0,0,0-.369-1.894,3.125,3.125,0,0,0-1.054-1.232,4.6,4.6,0,0,0-1.631-.666,9.934,9.934,0,0,0-2.106-.2H85V159.95h7.826A8.189,8.189,0,0,0,94.935,159.678Zm-6.38-13.123h3.326a4.777,4.777,0,0,1,.914.08,2.212,2.212,0,0,1,.782.284,1.47,1.47,0,0,1,.548.561,1.916,1.916,0,0,1,.2.927,1.7,1.7,0,0,1-.607,1.468,2.573,2.573,0,0,1-1.564.453h-3.6Zm0,10.645v-4.446h3.865a3,3,0,0,1,1.854.53,2.107,2.107,0,0,1,.7,1.782,2.231,2.231,0,0,1-.213,1.046,1.71,1.71,0,0,1-.578.644,2.353,2.353,0,0,1-.838.342,4.57,4.57,0,0,1-1,.1Zm0,0" transform="translate(-77.917 -131.822)" fill="#212226"/>
    <path id="Path_5" data-name="Path 5" d="M261.43,203.925a5.3,5.3,0,0,0,1.888,1.257,6.731,6.731,0,0,0,2.494.443,6.069,6.069,0,0,0,3.385-.91,5.365,5.365,0,0,0,2.084-3.017h-2.828a2.065,2.065,0,0,1-.858,1.036,3.272,3.272,0,0,1-3.753-.216,3.274,3.274,0,0,1-.795-2.269h8.436a8.277,8.277,0,0,0-.223-2.6,6.343,6.343,0,0,0-1.027-2.219,5.179,5.179,0,0,0-1.823-1.549,5.536,5.536,0,0,0-2.6-.578,6.073,6.073,0,0,0-2.438.476,5.668,5.668,0,0,0-3.119,3.262,6.858,6.858,0,0,0-.432,2.445,7.145,7.145,0,0,0,.42,2.492A5.75,5.75,0,0,0,261.43,203.925Zm1.764-6.469a2.3,2.3,0,0,1,.431-.824,2.578,2.578,0,0,1,.813-.644,2.758,2.758,0,0,1,1.277-.262,2.4,2.4,0,0,1,1.817.651,3.128,3.128,0,0,1,.74,1.85h-5.225A3.652,3.652,0,0,1,263.194,197.455Zm0,0" transform="translate(-238.173 -177.194)" fill="#212226"/>
    <path id="Path_6" data-name="Path 6" d="M290.637,156.8h6.545v1.593h-6.545Zm0,0" transform="translate(-266.419 -143.735)" fill="#212226"/>
    <path id="Path_7" data-name="Path 7" d="M0,0V40.414H40.414V0ZM37.914,37.914H2.5V2.5H37.914Zm0,0" fill="#212226"/>
  </g>
</svg>
