<svg xmlns="http://www.w3.org/2000/svg" width="21.583" height="28.577" viewBox="0 0 21.583 28.577">
  <g id="icon-arrow-down-black" transform="translate(21.025 0.5) rotate(90)">
    <g id="Grupo_361" data-name="Grupo 361">
      <g id="Grupo_359" data-name="Grupo 359" transform="translate(0 9.554)">
        <path id="Caminho_148" data-name="Caminho 148" d="M225.861,304.047H199.524a.716.716,0,0,1,0-1.419h26.338a.716.716,0,0,1,0,1.419Z" transform="translate(-198.904 -302.628)" stroke="#000" stroke-width="1"/>
      </g>
      <g id="Grupo_360" data-name="Grupo 360" transform="translate(15.104)">
        <path id="Caminho_149" data-name="Caminho 149" d="M213.078,315.362a.758.758,0,0,1-.5-.182.563.563,0,0,1,0-.875l10.552-9.2-10.552-9.207a.563.563,0,0,1,0-.875.785.785,0,0,1,1,0l11.052,9.644a.563.563,0,0,1,0,.875l-11.052,9.643A.764.764,0,0,1,213.078,315.362Z" transform="translate(-212.369 -294.837)" stroke="#000" stroke-width="1"/>
      </g>
    </g>
  </g>
</svg>
