<svg xmlns="http://www.w3.org/2000/svg" xmlns:xlink="http://www.w3.org/1999/xlink" width="66" height="75" viewBox="0 0 66 75">
  <defs>
    <clipPath id="clip-path">
      <rect id="Ret창ngulo_34" data-name="Ret창ngulo 34" width="66" height="75" transform="translate(0.044 0)" fill="none"/>
    </clipPath>
  </defs>
  <g id="icon-2" transform="translate(-652 -464)">
    <rect id="Ret창ngulo_35" data-name="Ret창ngulo 35" width="14" height="20" transform="translate(662 482)" fill="#e7fd17"/>
    <g id="Grupo_371" data-name="Grupo 371" transform="translate(651.955 463.843)">
      <g id="Grupo_370" data-name="Grupo 370" transform="translate(0 0.157)" clip-path="url(#clip-path)">
        <path id="Caminho_161" data-name="Caminho 161" d="M9.017,35.046H4.509A4.514,4.514,0,0,1,0,30.538V15.509A4.514,4.514,0,0,1,4.509,11H9.017a1.5,1.5,0,0,1,1.5,1.5v21.04a1.5,1.5,0,0,1-1.5,1.5M4.509,14.006a1.505,1.505,0,0,0-1.5,1.5V30.538a1.505,1.505,0,0,0,1.5,1.5H7.514V14.006Z" transform="translate(0 5.388)" fill="#262626"/>
        <path id="Caminho_162" data-name="Caminho 162" d="M18.526,35.045H6.5a1.5,1.5,0,0,1-1.5-1.5V12.5A1.5,1.5,0,0,1,6.5,11H18.526a6.019,6.019,0,0,1,6.012,6.012V29.034a6.018,6.018,0,0,1-6.012,6.012M8.006,32.039h10.52a3.009,3.009,0,0,0,3.006-3.006V17.011A3.009,3.009,0,0,0,18.526,14H8.006Z" transform="translate(2.514 5.388)" fill="#262626"/>
        <path id="Caminho_163" data-name="Caminho 163" d="M54.933,75.143h-29.7a1.5,1.5,0,0,1-1.5-1.5V65a1.5,1.5,0,0,0-1.5-1.5h-6.2a7.523,7.523,0,0,1-7.514-7.514V47.674l-4.435-1.48A4.509,4.509,0,0,1,1.64,39.6l.8-1.324a1.484,1.484,0,0,1,1.428-.724l.158.02,16.518,0a3.009,3.009,0,0,0,3.006-3.006V22.542a3.009,3.009,0,0,0-3.006-3.006h-8.4a1.5,1.5,0,0,1-1.384-2.088A28.551,28.551,0,1,1,56.436,49.5V73.64a1.5,1.5,0,0,1-1.5,1.5M26.739,72.138H53.43v-23.3a1.5,1.5,0,0,1,.509-1.127A25.539,25.539,0,1,0,14.52,16.531h6.019a6.019,6.019,0,0,1,6.012,6.012V34.565a6.018,6.018,0,0,1-6.012,6.012H4.557l-.34.567a1.5,1.5,0,0,0,.813,2.2l5.463,1.823a1.5,1.5,0,0,1,1.028,1.425v9.393a4.514,4.514,0,0,0,4.509,4.509h6.2A4.514,4.514,0,0,1,26.739,65Z" transform="translate(0.501 -0.144)" fill="#262626"/>
        <path id="Caminho_164" data-name="Caminho 164" d="M54.933,75.144h-29.7a1.5,1.5,0,0,1-1.5-1.5V65a1.5,1.5,0,0,0-1.5-1.5h-6.2a7.524,7.524,0,0,1-7.514-7.514V47.673L4.081,46.194a4.509,4.509,0,0,1-2.439-6.6l.8-1.324a1.482,1.482,0,0,1,1.428-.723l.156.02,16.518,0a3.01,3.01,0,0,0,3.006-3.006V22.543a3.009,3.009,0,0,0-3.006-3.006h-8.4a1.5,1.5,0,0,1-1.386-2.088A28.548,28.548,0,0,1,64.9,22.21a1.506,1.506,0,0,1-1.465,1.837H26.551v9.017H63.442A1.5,1.5,0,0,1,64.906,34.9a28.36,28.36,0,0,1-8.47,14.6V73.641a1.5,1.5,0,0,1-1.5,1.5M26.739,72.139H53.43v-23.3a1.5,1.5,0,0,1,.509-1.127,25.435,25.435,0,0,0,7.544-11.638H26.361a6.024,6.024,0,0,1-5.822,4.509H4.559l-.34.565a1.5,1.5,0,0,0-.12,1.3,1.483,1.483,0,0,0,.933.9L10.5,45.165a1.5,1.5,0,0,1,1.026,1.425v9.393a4.513,4.513,0,0,0,4.509,4.509h6.2A4.514,4.514,0,0,1,26.739,65Zm-.377-51.1H61.475a25.542,25.542,0,0,0-46.953-4.509h6.018a6.024,6.024,0,0,1,5.822,4.509" transform="translate(0.501 -0.144)" fill="#262626"/>
      </g>
    </g>
  </g>
</svg>
