<svg xmlns="http://www.w3.org/2000/svg" xmlns:xlink="http://www.w3.org/1999/xlink" width="86.678" height="82.674" viewBox="0 0 86.678 82.674">
  <defs>
    <clipPath id="clip-path">
      <rect id="Ret창ngulo_32" data-name="Ret창ngulo 32" width="86.678" height="82.674" fill="none"/>
    </clipPath>
  </defs>
  <g id="icon-5" transform="translate(-349.661 -457.326)">
    <rect id="Ret창ngulo_33" data-name="Ret창ngulo 33" width="28" height="24" transform="translate(368 504)" fill="#e7fd17"/>
    <g id="Grupo_369" data-name="Grupo 369" transform="translate(349.661 457.326)">
      <g id="Grupo_368" data-name="Grupo 368" transform="translate(0 0)" clip-path="url(#clip-path)">
        <path id="Caminho_152" data-name="Caminho 152" d="M72.55,48.547a1.683,1.683,0,0,1-1.687-1.687V38.806H1.688a1.687,1.687,0,0,1-.844-3.148L62.213.226a1.688,1.688,0,0,1,2.3.618L69.579,9.61a1.681,1.681,0,0,1,0,1.686A11.951,11.951,0,0,0,79.93,29.223a1.691,1.691,0,0,1,1.459.844l5.062,8.769a1.688,1.688,0,0,1-.618,2.3l-12.44,7.183a1.694,1.694,0,0,1-.844.224M7.983,35.432H72.55a1.687,1.687,0,0,1,1.687,1.687v6.818l8.446-4.878-3.749-6.494A15.322,15.322,0,0,1,66.188,10.488l-3.751-6.5Z" transform="translate(0.001 0)" fill="#262626"/>
        <path id="Caminho_153" data-name="Caminho 153" d="M44.135,29.745H13.687a1.687,1.687,0,0,1-.844-3.148L35.68,13.411a1.689,1.689,0,0,1,2.3.619L45.6,27.214a1.687,1.687,0,0,1-1.463,2.531M19.984,26.371H41.213l-5.306-9.192Z" transform="translate(8.247 9.061)" fill="#262626"/>
        <path id="Caminho_154" data-name="Caminho 154" d="M32.891,11.7a1.6,1.6,0,0,1-.268-.022,1.7,1.7,0,0,1-1.2-.825l-.844-1.461a1.687,1.687,0,0,1,2.914-1.7l.857,1.453a1.68,1.68,0,0,1,.147,1.392,1.732,1.732,0,0,1-.41.668,1.7,1.7,0,0,1-1.2.5" transform="translate(20.862 4.711)" fill="#262626"/>
        <path id="Caminho_155" data-name="Caminho 155" d="M41.3,26.253a2.05,2.05,0,0,1-.268-.02,1.708,1.708,0,0,1-1.2-.828l-1.687-2.921a1.687,1.687,0,0,1,2.917-1.694l1.7,2.914a1.686,1.686,0,0,1,.167,1.313,1.735,1.735,0,0,1-.434.741,1.694,1.694,0,0,1-1.2.5m-5.063-8.767a1.774,1.774,0,0,1-.386-.044,1.714,1.714,0,0,1-1.078-.8l-1.687-2.921A1.687,1.687,0,0,1,36,12.023l1.7,2.912a1.691,1.691,0,0,1,.167,1.314,1.735,1.735,0,0,1-.434.741,1.7,1.7,0,0,1-1.2.5" transform="translate(22.58 7.687)" fill="#262626"/>
        <path id="Caminho_156" data-name="Caminho 156" d="M72.551,68.242H1.687A1.686,1.686,0,0,1,0,66.555V56.432a1.684,1.684,0,0,1,.842-1.459A12,12,0,0,0,6.82,44.621,12,12,0,0,0,.842,34.27,1.686,1.686,0,0,1,0,32.811V22.687A1.686,1.686,0,0,1,1.687,21H72.551a1.686,1.686,0,0,1,1.687,1.687V32.811A1.686,1.686,0,0,1,73.4,34.27a11.951,11.951,0,0,0,0,20.7,1.686,1.686,0,0,1,.842,1.459V66.555a1.686,1.686,0,0,1-1.687,1.687M3.374,64.868H70.864v-7.5a15.323,15.323,0,0,1,0-25.494v-7.5H3.374v7.5a15.388,15.388,0,0,1,6.82,12.747,15.384,15.384,0,0,1-6.82,12.747Z" transform="translate(0 14.432)" fill="#262626"/>
        <path id="Caminho_157" data-name="Caminho 157" d="M33.691,27.07a1.7,1.7,0,0,1-1.7-1.7V23.687A1.686,1.686,0,0,1,33.674,22h.008a1.689,1.689,0,0,1,1.687,1.67l.017,1.687a1.681,1.681,0,0,1-.494,1.21,1.711,1.711,0,0,1-1.2.5" transform="translate(21.988 15.119)" fill="#262626"/>
        <path id="Caminho_158" data-name="Caminho 158" d="M33.691,54a1.7,1.7,0,0,1-1.7-1.7V48.934a1.686,1.686,0,0,1,1.684-1.687h0a1.687,1.687,0,0,1,1.687,1.679l.017,3.374a1.692,1.692,0,0,1-.494,1.2,1.711,1.711,0,0,1-1.2.5m0-10.123a1.7,1.7,0,0,1-1.7-1.7V38.811a1.686,1.686,0,0,1,1.684-1.687h0A1.687,1.687,0,0,1,35.369,38.8l.017,3.374a1.692,1.692,0,0,1-.494,1.2,1.711,1.711,0,0,1-1.2.5m0-10.123a1.7,1.7,0,0,1-1.7-1.7V28.687A1.686,1.686,0,0,1,33.679,27h0a1.687,1.687,0,0,1,1.687,1.679l.017,3.374a1.692,1.692,0,0,1-.494,1.2,1.711,1.711,0,0,1-1.2.5" transform="translate(21.988 18.555)" fill="#262626"/>
        <path id="Caminho_159" data-name="Caminho 159" d="M33.691,50.07a1.7,1.7,0,0,1-1.7-1.7V46.687A1.686,1.686,0,0,1,33.674,45h.008a1.689,1.689,0,0,1,1.687,1.67l.017,1.687a1.681,1.681,0,0,1-.494,1.21,1.711,1.711,0,0,1-1.2.5" transform="translate(21.988 30.925)" fill="#262626"/>
        <path id="Caminho_160" data-name="Caminho 160" d="M38.7,54h-27a1.687,1.687,0,0,1-1.687-1.687V28.687A1.687,1.687,0,0,1,11.708,27h27a1.686,1.686,0,0,1,1.687,1.687V52.308A1.686,1.686,0,0,1,38.7,54M13.4,50.621H37.017V30.374H13.4Z" transform="translate(6.887 18.555)" fill="#262626"/>
      </g>
    </g>
  </g>
</svg>
