<svg xmlns="http://www.w3.org/2000/svg" xmlns:xlink="http://www.w3.org/1999/xlink" width="79.684" height="80.22" viewBox="0 0 79.684 80.22">
  <defs>
    <clipPath id="clip-path">
      <rect id="Retângulo_36" data-name="Retângulo 36" width="79.684" height="80.22" fill="none"/>
    </clipPath>
  </defs>
  <g id="icon-3" transform="translate(-966 -465.91)">
    <path id="Caminho_180" data-name="Caminho 180" d="M11168.185,509.647h6.281l9.419-7.125v23.308l-9.419-7.246h-6.281Z" transform="translate(-10174.932 -5.747)" fill="#e7fd17"/>
    <g id="Grupo_373" data-name="Grupo 373" transform="translate(966 465.91)">
      <g id="Grupo_372" data-name="Grupo 372" transform="translate(0 0)" clip-path="url(#clip-path)">
        <path id="Caminho_165" data-name="Caminho 165" d="M10.717,56.628a6.4,6.4,0,1,1,6.4-6.4,6.4,6.4,0,0,1-6.4,6.4m0-10.4a4,4,0,1,0,4.005,4.005,4.01,4.01,0,0,0-4.005-4.005" transform="translate(0.846 8.588)" fill="#262626"/>
        <path id="Caminho_166" data-name="Caminho 166" d="M21.929,69.143a1.2,1.2,0,0,1-1.2-1.2v-6.2a2.816,2.816,0,0,0-2.813-2.812H5.2a2.815,2.815,0,0,0-2.812,2.812v6.2a1.2,1.2,0,1,1-2.392,0v-6.2a5.21,5.21,0,0,1,5.2-5.2H17.921a5.21,5.21,0,0,1,5.2,5.2v6.2a1.2,1.2,0,0,1-1.2,1.2" transform="translate(0 11.077)" fill="#262626"/>
        <path id="Caminho_167" data-name="Caminho 167" d="M58.01,56.628a6.4,6.4,0,1,1,6.4-6.4,6.4,6.4,0,0,1-6.4,6.4m0-10.4a4,4,0,1,0,4.005,4.005,4.01,4.01,0,0,0-4.005-4.005" transform="translate(10.111 8.588)" fill="#262626"/>
        <path id="Caminho_168" data-name="Caminho 168" d="M69.222,69.143a1.2,1.2,0,0,1-1.2-1.2v-6.2a2.815,2.815,0,0,0-2.812-2.812H52.5a2.816,2.816,0,0,0-2.813,2.812v6.2a1.2,1.2,0,1,1-2.392,0v-6.2a5.21,5.21,0,0,1,5.2-5.2H65.215a5.21,5.21,0,0,1,5.2,5.2v6.2a1.2,1.2,0,0,1-1.2,1.2" transform="translate(9.265 11.077)" fill="#262626"/>
        <path id="Caminho_169" data-name="Caminho 169" d="M10.717,12.793a6.4,6.4,0,1,1,6.4-6.4,6.405,6.405,0,0,1-6.4,6.4m0-10.4a4,4,0,1,0,4.005,4,4.01,4.01,0,0,0-4.005-4" transform="translate(0.846 0)" fill="#262626"/>
        <path id="Caminho_170" data-name="Caminho 170" d="M21.929,25.308a1.2,1.2,0,0,1-1.2-1.2v-6.2A2.816,2.816,0,0,0,17.921,15.1H5.2a2.815,2.815,0,0,0-2.812,2.812v6.2a1.2,1.2,0,1,1-2.392,0v-6.2a5.21,5.21,0,0,1,5.2-5.2H17.921a5.21,5.21,0,0,1,5.2,5.2v6.2a1.2,1.2,0,0,1-1.2,1.2" transform="translate(0 2.489)" fill="#262626"/>
        <path id="Caminho_171" data-name="Caminho 171" d="M58.01,12.793a6.4,6.4,0,1,1,6.4-6.4,6.405,6.405,0,0,1-6.4,6.4m0-10.4a4,4,0,1,0,4.005,4,4.01,4.01,0,0,0-4.005-4" transform="translate(10.111 0)" fill="#262626"/>
        <path id="Caminho_172" data-name="Caminho 172" d="M69.222,25.308a1.2,1.2,0,0,1-1.2-1.2v-6.2A2.815,2.815,0,0,0,65.215,15.1H52.5a2.816,2.816,0,0,0-2.813,2.812v6.2a1.2,1.2,0,1,1-2.392,0v-6.2a5.21,5.21,0,0,1,5.2-5.2H65.215a5.21,5.21,0,0,1,5.2,5.2v6.2a1.2,1.2,0,0,1-1.2,1.2" transform="translate(9.265 2.489)" fill="#262626"/>
        <path id="Caminho_173" data-name="Caminho 173" d="M50.656,31.87a1.2,1.2,0,0,1-.775-2.108l7.174-6.088A1.2,1.2,0,1,1,58.6,25.5l-7.175,6.09a1.191,1.191,0,0,1-.773.283" transform="translate(9.69 4.582)" fill="#262626"/>
        <path id="Caminho_174" data-name="Caminho 174" d="M48.086,57.793a1.191,1.191,0,0,1-.773-.283l-8.857-7.515A1.2,1.2,0,0,1,40,48.169l8.856,7.515a1.2,1.2,0,0,1-.775,2.108" transform="translate(7.451 9.382)" fill="#262626"/>
        <path id="Caminho_175" data-name="Caminho 175" d="M20.386,58.1a1.2,1.2,0,0,1-.775-2.108l11.078-9.4a1.2,1.2,0,1,1,1.549,1.824l-11.078,9.4a1.2,1.2,0,0,1-.774.283" transform="translate(3.759 9.073)" fill="#262626"/>
        <path id="Caminho_176" data-name="Caminho 176" d="M19.817,33.8a1.191,1.191,0,0,1-.773-.283L9.592,25.5a1.2,1.2,0,0,1,1.549-1.825l9.451,8.021a1.2,1.2,0,0,1-.775,2.108" transform="translate(1.797 4.583)" fill="#262626"/>
        <path id="Caminho_177" data-name="Caminho 177" d="M41.257,43.189a1.2,1.2,0,0,1-.846-2.041,6.13,6.13,0,0,0,0-8.657A1.2,1.2,0,0,1,42.1,30.8a8.524,8.524,0,0,1,0,12.039,1.192,1.192,0,0,1-.844.35" transform="translate(7.848 5.965)" fill="#262626"/>
        <path id="Caminho_178" data-name="Caminho 178" d="M44.334,47.473a1.2,1.2,0,0,1-.846-2.041,11.342,11.342,0,0,0,0-16.021,1.2,1.2,0,0,1,1.691-1.691,13.735,13.735,0,0,1,0,19.4,1.193,1.193,0,0,1-.846.35" transform="translate(8.451 5.362)" fill="#262626"/>
        <path id="Caminho_179" data-name="Caminho 179" d="M38.3,50.534a2.287,2.287,0,0,1-1.515-.576l-8.153-6.076H24.171a2.742,2.742,0,0,1-2.739-2.74V34.48a2.742,2.742,0,0,1,2.739-2.74h4.457l8.194-6.112A2.312,2.312,0,0,1,40.616,27.4V48.217a2.286,2.286,0,0,1-1.359,2.106,2.322,2.322,0,0,1-.962.21m-14.125-16.4a.352.352,0,0,0-.347.348v6.661a.351.351,0,0,0,.347.348h4.854a1.2,1.2,0,0,1,.715.238l8.484,6.328V27.566L29.74,33.9a1.194,1.194,0,0,1-.715.237Zm13.4-7.569h0Z" transform="translate(4.199 4.915)" fill="#262626"/>
      </g>
    </g>
  </g>
</svg>
