<svg xmlns="http://www.w3.org/2000/svg" width="55.546" height="63.122" viewBox="0 0 55.546 63.122">
  <g id="icon-vr" transform="translate(-565.491 -801.878)">
    <rect id="Retângulo_35" data-name="Retângulo 35" width="12" height="17" transform="translate(601 817)" fill="#e7fd17"/>
    <path id="Caminho_161" data-name="Caminho 161" d="M1.262,31.2H5.05a3.792,3.792,0,0,0,3.787-3.787V14.787A3.792,3.792,0,0,0,5.05,11H1.262A1.263,1.263,0,0,0,0,12.262V29.936A1.263,1.263,0,0,0,1.262,31.2M5.05,13.525a1.265,1.265,0,0,1,1.262,1.262V27.412A1.265,1.265,0,0,1,5.05,28.674H2.525V13.525Z" transform="translate(612.201 804.766)"/>
    <path id="Caminho_162" data-name="Caminho 162" d="M10.05,31.2h10.1a1.262,1.262,0,0,0,1.262-1.262V12.261A1.263,1.263,0,0,0,20.149,11H10.05A5.056,5.056,0,0,0,5,16.049v10.1a5.055,5.055,0,0,0,5.05,5.05m8.837-2.525H10.05a2.527,2.527,0,0,1-2.525-2.525v-10.1a2.527,2.527,0,0,1,2.525-2.525h8.837Z" transform="translate(593.314 804.766)"/>
    <path id="Caminho_163" data-name="Caminho 163" d="M9.979,63.12H34.924a1.262,1.262,0,0,0,1.262-1.262V54.6a1.264,1.264,0,0,1,1.262-1.262h5.207a6.319,6.319,0,0,0,6.312-6.312v-6.98L52.694,38.8a3.787,3.787,0,0,0,2.05-5.541l-.668-1.112a1.247,1.247,0,0,0-1.2-.608l-.133.016-13.875,0a2.527,2.527,0,0,1-2.525-2.525v-10.1a2.527,2.527,0,0,1,2.525-2.525h7.054a1.262,1.262,0,0,0,1.163-1.754A23.983,23.983,0,1,0,8.716,41.581V61.858A1.261,1.261,0,0,0,9.979,63.12M33.662,60.6H11.241V41.02a1.26,1.26,0,0,0-.428-.947A21.453,21.453,0,1,1,43.925,13.886H38.869a5.056,5.056,0,0,0-5.05,5.05v10.1a5.055,5.055,0,0,0,5.05,5.05H52.294l.285.476a1.263,1.263,0,0,1-.683,1.847l-4.589,1.531a1.259,1.259,0,0,0-.863,1.2v7.89a3.792,3.792,0,0,1-3.787,3.787H37.449A3.792,3.792,0,0,0,33.662,54.6Z" transform="translate(564.495 801.879)"/>
    <path id="Caminho_164" data-name="Caminho 164" d="M9.407,63.121H34.352a1.263,1.263,0,0,0,1.262-1.262V54.6a1.264,1.264,0,0,1,1.262-1.262h5.207A6.32,6.32,0,0,0,48.4,47.025v-6.98L52.122,38.8a3.788,3.788,0,0,0,2.049-5.542L53.5,32.149a1.244,1.244,0,0,0-1.2-.607l-.131.016-13.875,0a2.528,2.528,0,0,1-2.525-2.525v-10.1A2.527,2.527,0,0,1,38.3,16.412h7.053a1.262,1.262,0,0,0,1.164-1.754,23.981,23.981,0,0,0-45.476,4A1.265,1.265,0,0,0,2.269,20.2H33.248v7.575H2.259a1.262,1.262,0,0,0-1.23,1.544A23.822,23.822,0,0,0,8.144,41.582V61.859a1.262,1.262,0,0,0,1.262,1.262M33.09,60.6H10.669V41.021a1.258,1.258,0,0,0-.428-.947A21.365,21.365,0,0,1,3.9,30.3h29.5A5.06,5.06,0,0,0,38.3,34.085H51.721l.285.475a1.259,1.259,0,0,1,.1,1.089,1.246,1.246,0,0,1-.784.757l-4.589,1.531a1.261,1.261,0,0,0-.862,1.2v7.89a3.791,3.791,0,0,1-3.787,3.787H36.877A3.792,3.792,0,0,0,33.09,54.6Zm.317-42.922H3.911a21.455,21.455,0,0,1,39.441-3.787H38.3a5.06,5.06,0,0,0-4.891,3.787" transform="translate(565.066 801.879)"/>
  </g>
</svg>
