<svg xmlns="http://www.w3.org/2000/svg" width="36.247" height="36.17" viewBox="0 0 36.247 36.17">
  <path id="icon-evening" d="M13.887,0A1.5,1.5,0,0,1,15.34,1.874,15.392,15.392,0,0,0,34.348,20.562a1.5,1.5,0,0,1,1.852,1.82A18.4,18.4,0,0,1,1.446,24.938,18.4,18.4,0,0,1,13.488.054,1.5,1.5,0,0,1,13.887,0ZM30.244,24.12a18.337,18.337,0,0,1-13-5.387,18.338,18.338,0,0,1-5.386-13,18.557,18.557,0,0,1,.1-1.93A15.392,15.392,0,1,0,32.482,23.983,18.35,18.35,0,0,1,30.244,24.12Z" transform="translate(0 0)" fill="#fff"/>
</svg>
