<svg xmlns="http://www.w3.org/2000/svg" xmlns:xlink="http://www.w3.org/1999/xlink" width="302.159" height="51.279" viewBox="0 0 302.159 51.279">
  <defs>
    <clipPath id="clip-path">
      <rect id="Retângulo_16" data-name="Retângulo 16" width="302.159" height="51.279" fill="#fff"/>
    </clipPath>
  </defs>
  <g id="logo-c-fkelectric" clip-path="url(#clip-path)">
    <path id="Caminho_22" data-name="Caminho 22" d="M154.318,17.674l10.663-2-23.606,35.6,5.209-23.523-6.75,1.265,5.689-25.69,7.994-1.5L163.289,0ZM4.353,10.429A7.494,7.494,0,0,0,2.017,16.16H0v6.218H2.017v12.74H9.479V22.379h2.79V16.16H9.547a1.752,1.752,0,0,1,.605-1.093,2.149,2.149,0,0,1,1.277-.319q.235,0,.84.067V8.463Q11.193,8.4,10.723,8.4a9.215,9.215,0,0,0-6.37,2.033M26.892,26.211a3.086,3.086,0,0,1-.706,2.135,2.78,2.78,0,0,1-3.882,0,3.039,3.039,0,0,1-.723-2.135V16.16H14.152V27.152a8.915,8.915,0,0,0,1.832,5.916,6.282,6.282,0,0,0,5.093,2.185,6.862,6.862,0,0,0,3.479-.841,6.733,6.733,0,0,0,2.336-2.185v2.891h7.462V16.16H26.892Zm19.328-3.9a1.739,1.739,0,0,1,1.715,1.479h7.9a9.35,9.35,0,0,0-3.21-5.781,9.5,9.5,0,0,0-6.236-2.084A10.5,10.5,0,0,0,41.362,17.1a8.369,8.369,0,0,0-3.429,3.379,10.426,10.426,0,0,0-1.227,5.16,10.424,10.424,0,0,0,1.227,5.16,8.36,8.36,0,0,0,3.429,3.378,10.49,10.49,0,0,0,5.025,1.177,9.5,9.5,0,0,0,6.236-2.084,9.348,9.348,0,0,0,3.21-5.782h-7.9a1.739,1.739,0,0,1-1.715,1.479,1.6,1.6,0,0,1-1.428-.841,4.776,4.776,0,0,1-.521-2.487,4.778,4.778,0,0,1,.521-2.487,1.606,1.606,0,0,1,1.428-.841M79.061,16.16H70.388l-4.74,7.093V10.244H58.186V35.119h7.462V27.556l4.672,7.564h8.908l-7.261-9.412ZM80.91,35.119h7.462V16.16H80.91ZM87.767,8.311a4.448,4.448,0,0,0-3.093-1.059,4.5,4.5,0,0,0-3.126,1.059,3.44,3.44,0,0,0-1.177,2.672,3.352,3.352,0,0,0,1.177,2.622,4.54,4.54,0,0,0,3.126,1.042,4.491,4.491,0,0,0,3.093-1.042,3.353,3.353,0,0,0,1.177-2.622,3.442,3.442,0,0,0-1.177-2.672m17.244,7.715a6.873,6.873,0,0,0-3.479.84A6.745,6.745,0,0,0,99.2,19.051V16.16H91.733V35.119H99.2V25.068a3.086,3.086,0,0,1,.706-2.135,2.781,2.781,0,0,1,3.882,0,3.043,3.043,0,0,1,.723,2.135V35.119h7.429V24.127a8.92,8.92,0,0,0-1.832-5.916,6.286,6.286,0,0,0-5.093-2.185m22.219.134h7.429V34.783a11.751,11.751,0,0,1-.975,4.841,7.692,7.692,0,0,1-3.143,3.5,10.622,10.622,0,0,1-5.563,1.311,11.293,11.293,0,0,1-7.244-2.134,8.139,8.139,0,0,1-3.042-5.8h7.328q.3,1.479,2.42,1.479a2.938,2.938,0,0,0,2.05-.672,3.355,3.355,0,0,0,.74-2.521V32.531a5.127,5.127,0,0,1-2.05,2.067,6.412,6.412,0,0,1-3.193.756,7.176,7.176,0,0,1-4-1.159,7.826,7.826,0,0,1-2.807-3.362,12.2,12.2,0,0,1-1.025-5.193,12.2,12.2,0,0,1,1.025-5.193,7.826,7.826,0,0,1,2.807-3.361,7.172,7.172,0,0,1,4-1.16,6.412,6.412,0,0,1,3.193.756,5.128,5.128,0,0,1,2.05,2.068Zm0,9.479a3.349,3.349,0,0,0-.773-2.353,2.76,2.76,0,0,0-3.967,0,3.346,3.346,0,0,0-.773,2.353,3.345,3.345,0,0,0,.773,2.353,2.76,2.76,0,0,0,3.967,0,3.347,3.347,0,0,0,.773-2.353M187.282,20.4a10.076,10.076,0,0,1,1.227,5.076,10.446,10.446,0,0,1-.1,1.479h-12q.168,2.454,2.051,2.454a1.815,1.815,0,0,0,1.748-1.109h7.9a8.221,8.221,0,0,1-1.7,3.614,9.117,9.117,0,0,1-3.261,2.521,10.019,10.019,0,0,1-4.319.924,10.49,10.49,0,0,1-5.025-1.177,8.36,8.36,0,0,1-3.429-3.378,10.423,10.423,0,0,1-1.227-5.16,10.425,10.425,0,0,1,1.227-5.16A8.368,8.368,0,0,1,173.8,17.1a10.5,10.5,0,0,1,5.025-1.177,10.619,10.619,0,0,1,5.026,1.16,8.348,8.348,0,0,1,3.428,3.311m-6.336,3.294a1.727,1.727,0,0,0-.605-1.429,2.338,2.338,0,0,0-1.513-.487,2.106,2.106,0,0,0-2.319,1.916Zm9.916,11.429h7.462V10.244h-7.462ZM218.812,20.4a10.076,10.076,0,0,1,1.227,5.076,10.446,10.446,0,0,1-.1,1.479h-12q.168,2.454,2.05,2.454a1.815,1.815,0,0,0,1.748-1.109h7.9a8.216,8.216,0,0,1-1.7,3.614,9.118,9.118,0,0,1-3.261,2.521,10.019,10.019,0,0,1-4.319.924,10.491,10.491,0,0,1-5.025-1.177A8.36,8.36,0,0,1,201.9,30.8a10.424,10.424,0,0,1-1.227-5.16,10.426,10.426,0,0,1,1.227-5.16,8.369,8.369,0,0,1,3.429-3.379,10.5,10.5,0,0,1,5.025-1.177,10.619,10.619,0,0,1,5.025,1.16,8.349,8.349,0,0,1,3.429,3.311m-6.336,3.294a1.727,1.727,0,0,0-.605-1.429,2.337,2.337,0,0,0-1.513-.487,2.107,2.107,0,0,0-2.319,1.916ZM230.9,22.312a1.739,1.739,0,0,1,1.714,1.479h7.9a9.351,9.351,0,0,0-3.21-5.781,9.5,9.5,0,0,0-6.236-2.084A10.5,10.5,0,0,0,226.04,17.1a8.368,8.368,0,0,0-3.429,3.379,10.425,10.425,0,0,0-1.227,5.16,10.423,10.423,0,0,0,1.227,5.16,8.36,8.36,0,0,0,3.429,3.378,10.489,10.489,0,0,0,5.025,1.177A9.5,9.5,0,0,0,237.3,33.27a9.349,9.349,0,0,0,3.21-5.782h-7.9a1.738,1.738,0,0,1-1.714,1.479,1.6,1.6,0,0,1-1.428-.841,4.776,4.776,0,0,1-.521-2.487,4.778,4.778,0,0,1,.521-2.487,1.606,1.606,0,0,1,1.428-.841m20.925,6.152a1.29,1.29,0,0,1-.319-.975V22.379H254.6V16.16H251.5V11.589H244.04V16.16h-2.353v6.218h2.353v4.975q0,7.765,7.8,7.765h2.824V28.766h-1.782a1.514,1.514,0,0,1-1.059-.3m13.16-8.807v-3.5h-7.462V35.119h7.462V27.354a3.074,3.074,0,0,1,.992-2.622,5.233,5.233,0,0,1,3.109-.739H271.2V16.026a6.556,6.556,0,0,0-3.429.992,9.064,9.064,0,0,0-2.79,2.639M280.074,8.311a4.447,4.447,0,0,0-3.092-1.059,4.5,4.5,0,0,0-3.126,1.059,3.439,3.439,0,0,0-1.177,2.672,3.351,3.351,0,0,0,1.177,2.622,4.54,4.54,0,0,0,3.126,1.042,4.491,4.491,0,0,0,3.092-1.042,3.352,3.352,0,0,0,1.177-2.622,3.441,3.441,0,0,0-1.177-2.672m-6.857,26.808h7.462V16.16h-7.462Zm19.328-6.151a1.606,1.606,0,0,1-1.429-.841,4.779,4.779,0,0,1-.521-2.487,4.781,4.781,0,0,1,.521-2.487,1.607,1.607,0,0,1,1.429-.841,1.739,1.739,0,0,1,1.714,1.479h7.9a9.351,9.351,0,0,0-3.21-5.781,9.505,9.505,0,0,0-6.236-2.084,10.5,10.5,0,0,0-5.025,1.177,8.37,8.37,0,0,0-3.429,3.379,10.428,10.428,0,0,0-1.227,5.16,10.426,10.426,0,0,0,1.227,5.16,8.362,8.362,0,0,0,3.429,3.378,10.491,10.491,0,0,0,5.025,1.177,9.5,9.5,0,0,0,6.236-2.084,9.349,9.349,0,0,0,3.21-5.782h-7.9a1.738,1.738,0,0,1-1.714,1.479" fill="#fff"/>
  </g>
</svg>
